<svg width="511" height="566" viewBox="0 0 511 566" fill="none" xmlns="http://www.w3.org/2000/svg">
<path d="M74.0335 301.808C72.2901 301.759 70.6687 302.607 69.6971 304.047L23.4468 378.737C22.3813 380.32 22.3334 382.37 23.2853 384.019L125.719 561.235C126.595 562.752 128.187 563.68 129.93 563.728C130.87 563.757 131.795 563.531 132.587 563.074C133.247 562.693 133.811 562.147 134.266 561.489L181.407 488.545C182.472 486.962 182.52 484.912 181.568 483.263L78.2441 304.301C77.3873 302.817 75.7769 301.856 74.0335 301.808Z" fill="#EDF5F8"/>
<path fill-rule="evenodd" clip-rule="evenodd" d="M181.407 488.545C182.472 486.962 182.52 484.912 181.568 483.263L78.2441 304.301C77.3873 302.817 75.7769 301.856 74.0335 301.808C72.2901 301.759 70.6687 302.607 69.6971 304.047L23.4468 378.737C22.3813 380.32 22.3334 382.37 23.2853 384.019L125.719 561.235C126.595 562.752 128.187 563.68 129.93 563.728C130.87 563.757 131.795 563.531 132.587 563.074C133.247 562.693 133.811 562.147 134.266 561.489L181.407 488.545ZM132.605 560.374L179.727 487.459C179.734 487.449 179.741 487.438 179.748 487.428C180.376 486.494 180.415 485.267 179.836 484.263L76.512 305.301C76.0056 304.424 75.0327 303.836 73.9777 303.807C72.9406 303.778 71.9709 304.273 71.3744 305.138L25.1472 379.79C25.1338 379.812 25.12 379.833 25.1058 379.854C24.4775 380.788 24.4378 382.015 25.0169 383.018C25.017 383.018 25.0173 383.019 25.0174 383.019L127.451 560.234C127.972 561.137 128.922 561.7 129.986 561.729L129.991 561.729C130.575 561.747 131.13 561.606 131.587 561.342C131.95 561.132 132.298 560.812 132.605 560.374Z" fill="#28234A"/>
<path d="M68.9591 331.56C72.9356 325.537 68.0876 321.415 68.0876 321.415L38.4681 366.971C38.4681 366.971 42.9401 371.95 48.7382 362.934C54.5363 353.918 64.9825 337.583 68.9591 331.56Z" fill="white"/>
<path fill-rule="evenodd" clip-rule="evenodd" d="M68.7927 322.165C68.3956 321.677 68.0876 321.415 68.0876 321.415L38.4681 366.971C38.4681 366.971 42.9401 371.95 48.7382 362.934C50.1796 360.693 51.9082 357.999 53.7533 355.124C59.3303 346.434 65.9711 336.086 68.9591 331.56C71.9333 327.055 69.9709 323.614 68.7927 322.165ZM68.2158 323.052C68.5129 323.453 68.8357 323.976 69.0863 324.601C69.6886 326.103 69.9187 328.292 68.1246 331.009C65.1326 335.541 58.485 345.899 52.9072 354.591C51.0634 357.464 49.3365 360.155 47.8971 362.393C45.0961 366.749 42.8223 367.421 41.4927 367.336C40.7846 367.29 40.2063 367.028 39.7961 366.766C39.7957 366.765 39.7953 366.765 39.7949 366.765L68.2158 323.052ZM39.2071 366.297C39.2064 366.297 39.2067 366.297 39.2081 366.298L39.2071 366.297Z" fill="#28234A"/>
<path fill-rule="evenodd" clip-rule="evenodd" d="M33.3788 375.838L75.5065 310.919C77.0949 308.471 79.4348 308.308 80.7328 310.556L179.749 482.007C181.047 484.255 180.812 488.061 179.224 490.509L137.096 555.428C135.507 557.876 133.168 558.038 131.87 555.791L32.8529 384.339C31.5549 382.092 31.7904 378.285 33.3788 375.838ZM75.0364 310.105C76.9426 307.167 79.7505 306.972 81.308 309.669L180.325 481.121C181.882 483.818 181.6 488.385 179.694 491.323L137.566 556.242C135.66 559.179 132.852 559.374 131.294 556.677L32.2777 385.226C30.7201 382.529 31.0027 377.961 32.9088 375.024L75.0364 310.105Z" fill="#28234A"/>
<path d="M94.7466 309.084L53.3334 372.902L141.731 525.967L183.145 462.149L94.7466 309.084Z" fill="white"/>
<path fill-rule="evenodd" clip-rule="evenodd" d="M380.19 82.1626C376.386 87.0398 371.388 92.7121 366.361 98.418C357.093 108.938 347.724 119.572 345.552 125.546C341.63 136.33 323.494 148.012 300.415 161.492C266.594 181.246 230.744 204.59 211.374 217.204C205.786 220.842 201.57 223.588 199.169 225.097C197.681 226.032 126.711 269.841 97.604 273.824C90.7392 274.763 86.3146 273.868 83.7695 271.684L380.19 82.1626Z" fill="white"/>
<path d="M134.627 135.185L113.107 146.2L110.88 147.307L118.697 170.554L125.39 171.782C131.735 167.891 144.394 160.057 144.272 159.854C144.15 159.651 137.791 143.323 134.627 135.185Z" fill="#F8FBFC"/>
<path fill-rule="evenodd" clip-rule="evenodd" d="M135.065 134.033L135.397 134.885C136.979 138.954 139.36 145.071 141.36 150.195C142.36 152.757 143.265 155.07 143.927 156.756C144.259 157.599 144.529 158.284 144.72 158.764C144.815 159.004 144.891 159.192 144.943 159.321C144.97 159.386 144.99 159.434 145.003 159.466C145.007 159.474 145.009 159.481 145.012 159.486C145.127 159.716 145.104 159.935 145.076 160.052C145.046 160.176 144.995 160.264 144.97 160.305C144.917 160.39 144.859 160.45 144.835 160.474C144.778 160.532 144.713 160.586 144.663 160.625C144.554 160.712 144.404 160.82 144.227 160.943C143.869 161.192 143.351 161.536 142.715 161.949C141.44 162.776 139.667 163.899 137.694 165.135C133.749 167.607 128.995 170.54 125.822 172.486L125.552 172.652L118.069 171.279L109.868 146.887L112.735 145.462L135.065 134.033ZM134.189 136.337L113.474 146.939L111.892 147.726L119.325 169.83L125.228 170.913C128.394 168.97 132.988 166.134 136.817 163.735C138.788 162.5 140.552 161.383 141.816 160.563C142.441 160.157 142.937 159.828 143.273 159.595C143.246 159.527 143.216 159.453 143.185 159.375C142.993 158.891 142.721 158.204 142.39 157.36C141.727 155.673 140.821 153.358 139.821 150.795C137.956 146.017 135.76 140.376 134.189 136.337ZM143.564 160.279C143.549 160.254 143.536 160.229 143.524 160.204C143.536 160.229 143.55 160.255 143.564 160.279Z" fill="#28234A"/>
<path d="M125.215 155.581C129.091 162.43 128.744 169.957 124.44 172.393C120.135 174.829 113.504 171.252 109.628 164.403C105.752 157.555 106.099 150.028 110.403 147.592C114.707 145.156 121.339 148.733 125.215 155.581Z" fill="#F8FBFC"/>
<path fill-rule="evenodd" clip-rule="evenodd" d="M107.773 154.381C107.641 157.245 108.473 160.686 110.347 163.997C112.22 167.307 114.742 169.792 117.265 171.153C119.8 172.52 122.216 172.702 124.033 171.674C125.85 170.646 126.937 168.481 127.07 165.604C127.202 162.74 126.37 159.299 124.496 155.988C122.623 152.678 120.101 150.193 117.577 148.832C115.043 147.465 112.627 147.282 110.81 148.311C108.993 149.339 107.905 151.504 107.773 154.381ZM106.123 154.305C106.271 151.098 107.509 148.281 109.996 146.873C112.484 145.465 115.536 145.854 118.362 147.378C121.199 148.908 123.931 151.636 125.934 155.175C127.936 158.713 128.869 162.459 128.72 165.68C128.572 168.887 127.334 171.704 124.847 173.112C122.359 174.519 119.307 174.131 116.481 172.607C113.644 171.076 110.912 168.348 108.909 164.81C106.907 161.272 105.974 157.525 106.123 154.305Z" fill="#28234A"/>
<path d="M129.799 119.704L149.087 178.787L161.471 181.833L203.296 150.769L153.349 98.7921L120.929 47.2656C119.985 45.7658 118.026 45.2776 116.489 46.1593L110.853 49.3916C107.72 51.1886 106.332 54.9775 107.563 58.373L129.799 119.704Z" fill="#F8FBFC"/>
<path fill-rule="evenodd" clip-rule="evenodd" d="M120.229 47.7055C119.522 46.5806 118.052 46.2145 116.899 46.8757L111.264 50.108C108.479 51.7053 107.245 55.0733 108.34 58.0915L130.58 119.435L149.73 178.095L161.29 180.938L202.051 150.665L152.695 99.3034L120.229 47.7055ZM116.078 45.4428C117.999 44.3408 120.448 44.951 121.627 46.8258L154.003 98.2807L204.541 150.873L161.651 182.728L148.444 179.48L129.018 119.973L106.787 58.6545C105.419 54.8818 106.961 50.6718 110.442 48.6752L116.078 45.4428Z" fill="#28234A"/>
<path fill-rule="evenodd" clip-rule="evenodd" d="M317.524 43.9561C316.89 42.6377 315.257 42.1529 314.006 42.9115L312.375 43.9009C309.701 45.5222 308.172 48.5146 308.425 51.6313L311.754 92.6407L338.621 87.8161L317.524 43.9561ZM313.15 41.4991C315.235 40.2348 317.956 41.0427 319.012 43.2401L341.052 89.0579L310.255 94.5882L306.779 51.765C306.475 48.0249 308.31 44.4341 311.518 42.4884L313.15 41.4991Z" fill="#28234A"/>
<path d="M140.117 186.594L319.126 84.9788C330.157 79.023 354.099 68.032 363.792 63.6598C372.599 59.6873 378.057 68.6654 373.997 74.9292C366.146 87.9235 338.929 113.746 335.031 124.466C331.132 135.186 313.103 146.8 290.16 160.2C246.84 185.502 200.173 216.729 189.512 223.43C188.033 224.359 117.482 267.91 88.546 271.869C53.6266 276.647 86.845 226.1 99.6453 215.53C105.396 210.781 127.394 195.325 140.117 186.594Z" fill="#F8FBFC"/>
<path fill-rule="evenodd" clip-rule="evenodd" d="M375.047 75.5866C377.358 72.0069 376.969 67.6317 374.7 64.6979C372.363 61.6771 368.166 60.3281 363.283 62.5305C353.6 66.8982 329.615 77.9078 318.537 83.8886L318.526 83.8949L139.46 185.543L139.416 185.573C126.713 194.29 104.66 209.782 98.8565 214.575C95.5333 217.319 90.9835 222.562 86.5904 228.747C82.1866 234.947 77.8723 242.189 75.0565 248.981C73.6486 252.376 72.6007 255.693 72.1142 258.734C71.6295 261.763 71.6864 264.611 72.5895 267.005C73.5121 269.451 75.2869 271.334 78.0196 272.407C80.7011 273.459 84.2382 273.709 88.714 273.097C96.1274 272.082 106.094 268.558 116.815 263.897C127.565 259.224 139.175 253.363 149.911 247.605C171.382 236.089 189.415 224.954 190.171 224.479C192.574 222.968 196.783 220.227 202.356 216.599C221.625 204.051 257.198 180.887 290.785 161.27C302.257 154.569 312.556 148.284 320.482 142.318C328.358 136.389 334.111 130.619 336.195 124.889C337.095 122.414 339.411 118.928 342.637 114.792C345.834 110.693 349.825 106.078 353.962 101.368C354.855 100.351 355.756 99.3288 356.657 98.3059C364.046 89.921 371.478 81.4858 375.047 75.5866ZM372.74 66.2139C371.161 64.1728 368.226 63.0191 364.302 64.7891C354.602 69.1643 330.716 80.1304 319.726 86.0626L140.775 187.646C128.025 196.395 106.126 211.785 100.434 216.485C97.3573 219.026 92.9547 224.065 88.6105 230.182C84.277 236.283 80.0691 243.36 77.3452 249.93C75.9833 253.214 75.0069 256.338 74.5608 259.126C74.1127 261.925 74.2146 264.293 74.9078 266.131C75.5815 267.917 76.8405 269.282 78.925 270.1C81.0606 270.939 84.124 271.224 88.3781 270.642C95.4325 269.676 105.135 266.273 115.827 261.625C126.49 256.989 138.035 251.163 148.74 245.421C170.148 233.939 188.13 222.835 188.853 222.381C191.223 220.891 195.397 218.173 200.933 214.568C220.176 202.037 255.879 178.788 289.535 159.13C301.007 152.43 311.193 146.209 318.992 140.338C326.841 134.43 332.052 129.033 333.866 124.042C334.916 121.158 337.464 117.395 340.683 113.269C343.93 109.105 347.965 104.442 352.101 99.7328C352.991 98.7191 353.885 97.7042 354.777 96.6922C362.224 88.2383 369.497 79.9821 372.936 74.2886L372.947 74.2718L372.957 74.2553C374.695 71.5742 374.383 68.3375 372.74 66.2139Z" fill="#28234A"/>
<path d="M259.736 232.701L238.215 243.716L233.951 249.351L243.443 266.507L250.498 269.299C256.843 265.407 294.193 239.698 294.071 239.495C293.95 239.292 262.9 240.84 259.736 232.701Z" fill="#F8FBFC"/>
<path fill-rule="evenodd" clip-rule="evenodd" d="M260.174 231.549L260.506 232.402C260.815 233.199 261.494 233.944 262.56 234.626C263.623 235.306 265.017 235.887 266.655 236.376C269.93 237.354 274.045 237.924 278.111 238.251C282.168 238.576 286.136 238.656 289.103 238.666C290.45 238.671 291.588 238.661 292.436 238.654C292.522 238.654 292.605 238.653 292.684 238.652C293.116 238.649 293.464 238.647 293.707 238.648C293.827 238.649 293.933 238.651 294.015 238.656C294.053 238.658 294.105 238.661 294.159 238.669C294.182 238.672 294.234 238.68 294.296 238.698C294.325 238.706 294.384 238.725 294.451 238.76C294.501 238.786 294.663 238.875 294.78 239.07C294.997 239.431 294.854 239.769 294.832 239.82C294.791 239.916 294.741 239.983 294.723 240.007C294.68 240.063 294.638 240.104 294.621 240.119C294.58 240.159 294.534 240.197 294.496 240.228C294.415 240.294 294.303 240.38 294.166 240.482C293.891 240.688 293.487 240.98 292.975 241.346C291.949 242.079 290.472 243.117 288.679 244.367C285.094 246.869 280.236 250.224 275.177 253.695C265.071 260.627 254.125 268.043 250.93 270.003L250.578 270.219L242.864 267.166L232.968 249.28L237.671 243.067L260.174 231.549ZM238.76 244.366L234.934 249.421L244.022 265.848L250.416 268.378C253.96 266.159 264.463 259.041 274.243 252.332C279.299 248.864 284.153 245.511 287.734 243.013C289.284 241.932 290.593 241.012 291.578 240.313C290.871 240.318 290.034 240.321 289.097 240.318C286.109 240.307 282.095 240.227 277.979 239.897C273.871 239.568 269.622 238.986 266.182 237.959C264.462 237.446 262.91 236.811 261.67 236.017C260.716 235.407 259.913 234.681 259.374 233.814L238.76 244.366Z" fill="#28234A"/>
<path d="M251.495 252.441C255.393 259.327 255.114 266.856 250.872 269.257C246.63 271.658 240.031 268.022 236.134 261.135C232.236 254.248 232.515 246.719 236.757 244.319C240.999 241.918 247.597 245.554 251.495 252.441Z" fill="#F8FBFC"/>
<path fill-rule="evenodd" clip-rule="evenodd" d="M234.218 251.075C234.112 253.942 234.967 257.396 236.852 260.728C238.738 264.06 241.26 266.571 243.772 267.955C246.299 269.348 248.686 269.545 250.465 268.538C252.244 267.532 253.304 265.383 253.411 262.5C253.517 259.633 252.662 256.18 250.776 252.847C248.891 249.515 246.369 247.005 243.857 245.62C241.33 244.228 238.943 244.031 237.164 245.037C235.385 246.044 234.325 248.193 234.218 251.075ZM232.568 251.014C232.686 247.81 233.887 244.994 236.35 243.6C238.814 242.206 241.846 242.626 244.654 244.173C247.475 245.728 250.202 248.479 252.214 252.034C254.226 255.588 255.181 259.342 255.061 262.562C254.942 265.765 253.742 268.582 251.279 269.976C248.815 271.37 245.783 270.95 242.975 269.402C240.153 267.847 237.427 265.096 235.415 261.542C233.403 257.987 232.448 254.233 232.568 251.014Z" fill="#28234A"/>
<path d="M188.982 223.658C185.734 221.222 185.631 217.771 190.607 214.319L248.267 178.179H251.313L332.732 208.837L437.354 236.888C440.16 237.64 440.698 241.388 438.217 242.9L432.456 246.409C425.972 250.358 418.392 252.126 410.83 251.452L340.447 245.18C298.148 241.255 212.494 233.363 208.271 233.201C202.992 232.998 192.231 226.095 188.982 223.658Z" fill="#F8FBFC"/>
<path fill-rule="evenodd" clip-rule="evenodd" d="M248.03 177.353H251.463L332.985 208.05L437.568 236.09C441.076 237.03 441.748 241.716 438.646 243.605L432.886 247.114C426.251 251.155 418.495 252.964 410.757 252.274L340.374 246.003L340.371 246.002C298.046 242.075 212.433 234.187 208.24 234.026C206.778 233.97 205.012 233.459 203.183 232.735C201.339 232.004 199.365 231.029 197.469 229.992C193.68 227.918 190.144 225.562 188.487 224.319C186.726 222.998 185.653 221.268 185.891 219.272C186.122 217.327 187.571 215.42 190.136 213.64L190.152 213.629L248.03 177.353ZM248.505 179.005L191.062 215.008C188.664 216.676 187.68 218.217 187.531 219.467C187.388 220.668 187.99 221.882 189.478 222.998C191.069 224.191 194.539 226.505 198.262 228.543C200.123 229.561 202.032 230.502 203.791 231.199C205.567 231.902 207.125 232.33 208.303 232.376C212.556 232.539 298.251 240.435 340.523 244.358L410.903 250.629C418.29 251.287 425.693 249.561 432.027 245.703L437.787 242.195C439.648 241.061 439.245 238.25 437.14 237.685L332.479 209.624L251.163 179.005H248.505Z" fill="#28234A"/>
<path d="M339.501 111.989L405.918 113.586C406.665 113.604 407.413 113.569 408.156 113.48L409.527 113.316C412.351 112.979 415.03 111.881 417.278 110.14L421.235 107.073C422.842 105.829 422.35 103.286 420.395 102.731L367.293 87.6465C364.773 86.9307 362.063 87.4527 359.99 89.0532L336.588 107.116L336.397 107.805C335.823 109.878 337.351 111.937 339.501 111.989Z" fill="#F8FBFC"/>
<path fill-rule="evenodd" clip-rule="evenodd" d="M367.067 88.441C364.8 87.7968 362.361 88.2665 360.495 89.707L337.31 107.602L337.193 108.026C336.763 109.58 337.909 111.125 339.521 111.163L405.938 112.761C406.646 112.778 407.355 112.744 408.058 112.66L409.429 112.496C412.104 112.177 414.642 111.137 416.772 109.487L420.73 106.42C421.801 105.591 421.473 103.896 420.17 103.526L367.067 88.441ZM359.485 88.3994C361.766 86.6388 364.747 86.0647 367.519 86.852L420.621 101.937C423.227 102.677 423.883 106.067 421.742 107.726L417.784 110.792C415.417 112.626 412.598 113.782 409.625 114.136L408.254 114.3C407.472 114.394 406.685 114.431 405.898 114.412L339.482 112.815C336.794 112.75 334.884 110.176 335.601 107.585L335.865 106.63L359.485 88.3994Z" fill="#28234A"/>
<path d="M343.622 17.3861L319.072 93.3535C318.614 94.7704 320.118 96.0222 321.428 95.3153L355.101 77.1522C357.549 75.8318 359.168 73.3681 359.408 70.5972L365.203 3.82338C365.378 1.81051 363.199 0.44605 361.465 1.4817L351.598 7.37205C347.812 9.63191 344.978 13.191 343.622 17.3861Z" fill="#F8FBFC"/>
<path fill-rule="evenodd" clip-rule="evenodd" d="M364.38 3.75198C364.497 2.41007 363.044 1.50043 361.888 2.19086L352.021 8.08121C348.407 10.2383 345.702 13.6357 344.408 17.6401L319.858 93.6075C319.629 94.3159 320.381 94.9418 321.036 94.5884L354.709 76.4253C356.912 75.237 358.369 73.0196 358.585 70.5258L364.38 3.75198ZM361.041 0.772551C363.354 -0.608315 366.259 1.21097 366.026 3.89479L360.231 70.6686C359.966 73.7166 358.186 76.4267 355.493 77.8791L321.82 96.0422C319.854 97.1025 317.599 95.2249 318.286 93.0995L342.836 17.1322C344.253 12.7464 347.217 9.02548 351.174 6.6629L361.041 0.772551Z" fill="#28234A"/>
<path d="M346.097 34.7725L329.386 86.4819C328.928 87.8988 330.432 89.1505 331.742 88.4436L353.842 76.5231C356.29 75.2028 357.909 72.739 358.149 69.9681L362.091 24.5451C362.266 22.5322 360.087 21.1677 358.353 22.2034L354.073 24.7585C350.287 27.0183 347.452 30.5774 346.097 34.7725Z" fill="white"/>
<path fill-rule="evenodd" clip-rule="evenodd" d="M125.238 230.645C125.634 231.203 125.504 231.977 124.946 232.373C120.277 235.693 113.328 239.343 106.397 241.987C102.927 243.311 99.4345 244.393 96.2114 245.054C93.0051 245.712 89.985 245.969 87.4924 245.582C83.6602 244.985 81.5289 243.489 80.9114 241.387C80.3301 239.409 81.2919 237.499 82.1853 236.484C82.6373 235.97 83.4201 235.92 83.9337 236.372C84.4474 236.824 84.4974 237.607 84.0454 238.121C83.45 238.797 83.0412 239.847 83.2886 240.689C83.4999 241.408 84.3966 242.592 87.8733 243.133C89.9488 243.456 92.6389 243.257 95.7137 242.627C98.7718 242 102.132 240.963 105.514 239.672C112.287 237.089 119.042 233.531 123.51 230.354C124.068 229.957 124.841 230.088 125.238 230.645Z" fill="#28234A"/>
<path fill-rule="evenodd" clip-rule="evenodd" d="M309.472 121.163C309.827 121.747 309.641 122.509 309.056 122.865L308.697 123.083C308.112 123.438 307.35 123.252 306.995 122.667C306.64 122.083 306.826 121.321 307.411 120.965L307.77 120.747C308.355 120.392 309.117 120.578 309.472 121.163ZM304.084 124.436C304.44 125.021 304.254 125.783 303.669 126.138L302.95 126.574C302.366 126.929 301.604 126.743 301.248 126.159C300.893 125.574 301.079 124.812 301.664 124.457L302.382 124.02C302.967 123.665 303.729 123.851 304.084 124.436ZM298.338 127.927C298.693 128.512 298.507 129.274 297.922 129.629L297.204 130.066C296.619 130.421 295.857 130.235 295.502 129.65C295.147 129.065 295.333 128.303 295.917 127.948L296.636 127.512C297.22 127.156 297.982 127.342 298.338 127.927ZM292.591 131.419C292.946 132.003 292.76 132.765 292.175 133.121L291.457 133.557C290.872 133.912 290.11 133.726 289.755 133.142C289.4 132.557 289.586 131.795 290.171 131.44L290.889 131.003C291.474 130.648 292.236 130.834 292.591 131.419ZM286.844 134.91C287.2 135.495 287.014 136.257 286.429 136.612L285.71 137.048C285.126 137.404 284.364 137.218 284.008 136.633C283.653 136.048 283.839 135.286 284.424 134.931L285.142 134.495C285.727 134.139 286.489 134.325 286.844 134.91ZM281.098 138.401C281.453 138.986 281.267 139.748 280.682 140.103L279.964 140.54C279.379 140.895 278.617 140.709 278.262 140.124C277.906 139.54 278.092 138.778 278.677 138.422L279.396 137.986C279.98 137.631 280.742 137.817 281.098 138.401ZM275.351 141.893C275.706 142.478 275.52 143.24 274.935 143.595L274.217 144.031C273.632 144.387 272.87 144.201 272.515 143.616C272.16 143.031 272.346 142.269 272.931 141.914L273.649 141.477C274.234 141.122 274.996 141.308 275.351 141.893ZM269.604 145.384C269.959 145.969 269.773 146.731 269.189 147.086L268.47 147.523C267.886 147.878 267.124 147.692 266.768 147.107C266.413 146.522 266.599 145.76 267.184 145.405L267.902 144.969C268.487 144.614 269.249 144.8 269.604 145.384ZM263.858 148.876C264.213 149.46 264.027 150.222 263.442 150.578L262.724 151.014C262.139 151.369 261.377 151.183 261.022 150.599C260.666 150.014 260.852 149.252 261.437 148.897L262.155 148.46C262.74 148.105 263.502 148.291 263.858 148.876ZM258.111 152.367C258.466 152.952 258.28 153.714 257.695 154.069L256.977 154.506C256.392 154.861 255.63 154.675 255.275 154.09C254.92 153.505 255.106 152.743 255.69 152.388L256.409 151.952C256.994 151.596 257.756 151.782 258.111 152.367ZM252.364 155.859C252.719 156.443 252.533 157.205 251.949 157.561L251.23 157.997C250.646 158.352 249.884 158.166 249.528 157.582C249.173 156.997 249.359 156.235 249.944 155.879L250.662 155.443C251.247 155.088 252.009 155.274 252.364 155.859ZM246.617 159.35C246.973 159.935 246.787 160.697 246.202 161.052L245.484 161.488C244.899 161.844 244.137 161.658 243.782 161.073C243.426 160.488 243.612 159.726 244.197 159.371L244.915 158.934C245.5 158.579 246.262 158.765 246.617 159.35ZM240.871 162.841C241.226 163.426 241.04 164.188 240.455 164.543L239.737 164.98C239.152 165.335 238.39 165.149 238.035 164.564C237.68 163.98 237.866 163.218 238.45 162.862L239.169 162.426C239.753 162.071 240.515 162.257 240.871 162.841ZM235.124 166.333C235.479 166.918 235.293 167.68 234.709 168.035L233.99 168.471C233.405 168.827 232.643 168.641 232.288 168.056C231.933 167.471 232.119 166.709 232.704 166.354L233.422 165.917C234.007 165.562 234.769 165.748 235.124 166.333ZM229.377 169.824C229.733 170.409 229.547 171.171 228.962 171.526L228.244 171.963C227.659 172.318 226.897 172.132 226.541 171.547C226.186 170.962 226.372 170.2 226.957 169.845L227.675 169.409C228.26 169.053 229.022 169.239 229.377 169.824ZM223.631 173.316C223.986 173.9 223.8 174.662 223.215 175.018L222.497 175.454C221.912 175.809 221.15 175.623 220.795 175.039C220.44 174.454 220.626 173.692 221.21 173.337L221.929 172.9C222.513 172.545 223.275 172.731 223.631 173.316ZM217.884 176.807C218.239 177.392 218.053 178.154 217.468 178.509L216.75 178.946C216.165 179.301 215.403 179.115 215.048 178.53C214.693 177.945 214.879 177.183 215.464 176.828L216.182 176.392C216.767 176.036 217.529 176.222 217.884 176.807ZM212.137 180.299C212.493 180.883 212.307 181.645 211.722 182.001L211.003 182.437C210.419 182.792 209.657 182.606 209.301 182.021C208.946 181.437 209.132 180.675 209.717 180.319L210.435 179.883C211.02 179.528 211.782 179.714 212.137 180.299ZM206.391 183.79C206.746 184.375 206.56 185.137 205.975 185.492L205.257 185.928C204.672 186.284 203.91 186.098 203.555 185.513C203.199 184.928 203.385 184.166 203.97 183.811L204.689 183.374C205.273 183.019 206.035 183.205 206.391 183.79ZM200.644 187.281C200.999 187.866 200.813 188.628 200.228 188.983L199.51 189.42C198.925 189.775 198.163 189.589 197.808 189.004C197.453 188.42 197.639 187.658 198.224 187.302L198.942 186.866C199.527 186.511 200.289 186.697 200.644 187.281ZM194.897 190.773C195.252 191.358 195.066 192.12 194.482 192.475L193.763 192.911C193.179 193.266 192.417 193.08 192.061 192.496C191.706 191.911 191.892 191.149 192.477 190.794L193.195 190.357C193.78 190.002 194.542 190.188 194.897 190.773ZM189.151 194.264C189.506 194.849 189.32 195.611 188.735 195.966L188.017 196.403C187.432 196.758 186.67 196.572 186.315 195.987C185.959 195.402 186.145 194.64 186.73 194.285L187.448 193.849C188.033 193.493 188.795 193.679 189.151 194.264ZM183.404 197.756C183.759 198.34 183.573 199.102 182.988 199.458L182.27 199.894C181.685 200.249 180.923 200.063 180.568 199.479C180.213 198.894 180.399 198.132 180.983 197.777L181.702 197.34C182.287 196.985 183.049 197.171 183.404 197.756ZM177.657 201.247C178.012 201.832 177.826 202.594 177.242 202.949L176.523 203.385C175.939 203.741 175.177 203.555 174.821 202.97C174.466 202.385 174.652 201.623 175.237 201.268L175.955 200.832C176.54 200.476 177.302 200.662 177.657 201.247ZM171.91 204.738C172.266 205.323 172.08 206.085 171.495 206.44L170.777 206.877C170.192 207.232 169.43 207.046 169.075 206.461C168.719 205.877 168.905 205.115 169.49 204.759L170.208 204.323C170.793 203.968 171.555 204.154 171.91 204.738ZM166.164 208.23C166.519 208.815 166.333 209.577 165.748 209.932L165.03 210.368C164.445 210.724 163.683 210.538 163.328 209.953C162.973 209.368 163.159 208.606 163.743 208.251L164.462 207.814C165.046 207.459 165.808 207.645 166.164 208.23ZM160.417 211.721C160.772 212.306 160.586 213.068 160.002 213.423L159.642 213.642C159.058 213.997 158.296 213.811 157.94 213.226C157.585 212.641 157.771 211.879 158.356 211.524L158.715 211.306C159.3 210.951 160.062 211.137 160.417 211.721Z" fill="black"/>
<path fill-rule="evenodd" clip-rule="evenodd" d="M226.921 65.9224C221.844 63.4021 216.799 63.3727 211.914 66.1213C211.557 66.3225 210.958 66.0443 210.576 65.5C210.195 64.9557 210.176 64.3513 210.533 64.1501C215.652 61.27 221.164 61.1845 226.922 64.0426C232.668 66.8948 238.446 72.574 244.106 80.7803C244.483 81.327 244.496 81.9281 244.133 82.1228C243.771 82.3176 243.172 82.0323 242.795 81.4856C237.344 73.5824 232.011 68.4486 226.921 65.9224Z" fill="#28234A"/>
<path fill-rule="evenodd" clip-rule="evenodd" d="M226.722 54.5655C219.034 50.7491 211.44 50.7753 204.14 54.9733C203.785 55.1777 203.186 54.903 202.802 54.3598C202.419 53.8167 202.396 53.2107 202.752 53.0064C210.283 48.6757 218.345 48.5273 226.722 52.6857C235.087 56.8381 243.549 65.1773 251.89 77.363C252.265 77.9108 252.274 78.5102 251.91 78.7018C251.545 78.8934 250.946 78.6046 250.571 78.0569C242.437 66.1732 234.422 58.388 226.722 54.5655Z" fill="#28234A"/>
<path fill-rule="evenodd" clip-rule="evenodd" d="M226.579 43.9017C217.02 39.1565 207.606 39.1646 198.582 44.2726C198.225 44.4746 197.626 44.1974 197.244 43.6534C196.862 43.1094 196.842 42.5046 197.199 42.3026C206.456 37.0627 216.337 36.9377 226.58 42.022C236.81 47.1002 247.187 57.2701 257.445 72.1729C257.821 72.7199 257.832 73.3205 257.47 73.5144C257.107 73.7083 256.508 73.422 256.131 72.8751C246.082 58.2751 236.151 48.6529 226.579 43.9017Z" fill="#28234A"/>
<path fill-rule="evenodd" clip-rule="evenodd" d="M227.334 91.7786C229.969 93.0867 232.665 91.748 232.665 87.6971C232.666 83.6462 229.971 79.632 227.336 78.3238C224.701 77.0157 222.005 78.3544 222.005 82.4053C222.004 86.4562 224.699 90.4704 227.334 91.7786ZM227.334 93.6583C231.323 95.6386 234.558 93.3904 234.558 88.6368C234.559 83.8832 231.325 78.4244 227.336 76.4441C223.347 74.4638 220.112 76.712 220.112 81.4656C220.111 86.2192 223.345 91.678 227.334 93.6583Z" fill="#28234A"/>
<path fill-rule="evenodd" clip-rule="evenodd" d="M250.295 40.6022C251.189 41.2504 251.388 42.5009 250.74 43.3953L211.24 97.8953C210.592 98.7896 209.342 98.9892 208.447 98.341C207.553 97.6928 207.353 96.4423 208.001 95.5479L247.501 41.0479C248.15 40.1535 249.4 39.954 250.295 40.6022Z" fill="white"/>
<path d="M509.645 509.799L481.296 523.974L273.842 420.383L302.191 406.208L509.645 509.799Z" fill="#EDF5F8"/>
<path fill-rule="evenodd" clip-rule="evenodd" d="M302.638 405.314C302.356 405.173 302.025 405.173 301.744 405.314L273.395 419.488C273.056 419.658 272.842 420.004 272.842 420.383C272.842 420.762 273.056 421.108 273.395 421.278L480.849 524.868C481.13 525.009 481.462 525.009 481.743 524.868L510.092 510.693C510.431 510.524 510.645 510.178 510.645 509.799C510.644 509.42 510.43 509.074 510.091 508.904L302.638 405.314ZM507.407 509.8L481.295 522.856L276.079 420.382L302.191 407.326L507.407 509.8Z" fill="#32335A"/>
<path d="M299.697 402.812L317.723 411.825L335.446 402.774L317.42 393.761L299.697 402.812Z" fill="#F8FBFC"/>
<path fill-rule="evenodd" clip-rule="evenodd" d="M317.193 393.316C317.334 393.244 317.502 393.243 317.644 393.314L335.67 402.327C335.839 402.411 335.945 402.584 335.946 402.772C335.947 402.961 335.842 403.134 335.674 403.22L317.951 412.271C317.809 412.343 317.642 412.344 317.5 412.273L299.474 403.26C299.305 403.175 299.198 403.003 299.197 402.814C299.196 402.626 299.302 402.453 299.47 402.367L317.193 393.316ZM317.422 394.321L300.806 402.808L317.721 411.265L334.338 402.779L317.422 394.321Z" fill="#3A375B"/>
<path d="M299.695 421.592L317.536 430.512V411.745L299.695 402.825V421.592Z" fill="#F8FBFC"/>
<path fill-rule="evenodd" clip-rule="evenodd" d="M299.432 402.4C299.58 402.309 299.764 402.301 299.919 402.378L317.759 411.298C317.929 411.383 318.036 411.556 318.036 411.745V430.512C318.036 430.686 317.946 430.847 317.798 430.938C317.651 431.029 317.467 431.037 317.312 430.96L299.472 422.039C299.302 421.955 299.195 421.782 299.195 421.592V402.825C299.195 402.652 299.285 402.491 299.432 402.4ZM300.195 403.634V421.283L317.036 429.703V412.054L300.195 403.634Z" fill="#3A375B"/>
<path d="M317.535 430.412L335.49 421.434L335.49 402.825L317.535 411.803L317.535 430.412Z" fill="#F8FBFC"/>
<path fill-rule="evenodd" clip-rule="evenodd" d="M335.753 402.4C335.901 402.491 335.99 402.652 335.99 402.825L335.99 421.434C335.99 421.623 335.883 421.797 335.714 421.881L317.759 430.859C317.604 430.936 317.42 430.928 317.272 430.837C317.125 430.746 317.035 430.585 317.035 430.412L317.035 411.803C317.035 411.614 317.142 411.44 317.312 411.356L335.267 402.378C335.422 402.301 335.606 402.309 335.753 402.4ZM318.035 412.112L318.035 429.603L334.99 421.125L334.99 403.634L318.035 412.112Z" fill="#3A375B"/>
<path d="M326.516 415.842L344.542 424.855L362.265 415.804L344.238 406.79L326.516 415.842Z" fill="#F8FBFC"/>
<path fill-rule="evenodd" clip-rule="evenodd" d="M344.011 406.345C344.152 406.273 344.32 406.272 344.462 406.343L362.488 415.356C362.657 415.441 362.764 415.613 362.765 415.801C362.765 415.99 362.66 416.163 362.492 416.249L344.769 425.3C344.628 425.372 344.46 425.373 344.318 425.302L326.292 416.289C326.123 416.204 326.016 416.032 326.016 415.844C326.015 415.655 326.12 415.482 326.288 415.396L344.011 406.345ZM344.241 407.351L327.624 415.837L344.539 424.294L361.156 415.808L344.241 407.351Z" fill="#3A375B"/>
<path d="M326.514 434.621L344.354 443.542V424.775L326.514 415.855V434.621Z" fill="#F8FBFC"/>
<path fill-rule="evenodd" clip-rule="evenodd" d="M326.251 415.429C326.398 415.338 326.582 415.33 326.737 415.407L344.578 424.328C344.747 424.412 344.854 424.585 344.854 424.775V443.542C344.854 443.715 344.764 443.876 344.617 443.967C344.469 444.058 344.285 444.066 344.13 443.989L326.29 435.069C326.121 434.984 326.014 434.811 326.014 434.621V415.855C326.014 415.681 326.103 415.52 326.251 415.429ZM327.014 416.664V434.312L343.854 442.733V425.084L327.014 416.664Z" fill="#3A375B"/>
<path d="M344.354 443.441L362.309 434.463L362.309 415.855L344.354 424.832L344.354 443.441Z" fill="#F8FBFC"/>
<path fill-rule="evenodd" clip-rule="evenodd" d="M362.572 415.429C362.719 415.52 362.809 415.681 362.809 415.855L362.809 434.463C362.809 434.653 362.702 434.826 362.532 434.911L344.577 443.888C344.422 443.966 344.238 443.957 344.091 443.866C343.943 443.775 343.854 443.614 343.854 443.441L343.854 424.832C343.854 424.643 343.961 424.47 344.13 424.385L362.085 415.407C362.24 415.33 362.424 415.338 362.572 415.429ZM344.854 425.141L344.854 442.632L361.809 434.154L361.809 416.664L344.854 425.141Z" fill="#3A375B"/>
<path d="M353.334 428.871L371.36 437.884L389.083 428.833L371.057 419.82L353.334 428.871Z" fill="#F8FBFC"/>
<path fill-rule="evenodd" clip-rule="evenodd" d="M370.829 419.374C370.971 419.302 371.138 419.302 371.28 419.373L389.307 428.386C389.475 428.47 389.582 428.642 389.583 428.831C389.584 429.019 389.478 429.192 389.31 429.278L371.588 438.329C371.446 438.401 371.279 438.402 371.137 438.331L353.11 429.318C352.942 429.234 352.835 429.062 352.834 428.873C352.833 428.684 352.939 428.511 353.107 428.426L370.829 419.374ZM371.059 420.38L354.443 428.866L371.358 437.324L387.974 428.838L371.059 420.38Z" fill="#3A375B"/>
<path d="M353.332 447.651L371.172 456.571V437.804L353.332 428.884V447.651Z" fill="#F8FBFC"/>
<path fill-rule="evenodd" clip-rule="evenodd" d="M353.069 428.459C353.217 428.367 353.401 428.359 353.556 428.437L371.396 437.357C371.565 437.442 371.672 437.615 371.672 437.804V456.571C371.672 456.744 371.583 456.905 371.435 456.996C371.288 457.087 371.104 457.096 370.949 457.018L353.108 448.098C352.939 448.013 352.832 447.84 352.832 447.651V428.884C352.832 428.711 352.922 428.55 353.069 428.459ZM353.832 429.693V447.342L370.672 455.762V438.113L353.832 429.693Z" fill="#3A375B"/>
<path d="M371.172 456.47L389.127 447.493L389.127 428.884L371.172 437.862L371.172 456.47Z" fill="#F8FBFC"/>
<path fill-rule="evenodd" clip-rule="evenodd" d="M389.39 428.459C389.537 428.55 389.627 428.711 389.627 428.884L389.627 447.493C389.627 447.682 389.52 447.855 389.351 447.94L371.395 456.917C371.24 456.995 371.056 456.987 370.909 456.896C370.762 456.804 370.672 456.643 370.672 456.47L370.672 437.862C370.672 437.672 370.779 437.499 370.948 437.414L388.904 428.437C389.059 428.359 389.243 428.367 389.39 428.459ZM371.672 438.171L371.672 455.661L388.627 447.184L388.627 429.693L371.672 438.171Z" fill="#3A375B"/>
<path d="M380.152 441.9L398.179 450.913L415.901 441.862L397.875 432.849L380.152 441.9Z" fill="#F8FBFC"/>
<path fill-rule="evenodd" clip-rule="evenodd" d="M397.648 432.404C397.789 432.332 397.957 432.331 398.099 432.402L416.125 441.415C416.294 441.499 416.4 441.671 416.401 441.86C416.402 442.049 416.297 442.222 416.129 442.307L398.406 451.359C398.264 451.431 398.097 451.431 397.955 451.36L379.929 442.347C379.76 442.263 379.653 442.091 379.652 441.902C379.652 441.714 379.757 441.541 379.925 441.455L397.648 432.404ZM397.878 433.409L381.261 441.895L398.176 450.353L414.793 441.867L397.878 433.409Z" fill="#3A375B"/>
<path d="M380.15 460.68L397.991 469.6V450.833L380.15 441.913V460.68Z" fill="#F8FBFC"/>
<path fill-rule="evenodd" clip-rule="evenodd" d="M379.888 441.488C380.035 441.397 380.219 441.388 380.374 441.466L398.214 450.386C398.384 450.471 398.491 450.644 398.491 450.833V469.6C398.491 469.773 398.401 469.934 398.253 470.026C398.106 470.117 397.922 470.125 397.767 470.047L379.927 461.127C379.757 461.043 379.65 460.869 379.65 460.68V441.913C379.65 441.74 379.74 441.579 379.888 441.488ZM380.65 442.722V460.371L397.491 468.791V451.142L380.65 442.722Z" fill="#3A375B"/>
<path d="M397.99 469.5L415.945 460.522L415.946 441.913L397.99 450.891L397.99 469.5Z" fill="#F8FBFC"/>
<path fill-rule="evenodd" clip-rule="evenodd" d="M416.208 441.488C416.356 441.579 416.446 441.74 416.446 441.913L416.445 460.522C416.445 460.711 416.338 460.884 416.169 460.969L398.214 469.947C398.059 470.024 397.875 470.016 397.727 469.925C397.58 469.834 397.49 469.673 397.49 469.5L397.49 450.891C397.49 450.701 397.597 450.528 397.767 450.444L415.722 441.466C415.877 441.388 416.061 441.397 416.208 441.488ZM398.49 451.2L398.49 468.69L415.445 460.213L415.446 442.722L398.49 451.2Z" fill="#3A375B"/>
<path d="M406.971 454.93L424.997 463.943L442.72 454.891L424.693 445.878L406.971 454.93Z" fill="white"/>
<path fill-rule="evenodd" clip-rule="evenodd" d="M424.466 445.433C424.608 445.361 424.775 445.36 424.917 445.431L442.943 454.444C443.112 454.529 443.219 454.701 443.22 454.889C443.22 455.078 443.115 455.251 442.947 455.337L425.224 464.388C425.083 464.46 424.915 464.461 424.773 464.39L406.747 455.377C406.578 455.292 406.472 455.12 406.471 454.932C406.47 454.743 406.575 454.57 406.743 454.484L424.466 445.433ZM424.696 446.439L408.079 454.925L424.994 463.382L441.611 454.896L424.696 446.439Z" fill="#3A375B"/>
<path d="M406.969 473.709L424.809 482.63V463.863L406.969 454.943V473.709Z" fill="white"/>
<path fill-rule="evenodd" clip-rule="evenodd" d="M406.706 454.517C406.853 454.426 407.037 454.418 407.192 454.495L425.033 463.415C425.202 463.5 425.309 463.673 425.309 463.863V482.63C425.309 482.803 425.219 482.964 425.072 483.055C424.924 483.146 424.74 483.154 424.585 483.077L406.745 474.157C406.576 474.072 406.469 473.899 406.469 473.709V454.943C406.469 454.769 406.558 454.608 406.706 454.517ZM407.469 455.752V473.4L424.309 481.82V464.172L407.469 455.752Z" fill="#3A375B"/>
<path d="M424.809 482.529L442.764 473.551L442.764 454.943L424.809 463.92L424.809 482.529Z" fill="white"/>
<path fill-rule="evenodd" clip-rule="evenodd" d="M443.027 454.517C443.174 454.608 443.264 454.769 443.264 454.943L443.264 473.551C443.264 473.741 443.157 473.914 442.987 473.998L425.032 482.976C424.877 483.054 424.693 483.045 424.546 482.954C424.398 482.863 424.309 482.702 424.309 482.529L424.309 463.92C424.309 463.731 424.416 463.558 424.585 463.473L442.54 454.495C442.695 454.418 442.879 454.426 443.027 454.517ZM425.309 464.229L425.309 481.72L442.264 473.242L442.264 455.752L425.309 464.229Z" fill="#3A375B"/>
<path d="M433.789 467.959L451.815 476.972L469.538 467.921L451.512 458.908L433.789 467.959Z" fill="#F8FBFC"/>
<path fill-rule="evenodd" clip-rule="evenodd" d="M451.284 458.462C451.426 458.39 451.593 458.389 451.735 458.46L469.762 467.474C469.93 467.558 470.037 467.73 470.038 467.919C470.039 468.107 469.933 468.28 469.765 468.366L452.043 477.417C451.901 477.489 451.734 477.49 451.592 477.419L433.565 468.406C433.397 468.322 433.29 468.15 433.289 467.961C433.288 467.772 433.394 467.599 433.562 467.514L451.284 458.462ZM451.514 459.468L434.898 467.954L451.813 476.412L468.429 467.925L451.514 459.468Z" fill="#3A375B"/>
<path d="M433.787 486.739L451.627 495.659V476.892L433.787 467.972V486.739Z" fill="#F8FBFC"/>
<path fill-rule="evenodd" clip-rule="evenodd" d="M433.524 467.546C433.672 467.455 433.856 467.447 434.011 467.525L451.851 476.445C452.02 476.529 452.127 476.703 452.127 476.892V495.659C452.127 495.832 452.038 495.993 451.89 496.084C451.743 496.175 451.559 496.184 451.404 496.106L433.564 487.186C433.394 487.101 433.287 486.928 433.287 486.739V467.972C433.287 467.799 433.377 467.638 433.524 467.546ZM434.287 468.781V486.43L451.127 494.85V477.201L434.287 468.781Z" fill="#3A375B"/>
<path d="M451.627 495.558L469.582 486.581L469.582 467.972L451.627 476.949L451.627 495.558Z" fill="#F8FBFC"/>
<path fill-rule="evenodd" clip-rule="evenodd" d="M469.845 467.546C469.993 467.638 470.082 467.799 470.082 467.972L470.082 486.581C470.082 486.77 469.975 486.943 469.806 487.028L451.851 496.005C451.696 496.083 451.511 496.075 451.364 495.983C451.217 495.892 451.127 495.731 451.127 495.558L451.127 476.949C451.127 476.76 451.234 476.587 451.403 476.502L469.359 467.525C469.514 467.447 469.698 467.455 469.845 467.546ZM452.127 477.258L452.127 494.749L469.082 486.271L469.082 468.781L452.127 477.258Z" fill="#3A375B"/>
<path d="M273.842 436.336L288.254 443.542V428.381L273.842 421.175V436.336Z" fill="#F8FBFC"/>
<path fill-rule="evenodd" clip-rule="evenodd" d="M273.579 420.75C273.726 420.659 273.91 420.651 274.065 420.728L288.478 427.934C288.647 428.019 288.754 428.192 288.754 428.381V443.542C288.754 443.716 288.664 443.876 288.517 443.968C288.37 444.059 288.185 444.067 288.03 443.989L273.618 436.783C273.449 436.699 273.342 436.526 273.342 436.336V421.175C273.342 421.002 273.432 420.841 273.579 420.75ZM274.342 421.984V436.027L287.754 442.733V428.69L274.342 421.984Z" fill="#3A375B"/>
<path d="M509.645 462.797L481.296 476.972L273.842 373.381L302.191 359.207L509.645 462.797Z" fill="#EDF5F8"/>
<path fill-rule="evenodd" clip-rule="evenodd" d="M302.638 358.312C302.356 358.171 302.025 358.171 301.744 358.312L273.395 372.487C273.056 372.656 272.842 373.002 272.842 373.381C272.842 373.76 273.056 374.106 273.395 374.276L480.849 477.866C481.13 478.007 481.462 478.007 481.743 477.866L510.092 463.692C510.431 463.522 510.645 463.176 510.645 462.797C510.644 462.418 510.43 462.072 510.091 461.903L302.638 358.312ZM507.407 462.798L481.295 475.854L276.079 373.38L302.191 360.324L507.407 462.798Z" fill="#32335A"/>
<path d="M297.804 346.447L317.703 356.396L337.268 346.404L317.369 336.455L297.804 346.447Z" fill="#F8FBFC"/>
<path fill-rule="evenodd" clip-rule="evenodd" d="M317.141 336.009C317.283 335.937 317.45 335.936 317.592 336.007L337.492 345.957C337.661 346.042 337.768 346.214 337.768 346.402C337.769 346.591 337.664 346.764 337.496 346.85L317.931 356.842C317.789 356.914 317.622 356.915 317.48 356.844L297.58 346.894C297.411 346.809 297.305 346.637 297.304 346.449C297.303 346.26 297.408 346.087 297.576 346.001L317.141 336.009ZM317.371 337.015L298.912 346.442L317.701 355.836L336.16 346.409L317.371 337.015Z" fill="#3A375B"/>
<path d="M297.803 378.445L317.497 388.293V356.193L297.803 346.346V378.445Z" fill="#F8FBFC"/>
<path fill-rule="evenodd" clip-rule="evenodd" d="M297.54 345.92C297.687 345.829 297.871 345.821 298.026 345.898L317.721 355.746C317.89 355.83 317.997 356.004 317.997 356.193V388.293C317.997 388.466 317.908 388.627 317.76 388.718C317.613 388.809 317.429 388.817 317.274 388.74L297.579 378.893C297.41 378.808 297.303 378.635 297.303 378.445V346.346C297.303 346.172 297.392 346.011 297.54 345.92ZM298.303 347.155V378.136L316.997 387.484V356.502L298.303 347.155Z" fill="#3A375B"/>
<path d="M317.447 388.181L337.269 378.271L337.269 346.346L317.447 356.256L317.447 388.181Z" fill="#F8FBFC"/>
<path fill-rule="evenodd" clip-rule="evenodd" d="M337.532 345.92C337.679 346.011 337.769 346.172 337.769 346.346L337.769 378.271C337.769 378.46 337.662 378.633 337.492 378.718L317.671 388.629C317.516 388.706 317.332 388.698 317.184 388.607C317.037 388.516 316.947 388.355 316.947 388.181L316.947 356.256C316.947 356.067 317.054 355.894 317.224 355.809L337.045 345.898C337.2 345.821 337.384 345.829 337.532 345.92ZM317.947 356.565L317.947 387.372L336.769 377.962L336.769 347.155L317.947 356.565Z" fill="#3A375B"/>
<path d="M327.698 360.841L347.598 370.791L367.163 360.799L347.263 350.849L327.698 360.841Z" fill="#F8FBFC"/>
<path fill-rule="evenodd" clip-rule="evenodd" d="M347.036 350.404C347.177 350.332 347.345 350.331 347.487 350.402L367.386 360.352C367.555 360.436 367.662 360.608 367.663 360.797C367.664 360.986 367.558 361.159 367.39 361.244L347.825 371.236C347.684 371.308 347.517 371.309 347.374 371.238L327.475 361.288C327.306 361.204 327.199 361.032 327.198 360.843C327.197 360.655 327.303 360.482 327.471 360.396L347.036 350.404ZM347.265 351.409L328.807 360.836L347.596 370.231L366.054 360.804L347.265 351.409Z" fill="#3A375B"/>
<path d="M327.697 392.84L347.392 402.687V370.587L327.697 360.74V392.84Z" fill="#F8FBFC"/>
<path fill-rule="evenodd" clip-rule="evenodd" d="M327.434 360.315C327.582 360.224 327.766 360.216 327.921 360.293L347.615 370.14C347.785 370.225 347.892 370.398 347.892 370.587V402.687C347.892 402.86 347.802 403.021 347.655 403.113C347.507 403.204 347.323 403.212 347.168 403.134L327.474 393.287C327.304 393.202 327.197 393.029 327.197 392.84V360.74C327.197 360.567 327.287 360.406 327.434 360.315ZM328.197 361.549V392.531L346.892 401.878V370.896L328.197 361.549Z" fill="#3A375B"/>
<path d="M347.342 402.576L367.163 392.665L367.163 360.74L347.342 370.651L347.342 402.576Z" fill="#F8FBFC"/>
<path fill-rule="evenodd" clip-rule="evenodd" d="M367.426 360.315C367.574 360.406 367.663 360.567 367.663 360.74L367.663 392.665C367.663 392.855 367.556 393.028 367.387 393.113L347.565 403.023C347.41 403.101 347.226 403.092 347.079 403.001C346.932 402.91 346.842 402.749 346.842 402.576L346.842 370.651C346.842 370.462 346.949 370.288 347.118 370.204L366.94 360.293C367.095 360.216 367.279 360.224 367.426 360.315ZM347.842 370.96L347.842 401.767L366.663 392.356L366.663 361.549L347.842 370.96Z" fill="#3A375B"/>
<path d="M357.593 375.236L377.493 385.185L397.057 375.194L377.158 365.244L357.593 375.236Z" fill="white"/>
<path fill-rule="evenodd" clip-rule="evenodd" d="M376.93 364.798C377.072 364.726 377.239 364.725 377.381 364.796L397.281 374.746C397.45 374.831 397.557 375.003 397.557 375.191C397.558 375.38 397.453 375.553 397.285 375.639L377.72 385.631C377.578 385.703 377.411 385.704 377.269 385.633L357.369 375.683C357.2 375.598 357.094 375.426 357.093 375.238C357.092 375.049 357.197 374.876 357.365 374.79L376.93 364.798ZM377.16 365.804L358.701 375.231L377.49 384.625L395.949 375.198L377.16 365.804Z" fill="#3A375B"/>
<path d="M357.592 407.234L377.286 417.082V384.982L357.592 375.135V407.234Z" fill="white"/>
<path fill-rule="evenodd" clip-rule="evenodd" d="M357.329 374.709C357.476 374.618 357.66 374.61 357.815 374.688L377.51 384.535C377.679 384.619 377.786 384.793 377.786 384.982V417.082C377.786 417.255 377.697 417.416 377.549 417.507C377.402 417.598 377.218 417.606 377.063 417.529L357.368 407.682C357.199 407.597 357.092 407.424 357.092 407.234V375.135C357.092 374.961 357.182 374.801 357.329 374.709ZM358.092 375.944V406.925L376.786 416.273V385.291L358.092 375.944Z" fill="#3A375B"/>
<path d="M377.236 416.971L397.058 407.06L397.058 375.135L377.236 385.045L377.236 416.971Z" fill="white"/>
<path fill-rule="evenodd" clip-rule="evenodd" d="M397.321 374.709C397.468 374.801 397.558 374.961 397.558 375.135L397.558 407.06C397.558 407.249 397.451 407.422 397.281 407.507L377.46 417.418C377.305 417.495 377.121 417.487 376.973 417.396C376.826 417.305 376.736 417.144 376.736 416.971L376.736 385.045C376.736 384.856 376.843 384.683 377.013 384.598L396.834 374.688C396.989 374.61 397.173 374.618 397.321 374.709ZM377.736 385.354L377.736 416.162L396.558 406.751L396.558 375.944L377.736 385.354Z" fill="#3A375B"/>
<path d="M273.529 343.421L287.942 350.627V335.466L273.529 328.26V343.421Z" fill="#F8FBFC"/>
<path fill-rule="evenodd" clip-rule="evenodd" d="M273.266 327.834C273.414 327.743 273.598 327.735 273.753 327.812L288.165 335.019C288.335 335.103 288.442 335.276 288.442 335.466V350.627C288.442 350.8 288.352 350.961 288.204 351.052C288.057 351.143 287.873 351.151 287.718 351.074L273.306 343.868C273.136 343.783 273.029 343.61 273.029 343.421V328.26C273.029 328.086 273.119 327.925 273.266 327.834ZM274.029 329.069V343.112L287.442 349.818V335.775L274.029 329.069Z" fill="#3A375B"/>
<path fill-rule="evenodd" clip-rule="evenodd" d="M277.176 337.663C277.423 337.169 278.024 336.969 278.518 337.216L283.85 339.882C284.344 340.129 284.544 340.73 284.297 341.223C284.05 341.717 283.449 341.918 282.955 341.671L277.623 339.005C277.129 338.758 276.929 338.157 277.176 337.663Z" fill="#3A375B"/>
<path d="M273.842 388.902L288.254 396.108V380.947L273.842 373.741V388.902Z" fill="#F8FBFC"/>
<path fill-rule="evenodd" clip-rule="evenodd" d="M273.579 373.315C273.726 373.224 273.91 373.216 274.065 373.294L288.478 380.5C288.647 380.584 288.754 380.757 288.754 380.947V396.108C288.754 396.281 288.664 396.442 288.517 396.533C288.37 396.624 288.185 396.632 288.03 396.555L273.618 389.349C273.449 389.264 273.342 389.091 273.342 388.902V373.741C273.342 373.567 273.432 373.407 273.579 373.315ZM274.342 374.55V388.593L287.754 395.299V381.256L274.342 374.55Z" fill="#3A375B"/>
<path d="M394.063 394.177L413.963 404.127L433.528 394.135L413.628 384.185L394.063 394.177Z" fill="#F8FBFC"/>
<path fill-rule="evenodd" clip-rule="evenodd" d="M413.401 383.74C413.542 383.668 413.71 383.667 413.852 383.738L433.752 393.688C433.92 393.772 434.027 393.944 434.028 394.133C434.029 394.321 433.924 394.494 433.756 394.58L414.191 404.572C414.049 404.644 413.882 404.645 413.74 404.574L393.84 394.624C393.671 394.54 393.564 394.368 393.563 394.179C393.563 393.99 393.668 393.817 393.836 393.732L413.401 383.74ZM413.631 384.745L395.172 394.172L413.961 403.567L432.42 394.14L413.631 384.745Z" fill="#3A375B"/>
<path d="M394.062 426.176L413.757 436.023V403.923L394.062 394.076V426.176Z" fill="#F8FBFC"/>
<path fill-rule="evenodd" clip-rule="evenodd" d="M393.8 393.651C393.947 393.56 394.131 393.551 394.286 393.629L413.981 403.476C414.15 403.561 414.257 403.734 414.257 403.923V436.023C414.257 436.196 414.167 436.357 414.02 436.448C413.872 436.54 413.688 436.548 413.533 436.47L393.839 426.623C393.67 426.538 393.562 426.365 393.562 426.176V394.076C393.562 393.903 393.652 393.742 393.8 393.651ZM394.562 394.885V425.867L413.257 435.214V404.232L394.562 394.885Z" fill="#3A375B"/>
<path d="M413.707 435.912L433.528 426.001L433.529 394.076L413.707 403.987L413.707 435.912Z" fill="#F8FBFC"/>
<path fill-rule="evenodd" clip-rule="evenodd" d="M433.791 393.651C433.939 393.742 434.029 393.903 434.029 394.076L434.028 426.001C434.028 426.191 433.921 426.364 433.752 426.448L413.931 436.359C413.776 436.437 413.592 436.428 413.444 436.337C413.297 436.246 413.207 436.085 413.207 435.912L413.207 403.987C413.207 403.797 413.314 403.624 413.484 403.54L433.305 393.629C433.46 393.551 433.644 393.56 433.791 393.651ZM414.207 404.296L414.207 435.103L433.028 425.692L433.029 394.885L414.207 404.296Z" fill="#3A375B"/>
<path d="M433.79 414.518L453.69 424.468L473.255 414.476L453.355 404.526L433.79 414.518Z" fill="#F8FBFC"/>
<path fill-rule="evenodd" clip-rule="evenodd" d="M453.127 404.081C453.269 404.008 453.436 404.008 453.579 404.079L473.478 414.029C473.647 414.113 473.754 414.285 473.755 414.474C473.755 414.662 473.65 414.835 473.482 414.921L453.917 424.913C453.776 424.985 453.608 424.986 453.466 424.915L433.566 414.965C433.398 414.881 433.291 414.709 433.29 414.52C433.289 414.331 433.395 414.158 433.563 414.072L453.127 404.081ZM453.357 405.086L434.899 414.513L453.687 423.907L472.146 414.48L453.357 405.086Z" fill="#3A375B"/>
<path d="M433.789 446.517L453.484 456.364V424.264L433.789 414.417V446.517Z" fill="#F8FBFC"/>
<path fill-rule="evenodd" clip-rule="evenodd" d="M433.526 413.992C433.674 413.901 433.858 413.892 434.013 413.97L453.707 423.817C453.877 423.902 453.984 424.075 453.984 424.264V456.364C453.984 456.537 453.894 456.698 453.746 456.789C453.599 456.88 453.415 456.889 453.26 456.811L433.565 446.964C433.396 446.879 433.289 446.706 433.289 446.517V414.417C433.289 414.244 433.379 414.083 433.526 413.992ZM434.289 415.226V446.208L452.984 455.555V424.573L434.289 415.226Z" fill="#3A375B"/>
<path d="M453.434 456.253L473.255 446.342L473.255 414.417L453.434 424.328L453.434 456.253Z" fill="#F8FBFC"/>
<path fill-rule="evenodd" clip-rule="evenodd" d="M473.518 413.992C473.665 414.083 473.755 414.244 473.755 414.417L473.755 446.342C473.755 446.531 473.648 446.705 473.479 446.789L453.657 456.7C453.502 456.777 453.318 456.769 453.171 456.678C453.023 456.587 452.934 456.426 452.934 456.253L452.934 424.328C452.934 424.138 453.041 423.965 453.21 423.88L473.032 413.97C473.187 413.892 473.371 413.901 473.518 413.992ZM453.934 424.637L453.934 455.444L472.755 446.033L472.755 415.226L453.934 424.637Z" fill="#3A375B"/>
<path d="M509.645 416.337L481.296 430.511L273.842 326.921L302.191 312.746L509.645 416.337Z" fill="white"/>
<path fill-rule="evenodd" clip-rule="evenodd" d="M302.638 311.851C302.356 311.711 302.025 311.711 301.744 311.852L273.395 326.026C273.056 326.196 272.842 326.542 272.842 326.921C272.842 327.3 273.056 327.646 273.395 327.815L480.849 431.406C481.13 431.546 481.462 431.546 481.743 431.406L510.092 417.231C510.431 417.062 510.645 416.715 510.645 416.336C510.644 415.958 510.43 415.611 510.091 415.442L302.638 311.851ZM507.407 416.337L481.295 429.393L276.079 326.92L302.191 313.864L507.407 416.337Z" fill="#32335A"/>
<path d="M509.645 416.337L481.296 430.511L273.842 326.921L302.191 312.746L509.645 416.337Z" fill="#EDF5F8"/>
<path fill-rule="evenodd" clip-rule="evenodd" d="M302.638 311.851C302.356 311.711 302.025 311.711 301.744 311.852L273.395 326.026C273.056 326.196 272.842 326.542 272.842 326.921C272.842 327.3 273.056 327.646 273.395 327.815L480.849 431.406C481.13 431.546 481.462 431.546 481.743 431.406L510.092 417.231C510.431 417.062 510.645 416.715 510.645 416.336C510.644 415.958 510.43 415.611 510.091 415.442L302.638 311.851ZM507.407 416.337L481.295 429.393L276.079 326.92L302.191 313.864L507.407 416.337Z" fill="#32335A"/>
<path d="M305.352 289.84L313.748 294.038L341.983 280.229L333.587 276.031L305.352 289.84Z" fill="#EDF5F8"/>
<path fill-rule="evenodd" clip-rule="evenodd" d="M333.367 275.582C333.507 275.514 333.671 275.514 333.811 275.584L342.206 279.782C342.376 279.867 342.484 280.041 342.483 280.231C342.482 280.421 342.373 280.595 342.202 280.678L313.968 294.487C313.828 294.555 313.664 294.555 313.524 294.485L305.128 290.287C304.958 290.202 304.851 290.028 304.852 289.838C304.853 289.648 304.962 289.474 305.132 289.391L333.367 275.582ZM306.48 289.845L313.75 293.48L340.855 280.224L333.585 276.589L306.48 289.845Z" fill="#32335A"/>
<path d="M305.352 336.233L313.661 340.388V294.265L305.352 290.111V336.233Z" fill="#EDF5F8"/>
<path fill-rule="evenodd" clip-rule="evenodd" d="M305.089 289.685C305.236 289.594 305.42 289.586 305.575 289.663L313.884 293.818C314.054 293.903 314.161 294.076 314.161 294.265V340.388C314.161 340.561 314.071 340.722 313.924 340.813C313.776 340.904 313.592 340.912 313.437 340.835L305.128 336.68C304.959 336.596 304.852 336.422 304.852 336.233V290.111C304.852 289.937 304.941 289.776 305.089 289.685ZM305.852 290.92V335.924L313.161 339.579V294.574L305.852 290.92Z" fill="#32335A"/>
<path d="M313.661 340.278L342.229 326.367V280.23L313.661 294.141V340.278Z" fill="#EDF5F8"/>
<path fill-rule="evenodd" clip-rule="evenodd" d="M342.494 279.806C342.64 279.897 342.729 280.057 342.729 280.23V326.367C342.729 326.558 342.619 326.733 342.448 326.817L313.88 340.728C313.725 340.803 313.542 340.793 313.396 340.702C313.249 340.611 313.161 340.451 313.161 340.278V294.141C313.161 293.949 313.27 293.775 313.442 293.691L342.01 279.78C342.165 279.705 342.348 279.714 342.494 279.806ZM314.161 294.453V339.479L341.729 326.054V281.029L314.161 294.453Z" fill="#32335A"/>
<path d="M323.543 298.843L331.939 303.041L360.174 289.232L351.778 285.034L323.543 298.843Z" fill="#EDF5F8"/>
<path fill-rule="evenodd" clip-rule="evenodd" d="M351.559 284.585C351.699 284.517 351.863 284.517 352.002 284.587L360.398 288.785C360.568 288.87 360.675 289.044 360.674 289.234C360.673 289.424 360.565 289.598 360.394 289.681L332.159 303.49C332.019 303.558 331.855 303.558 331.716 303.488L323.32 299.29C323.15 299.205 323.043 299.031 323.043 298.841C323.044 298.65 323.153 298.477 323.324 298.394L351.559 284.585ZM324.671 298.848L331.942 302.483L359.046 289.227L351.776 285.592L324.671 298.848Z" fill="#32335A"/>
<path d="M323.543 345.236L331.852 349.391V303.268L323.543 299.114V345.236Z" fill="#EDF5F8"/>
<path fill-rule="evenodd" clip-rule="evenodd" d="M323.28 298.688C323.428 298.597 323.612 298.589 323.767 298.666L332.076 302.821C332.245 302.906 332.352 303.079 332.352 303.268V349.391C332.352 349.564 332.262 349.725 332.115 349.816C331.968 349.907 331.784 349.915 331.629 349.838L323.319 345.683C323.15 345.598 323.043 345.425 323.043 345.236V299.114C323.043 298.94 323.133 298.779 323.28 298.688ZM324.043 299.923V344.927L331.352 348.582V303.577L324.043 299.923Z" fill="#32335A"/>
<path d="M331.852 349.281L360.42 335.37V289.233L331.852 303.144V349.281Z" fill="#EDF5F8"/>
<path fill-rule="evenodd" clip-rule="evenodd" d="M360.685 288.809C360.831 288.9 360.92 289.06 360.92 289.233V335.37C360.92 335.561 360.811 335.736 360.639 335.819L332.071 349.731C331.916 349.806 331.733 349.796 331.587 349.705C331.441 349.614 331.352 349.453 331.352 349.281V303.144C331.352 302.952 331.461 302.778 331.633 302.694L360.201 288.783C360.356 288.708 360.539 288.717 360.685 288.809ZM332.352 303.456V348.481L359.92 335.057V290.032L332.352 303.456Z" fill="#32335A"/>
<path d="M341.735 307.846L350.131 312.044L378.366 298.235L369.97 294.037L341.735 307.846Z" fill="#EDF5F8"/>
<path fill-rule="evenodd" clip-rule="evenodd" d="M369.75 293.588C369.89 293.519 370.054 293.52 370.193 293.59L378.589 297.788C378.759 297.873 378.866 298.047 378.866 298.237C378.865 298.427 378.756 298.601 378.585 298.684L350.35 312.493C350.21 312.561 350.046 312.561 349.907 312.491L341.511 308.293C341.341 308.208 341.234 308.034 341.235 307.844C341.236 307.653 341.344 307.48 341.515 307.397L369.75 293.588ZM342.863 307.851L350.133 311.486L377.238 298.23L369.967 294.595L342.863 307.851Z" fill="#32335A"/>
<path d="M341.734 354.239L350.044 358.394V312.271L341.734 308.117V354.239Z" fill="#EDF5F8"/>
<path fill-rule="evenodd" clip-rule="evenodd" d="M341.472 307.691C341.619 307.6 341.803 307.592 341.958 307.669L350.267 311.824C350.437 311.909 350.544 312.082 350.544 312.271V358.394C350.544 358.567 350.454 358.728 350.306 358.819C350.159 358.91 349.975 358.918 349.82 358.841L341.511 354.686C341.341 354.601 341.234 354.428 341.234 354.239V308.117C341.234 307.943 341.324 307.782 341.472 307.691ZM342.234 308.926V353.93L349.544 357.584V312.58L342.234 308.926Z" fill="#32335A"/>
<path d="M350.043 358.284L378.611 344.373V298.235L350.043 312.147V358.284Z" fill="#EDF5F8"/>
<path fill-rule="evenodd" clip-rule="evenodd" d="M378.877 297.811C379.023 297.903 379.111 298.063 379.111 298.235V344.373C379.111 344.564 379.002 344.739 378.83 344.822L350.262 358.734C350.107 358.809 349.925 358.799 349.778 358.708C349.632 358.617 349.543 358.456 349.543 358.284V312.147C349.543 311.955 349.653 311.781 349.825 311.697L378.393 297.786C378.547 297.71 378.73 297.72 378.877 297.811ZM350.543 312.459V357.484L378.111 344.06V299.035L350.543 312.459Z" fill="#32335A"/>
<path d="M359.926 316.849L368.322 321.047L396.557 307.238L388.161 303.04L359.926 316.849Z" fill="#EDF5F8"/>
<path fill-rule="evenodd" clip-rule="evenodd" d="M387.942 302.591C388.081 302.522 388.245 302.523 388.385 302.593L396.781 306.791C396.951 306.876 397.058 307.05 397.057 307.24C397.056 307.43 396.948 307.604 396.777 307.687L368.542 321.496C368.402 321.564 368.238 321.563 368.098 321.494L359.703 317.296C359.533 317.211 359.425 317.037 359.426 316.846C359.427 316.656 359.536 316.483 359.707 316.4L387.942 302.591ZM361.054 316.854L368.325 320.489L395.429 307.233L388.159 303.598L361.054 316.854Z" fill="#32335A"/>
<path d="M359.926 363.242L368.235 367.396V321.274L359.926 317.119V363.242Z" fill="#EDF5F8"/>
<path fill-rule="evenodd" clip-rule="evenodd" d="M359.663 316.694C359.81 316.603 359.994 316.595 360.149 316.672L368.459 320.827C368.628 320.912 368.735 321.085 368.735 321.274V367.396C368.735 367.57 368.645 367.731 368.498 367.822C368.35 367.913 368.166 367.921 368.011 367.844L359.702 363.689C359.533 363.604 359.426 363.431 359.426 363.242V317.119C359.426 316.946 359.516 316.785 359.663 316.694ZM360.426 317.928V362.933L367.735 366.587V321.583L360.426 317.928Z" fill="#32335A"/>
<path d="M368.235 367.287L396.803 353.376V307.238L368.235 321.149V367.287Z" fill="#EDF5F8"/>
<path fill-rule="evenodd" clip-rule="evenodd" d="M397.068 306.814C397.214 306.906 397.303 307.066 397.303 307.238V353.376C397.303 353.567 397.194 353.742 397.022 353.825L368.454 367.736C368.299 367.812 368.116 367.802 367.97 367.711C367.824 367.62 367.735 367.459 367.735 367.287V321.149C367.735 320.958 367.844 320.784 368.016 320.7L396.584 306.789C396.739 306.713 396.922 306.723 397.068 306.814ZM368.735 321.462V366.487L396.303 353.063V308.038L368.735 321.462Z" fill="#32335A"/>
<path d="M378.118 325.852L386.514 330.05L414.748 316.241L406.353 312.043L378.118 325.852Z" fill="#EDF5F8"/>
<path fill-rule="evenodd" clip-rule="evenodd" d="M406.133 311.594C406.273 311.525 406.437 311.526 406.576 311.596L414.972 315.794C415.142 315.879 415.249 316.053 415.248 316.243C415.248 316.433 415.139 316.606 414.968 316.69L386.733 330.499C386.593 330.567 386.429 330.566 386.29 330.497L377.894 326.299C377.724 326.214 377.617 326.04 377.618 325.849C377.619 325.659 377.727 325.486 377.898 325.402L406.133 311.594ZM379.246 325.857L386.516 329.492L413.62 316.236L406.35 312.601L379.246 325.857Z" fill="#32335A"/>
<path d="M378.117 372.245L386.426 376.399V330.277L378.117 326.122V372.245Z" fill="#EDF5F8"/>
<path fill-rule="evenodd" clip-rule="evenodd" d="M377.854 325.697C378.002 325.606 378.186 325.598 378.341 325.675L386.65 329.83C386.819 329.914 386.926 330.088 386.926 330.277V376.399C386.926 376.573 386.837 376.734 386.689 376.825C386.542 376.916 386.358 376.924 386.203 376.847L377.894 372.692C377.724 372.607 377.617 372.434 377.617 372.245V326.122C377.617 325.949 377.707 325.788 377.854 325.697ZM378.617 326.931V371.936L385.926 375.59V330.586L378.617 326.931Z" fill="#32335A"/>
<path d="M386.426 376.29L414.994 362.379V316.241L386.426 330.152V376.29Z" fill="#EDF5F8"/>
<path fill-rule="evenodd" clip-rule="evenodd" d="M415.259 315.817C415.405 315.909 415.494 316.069 415.494 316.241V362.379C415.494 362.57 415.385 362.745 415.213 362.828L386.645 376.739C386.49 376.815 386.307 376.805 386.161 376.714C386.015 376.622 385.926 376.462 385.926 376.29V330.152C385.926 329.961 386.035 329.787 386.207 329.703L414.775 315.792C414.93 315.716 415.113 315.726 415.259 315.817ZM386.926 330.465V375.49L414.494 362.066V317.041L386.926 330.465Z" fill="#32335A"/>
<path fill-rule="evenodd" clip-rule="evenodd" d="M277.176 383.144C277.423 382.65 278.024 382.45 278.518 382.697L283.85 385.363C284.344 385.61 284.544 386.211 284.297 386.705C284.05 387.199 283.449 387.399 282.955 387.152L277.623 384.486C277.129 384.239 276.929 383.638 277.176 383.144Z" fill="#3A375B"/>
<path fill-rule="evenodd" clip-rule="evenodd" d="M277.176 431.069C277.423 430.575 278.024 430.375 278.518 430.622L283.85 433.288C284.344 433.535 284.544 434.135 284.297 434.629C284.05 435.123 283.449 435.324 282.955 435.077L277.623 432.411C277.129 432.164 276.929 431.563 277.176 431.069Z" fill="#3A375B"/>
</svg>
