<svg width="140" height="54" viewBox="0 0 140 54" fill="none" xmlns="http://www.w3.org/2000/svg">
<g clip-path="url(#clip0)">
<mask id="mask0" mask-type="alpha" maskUnits="userSpaceOnUse" x="4" y="1" width="140" height="53">
<path fill-rule="evenodd" clip-rule="evenodd" d="M4.18805 1.9614H143.166V54H4.18805V1.9614Z" fill="white"/>
</mask>
<g mask="url(#mask0)">
<path d="M36.7549 30.608C37.7789 30.608 38.6909 30.824 39.4909 31.256C40.2909 31.672 40.9229 32.304 41.3869 33.152C41.8509 34 42.0829 35.032 42.0829 36.248V44H39.9229V36.56C39.9229 35.248 39.5949 34.248 38.9389 33.56C38.2989 32.856 37.4269 32.504 36.3229 32.504C35.1869 32.504 34.2829 32.872 33.6109 33.608C32.9389 34.328 32.6029 35.376 32.6029 36.752V44H30.4429V36.56C30.4429 35.248 30.1149 34.248 29.4589 33.56C28.8189 32.856 27.9469 32.504 26.8429 32.504C25.7069 32.504 24.8029 32.872 24.1309 33.608C23.4589 34.328 23.1229 35.376 23.1229 36.752V44H20.9389V30.848H23.1229V32.744C23.5549 32.056 24.1309 31.528 24.8509 31.16C25.5869 30.792 26.3949 30.608 27.2749 30.608C28.3789 30.608 29.3549 30.856 30.2029 31.352C31.0509 31.848 31.6829 32.576 32.0989 33.536C32.4669 32.608 33.0749 31.888 33.9229 31.376C34.7709 30.864 35.7149 30.608 36.7549 30.608ZM48.6895 37.376C48.6895 36.032 48.9615 34.856 49.5055 33.848C50.0495 32.824 50.7935 32.032 51.7375 31.472C52.6975 30.912 53.7615 30.632 54.9295 30.632C56.0815 30.632 57.0815 30.88 57.9295 31.376C58.7775 31.872 59.4095 32.496 59.8255 33.248V30.848H62.0335V44H59.8255V41.552C59.3935 42.32 58.7455 42.96 57.8815 43.472C57.0335 43.968 56.0415 44.216 54.9055 44.216C53.7375 44.216 52.6815 43.928 51.7375 43.352C50.7935 42.776 50.0495 41.968 49.5055 40.928C48.9615 39.888 48.6895 38.704 48.6895 37.376ZM59.8255 37.4C59.8255 36.408 59.6255 35.544 59.2255 34.808C58.8255 34.072 58.2815 33.512 57.5935 33.128C56.9215 32.728 56.1775 32.528 55.3615 32.528C54.5455 32.528 53.8015 32.72 53.1295 33.104C52.4575 33.488 51.9215 34.048 51.5215 34.784C51.1215 35.52 50.9215 36.384 50.9215 37.376C50.9215 38.384 51.1215 39.264 51.5215 40.016C51.9215 40.752 52.4575 41.32 53.1295 41.72C53.8015 42.104 54.5455 42.296 55.3615 42.296C56.1775 42.296 56.9215 42.104 57.5935 41.72C58.2815 41.32 58.8255 40.752 59.2255 40.016C59.6255 39.264 59.8255 38.392 59.8255 37.4ZM71.7482 32.984C72.1322 32.232 72.6762 31.648 73.3802 31.232C74.1002 30.816 74.9722 30.608 75.9962 30.608V32.864H75.4202C72.9722 32.864 71.7482 34.192 71.7482 36.848V44H69.5642V30.848H71.7482V32.984ZM85.0214 32.648V40.4C85.0214 41.04 85.1574 41.496 85.4294 41.768C85.7014 42.024 86.1734 42.152 86.8453 42.152H88.4534V44H86.4854C85.2694 44 84.3573 43.72 83.7493 43.16C83.1413 42.6 82.8373 41.68 82.8373 40.4V32.648H81.1333V30.848H82.8373V27.536H85.0214V30.848H88.4534V32.648H85.0214ZM96.0675 28.712C95.6515 28.712 95.2995 28.568 95.0115 28.28C94.7235 27.992 94.5795 27.64 94.5795 27.224C94.5795 26.808 94.7235 26.456 95.0115 26.168C95.2995 25.88 95.6515 25.736 96.0675 25.736C96.4675 25.736 96.8035 25.88 97.0755 26.168C97.3635 26.456 97.5075 26.808 97.5075 27.224C97.5075 27.64 97.3635 27.992 97.0755 28.28C96.8035 28.568 96.4675 28.712 96.0675 28.712ZM97.1235 30.848V44H94.9395V30.848H97.1235ZM110.038 32.648H107.278V44H105.094V32.648H103.39V30.848H105.094V29.912C105.094 28.44 105.47 27.368 106.222 26.696C106.99 26.008 108.214 25.664 109.894 25.664V27.488C108.934 27.488 108.254 27.68 107.854 28.064C107.47 28.432 107.278 29.048 107.278 29.912V30.848H110.038V32.648ZM127.752 30.848L119.832 50.192H117.576L120.168 43.856L114.864 30.848H117.288L121.416 41.504L125.496 30.848H127.752Z" fill="#222046"/>
<path d="M39.4909 31.256L39.0158 32.1359L39.0226 32.1396L39.0296 32.1432L39.4909 31.256ZM41.3869 33.152L40.5097 33.632L40.5097 33.632L41.3869 33.152ZM42.0829 44V45H43.0829V44H42.0829ZM39.9229 44H38.9229V45H39.9229V44ZM38.9389 33.56L38.199 34.2327L38.207 34.2415L38.2152 34.2501L38.9389 33.56ZM33.6109 33.608L34.342 34.2904L34.3494 34.2823L33.6109 33.608ZM32.6029 44V45H33.6029V44H32.6029ZM30.4429 44H29.4429V45H30.4429V44ZM29.4589 33.56L28.719 34.2327L28.727 34.2415L28.7352 34.2501L29.4589 33.56ZM24.1309 33.608L24.862 34.2904L24.8694 34.2823L24.1309 33.608ZM23.1229 44V45H24.1229V44H23.1229ZM20.9389 44H19.9389V45H20.9389V44ZM20.9389 30.848V29.848H19.9389V30.848H20.9389ZM23.1229 30.848H24.1229V29.848H23.1229V30.848ZM23.1229 32.744H22.1229V36.2171L23.9698 33.2758L23.1229 32.744ZM24.8509 31.16L24.4037 30.2655L24.3958 30.2696L24.8509 31.16ZM30.2029 31.352L29.698 32.2152L29.698 32.2152L30.2029 31.352ZM32.0989 33.536L31.1814 33.9336L32.1399 36.1455L33.0285 33.9046L32.0989 33.536ZM33.9229 31.376L34.4398 32.2321L34.4398 32.2321L33.9229 31.376ZM36.7549 31.608C37.6343 31.608 38.3794 31.7922 39.0158 32.1359L39.9661 30.3761C39.0025 29.8558 37.9236 29.608 36.7549 29.608V31.608ZM39.0296 32.1432C39.6408 32.461 40.1336 32.9448 40.5097 33.632L42.2642 32.672C41.7122 31.6632 40.9411 30.883 39.9523 30.3688L39.0296 32.1432ZM40.5097 33.632C40.8749 34.2996 41.0829 35.1573 41.0829 36.248H43.0829C43.0829 34.9067 42.8269 33.7004 42.2642 32.672L40.5097 33.632ZM41.0829 36.248V44H43.0829V36.248H41.0829ZM42.0829 43H39.9229V45H42.0829V43ZM40.9229 44V36.56H38.9229V44H40.9229ZM40.9229 36.56C40.9229 35.09 40.5542 33.8049 39.6626 32.8699L38.2152 34.2501C38.6356 34.6911 38.9229 35.406 38.9229 36.56H40.9229ZM39.6789 32.8873C38.8183 31.9408 37.659 31.504 36.3229 31.504V33.504C37.1948 33.504 37.7795 33.7712 38.199 34.2327L39.6789 32.8873ZM36.3229 31.504C34.9493 31.504 33.7613 31.9602 32.8724 32.9337L34.3494 34.2823C34.8045 33.7838 35.4245 33.504 36.3229 33.504V31.504ZM32.8799 32.9257C31.9766 33.8935 31.6029 35.2238 31.6029 36.752H33.6029C33.6029 35.5282 33.9012 34.7625 34.342 34.2903L32.8799 32.9257ZM31.6029 36.752V44H33.6029V36.752H31.6029ZM32.6029 43H30.4429V45H32.6029V43ZM31.4429 44V36.56H29.4429V44H31.4429ZM31.4429 36.56C31.4429 35.09 31.0742 33.8049 30.1826 32.8699L28.7352 34.2501C29.1556 34.6911 29.4429 35.406 29.4429 36.56H31.4429ZM30.1989 32.8873C29.3383 31.9408 28.179 31.504 26.8429 31.504V33.504C27.7148 33.504 28.2995 33.7712 28.719 34.2327L30.1989 32.8873ZM26.8429 31.504C25.4693 31.504 24.2813 31.9602 23.3924 32.9337L24.8694 34.2823C25.3245 33.7838 25.9445 33.504 26.8429 33.504V31.504ZM23.3999 32.9257C22.4966 33.8935 22.1229 35.2238 22.1229 36.752H24.1229C24.1229 35.5282 24.4212 34.7625 24.862 34.2903L23.3999 32.9257ZM22.1229 36.752V44H24.1229V36.752H22.1229ZM23.1229 43H20.9389V45H23.1229V43ZM21.9389 44V30.848H19.9389V44H21.9389ZM20.9389 31.848H23.1229V29.848H20.9389V31.848ZM22.1229 30.848V32.744H24.1229V30.848H22.1229ZM23.9698 33.2758C24.3064 32.7397 24.7474 32.336 25.306 32.0504L24.3958 30.2696C23.5145 30.72 22.8034 31.3723 22.276 32.2122L23.9698 33.2758ZM25.2981 32.0544C25.8857 31.7606 26.5391 31.608 27.2749 31.608V29.608C26.2507 29.608 25.2881 29.8234 24.4037 30.2656L25.2981 32.0544ZM27.2749 31.608C28.2239 31.608 29.0215 31.8195 29.698 32.2152L30.7078 30.4888C29.6883 29.8925 28.5339 29.608 27.2749 29.608V31.608ZM29.698 32.2152C30.3502 32.5966 30.8441 33.1553 31.1814 33.9336L33.0165 33.1384C32.5218 31.9967 31.7516 31.0994 30.7078 30.4888L29.698 32.2152ZM33.0285 33.9046C33.3166 33.1781 33.7805 32.6301 34.4398 32.2321L33.406 30.5199C32.3693 31.1459 31.6172 32.0379 31.1693 33.1674L33.0285 33.9046ZM34.4398 32.2321C35.1239 31.819 35.8876 31.608 36.7549 31.608V29.608C35.5422 29.608 34.4179 29.909 33.406 30.5199L34.4398 32.2321ZM49.5055 33.848L50.3855 34.3229L50.3886 34.3172L49.5055 33.848ZM51.7375 31.472L51.2336 30.6082L51.2273 30.6119L51.7375 31.472ZM57.9295 31.376L57.4246 32.2392L57.4246 32.2392L57.9295 31.376ZM59.8255 33.248L58.9504 33.7321L60.8255 33.248H59.8255ZM59.8255 30.848V29.848H58.8255V30.848H59.8255ZM62.0335 30.848H63.0335V29.848H62.0335V30.848ZM62.0335 44V45H63.0335V44H62.0335ZM59.8255 44H58.8255V45H59.8255V44ZM59.8255 41.552H60.8255V37.7345L58.9539 41.0617L59.8255 41.552ZM57.8815 43.472L58.3864 44.3352L58.3913 44.3323L57.8815 43.472ZM51.7375 43.352L51.2166 44.2056L51.2166 44.2056L51.7375 43.352ZM49.5055 40.928L50.3916 40.4645L50.3916 40.4645L49.5055 40.928ZM57.5935 33.128L57.082 33.9873L57.094 33.9944L57.1061 34.0012L57.5935 33.128ZM53.1295 33.104L52.6333 32.2358L52.6333 32.2358L53.1295 33.104ZM51.5215 34.784L52.4001 35.2615L52.4001 35.2615L51.5215 34.784ZM51.5215 40.016L50.6386 40.4856L50.6429 40.4935L51.5215 40.016ZM53.1295 41.72L52.618 42.5793L52.6256 42.5838L52.6333 42.5882L53.1295 41.72ZM57.5935 41.72L58.0896 42.5883L58.0961 42.5845L57.5935 41.72ZM59.2255 40.016L60.1041 40.4935L60.1083 40.4856L59.2255 40.016ZM49.6895 37.376C49.6895 36.169 49.9329 35.1616 50.3855 34.3229L48.6255 33.3731C47.9901 34.5504 47.6895 35.895 47.6895 37.376H49.6895ZM50.3886 34.3172C50.8516 33.4457 51.4705 32.7931 52.2477 32.3321L51.2273 30.6119C50.1164 31.2709 49.2474 32.2023 48.6224 33.3788L50.3886 34.3172ZM52.2413 32.3358C53.0405 31.8696 53.9291 31.632 54.9295 31.632V29.632C53.5938 29.632 52.3544 29.9544 51.2336 30.6082L52.2413 32.3358ZM54.9295 31.632C55.9349 31.632 56.7544 31.8472 57.4246 32.2392L58.4344 30.5128C57.4085 29.9128 56.228 29.632 54.9295 29.632V31.632ZM57.4246 32.2392C58.14 32.6576 58.6334 33.1589 58.9504 33.7321L60.7005 32.7639C60.1856 31.8331 59.415 31.0864 58.4344 30.5128L57.4246 32.2392ZM60.8255 33.248V30.848H58.8255V33.248H60.8255ZM59.8255 31.848H62.0335V29.848H59.8255V31.848ZM61.0335 30.848V44H63.0335V30.848H61.0335ZM62.0335 43H59.8255V45H62.0335V43ZM60.8255 44V41.552H58.8255V44H60.8255ZM58.9539 41.0617C58.6194 41.6564 58.1062 42.1765 57.3717 42.6117L58.3913 44.3323C59.3848 43.7435 60.1676 42.9836 60.6971 42.0423L58.9539 41.0617ZM57.3766 42.6088C56.7043 43.002 55.8921 43.216 54.9055 43.216V45.216C56.1908 45.216 57.3626 44.934 58.3864 44.3352L57.3766 42.6088ZM54.9055 43.216C53.9105 43.216 53.0365 42.9732 52.2583 42.4984L51.2166 44.2056C52.3264 44.8828 53.5645 45.216 54.9055 45.216V43.216ZM52.2583 42.4984C51.4788 42.0227 50.8568 41.354 50.3916 40.4645L48.6194 41.3915C49.2421 42.582 50.1081 43.5293 51.2166 44.2056L52.2583 42.4984ZM50.3916 40.4645C49.9317 39.5854 49.6895 38.564 49.6895 37.376H47.6895C47.6895 38.844 47.9912 40.1906 48.6194 41.3915L50.3916 40.4645ZM60.8255 37.4C60.8255 36.2719 60.5972 35.2379 60.1041 34.3305L58.3469 35.2855C58.6537 35.8501 58.8255 36.5441 58.8255 37.4H60.8255ZM60.1041 34.3305C59.6197 33.4392 58.9447 32.7369 58.0808 32.2548L57.1061 34.0012C57.6183 34.2871 58.0312 34.7048 58.3469 35.2855L60.1041 34.3305ZM58.105 32.2687C57.2714 31.7725 56.3494 31.528 55.3615 31.528V33.528C56.0056 33.528 56.5716 33.6835 57.082 33.9873L58.105 32.2687ZM55.3615 31.528C54.3813 31.528 53.4647 31.7607 52.6333 32.2358L53.6256 33.9722C54.1382 33.6793 54.7097 33.528 55.3615 33.528V31.528ZM52.6333 32.2358C51.7868 32.7195 51.124 33.4212 50.6429 34.3065L52.4001 35.2615C52.719 34.6748 53.1282 34.2565 53.6256 33.9722L52.6333 32.2358ZM50.6429 34.3065C50.1497 35.2139 49.9215 36.2479 49.9215 37.376H51.9215C51.9215 36.5201 52.0932 35.8261 52.4001 35.2615L50.6429 34.3065ZM49.9215 37.376C49.9215 38.5178 50.1487 39.5647 50.6386 40.4856L52.4043 39.5464C52.0942 38.9633 51.9215 38.2502 51.9215 37.376H49.9215ZM50.6429 40.4935C51.1224 41.3758 51.7805 42.0808 52.618 42.5793L53.641 40.8607C53.1344 40.5592 52.7206 40.1282 52.4001 39.5385L50.6429 40.4935ZM52.6333 42.5882C53.4647 43.0633 54.3813 43.296 55.3615 43.296V41.296C54.7097 41.296 54.1382 41.1447 53.6256 40.8518L52.6333 42.5882ZM55.3615 43.296C56.3417 43.296 57.2582 43.0633 58.0896 42.5882L57.0973 40.8518C56.5847 41.1447 56.0133 41.296 55.3615 41.296V43.296ZM58.0961 42.5845C58.951 42.0875 59.6214 41.3817 60.1041 40.4935L58.3469 39.5385C58.0296 40.1223 57.6119 40.5525 57.0909 40.8555L58.0961 42.5845ZM60.1083 40.4856C60.597 39.5669 60.8255 38.5287 60.8255 37.4H58.8255C58.8255 38.2553 58.6539 38.9611 58.3426 39.5464L60.1083 40.4856ZM71.7482 32.984H70.7482L72.6388 33.4388L71.7482 32.984ZM73.3802 31.232L72.8799 30.3661L72.8715 30.3711L73.3802 31.232ZM75.9962 30.608H76.9962V29.608H75.9962V30.608ZM75.9962 32.864V33.864H76.9962V32.864H75.9962ZM71.7482 44V45H72.7482V44H71.7482ZM69.5642 44H68.5642V45H69.5642V44ZM69.5642 30.848V29.848H68.5642V30.848H69.5642ZM71.7482 30.848H72.7482V29.848H71.7482V30.848ZM72.6388 33.4388C72.9396 32.8498 73.3537 32.4092 73.889 32.0929L72.8715 30.3711C71.9988 30.8868 71.3249 31.6142 70.8576 32.5292L72.6388 33.4388ZM73.8805 32.0979C74.4169 31.7879 75.1075 31.608 75.9962 31.608V29.608C74.8369 29.608 73.7835 29.8441 72.8799 30.3661L73.8805 32.0979ZM74.9962 30.608V32.864H76.9962V30.608H74.9962ZM75.9962 31.864H75.4202V33.864H75.9962V31.864ZM75.4202 31.864C74.0202 31.864 72.7924 32.2475 71.9309 33.1823C71.0836 34.1016 70.7482 35.3852 70.7482 36.848H72.7482C72.7482 35.6548 73.0249 34.9464 73.4015 34.5377C73.764 34.1445 74.3723 33.864 75.4202 33.864V31.864ZM70.7482 36.848V44H72.7482V36.848H70.7482ZM71.7482 43H69.5642V45H71.7482V43ZM70.5642 44V30.848H68.5642V44H70.5642ZM69.5642 31.848H71.7482V29.848H69.5642V31.848ZM70.7482 30.848V32.984H72.7482V30.848H70.7482ZM85.0214 32.648V31.648H84.0214V32.648H85.0214ZM85.4294 41.768L84.7222 42.4751L84.733 42.4858L84.744 42.4962L85.4294 41.768ZM88.4534 42.152H89.4534V41.152H88.4534V42.152ZM88.4534 44V45H89.4534V44H88.4534ZM82.8373 32.648H83.8373V31.648H82.8373V32.648ZM81.1333 32.648H80.1333V33.648H81.1333V32.648ZM81.1333 30.848V29.848H80.1333V30.848H81.1333ZM82.8373 30.848V31.848H83.8373V30.848H82.8373ZM82.8373 27.536V26.536H81.8373V27.536H82.8373ZM85.0214 27.536H86.0214V26.536H85.0214V27.536ZM85.0214 30.848H84.0214V31.848H85.0214V30.848ZM88.4534 30.848H89.4534V29.848H88.4534V30.848ZM88.4534 32.648V33.648H89.4534V32.648H88.4534ZM84.0214 32.648V40.4H86.0214V32.648H84.0214ZM84.0214 40.4C84.0214 41.1386 84.171 41.9238 84.7222 42.4751L86.1365 41.0609C86.1425 41.067 86.1133 41.0423 86.0816 40.9362C86.049 40.8266 86.0214 40.6543 86.0214 40.4H84.0214ZM84.744 42.4962C85.3023 43.0216 86.1029 43.152 86.8453 43.152V41.152C86.5673 41.152 86.3747 41.1249 86.2491 41.0909C86.1242 41.057 86.0998 41.0258 86.1147 41.0398L84.744 42.4962ZM86.8453 43.152H88.4534V41.152H86.8453V43.152ZM87.4534 42.152V44H89.4534V42.152H87.4534ZM88.4534 43H86.4854V45H88.4534V43ZM86.4854 43C85.404 43 84.7795 42.7493 84.4268 42.4245L83.0719 43.8955C83.9352 44.6907 85.1347 45 86.4854 45V43ZM84.4268 42.4245C84.1142 42.1365 83.8373 41.552 83.8373 40.4H81.8373C81.8373 41.808 82.1685 43.0635 83.0719 43.8955L84.4268 42.4245ZM83.8373 40.4V32.648H81.8373V40.4H83.8373ZM82.8373 31.648H81.1333V33.648H82.8373V31.648ZM82.1333 32.648V30.848H80.1333V32.648H82.1333ZM81.1333 31.848H82.8373V29.848H81.1333V31.848ZM83.8373 30.848V27.536H81.8373V30.848H83.8373ZM82.8373 28.536H85.0214V26.536H82.8373V28.536ZM84.0214 27.536V30.848H86.0214V27.536H84.0214ZM85.0214 31.848H88.4534V29.848H85.0214V31.848ZM87.4534 30.848V32.648H89.4534V30.848H87.4534ZM88.4534 31.648H85.0214V33.648H88.4534V31.648ZM95.0115 28.28L95.7186 27.5729L95.7186 27.5729L95.0115 28.28ZM95.0115 26.168L95.7186 26.8751L95.7186 26.8751L95.0115 26.168ZM97.0755 26.168L96.3485 26.8546L96.3583 26.865L96.3684 26.8751L97.0755 26.168ZM97.0755 28.28L96.3684 27.5729L96.3583 27.583L96.3485 27.5934L97.0755 28.28ZM97.1235 30.848H98.1235V29.848H97.1235V30.848ZM97.1235 44V45H98.1235V44H97.1235ZM94.9395 44H93.9395V45H94.9395V44ZM94.9395 30.848V29.848H93.9395V30.848H94.9395ZM96.0675 27.712C95.9104 27.712 95.8147 27.6689 95.7186 27.5729L94.3044 28.9871C94.7844 29.4671 95.3927 29.712 96.0675 29.712V27.712ZM95.7186 27.5729C95.6226 27.4769 95.5795 27.3811 95.5795 27.224H93.5795C93.5795 27.8989 93.8244 28.5071 94.3044 28.9871L95.7186 27.5729ZM95.5795 27.224C95.5795 27.0669 95.6226 26.9711 95.7186 26.8751L94.3044 25.4609C93.8244 25.9409 93.5795 26.5491 93.5795 27.224H95.5795ZM95.7186 26.8751C95.8147 26.7791 95.9104 26.736 96.0675 26.736V24.736C95.3927 24.736 94.7844 24.9809 94.3044 25.4609L95.7186 26.8751ZM96.0675 26.736C96.1954 26.736 96.2675 26.7688 96.3485 26.8546L97.8026 25.4814C97.3396 24.9912 96.7396 24.736 96.0675 24.736V26.736ZM96.3684 26.8751C96.4644 26.9711 96.5075 27.0669 96.5075 27.224H98.5075C98.5075 26.5491 98.2626 25.9409 97.7826 25.4609L96.3684 26.8751ZM96.5075 27.224C96.5075 27.3811 96.4644 27.4769 96.3684 27.5729L97.7826 28.9871C98.2626 28.5071 98.5075 27.8989 98.5075 27.224H96.5075ZM96.3485 27.5934C96.2675 27.6792 96.1954 27.712 96.0675 27.712V29.712C96.7396 29.712 97.3396 29.4568 97.8026 28.9666L96.3485 27.5934ZM96.1235 30.848V44H98.1235V30.848H96.1235ZM97.1235 43H94.9395V45H97.1235V43ZM95.9395 44V30.848H93.9395V44H95.9395ZM94.9395 31.848H97.1235V29.848H94.9395V31.848ZM110.038 32.648V33.648H111.038V32.648H110.038ZM107.278 32.648V31.648H106.278V32.648H107.278ZM107.278 44V45H108.278V44H107.278ZM105.094 44H104.094V45H105.094V44ZM105.094 32.648H106.094V31.648H105.094V32.648ZM103.39 32.648H102.39V33.648H103.39V32.648ZM103.39 30.848V29.848H102.39V30.848H103.39ZM105.094 30.848V31.848H106.094V30.848H105.094ZM106.222 26.696L106.888 27.4417L106.889 27.4408L106.222 26.696ZM109.894 25.664H110.894V24.664H109.894V25.664ZM109.894 27.488V28.488H110.894V27.488H109.894ZM107.854 28.064L108.546 28.786L108.546 28.7854L107.854 28.064ZM107.278 30.848H106.278V31.848H107.278V30.848ZM110.038 30.848H111.038V29.848H110.038V30.848ZM110.038 31.648H107.278V33.648H110.038V31.648ZM106.278 32.648V44H108.278V32.648H106.278ZM107.278 43H105.094V45H107.278V43ZM106.094 44V32.648H104.094V44H106.094ZM105.094 31.648H103.39V33.648H105.094V31.648ZM104.39 32.648V30.848H102.39V32.648H104.39ZM103.39 31.848H105.094V29.848H103.39V31.848ZM106.094 30.848V29.912H104.094V30.848H106.094ZM106.094 29.912C106.094 28.5917 106.431 27.8504 106.888 27.4417L105.555 25.9503C104.509 26.8856 104.094 28.2883 104.094 29.912H106.094ZM106.889 27.4408C107.388 26.9936 108.314 26.664 109.894 26.664V24.664C108.113 24.664 106.591 25.0224 105.555 25.9512L106.889 27.4408ZM108.894 25.664V27.488H110.894V25.664H108.894ZM109.894 26.488C108.85 26.488 107.844 26.6875 107.161 27.3426L108.546 28.7854C108.664 28.6725 109.017 28.488 109.894 28.488V26.488ZM107.162 27.342C106.488 27.9879 106.278 28.9392 106.278 29.912H108.278C108.278 29.1568 108.452 28.8761 108.546 28.786L107.162 27.342ZM106.278 29.912V30.848H108.278V29.912H106.278ZM107.278 31.848H110.038V29.848H107.278V31.848ZM109.038 30.848V32.648H111.038V30.848H109.038ZM127.752 30.848L128.678 31.2269L129.242 29.848H127.752V30.848ZM119.832 50.192V51.192H120.503L120.758 50.5709L119.832 50.192ZM117.576 50.192L116.651 49.8134L116.087 51.192H117.576V50.192ZM120.168 43.856L121.094 44.2346L121.248 43.8566L121.094 43.4784L120.168 43.856ZM114.864 30.848V29.848H113.377L113.938 31.2256L114.864 30.848ZM117.288 30.848L118.221 30.4868L117.973 29.848H117.288V30.848ZM121.416 41.504L120.484 41.8652L121.422 44.2864L122.35 41.8616L121.416 41.504ZM125.496 30.848V29.848H124.808L124.562 30.4904L125.496 30.848ZM126.827 30.4691L118.907 49.8131L120.758 50.5709L128.678 31.2269L126.827 30.4691ZM119.832 49.192H117.576V51.192H119.832V49.192ZM118.502 50.5706L121.094 44.2346L119.243 43.4774L116.651 49.8134L118.502 50.5706ZM121.094 43.4784L115.79 30.4704L113.938 31.2256L119.242 44.2336L121.094 43.4784ZM114.864 31.848H117.288V29.848H114.864V31.848ZM116.356 31.2092L120.484 41.8652L122.349 41.1428L118.221 30.4868L116.356 31.2092ZM122.35 41.8616L126.43 31.2056L124.562 30.4904L120.482 41.1464L122.35 41.8616ZM125.496 31.848H127.752V29.848H125.496V31.848Z" fill="black"/>
<path fill-rule="evenodd" clip-rule="evenodd" d="M37.05 7.13208L27.5757 21.3962H50.9803L60.4545 7.13208H37.05Z" fill="#8AC4EB"/>
<path fill-rule="evenodd" clip-rule="evenodd" d="M18.091 13.2453L9.54544 26.4906H39.1817L47.7273 13.2453H18.091Z" stroke="#28234A" stroke-width="1.2182" stroke-linecap="round" stroke-linejoin="round"/>
</g>
</g>
<defs>
<clipPath id="clip0">
<rect width="140" height="54" fill="white"/>
</clipPath>
</defs>
</svg>
