<svg width="48" height="47" viewBox="0 0 48 47" fill="none" xmlns="http://www.w3.org/2000/svg">
<rect width="48" height="47" rx="8" fill="#222046"/>
<g clip-path="url(#clip0)">
<path d="M29.664 18.708C30.688 18.708 31.6 18.924 32.4 19.356C33.2 19.772 33.832 20.404 34.296 21.252C34.76 22.1 34.992 23.132 34.992 24.348V32.1H32.832V24.66C32.832 23.348 32.504 22.348 31.848 21.66C31.208 20.956 30.336 20.604 29.232 20.604C28.096 20.604 27.192 20.972 26.52 21.708C25.848 22.428 25.512 23.476 25.512 24.852V32.1H23.352V24.66C23.352 23.348 23.024 22.348 22.368 21.66C21.728 20.956 20.856 20.604 19.752 20.604C18.616 20.604 17.712 20.972 17.04 21.708C16.368 22.428 16.032 23.476 16.032 24.852V32.1H13.848V18.948H16.032V20.844C16.464 20.156 17.04 19.628 17.76 19.26C18.496 18.892 19.304 18.708 20.184 18.708C21.288 18.708 22.264 18.956 23.112 19.452C23.96 19.948 24.592 20.676 25.008 21.636C25.376 20.708 25.984 19.988 26.832 19.476C27.68 18.964 28.624 18.708 29.664 18.708Z" fill="white"/>
<path d="M32.4 19.356L31.9249 20.2359L31.9317 20.2396L31.9386 20.2432L32.4 19.356ZM34.296 21.252L33.4187 21.732L33.4187 21.732L34.296 21.252ZM34.992 32.1V33.1H35.992V32.1H34.992ZM32.832 32.1H31.832V33.1H32.832V32.1ZM31.848 21.66L31.1081 22.3327L31.1161 22.3415L31.1243 22.3501L31.848 21.66ZM26.52 21.708L27.2511 22.3904L27.2585 22.3823L26.52 21.708ZM25.512 32.1V33.1H26.512V32.1H25.512ZM23.352 32.1H22.352V33.1H23.352V32.1ZM22.368 21.66L21.6281 22.3327L21.6361 22.3415L21.6443 22.3501L22.368 21.66ZM17.04 21.708L17.7711 22.3904L17.7785 22.3823L17.04 21.708ZM16.032 32.1V33.1H17.032V32.1H16.032ZM13.848 32.1H12.848V33.1H13.848V32.1ZM13.848 18.948V17.948H12.848V18.948H13.848ZM16.032 18.948H17.032V17.948H16.032V18.948ZM16.032 20.844H15.032V24.3171L16.8789 21.3758L16.032 20.844ZM17.76 19.26L17.3128 18.3655L17.3049 18.3696L17.76 19.26ZM23.112 19.452L22.6071 20.3152L23.112 19.452ZM25.008 21.636L24.0904 22.0336L25.0489 24.2455L25.9376 22.0046L25.008 21.636ZM26.832 19.476L27.3489 20.3321L27.3489 20.3321L26.832 19.476ZM29.664 19.708C30.5434 19.708 31.2884 19.8922 31.9249 20.2359L32.8751 18.4761C31.9116 17.9558 30.8326 17.708 29.664 17.708V19.708ZM31.9386 20.2432C32.5499 20.561 33.0427 21.0448 33.4187 21.732L35.1733 20.772C34.6213 19.7632 33.8501 18.983 32.8614 18.4688L31.9386 20.2432ZM33.4187 21.732C33.784 22.3996 33.992 23.2573 33.992 24.348H35.992C35.992 23.0067 35.736 21.8004 35.1733 20.772L33.4187 21.732ZM33.992 24.348V32.1H35.992V24.348H33.992ZM34.992 31.1H32.832V33.1H34.992V31.1ZM33.832 32.1V24.66H31.832V32.1H33.832ZM33.832 24.66C33.832 23.19 33.4633 21.9049 32.5717 20.9699L31.1243 22.3501C31.5447 22.7911 31.832 23.506 31.832 24.66H33.832ZM32.5879 20.9873C31.7274 20.0408 30.5681 19.604 29.232 19.604V21.604C30.1039 21.604 30.6886 21.8712 31.1081 22.3327L32.5879 20.9873ZM29.232 19.604C27.8584 19.604 26.6704 20.0602 25.7815 21.0337L27.2585 22.3823C27.7136 21.8838 28.3336 21.604 29.232 21.604V19.604ZM25.7889 21.0257C24.8857 21.9935 24.512 23.3238 24.512 24.852H26.512C26.512 23.6282 26.8103 22.8625 27.2511 22.3903L25.7889 21.0257ZM24.512 24.852V32.1H26.512V24.852H24.512ZM25.512 31.1H23.352V33.1H25.512V31.1ZM24.352 32.1V24.66H22.352V32.1H24.352ZM24.352 24.66C24.352 23.19 23.9833 21.9049 23.0917 20.9699L21.6443 22.3501C22.0647 22.7911 22.352 23.506 22.352 24.66H24.352ZM23.1079 20.9873C22.2474 20.0408 21.0881 19.604 19.752 19.604V21.604C20.6239 21.604 21.2086 21.8712 21.6281 22.3327L23.1079 20.9873ZM19.752 19.604C18.3784 19.604 17.1904 20.0602 16.3015 21.0337L17.7785 22.3823C18.2336 21.8838 18.8536 21.604 19.752 21.604V19.604ZM16.3089 21.0257C15.4057 21.9935 15.032 23.3238 15.032 24.852H17.032C17.032 23.6282 17.3303 22.8625 17.7711 22.3903L16.3089 21.0257ZM15.032 24.852V32.1H17.032V24.852H15.032ZM16.032 31.1H13.848V33.1H16.032V31.1ZM14.848 32.1V18.948H12.848V32.1H14.848ZM13.848 19.948H16.032V17.948H13.848V19.948ZM15.032 18.948V20.844H17.032V18.948H15.032ZM16.8789 21.3758C17.2155 20.8397 17.6564 20.436 18.2151 20.1504L17.3049 18.3696C16.4236 18.82 15.7125 19.4723 15.1851 20.3122L16.8789 21.3758ZM18.2072 20.1544C18.7948 19.8606 19.4482 19.708 20.184 19.708V17.708C19.1598 17.708 18.1972 17.9234 17.3128 18.3656L18.2072 20.1544ZM20.184 19.708C21.133 19.708 21.9306 19.9195 22.6071 20.3152L23.6169 18.5888C22.5974 17.9925 21.443 17.708 20.184 17.708V19.708ZM22.6071 20.3152C23.2593 20.6966 23.7532 21.2553 24.0904 22.0336L25.9256 21.2384C25.4308 20.0967 24.6607 19.1994 23.6169 18.5888L22.6071 20.3152ZM25.9376 22.0046C26.2257 21.2781 26.6896 20.7301 27.3489 20.3321L26.3151 18.6199C25.2784 19.2459 24.5263 20.1379 24.0784 21.2674L25.9376 22.0046ZM27.3489 20.3321C28.033 19.919 28.7967 19.708 29.664 19.708V17.708C28.4513 17.708 27.327 18.009 26.3151 18.6199L27.3489 20.3321Z" fill="white"/>
</g>
<defs>
<clipPath id="clip0">
<rect width="29" height="29" fill="white" transform="translate(10 9)"/>
</clipPath>
</defs>
</svg>
