<svg width="233" height="65" viewBox="0 0 233 65" fill="none" xmlns="http://www.w3.org/2000/svg">
<g clip-path="url(#clip0)">
<path d="M-5.30035 5.20509H-68L-55.4601 -5H7.23958L-5.30035 5.20509Z" fill="#54BABA"/>
<path d="M5.84 48.6835V15.0195H9.808L10.512 18.9235H10.896C11.792 17.2595 12.9013 16.0648 14.224 15.3395C15.5467 14.6142 16.9973 14.2515 18.576 14.2515C20.24 14.2515 21.6907 14.6355 22.928 15.4035C24.208 16.1288 25.1467 17.3662 25.744 19.1155C26.64 17.4942 27.8347 16.2782 29.328 15.4675C30.8213 14.6568 32.3573 14.2515 33.936 14.2515C36.3253 14.2515 38.2453 15.0195 39.696 16.5555C41.1467 18.0488 41.872 20.6728 41.872 24.4275V48.6835H36.624V24.8115C36.624 22.4648 36.1973 20.9075 35.344 20.1395C34.5333 19.3288 33.5093 18.9235 32.272 18.9235C30.6933 18.9235 29.328 19.7342 28.176 21.3555C27.0667 22.9768 26.512 25.2382 26.512 28.1395V48.6835H21.264V24.8115C21.264 22.4648 20.8373 20.9075 19.984 20.1395C19.1733 19.3288 18.1493 18.9235 16.912 18.9235C15.3333 18.9235 13.968 19.7342 12.816 21.3555C11.664 22.9768 11.088 25.2382 11.088 28.1395V48.6835H5.84ZM59.5755 49.4515C58.7648 49.4515 57.8475 49.3235 56.8235 49.0675C55.7995 48.8542 54.8182 48.4275 53.8795 47.7875C52.9835 47.1048 52.2368 46.1448 51.6395 44.9075C51.0422 43.6702 50.7435 42.0275 50.7435 39.9795C50.7435 36.8648 51.4688 34.5182 52.9195 32.9395C54.4128 31.3182 56.4395 30.2088 58.9995 29.6115C61.6022 29.0142 64.5248 28.7155 67.7675 28.7155V24.3635C67.7675 22.7422 67.4048 21.4408 66.6795 20.4595C65.9968 19.4355 64.5888 18.9235 62.4555 18.9235C60.4928 18.9235 59.1275 19.4995 58.3595 20.6515C57.6342 21.7608 57.2715 22.9555 57.2715 24.2355V25.0035H52.0875C52.0448 24.7902 52.0235 24.5768 52.0235 24.3635C52.0235 24.1502 52.0235 23.8942 52.0235 23.5955C52.0235 20.5235 53.0262 18.1982 55.0315 16.6195C57.0795 15.0408 59.6822 14.2515 62.8395 14.2515C66.2528 14.2515 68.7915 15.0835 70.4555 16.7475C72.1622 18.3688 73.0155 20.6728 73.0155 23.6595V42.5395C73.0155 43.3502 73.2075 43.9262 73.5915 44.2675C73.9755 44.6088 74.3808 44.7795 74.8075 44.7795H76.8555V48.4275C76.5568 48.5982 76.1088 48.7688 75.5115 48.9395C74.9568 49.1102 74.2528 49.1955 73.3995 49.1955C72.0342 49.1955 70.8822 48.8115 69.9435 48.0435C69.0475 47.2755 68.4288 46.2728 68.0875 45.0355H67.7675C66.9142 46.4008 65.7622 47.4888 64.3115 48.2995C62.9035 49.0675 61.3248 49.4515 59.5755 49.4515ZM60.7915 44.7795C61.9008 44.7795 62.9888 44.4808 64.0555 43.8835C65.1222 43.2435 65.9968 42.3048 66.6795 41.0675C67.4048 39.8302 67.7675 38.2942 67.7675 36.4595V33.3875C65.4635 33.3875 63.4368 33.5582 61.6875 33.8995C59.9808 34.1982 58.6368 34.7955 57.6555 35.6915C56.7168 36.5875 56.2475 37.9102 56.2475 39.6595C56.2475 41.5795 56.6315 42.9235 57.3995 43.6915C58.2102 44.4168 59.3408 44.7795 60.7915 44.7795ZM84.475 48.6835V15.0195H88.443L89.147 19.4355H89.531C89.9577 18.1555 90.619 16.9822 91.515 15.9155C92.411 14.8062 93.6483 14.2515 95.227 14.2515C95.9523 14.2515 96.5497 14.3368 97.019 14.5075C97.4883 14.6782 97.723 14.7635 97.723 14.7635V20.2035H95.995C94.331 20.2035 92.859 20.7795 91.579 21.9315C90.3417 23.0835 89.723 25.1528 89.723 28.1395V48.6835H84.475ZM110.807 49.3235C109.271 49.3235 108.055 48.9395 107.159 48.1715C106.306 47.4035 105.687 46.4435 105.303 45.2915C104.962 44.0968 104.791 42.8595 104.791 41.5795V19.6915H101.911V15.0195H104.791L105.943 5.6755H110.039V15.0195H114.583V19.6915H110.039V41.7075C110.039 43.7555 111.042 44.7795 113.047 44.7795H114.583V48.4275C113.559 49.0248 112.3 49.3235 110.807 49.3235ZM123.13 48.6835V15.0195H128.378V48.6835H123.13ZM123.002 8.4915V2.4115H128.442V8.4915H123.002ZM139.42 48.6835V19.6915H136.476V15.0195H139.42V9.6435C139.42 8.3635 139.612 7.12617 139.996 5.9315C140.423 4.73683 141.105 3.77683 142.044 3.0515C143.025 2.2835 144.369 1.8995 146.076 1.8995C146.844 1.8995 147.633 1.98483 148.444 2.1555C149.255 2.2835 149.937 2.45417 150.492 2.6675V6.3155H147.676C145.671 6.3155 144.668 7.3395 144.668 9.3875V15.0195H150.492V19.6915H144.668V48.6835H139.42ZM159.55 60.3315C158.825 60.3315 158.142 60.2888 157.502 60.2035C156.905 60.1182 156.329 59.9902 155.774 59.8195V56.1715H157.63C159.038 56.1715 160.34 55.6382 161.534 54.5715C162.772 53.5048 163.689 51.5422 164.286 48.6835L153.982 15.0195H159.742L165.438 35.1155C165.737 36.0968 166.014 37.0995 166.27 38.1235C166.569 39.1475 166.868 40.1502 167.166 41.1315H167.422C167.678 40.1075 167.913 39.0835 168.126 38.0595C168.382 37.0355 168.638 36.0115 168.894 34.9875L173.694 15.0195H179.007L170.431 46.9555C169.79 49.3875 168.98 51.6062 167.998 53.6115C167.06 55.6595 165.908 57.2808 164.542 58.4755C163.177 59.7128 161.513 60.3315 159.55 60.3315Z" fill="#222046"/>
<path d="M5.84 48.6835H4.84V49.6835H5.84V48.6835ZM5.84 15.0195V14.0195H4.84V15.0195H5.84ZM9.808 15.0195L10.7921 14.842L10.6438 14.0195H9.808V15.0195ZM10.512 18.9235L9.52787 19.101L9.6762 19.9235H10.512V18.9235ZM10.896 18.9235V19.9235H11.4933L11.7765 19.3976L10.896 18.9235ZM22.928 15.4035L22.4006 16.2531L22.4176 16.2637L22.435 16.2735L22.928 15.4035ZM25.744 19.1155L24.7977 19.4386L25.5272 21.5752L26.6192 19.5992L25.744 19.1155ZM29.328 15.4675L28.8509 14.5886L28.8509 14.5886L29.328 15.4675ZM39.696 16.5555L38.9689 17.2422L38.9787 17.2523L39.696 16.5555ZM41.872 48.6835V49.6835H42.872V48.6835H41.872ZM36.624 48.6835H35.624V49.6835H36.624V48.6835ZM35.344 20.1395L34.6369 20.8466L34.6555 20.8652L34.675 20.8828L35.344 20.1395ZM28.176 21.3555L27.3608 20.7763L27.3557 20.7835L27.3507 20.7908L28.176 21.3555ZM26.512 48.6835V49.6835H27.512V48.6835H26.512ZM21.264 48.6835H20.264V49.6835H21.264V48.6835ZM19.984 20.1395L19.2769 20.8466L19.2955 20.8652L19.315 20.8828L19.984 20.1395ZM12.816 21.3555L13.6312 21.9347L13.6312 21.9347L12.816 21.3555ZM11.088 48.6835V49.6835H12.088V48.6835H11.088ZM6.84 48.6835V15.0195H4.84V48.6835H6.84ZM5.84 16.0195H9.808V14.0195H5.84V16.0195ZM8.82387 15.197L9.52787 19.101L11.4961 18.746L10.7921 14.842L8.82387 15.197ZM10.512 19.9235H10.896V17.9235H10.512V19.9235ZM11.7765 19.3976C12.604 17.8607 13.5897 16.8279 14.7048 16.2163L13.7432 14.4627C12.213 15.3018 10.98 16.6583 10.0155 18.4494L11.7765 19.3976ZM14.7048 16.2163C15.8732 15.5756 17.1573 15.2515 18.576 15.2515V13.2515C16.8374 13.2515 15.2202 13.6527 13.7432 14.4627L14.7048 16.2163ZM18.576 15.2515C20.0808 15.2515 21.3433 15.5968 22.4006 16.2531L23.4554 14.5539C22.0381 13.6742 20.3992 13.2515 18.576 13.2515V15.2515ZM22.435 16.2735C23.4515 16.8496 24.2584 17.8594 24.7977 19.4386L26.6904 18.7924C26.0349 16.8729 24.9645 15.4081 23.421 14.5335L22.435 16.2735ZM26.6192 19.5992C27.4316 18.1292 28.4945 17.0578 29.8051 16.3464L28.8509 14.5886C27.1748 15.4985 25.8484 16.8591 24.8688 18.6318L26.6192 19.5992ZM29.8051 16.3464C31.1635 15.6089 32.5366 15.2515 33.936 15.2515V13.2515C32.1781 13.2515 30.4792 13.7047 28.8509 14.5886L29.8051 16.3464ZM33.936 15.2515C36.0898 15.2515 37.7328 15.9332 38.969 17.2421L40.423 15.8689C38.7579 14.1058 36.5608 13.2515 33.936 13.2515V15.2515ZM38.9787 17.2523C40.1488 18.4568 40.872 20.7431 40.872 24.4275H42.872C42.872 20.6026 42.1445 17.6409 40.4133 15.8587L38.9787 17.2523ZM40.872 24.4275V48.6835H42.872V24.4275H40.872ZM41.872 47.6835H36.624V49.6835H41.872V47.6835ZM37.624 48.6835V24.8115H35.624V48.6835H37.624ZM37.624 24.8115C37.624 23.5854 37.5134 22.5133 37.2685 21.6193C37.0242 20.7278 36.6288 19.9504 36.013 19.3962L34.675 20.8828C34.9126 21.0966 35.1571 21.4818 35.3395 22.1477C35.5213 22.811 35.624 23.6909 35.624 24.8115H37.624ZM36.0511 19.4324C35.0371 18.4184 33.7513 17.9235 32.272 17.9235V19.9235C33.2673 19.9235 34.0296 20.2393 34.6369 20.8466L36.0511 19.4324ZM32.272 17.9235C30.2857 17.9235 28.6459 18.9676 27.3608 20.7763L28.9912 21.9347C30.0101 20.5007 31.101 19.9235 32.272 19.9235V17.9235ZM27.3507 20.7908C26.0852 22.6404 25.512 25.1276 25.512 28.1395H27.512C27.512 25.3487 28.0481 23.3133 29.0013 21.9202L27.3507 20.7908ZM25.512 28.1395V48.6835H27.512V28.1395H25.512ZM26.512 47.6835H21.264V49.6835H26.512V47.6835ZM22.264 48.6835V24.8115H20.264V48.6835H22.264ZM22.264 24.8115C22.264 23.5854 22.1534 22.5133 21.9085 21.6193C21.6642 20.7278 21.2688 19.9504 20.653 19.3962L19.315 20.8828C19.5526 21.0966 19.7971 21.4818 19.9795 22.1477C20.1613 22.811 20.264 23.6909 20.264 24.8115H22.264ZM20.6911 19.4324C19.6771 18.4184 18.3913 17.9235 16.912 17.9235V19.9235C17.9073 19.9235 18.6696 20.2393 19.2769 20.8466L20.6911 19.4324ZM16.912 17.9235C14.9257 17.9235 13.2859 18.9676 12.0008 20.7763L13.6312 21.9347C14.6501 20.5007 15.741 19.9235 16.912 19.9235V17.9235ZM12.0008 20.7763C10.6849 22.6283 10.088 25.1215 10.088 28.1395H12.088C12.088 25.3548 12.6431 23.3253 13.6312 21.9347L12.0008 20.7763ZM10.088 28.1395V48.6835H12.088V28.1395H10.088ZM11.088 47.6835H5.84V49.6835H11.088V47.6835ZM56.8235 49.0675L57.066 48.0974L57.0468 48.0926L57.0275 48.0885L56.8235 49.0675ZM53.8795 47.7875L53.2735 48.5829L53.2944 48.5989L53.3162 48.6137L53.8795 47.7875ZM51.6395 44.9075L50.7389 45.3423L50.7389 45.3423L51.6395 44.9075ZM52.9195 32.9395L52.184 32.262L52.1832 32.2629L52.9195 32.9395ZM58.9995 29.6115L58.7758 28.6368L58.7723 28.6377L58.9995 29.6115ZM67.7675 28.7155V29.7155H68.7675V28.7155H67.7675ZM66.6795 20.4595L65.8475 21.0142L65.8609 21.0344L65.8753 21.0539L66.6795 20.4595ZM58.3595 20.6515L57.5274 20.0968L57.5225 20.1043L58.3595 20.6515ZM57.2715 25.0035V26.0035H58.2715V25.0035H57.2715ZM52.0875 25.0035L51.1069 25.1996L51.2677 26.0035H52.0875V25.0035ZM55.0315 16.6195L54.421 15.8274L54.4129 15.8338L55.0315 16.6195ZM70.4555 16.7475L69.7484 17.4546L69.7575 17.4637L69.7668 17.4725L70.4555 16.7475ZM73.5915 44.2675L74.2559 43.5201L74.2559 43.5201L73.5915 44.2675ZM76.8555 44.7795H77.8555V43.7795H76.8555V44.7795ZM76.8555 48.4275L77.3516 49.2957L77.8555 49.0078V48.4275H76.8555ZM75.5115 48.9395L75.2368 47.978L75.2271 47.9808L75.2174 47.9837L75.5115 48.9395ZM69.9435 48.0435L69.2927 48.8028L69.3014 48.8102L69.3103 48.8175L69.9435 48.0435ZM68.0875 45.0355L69.0515 44.7696L68.849 44.0355H68.0875V45.0355ZM67.7675 45.0355V44.0355H67.2133L66.9195 44.5055L67.7675 45.0355ZM64.3115 48.2995L64.7904 49.1774L64.7993 49.1724L64.3115 48.2995ZM64.0555 43.8835L64.5441 44.756L64.5572 44.7487L64.57 44.741L64.0555 43.8835ZM66.6795 41.0675L65.8168 40.5618L65.8102 40.573L65.8039 40.5844L66.6795 41.0675ZM67.7675 33.3875H68.7675V32.3875H67.7675V33.3875ZM61.6875 33.8995L61.8599 34.8845L61.8695 34.8829L61.879 34.881L61.6875 33.8995ZM57.6555 35.6915L56.9812 34.953L56.973 34.9605L56.965 34.9681L57.6555 35.6915ZM57.3995 43.6915L56.6924 44.3986L56.712 44.4182L56.7327 44.4367L57.3995 43.6915ZM59.5755 48.4515C58.8669 48.4515 58.0331 48.3391 57.066 48.0974L56.581 50.0376C57.6619 50.3079 58.6628 50.4515 59.5755 50.4515V48.4515ZM57.0275 48.0885C56.1428 47.9042 55.2823 47.5337 54.4428 46.9613L53.3162 48.6137C54.354 49.3213 55.4562 49.8041 56.6195 50.0465L57.0275 48.0885ZM54.4855 46.9921C53.7393 46.4235 53.0838 45.5991 52.5401 44.4728L50.7389 45.3423C51.3899 46.6906 52.2277 47.7862 53.2735 48.5829L54.4855 46.9921ZM52.5401 44.4728C52.0323 43.421 51.7435 41.9446 51.7435 39.9795H49.7435C49.7435 42.1104 50.052 43.9194 50.7389 45.3423L52.5401 44.4728ZM51.7435 39.9795C51.7435 37.0033 52.4378 34.9416 53.6558 33.6161L52.1832 32.2629C50.4999 34.0947 49.7435 36.7264 49.7435 39.9795H51.7435ZM53.655 33.617C54.9881 32.1697 56.8237 31.146 59.2267 30.5853L58.7723 28.6377C56.0553 29.2716 53.8376 30.4666 52.184 32.262L53.655 33.617ZM59.2232 30.5862C61.7388 30.0088 64.5847 29.7155 67.7675 29.7155V27.7155C64.465 27.7155 61.4655 28.0195 58.7758 28.6368L59.2232 30.5862ZM68.7675 28.7155V24.3635H66.7675V28.7155H68.7675ZM68.7675 24.3635C68.7675 22.598 68.3722 21.0673 67.4837 19.8651L65.8753 21.0539C66.4375 21.8144 66.7675 22.8863 66.7675 24.3635H68.7675ZM67.5116 19.9048C66.5401 18.4476 64.6795 17.9235 62.4555 17.9235V19.9235C64.4981 19.9235 65.4536 20.4234 65.8475 21.0142L67.5116 19.9048ZM62.4555 17.9235C60.3097 17.9235 58.5515 18.5608 57.5275 20.0968L59.1916 21.2062C59.7035 20.4382 60.676 19.9235 62.4555 19.9235V17.9235ZM57.5225 20.1043C56.6948 21.3702 56.2715 22.754 56.2715 24.2355H58.2715C58.2715 23.157 58.5735 22.1515 59.1965 21.1988L57.5225 20.1043ZM56.2715 24.2355V25.0035H58.2715V24.2355H56.2715ZM57.2715 24.0035H52.0875V26.0035H57.2715V24.0035ZM53.0681 24.8074C53.0381 24.6573 53.0235 24.5097 53.0235 24.3635H51.0235C51.0235 24.644 51.0516 24.923 51.1069 25.1996L53.0681 24.8074ZM53.0235 24.3635C53.0235 24.3631 53.0235 24.3627 53.0235 24.3623C53.0235 24.3618 53.0235 24.3614 53.0235 24.361C53.0235 24.3606 53.0235 24.3602 53.0235 24.3597C53.0235 24.3593 53.0235 24.3589 53.0235 24.3585C53.0235 24.3581 53.0235 24.3577 53.0235 24.3572C53.0235 24.3568 53.0235 24.3564 53.0235 24.356C53.0235 24.3556 53.0235 24.3551 53.0235 24.3547C53.0235 24.3543 53.0235 24.3539 53.0235 24.3535C53.0235 24.3531 53.0235 24.3526 53.0235 24.3522C53.0235 24.3518 53.0235 24.3514 53.0235 24.351C53.0235 24.3505 53.0235 24.3501 53.0235 24.3497C53.0235 24.3493 53.0235 24.3489 53.0235 24.3484C53.0235 24.348 53.0235 24.3476 53.0235 24.3472C53.0235 24.3467 53.0235 24.3463 53.0235 24.3459C53.0235 24.3455 53.0235 24.3451 53.0235 24.3446C53.0235 24.3442 53.0235 24.3438 53.0235 24.3434C53.0235 24.343 53.0235 24.3425 53.0235 24.3421C53.0235 24.3417 53.0235 24.3413 53.0235 24.3408C53.0235 24.3404 53.0235 24.34 53.0235 24.3396C53.0235 24.3392 53.0235 24.3387 53.0235 24.3383C53.0235 24.3379 53.0235 24.3375 53.0235 24.337C53.0235 24.3366 53.0235 24.3362 53.0235 24.3358C53.0235 24.3353 53.0235 24.3349 53.0235 24.3345C53.0235 24.3341 53.0235 24.3336 53.0235 24.3332C53.0235 24.3328 53.0235 24.3324 53.0235 24.3319C53.0235 24.3315 53.0235 24.3311 53.0235 24.3307C53.0235 24.3302 53.0235 24.3298 53.0235 24.3294C53.0235 24.329 53.0235 24.3285 53.0235 24.3281C53.0235 24.3277 53.0235 24.3273 53.0235 24.3268C53.0235 24.3264 53.0235 24.326 53.0235 24.3256C53.0235 24.3251 53.0235 24.3247 53.0235 24.3243C53.0235 24.3239 53.0235 24.3234 53.0235 24.323C53.0235 24.3226 53.0235 24.3221 53.0235 24.3217C53.0235 24.3213 53.0235 24.3209 53.0235 24.3204C53.0235 24.32 53.0235 24.3196 53.0235 24.3192C53.0235 24.3187 53.0235 24.3183 53.0235 24.3179C53.0235 24.3174 53.0235 24.317 53.0235 24.3166C53.0235 24.3162 53.0235 24.3157 53.0235 24.3153C53.0235 24.3149 53.0235 24.3144 53.0235 24.314C53.0235 24.3136 53.0235 24.3131 53.0235 24.3127C53.0235 24.3123 53.0235 24.3119 53.0235 24.3114C53.0235 24.311 53.0235 24.3106 53.0235 24.3101C53.0235 24.3097 53.0235 24.3093 53.0235 24.3088C53.0235 24.3084 53.0235 24.308 53.0235 24.3076C53.0235 24.3071 53.0235 24.3067 53.0235 24.3063C53.0235 24.3058 53.0235 24.3054 53.0235 24.305C53.0235 24.3045 53.0235 24.3041 53.0235 24.3037C53.0235 24.3032 53.0235 24.3028 53.0235 24.3024C53.0235 24.3019 53.0235 24.3015 53.0235 24.3011C53.0235 24.3006 53.0235 24.3002 53.0235 24.2998C53.0235 24.2993 53.0235 24.2989 53.0235 24.2985C53.0235 24.298 53.0235 24.2976 53.0235 24.2972C53.0235 24.2967 53.0235 24.2963 53.0235 24.2959C53.0235 24.2954 53.0235 24.295 53.0235 24.2946C53.0235 24.2941 53.0235 24.2937 53.0235 24.2933C53.0235 24.2928 53.0235 24.2924 53.0235 24.292C53.0235 24.2915 53.0235 24.2911 53.0235 24.2907C53.0235 24.2902 53.0235 24.2898 53.0235 24.2894C53.0235 24.2889 53.0235 24.2885 53.0235 24.2881C53.0235 24.2876 53.0235 24.2872 53.0235 24.2867C53.0235 24.2863 53.0235 24.2859 53.0235 24.2854C53.0235 24.285 53.0235 24.2846 53.0235 24.2841C53.0235 24.2837 53.0235 24.2832 53.0235 24.2828C53.0235 24.2824 53.0235 24.2819 53.0235 24.2815C53.0235 24.2811 53.0235 24.2806 53.0235 24.2802C53.0235 24.2797 53.0235 24.2793 53.0235 24.2789C53.0235 24.2784 53.0235 24.278 53.0235 24.2776C53.0235 24.2771 53.0235 24.2767 53.0235 24.2762C53.0235 24.2758 53.0235 24.2754 53.0235 24.2749C53.0235 24.2745 53.0235 24.274 53.0235 24.2736C53.0235 24.2732 53.0235 24.2727 53.0235 24.2723C53.0235 24.2718 53.0235 24.2714 53.0235 24.271C53.0235 24.2705 53.0235 24.2701 53.0235 24.2696C53.0235 24.2692 53.0235 24.2688 53.0235 24.2683C53.0235 24.2679 53.0235 24.2674 53.0235 24.267C53.0235 24.2666 53.0235 24.2661 53.0235 24.2657C53.0235 24.2652 53.0235 24.2648 53.0235 24.2644C53.0235 24.2639 53.0235 24.2635 53.0235 24.263C53.0235 24.2626 53.0235 24.2621 53.0235 24.2617C53.0235 24.2613 53.0235 24.2608 53.0235 24.2604C53.0235 24.2599 53.0235 24.2595 53.0235 24.259C53.0235 24.2586 53.0235 24.2582 53.0235 24.2577C53.0235 24.2573 53.0235 24.2568 53.0235 24.2564C53.0235 24.2559 53.0235 24.2555 53.0235 24.2551C53.0235 24.2546 53.0235 24.2542 53.0235 24.2537C53.0235 24.2533 53.0235 24.2528 53.0235 24.2524C53.0235 24.2519 53.0235 24.2515 53.0235 24.2511C53.0235 24.2506 53.0235 24.2502 53.0235 24.2497C53.0235 24.2493 53.0235 24.2488 53.0235 24.2484C53.0235 24.2479 53.0235 24.2475 53.0235 24.247C53.0235 24.2466 53.0235 24.2462 53.0235 24.2457C53.0235 24.2453 53.0235 24.2448 53.0235 24.2444C53.0235 24.2439 53.0235 24.2435 53.0235 24.243C53.0235 24.2426 53.0235 24.2421 53.0235 24.2417C53.0235 24.2412 53.0235 24.2408 53.0235 24.2403C53.0235 24.2399 53.0235 24.2394 53.0235 24.239C53.0235 24.2386 53.0235 24.2381 53.0235 24.2377C53.0235 24.2372 53.0235 24.2368 53.0235 24.2363C53.0235 24.2359 53.0235 24.2354 53.0235 24.235C53.0235 24.2345 53.0235 24.2341 53.0235 24.2336C53.0235 24.2332 53.0235 24.2327 53.0235 24.2323C53.0235 24.2318 53.0235 24.2314 53.0235 24.2309C53.0235 24.2305 53.0235 24.23 53.0235 24.2296C53.0235 24.2291 53.0235 24.2287 53.0235 24.2282C53.0235 24.2278 53.0235 24.2273 53.0235 24.2269C53.0235 24.2264 53.0235 24.226 53.0235 24.2255C53.0235 24.2251 53.0235 24.2246 53.0235 24.2242C53.0235 24.2237 53.0235 24.2233 53.0235 24.2228C53.0235 24.2224 53.0235 24.2219 53.0235 24.2214C53.0235 24.221 53.0235 24.2205 53.0235 24.2201C53.0235 24.2196 53.0235 24.2192 53.0235 24.2187C53.0235 24.2183 53.0235 24.2178 53.0235 24.2174C53.0235 24.2169 53.0235 24.2165 53.0235 24.216C53.0235 24.2156 53.0235 24.2151 53.0235 24.2147C53.0235 24.2142 53.0235 24.2137 53.0235 24.2133C53.0235 24.2128 53.0235 24.2124 53.0235 24.2119C53.0235 24.2115 53.0235 24.211 53.0235 24.2106C53.0235 24.2101 53.0235 24.2097 53.0235 24.2092C53.0235 24.2087 53.0235 24.2083 53.0235 24.2078C53.0235 24.2074 53.0235 24.2069 53.0235 24.2065C53.0235 24.206 53.0235 24.2056 53.0235 24.2051C53.0235 24.2046 53.0235 24.2042 53.0235 24.2037C53.0235 24.2033 53.0235 24.2028 53.0235 24.2024C53.0235 24.2019 53.0235 24.2014 53.0235 24.201C53.0235 24.2005 53.0235 24.2001 53.0235 24.1996C53.0235 24.1992 53.0235 24.1987 53.0235 24.1982C53.0235 24.1978 53.0235 24.1973 53.0235 24.1969C53.0235 24.1964 53.0235 24.196 53.0235 24.1955C53.0235 24.195 53.0235 24.1946 53.0235 24.1941C53.0235 24.1937 53.0235 24.1932 53.0235 24.1927C53.0235 24.1923 53.0235 24.1918 53.0235 24.1914C53.0235 24.1909 53.0235 24.1905 53.0235 24.19C53.0235 24.1895 53.0235 24.1891 53.0235 24.1886C53.0235 24.1882 53.0235 24.1877 53.0235 24.1872C53.0235 24.1868 53.0235 24.1863 53.0235 24.1859C53.0235 24.1854 53.0235 24.1849 53.0235 24.1845C53.0235 24.184 53.0235 24.1835 53.0235 24.1831C53.0235 24.1826 53.0235 24.1822 53.0235 24.1817C53.0235 24.1812 53.0235 24.1808 53.0235 24.1803C53.0235 24.1799 53.0235 24.1794 53.0235 24.1789C53.0235 24.1785 53.0235 24.178 53.0235 24.1775C53.0235 24.1771 53.0235 24.1766 53.0235 24.1762C53.0235 24.1757 53.0235 24.1752 53.0235 24.1748C53.0235 24.1743 53.0235 24.1738 53.0235 24.1734C53.0235 24.1729 53.0235 24.1724 53.0235 24.172C53.0235 24.1715 53.0235 24.1711 53.0235 24.1706C53.0235 24.1701 53.0235 24.1697 53.0235 24.1692C53.0235 24.1687 53.0235 24.1683 53.0235 24.1678C53.0235 24.1673 53.0235 24.1669 53.0235 24.1664C53.0235 24.1659 53.0235 24.1655 53.0235 24.165C53.0235 24.1645 53.0235 24.1641 53.0235 24.1636C53.0235 24.1632 53.0235 24.1627 53.0235 24.1622C53.0235 24.1618 53.0235 24.1613 53.0235 24.1608C53.0235 24.1604 53.0235 24.1599 53.0235 24.1594C53.0235 24.159 53.0235 24.1585 53.0235 24.158C53.0235 24.1576 53.0235 24.1571 53.0235 24.1566C53.0235 24.1562 53.0235 24.1557 53.0235 24.1552C53.0235 24.1547 53.0235 24.1543 53.0235 24.1538C53.0235 24.1533 53.0235 24.1529 53.0235 24.1524C53.0235 24.1519 53.0235 24.1515 53.0235 24.151C53.0235 24.1505 53.0235 24.1501 53.0235 24.1496C53.0235 24.1491 53.0235 24.1487 53.0235 24.1482C53.0235 24.1477 53.0235 24.1472 53.0235 24.1468C53.0235 24.1463 53.0235 24.1458 53.0235 24.1454C53.0235 24.1449 53.0235 24.1444 53.0235 24.144C53.0235 24.1435 53.0235 24.143 53.0235 24.1425C53.0235 24.1421 53.0235 24.1416 53.0235 24.1411C53.0235 24.1407 53.0235 24.1402 53.0235 24.1397C53.0235 24.1392 53.0235 24.1388 53.0235 24.1383C53.0235 24.1378 53.0235 24.1374 53.0235 24.1369C53.0235 24.1364 53.0235 24.1359 53.0235 24.1355C53.0235 24.135 53.0235 24.1345 53.0235 24.1341C53.0235 24.1336 53.0235 24.1331 53.0235 24.1326C53.0235 24.1322 53.0235 24.1317 53.0235 24.1312C53.0235 24.1307 53.0235 24.1303 53.0235 24.1298C53.0235 24.1293 53.0235 24.1288 53.0235 24.1284C53.0235 24.1279 53.0235 24.1274 53.0235 24.127C53.0235 24.1265 53.0235 24.126 53.0235 24.1255C53.0235 24.1251 53.0235 24.1246 53.0235 24.1241C53.0235 24.1236 53.0235 24.1232 53.0235 24.1227C53.0235 24.1222 53.0235 24.1217 53.0235 24.1213C53.0235 24.1208 53.0235 24.1203 53.0235 24.1198C53.0235 24.1194 53.0235 24.1189 53.0235 24.1184C53.0235 24.1179 53.0235 24.1174 53.0235 24.117C53.0235 24.1165 53.0235 24.116 53.0235 24.1155C53.0235 24.1151 53.0235 24.1146 53.0235 24.1141C53.0235 24.1136 53.0235 24.1132 53.0235 24.1127C53.0235 24.1122 53.0235 24.1117 53.0235 24.1112C53.0235 24.1108 53.0235 24.1103 53.0235 24.1098C53.0235 24.1093 53.0235 24.1089 53.0235 24.1084C53.0235 24.1079 53.0235 24.1074 53.0235 24.1069C53.0235 24.1065 53.0235 24.106 53.0235 24.1055C53.0235 24.105 53.0235 24.1045 53.0235 24.1041C53.0235 24.1036 53.0235 24.1031 53.0235 24.1026C53.0235 24.1021 53.0235 24.1017 53.0235 24.1012C53.0235 24.1007 53.0235 24.1002 53.0235 24.0997C53.0235 24.0993 53.0235 24.0988 53.0235 24.0983C53.0235 24.0978 53.0235 24.0973 53.0235 24.0969C53.0235 24.0964 53.0235 24.0959 53.0235 24.0954C53.0235 24.0949 53.0235 24.0945 53.0235 24.094C53.0235 24.0935 53.0235 24.093 53.0235 24.0925C53.0235 24.092 53.0235 24.0916 53.0235 24.0911C53.0235 24.0906 53.0235 24.0901 53.0235 24.0896C53.0235 24.0891 53.0235 24.0887 53.0235 24.0882C53.0235 24.0877 53.0235 24.0872 53.0235 24.0867C53.0235 24.0862 53.0235 24.0858 53.0235 24.0853C53.0235 24.0848 53.0235 24.0843 53.0235 24.0838C53.0235 24.0833 53.0235 24.0829 53.0235 24.0824C53.0235 24.0819 53.0235 24.0814 53.0235 24.0809C53.0235 24.0804 53.0235 24.08 53.0235 24.0795C53.0235 24.079 53.0235 24.0785 53.0235 24.078C53.0235 24.0775 53.0235 24.077 53.0235 24.0766C53.0235 24.0761 53.0235 24.0756 53.0235 24.0751C53.0235 24.0746 53.0235 24.0741 53.0235 24.0736C53.0235 24.0732 53.0235 24.0727 53.0235 24.0722C53.0235 24.0717 53.0235 24.0712 53.0235 24.0707C53.0235 24.0702 53.0235 24.0697 53.0235 24.0693C53.0235 24.0688 53.0235 24.0683 53.0235 24.0678C53.0235 24.0673 53.0235 24.0668 53.0235 24.0663C53.0235 24.0658 53.0235 24.0654 53.0235 24.0649C53.0235 24.0644 53.0235 24.0639 53.0235 24.0634C53.0235 24.0629 53.0235 24.0624 53.0235 24.0619C53.0235 24.0614 53.0235 24.061 53.0235 24.0605C53.0235 24.06 53.0235 24.0595 53.0235 24.059C53.0235 24.0585 53.0235 24.058 53.0235 24.0575C53.0235 24.057 53.0235 24.0566 53.0235 24.0561C53.0235 24.0556 53.0235 24.0551 53.0235 24.0546C53.0235 24.0541 53.0235 24.0536 53.0235 24.0531C53.0235 24.0526 53.0235 24.0521 53.0235 24.0516C53.0235 24.0512 53.0235 24.0507 53.0235 24.0502C53.0235 24.0497 53.0235 24.0492 53.0235 24.0487C53.0235 24.0482 53.0235 24.0477 53.0235 24.0472C53.0235 24.0467 53.0235 24.0462 53.0235 24.0457C53.0235 24.0453 53.0235 24.0448 53.0235 24.0443C53.0235 24.0438 53.0235 24.0433 53.0235 24.0428C53.0235 24.0423 53.0235 24.0418 53.0235 24.0413C53.0235 24.0408 53.0235 24.0403 53.0235 24.0398C53.0235 24.0393 53.0235 24.0388 53.0235 24.0383C53.0235 24.0378 53.0235 24.0374 53.0235 24.0369C53.0235 24.0364 53.0235 24.0359 53.0235 24.0354C53.0235 24.0349 53.0235 24.0344 53.0235 24.0339C53.0235 24.0334 53.0235 24.0329 53.0235 24.0324C53.0235 24.0319 53.0235 24.0314 53.0235 24.0309C53.0235 24.0304 53.0235 24.0299 53.0235 24.0294C53.0235 24.0289 53.0235 24.0284 53.0235 24.0279C53.0235 24.0274 53.0235 24.0269 53.0235 24.0265C53.0235 24.026 53.0235 24.0255 53.0235 24.025C53.0235 24.0245 53.0235 24.024 53.0235 24.0235C53.0235 24.023 53.0235 24.0225 53.0235 24.022C53.0235 24.0215 53.0235 24.021 53.0235 24.0205C53.0235 24.02 53.0235 24.0195 53.0235 24.019C53.0235 24.0185 53.0235 24.018 53.0235 24.0175C53.0235 24.017 53.0235 24.0165 53.0235 24.016C53.0235 24.0155 53.0235 24.015 53.0235 24.0145C53.0235 24.014 53.0235 24.0135 53.0235 24.013C53.0235 24.0125 53.0235 24.012 53.0235 24.0115C53.0235 24.011 53.0235 24.0105 53.0235 24.01C53.0235 24.0095 53.0235 24.009 53.0235 24.0085C53.0235 24.008 53.0235 24.0075 53.0235 24.007C53.0235 24.0065 53.0235 24.006 53.0235 24.0055C53.0235 24.005 53.0235 24.0045 53.0235 24.004C53.0235 24.0035 53.0235 24.003 53.0235 24.0025C53.0235 24.002 53.0235 24.0015 53.0235 24.001C53.0235 24.0005 53.0235 24 53.0235 23.9995C53.0235 23.999 53.0235 23.9985 53.0235 23.998C53.0235 23.9975 53.0235 23.997 53.0235 23.9965C53.0235 23.9959 53.0235 23.9954 53.0235 23.9949C53.0235 23.9944 53.0235 23.9939 53.0235 23.9934C53.0235 23.9929 53.0235 23.9924 53.0235 23.9919C53.0235 23.9914 53.0235 23.9909 53.0235 23.9904C53.0235 23.9899 53.0235 23.9894 53.0235 23.9889C53.0235 23.9884 53.0235 23.9879 53.0235 23.9874C53.0235 23.9869 53.0235 23.9864 53.0235 23.9859C53.0235 23.9854 53.0235 23.9848 53.0235 23.9843C53.0235 23.9838 53.0235 23.9833 53.0235 23.9828C53.0235 23.9823 53.0235 23.9818 53.0235 23.9813C53.0235 23.9808 53.0235 23.9803 53.0235 23.9798C53.0235 23.9793 53.0235 23.9788 53.0235 23.9783C53.0235 23.9778 53.0235 23.9773 53.0235 23.9767C53.0235 23.9762 53.0235 23.9757 53.0235 23.9752C53.0235 23.9747 53.0235 23.9742 53.0235 23.9737C53.0235 23.9732 53.0235 23.9727 53.0235 23.9722C53.0235 23.9717 53.0235 23.9712 53.0235 23.9706C53.0235 23.9701 53.0235 23.9696 53.0235 23.9691C53.0235 23.9686 53.0235 23.9681 53.0235 23.9676C53.0235 23.9671 53.0235 23.9666 53.0235 23.9661C53.0235 23.9656 53.0235 23.965 53.0235 23.9645C53.0235 23.964 53.0235 23.9635 53.0235 23.963C53.0235 23.9625 53.0235 23.962 53.0235 23.9615C53.0235 23.961 53.0235 23.9604 53.0235 23.9599C53.0235 23.9594 53.0235 23.9589 53.0235 23.9584C53.0235 23.9579 53.0235 23.9574 53.0235 23.9569C53.0235 23.9564 53.0235 23.9558 53.0235 23.9553C53.0235 23.9548 53.0235 23.9543 53.0235 23.9538C53.0235 23.9533 53.0235 23.9528 53.0235 23.9523C53.0235 23.9517 53.0235 23.9512 53.0235 23.9507C53.0235 23.9502 53.0235 23.9497 53.0235 23.9492C53.0235 23.9487 53.0235 23.9482 53.0235 23.9476C53.0235 23.9471 53.0235 23.9466 53.0235 23.9461C53.0235 23.9456 53.0235 23.9451 53.0235 23.9446C53.0235 23.944 53.0235 23.9435 53.0235 23.943C53.0235 23.9425 53.0235 23.942 53.0235 23.9415C53.0235 23.941 53.0235 23.9404 53.0235 23.9399C53.0235 23.9394 53.0235 23.9389 53.0235 23.9384C53.0235 23.9379 53.0235 23.9373 53.0235 23.9368C53.0235 23.9363 53.0235 23.9358 53.0235 23.9353C53.0235 23.9348 53.0235 23.9342 53.0235 23.9337C53.0235 23.9332 53.0235 23.9327 53.0235 23.9322C53.0235 23.9317 53.0235 23.9311 53.0235 23.9306C53.0235 23.9301 53.0235 23.9296 53.0235 23.9291C53.0235 23.9286 53.0235 23.928 53.0235 23.9275C53.0235 23.927 53.0235 23.9265 53.0235 23.926C53.0235 23.9255 53.0235 23.9249 53.0235 23.9244C53.0235 23.9239 53.0235 23.9234 53.0235 23.9229C53.0235 23.9223 53.0235 23.9218 53.0235 23.9213C53.0235 23.9208 53.0235 23.9203 53.0235 23.9197C53.0235 23.9192 53.0235 23.9187 53.0235 23.9182C53.0235 23.9177 53.0235 23.9171 53.0235 23.9166C53.0235 23.9161 53.0235 23.9156 53.0235 23.9151C53.0235 23.9145 53.0235 23.914 53.0235 23.9135C53.0235 23.913 53.0235 23.9125 53.0235 23.9119C53.0235 23.9114 53.0235 23.9109 53.0235 23.9104C53.0235 23.9099 53.0235 23.9093 53.0235 23.9088C53.0235 23.9083 53.0235 23.9078 53.0235 23.9072C53.0235 23.9067 53.0235 23.9062 53.0235 23.9057C53.0235 23.9052 53.0235 23.9046 53.0235 23.9041C53.0235 23.9036 53.0235 23.9031 53.0235 23.9025C53.0235 23.902 53.0235 23.9015 53.0235 23.901C53.0235 23.9004 53.0235 23.8999 53.0235 23.8994C53.0235 23.8989 53.0235 23.8984 53.0235 23.8978C53.0235 23.8973 53.0235 23.8968 53.0235 23.8963C53.0235 23.8957 53.0235 23.8952 53.0235 23.8947C53.0235 23.8942 53.0235 23.8936 53.0235 23.8931C53.0235 23.8926 53.0235 23.8921 53.0235 23.8915C53.0235 23.891 53.0235 23.8905 53.0235 23.89C53.0235 23.8894 53.0235 23.8889 53.0235 23.8884C53.0235 23.8878 53.0235 23.8873 53.0235 23.8868C53.0235 23.8863 53.0235 23.8857 53.0235 23.8852C53.0235 23.8847 53.0235 23.8842 53.0235 23.8836C53.0235 23.8831 53.0235 23.8826 53.0235 23.8821C53.0235 23.8815 53.0235 23.881 53.0235 23.8805C53.0235 23.8799 53.0235 23.8794 53.0235 23.8789C53.0235 23.8784 53.0235 23.8778 53.0235 23.8773C53.0235 23.8768 53.0235 23.8762 53.0235 23.8757C53.0235 23.8752 53.0235 23.8747 53.0235 23.8741C53.0235 23.8736 53.0235 23.8731 53.0235 23.8725C53.0235 23.872 53.0235 23.8715 53.0235 23.871C53.0235 23.8704 53.0235 23.8699 53.0235 23.8694C53.0235 23.8688 53.0235 23.8683 53.0235 23.8678C53.0235 23.8672 53.0235 23.8667 53.0235 23.8662C53.0235 23.8657 53.0235 23.8651 53.0235 23.8646C53.0235 23.8641 53.0235 23.8635 53.0235 23.863C53.0235 23.8625 53.0235 23.8619 53.0235 23.8614C53.0235 23.8609 53.0235 23.8603 53.0235 23.8598C53.0235 23.8593 53.0235 23.8587 53.0235 23.8582C53.0235 23.8577 53.0235 23.8572 53.0235 23.8566C53.0235 23.8561 53.0235 23.8556 53.0235 23.855C53.0235 23.8545 53.0235 23.854 53.0235 23.8534C53.0235 23.8529 53.0235 23.8524 53.0235 23.8518C53.0235 23.8513 53.0235 23.8508 53.0235 23.8502C53.0235 23.8497 53.0235 23.8492 53.0235 23.8486C53.0235 23.8481 53.0235 23.8475 53.0235 23.847C53.0235 23.8465 53.0235 23.8459 53.0235 23.8454C53.0235 23.8449 53.0235 23.8443 53.0235 23.8438C53.0235 23.8433 53.0235 23.8427 53.0235 23.8422C53.0235 23.8417 53.0235 23.8411 53.0235 23.8406C53.0235 23.8401 53.0235 23.8395 53.0235 23.839C53.0235 23.8384 53.0235 23.8379 53.0235 23.8374C53.0235 23.8368 53.0235 23.8363 53.0235 23.8358C53.0235 23.8352 53.0235 23.8347 53.0235 23.8342C53.0235 23.8336 53.0235 23.8331 53.0235 23.8325C53.0235 23.832 53.0235 23.8315 53.0235 23.8309C53.0235 23.8304 53.0235 23.8299 53.0235 23.8293C53.0235 23.8288 53.0235 23.8282 53.0235 23.8277C53.0235 23.8272 53.0235 23.8266 53.0235 23.8261C53.0235 23.8255 53.0235 23.825 53.0235 23.8245C53.0235 23.8239 53.0235 23.8234 53.0235 23.8229C53.0235 23.8223 53.0235 23.8218 53.0235 23.8212C53.0235 23.8207 53.0235 23.8202 53.0235 23.8196C53.0235 23.8191 53.0235 23.8185 53.0235 23.818C53.0235 23.8175 53.0235 23.8169 53.0235 23.8164C53.0235 23.8158 53.0235 23.8153 53.0235 23.8147C53.0235 23.8142 53.0235 23.8137 53.0235 23.8131C53.0235 23.8126 53.0235 23.812 53.0235 23.8115C53.0235 23.811 53.0235 23.8104 53.0235 23.8099C53.0235 23.8093 53.0235 23.8088 53.0235 23.8082C53.0235 23.8077 53.0235 23.8072 53.0235 23.8066C53.0235 23.8061 53.0235 23.8055 53.0235 23.805C53.0235 23.8045 53.0235 23.8039 53.0235 23.8034C53.0235 23.8028 53.0235 23.8023 53.0235 23.8017C53.0235 23.8012 53.0235 23.8006 53.0235 23.8001C53.0235 23.7996 53.0235 23.799 53.0235 23.7985C53.0235 23.7979 53.0235 23.7974 53.0235 23.7968C53.0235 23.7963 53.0235 23.7957 53.0235 23.7952C53.0235 23.7947 53.0235 23.7941 53.0235 23.7936C53.0235 23.793 53.0235 23.7925 53.0235 23.7919C53.0235 23.7914 53.0235 23.7908 53.0235 23.7903C53.0235 23.7897 53.0235 23.7892 53.0235 23.7887C53.0235 23.7881 53.0235 23.7876 53.0235 23.787C53.0235 23.7865 53.0235 23.7859 53.0235 23.7854C53.0235 23.7848 53.0235 23.7843 53.0235 23.7837C53.0235 23.7832 53.0235 23.7826 53.0235 23.7821C53.0235 23.7815 53.0235 23.781 53.0235 23.7804C53.0235 23.7799 53.0235 23.7794 53.0235 23.7788C53.0235 23.7783 53.0235 23.7777 53.0235 23.7772C53.0235 23.7766 53.0235 23.7761 53.0235 23.7755C53.0235 23.775 53.0235 23.7744 53.0235 23.7739C53.0235 23.7733 53.0235 23.7728 53.0235 23.7722C53.0235 23.7717 53.0235 23.7711 53.0235 23.7706C53.0235 23.77 53.0235 23.7695 53.0235 23.7689C53.0235 23.7684 53.0235 23.7678 53.0235 23.7673C53.0235 23.7667 53.0235 23.7662 53.0235 23.7656C53.0235 23.7651 53.0235 23.7645 53.0235 23.764C53.0235 23.7634 53.0235 23.7629 53.0235 23.7623C53.0235 23.7618 53.0235 23.7612 53.0235 23.7607C53.0235 23.7601 53.0235 23.7596 53.0235 23.759C53.0235 23.7584 53.0235 23.7579 53.0235 23.7573C53.0235 23.7568 53.0235 23.7562 53.0235 23.7557C53.0235 23.7551 53.0235 23.7546 53.0235 23.754C53.0235 23.7535 53.0235 23.7529 53.0235 23.7524C53.0235 23.7518 53.0235 23.7513 53.0235 23.7507C53.0235 23.7502 53.0235 23.7496 53.0235 23.749C53.0235 23.7485 53.0235 23.7479 53.0235 23.7474C53.0235 23.7468 53.0235 23.7463 53.0235 23.7457C53.0235 23.7452 53.0235 23.7446 53.0235 23.7441C53.0235 23.7435 53.0235 23.7429 53.0235 23.7424C53.0235 23.7418 53.0235 23.7413 53.0235 23.7407C53.0235 23.7402 53.0235 23.7396 53.0235 23.7391C53.0235 23.7385 53.0235 23.7379 53.0235 23.7374C53.0235 23.7368 53.0235 23.7363 53.0235 23.7357C53.0235 23.7352 53.0235 23.7346 53.0235 23.734C53.0235 23.7335 53.0235 23.7329 53.0235 23.7324C53.0235 23.7318 53.0235 23.7313 53.0235 23.7307C53.0235 23.7301 53.0235 23.7296 53.0235 23.729C53.0235 23.7285 53.0235 23.7279 53.0235 23.7274C53.0235 23.7268 53.0235 23.7262 53.0235 23.7257C53.0235 23.7251 53.0235 23.7246 53.0235 23.724C53.0235 23.7234 53.0235 23.7229 53.0235 23.7223C53.0235 23.7218 53.0235 23.7212 53.0235 23.7206C53.0235 23.7201 53.0235 23.7195 53.0235 23.719C53.0235 23.7184 53.0235 23.7178 53.0235 23.7173C53.0235 23.7167 53.0235 23.7162 53.0235 23.7156C53.0235 23.715 53.0235 23.7145 53.0235 23.7139C53.0235 23.7134 53.0235 23.7128 53.0235 23.7122C53.0235 23.7117 53.0235 23.7111 53.0235 23.7106C53.0235 23.71 53.0235 23.7094 53.0235 23.7089C53.0235 23.7083 53.0235 23.7078 53.0235 23.7072C53.0235 23.7066 53.0235 23.7061 53.0235 23.7055C53.0235 23.7049 53.0235 23.7044 53.0235 23.7038C53.0235 23.7033 53.0235 23.7027 53.0235 23.7021C53.0235 23.7016 53.0235 23.701 53.0235 23.7004C53.0235 23.6999 53.0235 23.6993 53.0235 23.6987C53.0235 23.6982 53.0235 23.6976 53.0235 23.6971C53.0235 23.6965 53.0235 23.6959 53.0235 23.6954C53.0235 23.6948 53.0235 23.6942 53.0235 23.6937C53.0235 23.6931 53.0235 23.6925 53.0235 23.692C53.0235 23.6914 53.0235 23.6908 53.0235 23.6903C53.0235 23.6897 53.0235 23.6891 53.0235 23.6886C53.0235 23.688 53.0235 23.6874 53.0235 23.6869C53.0235 23.6863 53.0235 23.6857 53.0235 23.6852C53.0235 23.6846 53.0235 23.684 53.0235 23.6835C53.0235 23.6829 53.0235 23.6823 53.0235 23.6818C53.0235 23.6812 53.0235 23.6806 53.0235 23.6801C53.0235 23.6795 53.0235 23.6789 53.0235 23.6784C53.0235 23.6778 53.0235 23.6772 53.0235 23.6767C53.0235 23.6761 53.0235 23.6755 53.0235 23.675C53.0235 23.6744 53.0235 23.6738 53.0235 23.6733C53.0235 23.6727 53.0235 23.6721 53.0235 23.6716C53.0235 23.671 53.0235 23.6704 53.0235 23.6698C53.0235 23.6693 53.0235 23.6687 53.0235 23.6681C53.0235 23.6676 53.0235 23.667 53.0235 23.6664C53.0235 23.6659 53.0235 23.6653 53.0235 23.6647C53.0235 23.6641 53.0235 23.6636 53.0235 23.663C53.0235 23.6624 53.0235 23.6619 53.0235 23.6613C53.0235 23.6607 53.0235 23.6602 53.0235 23.6596C53.0235 23.659 53.0235 23.6584 53.0235 23.6579C53.0235 23.6573 53.0235 23.6567 53.0235 23.6562C53.0235 23.6556 53.0235 23.655 53.0235 23.6544C53.0235 23.6539 53.0235 23.6533 53.0235 23.6527C53.0235 23.6521 53.0235 23.6516 53.0235 23.651C53.0235 23.6504 53.0235 23.6499 53.0235 23.6493C53.0235 23.6487 53.0235 23.6481 53.0235 23.6476C53.0235 23.647 53.0235 23.6464 53.0235 23.6458C53.0235 23.6453 53.0235 23.6447 53.0235 23.6441C53.0235 23.6435 53.0235 23.643 53.0235 23.6424C53.0235 23.6418 53.0235 23.6412 53.0235 23.6407C53.0235 23.6401 53.0235 23.6395 53.0235 23.6389C53.0235 23.6384 53.0235 23.6378 53.0235 23.6372C53.0235 23.6366 53.0235 23.6361 53.0235 23.6355C53.0235 23.6349 53.0235 23.6343 53.0235 23.6338C53.0235 23.6332 53.0235 23.6326 53.0235 23.632C53.0235 23.6315 53.0235 23.6309 53.0235 23.6303C53.0235 23.6297 53.0235 23.6292 53.0235 23.6286C53.0235 23.628 53.0235 23.6274 53.0235 23.6268C53.0235 23.6263 53.0235 23.6257 53.0235 23.6251C53.0235 23.6245 53.0235 23.624 53.0235 23.6234C53.0235 23.6228 53.0235 23.6222 53.0235 23.6216C53.0235 23.6211 53.0235 23.6205 53.0235 23.6199C53.0235 23.6193 53.0235 23.6187 53.0235 23.6182C53.0235 23.6176 53.0235 23.617 53.0235 23.6164C53.0235 23.6159 53.0235 23.6153 53.0235 23.6147C53.0235 23.6141 53.0235 23.6135 53.0235 23.613C53.0235 23.6124 53.0235 23.6118 53.0235 23.6112C53.0235 23.6106 53.0235 23.6101 53.0235 23.6095C53.0235 23.6089 53.0235 23.6083 53.0235 23.6077C53.0235 23.6071 53.0235 23.6066 53.0235 23.606C53.0235 23.6054 53.0235 23.6048 53.0235 23.6042C53.0235 23.6037 53.0235 23.6031 53.0235 23.6025C53.0235 23.6019 53.0235 23.6013 53.0235 23.6007C53.0235 23.6002 53.0235 23.5996 53.0235 23.599C53.0235 23.5984 53.0235 23.5978 53.0235 23.5973C53.0235 23.5967 53.0235 23.5961 53.0235 23.5955H51.0235C51.0235 23.5961 51.0235 23.5967 51.0235 23.5973C51.0235 23.5978 51.0235 23.5984 51.0235 23.599C51.0235 23.5996 51.0235 23.6002 51.0235 23.6007C51.0235 23.6013 51.0235 23.6019 51.0235 23.6025C51.0235 23.6031 51.0235 23.6037 51.0235 23.6042C51.0235 23.6048 51.0235 23.6054 51.0235 23.606C51.0235 23.6066 51.0235 23.6071 51.0235 23.6077C51.0235 23.6083 51.0235 23.6089 51.0235 23.6095C51.0235 23.6101 51.0235 23.6106 51.0235 23.6112C51.0235 23.6118 51.0235 23.6124 51.0235 23.613C51.0235 23.6135 51.0235 23.6141 51.0235 23.6147C51.0235 23.6153 51.0235 23.6159 51.0235 23.6164C51.0235 23.617 51.0235 23.6176 51.0235 23.6182C51.0235 23.6187 51.0235 23.6193 51.0235 23.6199C51.0235 23.6205 51.0235 23.6211 51.0235 23.6216C51.0235 23.6222 51.0235 23.6228 51.0235 23.6234C51.0235 23.624 51.0235 23.6245 51.0235 23.6251C51.0235 23.6257 51.0235 23.6263 51.0235 23.6268C51.0235 23.6274 51.0235 23.628 51.0235 23.6286C51.0235 23.6292 51.0235 23.6297 51.0235 23.6303C51.0235 23.6309 51.0235 23.6315 51.0235 23.632C51.0235 23.6326 51.0235 23.6332 51.0235 23.6338C51.0235 23.6343 51.0235 23.6349 51.0235 23.6355C51.0235 23.6361 51.0235 23.6366 51.0235 23.6372C51.0235 23.6378 51.0235 23.6384 51.0235 23.6389C51.0235 23.6395 51.0235 23.6401 51.0235 23.6407C51.0235 23.6412 51.0235 23.6418 51.0235 23.6424C51.0235 23.643 51.0235 23.6435 51.0235 23.6441C51.0235 23.6447 51.0235 23.6453 51.0235 23.6458C51.0235 23.6464 51.0235 23.647 51.0235 23.6476C51.0235 23.6481 51.0235 23.6487 51.0235 23.6493C51.0235 23.6499 51.0235 23.6504 51.0235 23.651C51.0235 23.6516 51.0235 23.6521 51.0235 23.6527C51.0235 23.6533 51.0235 23.6539 51.0235 23.6544C51.0235 23.655 51.0235 23.6556 51.0235 23.6562C51.0235 23.6567 51.0235 23.6573 51.0235 23.6579C51.0235 23.6584 51.0235 23.659 51.0235 23.6596C51.0235 23.6602 51.0235 23.6607 51.0235 23.6613C51.0235 23.6619 51.0235 23.6624 51.0235 23.663C51.0235 23.6636 51.0235 23.6641 51.0235 23.6647C51.0235 23.6653 51.0235 23.6659 51.0235 23.6664C51.0235 23.667 51.0235 23.6676 51.0235 23.6681C51.0235 23.6687 51.0235 23.6693 51.0235 23.6698C51.0235 23.6704 51.0235 23.671 51.0235 23.6716C51.0235 23.6721 51.0235 23.6727 51.0235 23.6733C51.0235 23.6738 51.0235 23.6744 51.0235 23.675C51.0235 23.6755 51.0235 23.6761 51.0235 23.6767C51.0235 23.6772 51.0235 23.6778 51.0235 23.6784C51.0235 23.6789 51.0235 23.6795 51.0235 23.6801C51.0235 23.6806 51.0235 23.6812 51.0235 23.6818C51.0235 23.6823 51.0235 23.6829 51.0235 23.6835C51.0235 23.684 51.0235 23.6846 51.0235 23.6852C51.0235 23.6857 51.0235 23.6863 51.0235 23.6869C51.0235 23.6874 51.0235 23.688 51.0235 23.6886C51.0235 23.6891 51.0235 23.6897 51.0235 23.6903C51.0235 23.6908 51.0235 23.6914 51.0235 23.692C51.0235 23.6925 51.0235 23.6931 51.0235 23.6937C51.0235 23.6942 51.0235 23.6948 51.0235 23.6954C51.0235 23.6959 51.0235 23.6965 51.0235 23.6971C51.0235 23.6976 51.0235 23.6982 51.0235 23.6987C51.0235 23.6993 51.0235 23.6999 51.0235 23.7004C51.0235 23.701 51.0235 23.7016 51.0235 23.7021C51.0235 23.7027 51.0235 23.7033 51.0235 23.7038C51.0235 23.7044 51.0235 23.7049 51.0235 23.7055C51.0235 23.7061 51.0235 23.7066 51.0235 23.7072C51.0235 23.7078 51.0235 23.7083 51.0235 23.7089C51.0235 23.7094 51.0235 23.71 51.0235 23.7106C51.0235 23.7111 51.0235 23.7117 51.0235 23.7122C51.0235 23.7128 51.0235 23.7134 51.0235 23.7139C51.0235 23.7145 51.0235 23.715 51.0235 23.7156C51.0235 23.7162 51.0235 23.7167 51.0235 23.7173C51.0235 23.7178 51.0235 23.7184 51.0235 23.719C51.0235 23.7195 51.0235 23.7201 51.0235 23.7206C51.0235 23.7212 51.0235 23.7218 51.0235 23.7223C51.0235 23.7229 51.0235 23.7234 51.0235 23.724C51.0235 23.7246 51.0235 23.7251 51.0235 23.7257C51.0235 23.7262 51.0235 23.7268 51.0235 23.7274C51.0235 23.7279 51.0235 23.7285 51.0235 23.729C51.0235 23.7296 51.0235 23.7301 51.0235 23.7307C51.0235 23.7313 51.0235 23.7318 51.0235 23.7324C51.0235 23.7329 51.0235 23.7335 51.0235 23.734C51.0235 23.7346 51.0235 23.7352 51.0235 23.7357C51.0235 23.7363 51.0235 23.7368 51.0235 23.7374C51.0235 23.7379 51.0235 23.7385 51.0235 23.7391C51.0235 23.7396 51.0235 23.7402 51.0235 23.7407C51.0235 23.7413 51.0235 23.7418 51.0235 23.7424C51.0235 23.7429 51.0235 23.7435 51.0235 23.7441C51.0235 23.7446 51.0235 23.7452 51.0235 23.7457C51.0235 23.7463 51.0235 23.7468 51.0235 23.7474C51.0235 23.7479 51.0235 23.7485 51.0235 23.749C51.0235 23.7496 51.0235 23.7502 51.0235 23.7507C51.0235 23.7513 51.0235 23.7518 51.0235 23.7524C51.0235 23.7529 51.0235 23.7535 51.0235 23.754C51.0235 23.7546 51.0235 23.7551 51.0235 23.7557C51.0235 23.7562 51.0235 23.7568 51.0235 23.7573C51.0235 23.7579 51.0235 23.7584 51.0235 23.759C51.0235 23.7596 51.0235 23.7601 51.0235 23.7607C51.0235 23.7612 51.0235 23.7618 51.0235 23.7623C51.0235 23.7629 51.0235 23.7634 51.0235 23.764C51.0235 23.7645 51.0235 23.7651 51.0235 23.7656C51.0235 23.7662 51.0235 23.7667 51.0235 23.7673C51.0235 23.7678 51.0235 23.7684 51.0235 23.7689C51.0235 23.7695 51.0235 23.77 51.0235 23.7706C51.0235 23.7711 51.0235 23.7717 51.0235 23.7722C51.0235 23.7728 51.0235 23.7733 51.0235 23.7739C51.0235 23.7744 51.0235 23.775 51.0235 23.7755C51.0235 23.7761 51.0235 23.7766 51.0235 23.7772C51.0235 23.7777 51.0235 23.7783 51.0235 23.7788C51.0235 23.7794 51.0235 23.7799 51.0235 23.7804C51.0235 23.781 51.0235 23.7815 51.0235 23.7821C51.0235 23.7826 51.0235 23.7832 51.0235 23.7837C51.0235 23.7843 51.0235 23.7848 51.0235 23.7854C51.0235 23.7859 51.0235 23.7865 51.0235 23.787C51.0235 23.7876 51.0235 23.7881 51.0235 23.7887C51.0235 23.7892 51.0235 23.7897 51.0235 23.7903C51.0235 23.7908 51.0235 23.7914 51.0235 23.7919C51.0235 23.7925 51.0235 23.793 51.0235 23.7936C51.0235 23.7941 51.0235 23.7947 51.0235 23.7952C51.0235 23.7957 51.0235 23.7963 51.0235 23.7968C51.0235 23.7974 51.0235 23.7979 51.0235 23.7985C51.0235 23.799 51.0235 23.7996 51.0235 23.8001C51.0235 23.8006 51.0235 23.8012 51.0235 23.8017C51.0235 23.8023 51.0235 23.8028 51.0235 23.8034C51.0235 23.8039 51.0235 23.8045 51.0235 23.805C51.0235 23.8055 51.0235 23.8061 51.0235 23.8066C51.0235 23.8072 51.0235 23.8077 51.0235 23.8082C51.0235 23.8088 51.0235 23.8093 51.0235 23.8099C51.0235 23.8104 51.0235 23.811 51.0235 23.8115C51.0235 23.812 51.0235 23.8126 51.0235 23.8131C51.0235 23.8137 51.0235 23.8142 51.0235 23.8147C51.0235 23.8153 51.0235 23.8158 51.0235 23.8164C51.0235 23.8169 51.0235 23.8175 51.0235 23.818C51.0235 23.8185 51.0235 23.8191 51.0235 23.8196C51.0235 23.8202 51.0235 23.8207 51.0235 23.8212C51.0235 23.8218 51.0235 23.8223 51.0235 23.8229C51.0235 23.8234 51.0235 23.8239 51.0235 23.8245C51.0235 23.825 51.0235 23.8255 51.0235 23.8261C51.0235 23.8266 51.0235 23.8272 51.0235 23.8277C51.0235 23.8282 51.0235 23.8288 51.0235 23.8293C51.0235 23.8299 51.0235 23.8304 51.0235 23.8309C51.0235 23.8315 51.0235 23.832 51.0235 23.8325C51.0235 23.8331 51.0235 23.8336 51.0235 23.8342C51.0235 23.8347 51.0235 23.8352 51.0235 23.8358C51.0235 23.8363 51.0235 23.8368 51.0235 23.8374C51.0235 23.8379 51.0235 23.8384 51.0235 23.839C51.0235 23.8395 51.0235 23.8401 51.0235 23.8406C51.0235 23.8411 51.0235 23.8417 51.0235 23.8422C51.0235 23.8427 51.0235 23.8433 51.0235 23.8438C51.0235 23.8443 51.0235 23.8449 51.0235 23.8454C51.0235 23.8459 51.0235 23.8465 51.0235 23.847C51.0235 23.8475 51.0235 23.8481 51.0235 23.8486C51.0235 23.8492 51.0235 23.8497 51.0235 23.8502C51.0235 23.8508 51.0235 23.8513 51.0235 23.8518C51.0235 23.8524 51.0235 23.8529 51.0235 23.8534C51.0235 23.854 51.0235 23.8545 51.0235 23.855C51.0235 23.8556 51.0235 23.8561 51.0235 23.8566C51.0235 23.8572 51.0235 23.8577 51.0235 23.8582C51.0235 23.8587 51.0235 23.8593 51.0235 23.8598C51.0235 23.8603 51.0235 23.8609 51.0235 23.8614C51.0235 23.8619 51.0235 23.8625 51.0235 23.863C51.0235 23.8635 51.0235 23.8641 51.0235 23.8646C51.0235 23.8651 51.0235 23.8657 51.0235 23.8662C51.0235 23.8667 51.0235 23.8672 51.0235 23.8678C51.0235 23.8683 51.0235 23.8688 51.0235 23.8694C51.0235 23.8699 51.0235 23.8704 51.0235 23.871C51.0235 23.8715 51.0235 23.872 51.0235 23.8725C51.0235 23.8731 51.0235 23.8736 51.0235 23.8741C51.0235 23.8747 51.0235 23.8752 51.0235 23.8757C51.0235 23.8762 51.0235 23.8768 51.0235 23.8773C51.0235 23.8778 51.0235 23.8784 51.0235 23.8789C51.0235 23.8794 51.0235 23.8799 51.0235 23.8805C51.0235 23.881 51.0235 23.8815 51.0235 23.8821C51.0235 23.8826 51.0235 23.8831 51.0235 23.8836C51.0235 23.8842 51.0235 23.8847 51.0235 23.8852C51.0235 23.8857 51.0235 23.8863 51.0235 23.8868C51.0235 23.8873 51.0235 23.8878 51.0235 23.8884C51.0235 23.8889 51.0235 23.8894 51.0235 23.89C51.0235 23.8905 51.0235 23.891 51.0235 23.8915C51.0235 23.8921 51.0235 23.8926 51.0235 23.8931C51.0235 23.8936 51.0235 23.8942 51.0235 23.8947C51.0235 23.8952 51.0235 23.8957 51.0235 23.8963C51.0235 23.8968 51.0235 23.8973 51.0235 23.8978C51.0235 23.8984 51.0235 23.8989 51.0235 23.8994C51.0235 23.8999 51.0235 23.9004 51.0235 23.901C51.0235 23.9015 51.0235 23.902 51.0235 23.9025C51.0235 23.9031 51.0235 23.9036 51.0235 23.9041C51.0235 23.9046 51.0235 23.9052 51.0235 23.9057C51.0235 23.9062 51.0235 23.9067 51.0235 23.9072C51.0235 23.9078 51.0235 23.9083 51.0235 23.9088C51.0235 23.9093 51.0235 23.9099 51.0235 23.9104C51.0235 23.9109 51.0235 23.9114 51.0235 23.9119C51.0235 23.9125 51.0235 23.913 51.0235 23.9135C51.0235 23.914 51.0235 23.9145 51.0235 23.9151C51.0235 23.9156 51.0235 23.9161 51.0235 23.9166C51.0235 23.9171 51.0235 23.9177 51.0235 23.9182C51.0235 23.9187 51.0235 23.9192 51.0235 23.9197C51.0235 23.9203 51.0235 23.9208 51.0235 23.9213C51.0235 23.9218 51.0235 23.9223 51.0235 23.9229C51.0235 23.9234 51.0235 23.9239 51.0235 23.9244C51.0235 23.9249 51.0235 23.9255 51.0235 23.926C51.0235 23.9265 51.0235 23.927 51.0235 23.9275C51.0235 23.928 51.0235 23.9286 51.0235 23.9291C51.0235 23.9296 51.0235 23.9301 51.0235 23.9306C51.0235 23.9311 51.0235 23.9317 51.0235 23.9322C51.0235 23.9327 51.0235 23.9332 51.0235 23.9337C51.0235 23.9342 51.0235 23.9348 51.0235 23.9353C51.0235 23.9358 51.0235 23.9363 51.0235 23.9368C51.0235 23.9373 51.0235 23.9379 51.0235 23.9384C51.0235 23.9389 51.0235 23.9394 51.0235 23.9399C51.0235 23.9404 51.0235 23.941 51.0235 23.9415C51.0235 23.942 51.0235 23.9425 51.0235 23.943C51.0235 23.9435 51.0235 23.944 51.0235 23.9446C51.0235 23.9451 51.0235 23.9456 51.0235 23.9461C51.0235 23.9466 51.0235 23.9471 51.0235 23.9476C51.0235 23.9482 51.0235 23.9487 51.0235 23.9492C51.0235 23.9497 51.0235 23.9502 51.0235 23.9507C51.0235 23.9512 51.0235 23.9517 51.0235 23.9523C51.0235 23.9528 51.0235 23.9533 51.0235 23.9538C51.0235 23.9543 51.0235 23.9548 51.0235 23.9553C51.0235 23.9558 51.0235 23.9564 51.0235 23.9569C51.0235 23.9574 51.0235 23.9579 51.0235 23.9584C51.0235 23.9589 51.0235 23.9594 51.0235 23.9599C51.0235 23.9604 51.0235 23.961 51.0235 23.9615C51.0235 23.962 51.0235 23.9625 51.0235 23.963C51.0235 23.9635 51.0235 23.964 51.0235 23.9645C51.0235 23.965 51.0235 23.9656 51.0235 23.9661C51.0235 23.9666 51.0235 23.9671 51.0235 23.9676C51.0235 23.9681 51.0235 23.9686 51.0235 23.9691C51.0235 23.9696 51.0235 23.9701 51.0235 23.9706C51.0235 23.9712 51.0235 23.9717 51.0235 23.9722C51.0235 23.9727 51.0235 23.9732 51.0235 23.9737C51.0235 23.9742 51.0235 23.9747 51.0235 23.9752C51.0235 23.9757 51.0235 23.9762 51.0235 23.9767C51.0235 23.9773 51.0235 23.9778 51.0235 23.9783C51.0235 23.9788 51.0235 23.9793 51.0235 23.9798C51.0235 23.9803 51.0235 23.9808 51.0235 23.9813C51.0235 23.9818 51.0235 23.9823 51.0235 23.9828C51.0235 23.9833 51.0235 23.9838 51.0235 23.9843C51.0235 23.9848 51.0235 23.9854 51.0235 23.9859C51.0235 23.9864 51.0235 23.9869 51.0235 23.9874C51.0235 23.9879 51.0235 23.9884 51.0235 23.9889C51.0235 23.9894 51.0235 23.9899 51.0235 23.9904C51.0235 23.9909 51.0235 23.9914 51.0235 23.9919C51.0235 23.9924 51.0235 23.9929 51.0235 23.9934C51.0235 23.9939 51.0235 23.9944 51.0235 23.9949C51.0235 23.9954 51.0235 23.9959 51.0235 23.9965C51.0235 23.997 51.0235 23.9975 51.0235 23.998C51.0235 23.9985 51.0235 23.999 51.0235 23.9995C51.0235 24 51.0235 24.0005 51.0235 24.001C51.0235 24.0015 51.0235 24.002 51.0235 24.0025C51.0235 24.003 51.0235 24.0035 51.0235 24.004C51.0235 24.0045 51.0235 24.005 51.0235 24.0055C51.0235 24.006 51.0235 24.0065 51.0235 24.007C51.0235 24.0075 51.0235 24.008 51.0235 24.0085C51.0235 24.009 51.0235 24.0095 51.0235 24.01C51.0235 24.0105 51.0235 24.011 51.0235 24.0115C51.0235 24.012 51.0235 24.0125 51.0235 24.013C51.0235 24.0135 51.0235 24.014 51.0235 24.0145C51.0235 24.015 51.0235 24.0155 51.0235 24.016C51.0235 24.0165 51.0235 24.017 51.0235 24.0175C51.0235 24.018 51.0235 24.0185 51.0235 24.019C51.0235 24.0195 51.0235 24.02 51.0235 24.0205C51.0235 24.021 51.0235 24.0215 51.0235 24.022C51.0235 24.0225 51.0235 24.023 51.0235 24.0235C51.0235 24.024 51.0235 24.0245 51.0235 24.025C51.0235 24.0255 51.0235 24.026 51.0235 24.0265C51.0235 24.0269 51.0235 24.0274 51.0235 24.0279C51.0235 24.0284 51.0235 24.0289 51.0235 24.0294C51.0235 24.0299 51.0235 24.0304 51.0235 24.0309C51.0235 24.0314 51.0235 24.0319 51.0235 24.0324C51.0235 24.0329 51.0235 24.0334 51.0235 24.0339C51.0235 24.0344 51.0235 24.0349 51.0235 24.0354C51.0235 24.0359 51.0235 24.0364 51.0235 24.0369C51.0235 24.0374 51.0235 24.0378 51.0235 24.0383C51.0235 24.0388 51.0235 24.0393 51.0235 24.0398C51.0235 24.0403 51.0235 24.0408 51.0235 24.0413C51.0235 24.0418 51.0235 24.0423 51.0235 24.0428C51.0235 24.0433 51.0235 24.0438 51.0235 24.0443C51.0235 24.0448 51.0235 24.0453 51.0235 24.0457C51.0235 24.0462 51.0235 24.0467 51.0235 24.0472C51.0235 24.0477 51.0235 24.0482 51.0235 24.0487C51.0235 24.0492 51.0235 24.0497 51.0235 24.0502C51.0235 24.0507 51.0235 24.0512 51.0235 24.0516C51.0235 24.0521 51.0235 24.0526 51.0235 24.0531C51.0235 24.0536 51.0235 24.0541 51.0235 24.0546C51.0235 24.0551 51.0235 24.0556 51.0235 24.0561C51.0235 24.0566 51.0235 24.057 51.0235 24.0575C51.0235 24.058 51.0235 24.0585 51.0235 24.059C51.0235 24.0595 51.0235 24.06 51.0235 24.0605C51.0235 24.061 51.0235 24.0614 51.0235 24.0619C51.0235 24.0624 51.0235 24.0629 51.0235 24.0634C51.0235 24.0639 51.0235 24.0644 51.0235 24.0649C51.0235 24.0654 51.0235 24.0658 51.0235 24.0663C51.0235 24.0668 51.0235 24.0673 51.0235 24.0678C51.0235 24.0683 51.0235 24.0688 51.0235 24.0693C51.0235 24.0697 51.0235 24.0702 51.0235 24.0707C51.0235 24.0712 51.0235 24.0717 51.0235 24.0722C51.0235 24.0727 51.0235 24.0732 51.0235 24.0736C51.0235 24.0741 51.0235 24.0746 51.0235 24.0751C51.0235 24.0756 51.0235 24.0761 51.0235 24.0766C51.0235 24.077 51.0235 24.0775 51.0235 24.078C51.0235 24.0785 51.0235 24.079 51.0235 24.0795C51.0235 24.08 51.0235 24.0804 51.0235 24.0809C51.0235 24.0814 51.0235 24.0819 51.0235 24.0824C51.0235 24.0829 51.0235 24.0833 51.0235 24.0838C51.0235 24.0843 51.0235 24.0848 51.0235 24.0853C51.0235 24.0858 51.0235 24.0862 51.0235 24.0867C51.0235 24.0872 51.0235 24.0877 51.0235 24.0882C51.0235 24.0887 51.0235 24.0891 51.0235 24.0896C51.0235 24.0901 51.0235 24.0906 51.0235 24.0911C51.0235 24.0916 51.0235 24.092 51.0235 24.0925C51.0235 24.093 51.0235 24.0935 51.0235 24.094C51.0235 24.0945 51.0235 24.0949 51.0235 24.0954C51.0235 24.0959 51.0235 24.0964 51.0235 24.0969C51.0235 24.0973 51.0235 24.0978 51.0235 24.0983C51.0235 24.0988 51.0235 24.0993 51.0235 24.0997C51.0235 24.1002 51.0235 24.1007 51.0235 24.1012C51.0235 24.1017 51.0235 24.1021 51.0235 24.1026C51.0235 24.1031 51.0235 24.1036 51.0235 24.1041C51.0235 24.1045 51.0235 24.105 51.0235 24.1055C51.0235 24.106 51.0235 24.1065 51.0235 24.1069C51.0235 24.1074 51.0235 24.1079 51.0235 24.1084C51.0235 24.1089 51.0235 24.1093 51.0235 24.1098C51.0235 24.1103 51.0235 24.1108 51.0235 24.1112C51.0235 24.1117 51.0235 24.1122 51.0235 24.1127C51.0235 24.1132 51.0235 24.1136 51.0235 24.1141C51.0235 24.1146 51.0235 24.1151 51.0235 24.1155C51.0235 24.116 51.0235 24.1165 51.0235 24.117C51.0235 24.1174 51.0235 24.1179 51.0235 24.1184C51.0235 24.1189 51.0235 24.1194 51.0235 24.1198C51.0235 24.1203 51.0235 24.1208 51.0235 24.1213C51.0235 24.1217 51.0235 24.1222 51.0235 24.1227C51.0235 24.1232 51.0235 24.1236 51.0235 24.1241C51.0235 24.1246 51.0235 24.1251 51.0235 24.1255C51.0235 24.126 51.0235 24.1265 51.0235 24.127C51.0235 24.1274 51.0235 24.1279 51.0235 24.1284C51.0235 24.1288 51.0235 24.1293 51.0235 24.1298C51.0235 24.1303 51.0235 24.1307 51.0235 24.1312C51.0235 24.1317 51.0235 24.1322 51.0235 24.1326C51.0235 24.1331 51.0235 24.1336 51.0235 24.1341C51.0235 24.1345 51.0235 24.135 51.0235 24.1355C51.0235 24.1359 51.0235 24.1364 51.0235 24.1369C51.0235 24.1374 51.0235 24.1378 51.0235 24.1383C51.0235 24.1388 51.0235 24.1392 51.0235 24.1397C51.0235 24.1402 51.0235 24.1407 51.0235 24.1411C51.0235 24.1416 51.0235 24.1421 51.0235 24.1425C51.0235 24.143 51.0235 24.1435 51.0235 24.144C51.0235 24.1444 51.0235 24.1449 51.0235 24.1454C51.0235 24.1458 51.0235 24.1463 51.0235 24.1468C51.0235 24.1472 51.0235 24.1477 51.0235 24.1482C51.0235 24.1487 51.0235 24.1491 51.0235 24.1496C51.0235 24.1501 51.0235 24.1505 51.0235 24.151C51.0235 24.1515 51.0235 24.1519 51.0235 24.1524C51.0235 24.1529 51.0235 24.1533 51.0235 24.1538C51.0235 24.1543 51.0235 24.1547 51.0235 24.1552C51.0235 24.1557 51.0235 24.1562 51.0235 24.1566C51.0235 24.1571 51.0235 24.1576 51.0235 24.158C51.0235 24.1585 51.0235 24.159 51.0235 24.1594C51.0235 24.1599 51.0235 24.1604 51.0235 24.1608C51.0235 24.1613 51.0235 24.1618 51.0235 24.1622C51.0235 24.1627 51.0235 24.1632 51.0235 24.1636C51.0235 24.1641 51.0235 24.1645 51.0235 24.165C51.0235 24.1655 51.0235 24.1659 51.0235 24.1664C51.0235 24.1669 51.0235 24.1673 51.0235 24.1678C51.0235 24.1683 51.0235 24.1687 51.0235 24.1692C51.0235 24.1697 51.0235 24.1701 51.0235 24.1706C51.0235 24.1711 51.0235 24.1715 51.0235 24.172C51.0235 24.1724 51.0235 24.1729 51.0235 24.1734C51.0235 24.1738 51.0235 24.1743 51.0235 24.1748C51.0235 24.1752 51.0235 24.1757 51.0235 24.1762C51.0235 24.1766 51.0235 24.1771 51.0235 24.1775C51.0235 24.178 51.0235 24.1785 51.0235 24.1789C51.0235 24.1794 51.0235 24.1799 51.0235 24.1803C51.0235 24.1808 51.0235 24.1812 51.0235 24.1817C51.0235 24.1822 51.0235 24.1826 51.0235 24.1831C51.0235 24.1835 51.0235 24.184 51.0235 24.1845C51.0235 24.1849 51.0235 24.1854 51.0235 24.1859C51.0235 24.1863 51.0235 24.1868 51.0235 24.1872C51.0235 24.1877 51.0235 24.1882 51.0235 24.1886C51.0235 24.1891 51.0235 24.1895 51.0235 24.19C51.0235 24.1905 51.0235 24.1909 51.0235 24.1914C51.0235 24.1918 51.0235 24.1923 51.0235 24.1927C51.0235 24.1932 51.0235 24.1937 51.0235 24.1941C51.0235 24.1946 51.0235 24.195 51.0235 24.1955C51.0235 24.196 51.0235 24.1964 51.0235 24.1969C51.0235 24.1973 51.0235 24.1978 51.0235 24.1982C51.0235 24.1987 51.0235 24.1992 51.0235 24.1996C51.0235 24.2001 51.0235 24.2005 51.0235 24.201C51.0235 24.2014 51.0235 24.2019 51.0235 24.2024C51.0235 24.2028 51.0235 24.2033 51.0235 24.2037C51.0235 24.2042 51.0235 24.2046 51.0235 24.2051C51.0235 24.2056 51.0235 24.206 51.0235 24.2065C51.0235 24.2069 51.0235 24.2074 51.0235 24.2078C51.0235 24.2083 51.0235 24.2087 51.0235 24.2092C51.0235 24.2097 51.0235 24.2101 51.0235 24.2106C51.0235 24.211 51.0235 24.2115 51.0235 24.2119C51.0235 24.2124 51.0235 24.2128 51.0235 24.2133C51.0235 24.2137 51.0235 24.2142 51.0235 24.2147C51.0235 24.2151 51.0235 24.2156 51.0235 24.216C51.0235 24.2165 51.0235 24.2169 51.0235 24.2174C51.0235 24.2178 51.0235 24.2183 51.0235 24.2187C51.0235 24.2192 51.0235 24.2196 51.0235 24.2201C51.0235 24.2205 51.0235 24.221 51.0235 24.2214C51.0235 24.2219 51.0235 24.2224 51.0235 24.2228C51.0235 24.2233 51.0235 24.2237 51.0235 24.2242C51.0235 24.2246 51.0235 24.2251 51.0235 24.2255C51.0235 24.226 51.0235 24.2264 51.0235 24.2269C51.0235 24.2273 51.0235 24.2278 51.0235 24.2282C51.0235 24.2287 51.0235 24.2291 51.0235 24.2296C51.0235 24.23 51.0235 24.2305 51.0235 24.2309C51.0235 24.2314 51.0235 24.2318 51.0235 24.2323C51.0235 24.2327 51.0235 24.2332 51.0235 24.2336C51.0235 24.2341 51.0235 24.2345 51.0235 24.235C51.0235 24.2354 51.0235 24.2359 51.0235 24.2363C51.0235 24.2368 51.0235 24.2372 51.0235 24.2377C51.0235 24.2381 51.0235 24.2386 51.0235 24.239C51.0235 24.2394 51.0235 24.2399 51.0235 24.2403C51.0235 24.2408 51.0235 24.2412 51.0235 24.2417C51.0235 24.2421 51.0235 24.2426 51.0235 24.243C51.0235 24.2435 51.0235 24.2439 51.0235 24.2444C51.0235 24.2448 51.0235 24.2453 51.0235 24.2457C51.0235 24.2462 51.0235 24.2466 51.0235 24.247C51.0235 24.2475 51.0235 24.2479 51.0235 24.2484C51.0235 24.2488 51.0235 24.2493 51.0235 24.2497C51.0235 24.2502 51.0235 24.2506 51.0235 24.2511C51.0235 24.2515 51.0235 24.2519 51.0235 24.2524C51.0235 24.2528 51.0235 24.2533 51.0235 24.2537C51.0235 24.2542 51.0235 24.2546 51.0235 24.2551C51.0235 24.2555 51.0235 24.2559 51.0235 24.2564C51.0235 24.2568 51.0235 24.2573 51.0235 24.2577C51.0235 24.2582 51.0235 24.2586 51.0235 24.259C51.0235 24.2595 51.0235 24.2599 51.0235 24.2604C51.0235 24.2608 51.0235 24.2613 51.0235 24.2617C51.0235 24.2621 51.0235 24.2626 51.0235 24.263C51.0235 24.2635 51.0235 24.2639 51.0235 24.2644C51.0235 24.2648 51.0235 24.2652 51.0235 24.2657C51.0235 24.2661 51.0235 24.2666 51.0235 24.267C51.0235 24.2674 51.0235 24.2679 51.0235 24.2683C51.0235 24.2688 51.0235 24.2692 51.0235 24.2696C51.0235 24.2701 51.0235 24.2705 51.0235 24.271C51.0235 24.2714 51.0235 24.2718 51.0235 24.2723C51.0235 24.2727 51.0235 24.2732 51.0235 24.2736C51.0235 24.274 51.0235 24.2745 51.0235 24.2749C51.0235 24.2754 51.0235 24.2758 51.0235 24.2762C51.0235 24.2767 51.0235 24.2771 51.0235 24.2776C51.0235 24.278 51.0235 24.2784 51.0235 24.2789C51.0235 24.2793 51.0235 24.2797 51.0235 24.2802C51.0235 24.2806 51.0235 24.2811 51.0235 24.2815C51.0235 24.2819 51.0235 24.2824 51.0235 24.2828C51.0235 24.2832 51.0235 24.2837 51.0235 24.2841C51.0235 24.2846 51.0235 24.285 51.0235 24.2854C51.0235 24.2859 51.0235 24.2863 51.0235 24.2867C51.0235 24.2872 51.0235 24.2876 51.0235 24.2881C51.0235 24.2885 51.0235 24.2889 51.0235 24.2894C51.0235 24.2898 51.0235 24.2902 51.0235 24.2907C51.0235 24.2911 51.0235 24.2915 51.0235 24.292C51.0235 24.2924 51.0235 24.2928 51.0235 24.2933C51.0235 24.2937 51.0235 24.2941 51.0235 24.2946C51.0235 24.295 51.0235 24.2954 51.0235 24.2959C51.0235 24.2963 51.0235 24.2967 51.0235 24.2972C51.0235 24.2976 51.0235 24.298 51.0235 24.2985C51.0235 24.2989 51.0235 24.2993 51.0235 24.2998C51.0235 24.3002 51.0235 24.3006 51.0235 24.3011C51.0235 24.3015 51.0235 24.3019 51.0235 24.3024C51.0235 24.3028 51.0235 24.3032 51.0235 24.3037C51.0235 24.3041 51.0235 24.3045 51.0235 24.305C51.0235 24.3054 51.0235 24.3058 51.0235 24.3063C51.0235 24.3067 51.0235 24.3071 51.0235 24.3076C51.0235 24.308 51.0235 24.3084 51.0235 24.3088C51.0235 24.3093 51.0235 24.3097 51.0235 24.3101C51.0235 24.3106 51.0235 24.311 51.0235 24.3114C51.0235 24.3119 51.0235 24.3123 51.0235 24.3127C51.0235 24.3131 51.0235 24.3136 51.0235 24.314C51.0235 24.3144 51.0235 24.3149 51.0235 24.3153C51.0235 24.3157 51.0235 24.3162 51.0235 24.3166C51.0235 24.317 51.0235 24.3174 51.0235 24.3179C51.0235 24.3183 51.0235 24.3187 51.0235 24.3192C51.0235 24.3196 51.0235 24.32 51.0235 24.3204C51.0235 24.3209 51.0235 24.3213 51.0235 24.3217C51.0235 24.3221 51.0235 24.3226 51.0235 24.323C51.0235 24.3234 51.0235 24.3239 51.0235 24.3243C51.0235 24.3247 51.0235 24.3251 51.0235 24.3256C51.0235 24.326 51.0235 24.3264 51.0235 24.3268C51.0235 24.3273 51.0235 24.3277 51.0235 24.3281C51.0235 24.3285 51.0235 24.329 51.0235 24.3294C51.0235 24.3298 51.0235 24.3302 51.0235 24.3307C51.0235 24.3311 51.0235 24.3315 51.0235 24.3319C51.0235 24.3324 51.0235 24.3328 51.0235 24.3332C51.0235 24.3336 51.0235 24.3341 51.0235 24.3345C51.0235 24.3349 51.0235 24.3353 51.0235 24.3358C51.0235 24.3362 51.0235 24.3366 51.0235 24.337C51.0235 24.3375 51.0235 24.3379 51.0235 24.3383C51.0235 24.3387 51.0235 24.3392 51.0235 24.3396C51.0235 24.34 51.0235 24.3404 51.0235 24.3408C51.0235 24.3413 51.0235 24.3417 51.0235 24.3421C51.0235 24.3425 51.0235 24.343 51.0235 24.3434C51.0235 24.3438 51.0235 24.3442 51.0235 24.3446C51.0235 24.3451 51.0235 24.3455 51.0235 24.3459C51.0235 24.3463 51.0235 24.3467 51.0235 24.3472C51.0235 24.3476 51.0235 24.348 51.0235 24.3484C51.0235 24.3489 51.0235 24.3493 51.0235 24.3497C51.0235 24.3501 51.0235 24.3505 51.0235 24.351C51.0235 24.3514 51.0235 24.3518 51.0235 24.3522C51.0235 24.3526 51.0235 24.3531 51.0235 24.3535C51.0235 24.3539 51.0235 24.3543 51.0235 24.3547C51.0235 24.3551 51.0235 24.3556 51.0235 24.356C51.0235 24.3564 51.0235 24.3568 51.0235 24.3572C51.0235 24.3577 51.0235 24.3581 51.0235 24.3585C51.0235 24.3589 51.0235 24.3593 51.0235 24.3597C51.0235 24.3602 51.0235 24.3606 51.0235 24.361C51.0235 24.3614 51.0235 24.3618 51.0235 24.3623C51.0235 24.3627 51.0235 24.3631 51.0235 24.3635H53.0235ZM53.0235 23.5955C53.0235 20.7605 53.9354 18.7551 55.6501 17.4052L54.4129 15.8338C52.117 17.6412 51.0235 20.2865 51.0235 23.5955H53.0235ZM55.642 17.4115C57.4791 15.9954 59.853 15.2515 62.8395 15.2515V13.2515C59.5114 13.2515 56.6799 14.0863 54.421 15.8275L55.642 17.4115ZM62.8395 15.2515C66.1073 15.2515 68.3423 16.0485 69.7484 17.4546L71.1626 16.0404C69.2407 14.1185 66.3984 13.2515 62.8395 13.2515V15.2515ZM69.7668 17.4725C71.2244 18.8573 72.0155 20.8689 72.0155 23.6595H74.0155C74.0155 20.4768 73.0999 17.8804 71.1443 16.0225L69.7668 17.4725ZM72.0155 23.6595V42.5395H74.0155V23.6595H72.0155ZM72.0155 42.5395C72.0155 43.473 72.2325 44.3974 72.9271 45.0149L74.2559 43.5201C74.1825 43.4549 74.0155 43.2273 74.0155 42.5395H72.0155ZM72.9271 45.0149C73.4549 45.4841 74.088 45.7795 74.8075 45.7795V43.7795C74.6736 43.7795 74.4961 43.7336 74.2559 43.5201L72.9271 45.0149ZM74.8075 45.7795H76.8555V43.7795H74.8075V45.7795ZM75.8555 44.7795V48.4275H77.8555V44.7795H75.8555ZM76.3594 47.5593C76.1652 47.6702 75.8081 47.8147 75.2368 47.978L75.7862 49.901C76.4095 49.7229 76.9485 49.5261 77.3516 49.2957L76.3594 47.5593ZM75.2174 47.9837C74.7914 48.1148 74.1954 48.1955 73.3995 48.1955V50.1955C74.3103 50.1955 75.1223 50.1055 75.8056 49.8953L75.2174 47.9837ZM73.3995 48.1955C72.2342 48.1955 71.3143 47.873 70.5767 47.2695L69.3103 48.8175C70.45 49.75 71.8341 50.1955 73.3995 50.1955V48.1955ZM70.5943 47.2842C69.8628 46.6572 69.3447 45.8325 69.0515 44.7696L67.1235 45.3014C67.5129 46.7131 68.2322 47.8938 69.2927 48.8028L70.5943 47.2842ZM68.0875 44.0355H67.7675V46.0355H68.0875V44.0355ZM66.9195 44.5055C66.1584 45.7233 65.1322 46.6953 63.8237 47.4266L64.7993 49.1724C66.3921 48.2824 67.67 47.0784 68.6155 45.5655L66.9195 44.5055ZM63.8326 47.4216C62.5846 48.1024 61.1731 48.4515 59.5755 48.4515V50.4515C61.4766 50.4515 63.2224 50.0327 64.7904 49.1774L63.8326 47.4216ZM60.7915 45.7795C62.089 45.7795 63.3438 45.4282 64.5441 44.756L63.5669 43.011C62.6339 43.5335 61.7127 43.7795 60.7915 43.7795V45.7795ZM64.57 44.741C65.8076 43.9984 66.799 42.921 67.5551 41.5506L65.8039 40.5844C65.1947 41.6887 64.4367 42.4886 63.541 43.026L64.57 44.741ZM67.5422 41.5732C68.3792 40.1453 68.7675 38.4232 68.7675 36.4595H66.7675C66.7675 38.1651 66.4304 39.515 65.8168 40.5618L67.5422 41.5732ZM68.7675 36.4595V33.3875H66.7675V36.4595H68.7675ZM67.7675 32.3875C65.4168 32.3875 63.3236 32.5614 61.496 32.918L61.879 34.881C63.5501 34.5549 65.5102 34.3875 67.7675 34.3875V32.3875ZM61.5151 32.9145C59.6771 33.2361 58.1398 33.8952 56.9812 34.953L58.3298 36.43C59.1339 35.6958 60.2846 35.1602 61.8599 34.8845L61.5151 32.9145ZM56.965 34.9681C55.7672 36.1115 55.2475 37.7355 55.2475 39.6595H57.2475C57.2475 38.0848 57.6665 37.0635 58.346 36.4149L56.965 34.9681ZM55.2475 39.6595C55.2475 41.6572 55.6365 43.3427 56.6924 44.3986L58.1066 42.9844C57.6265 42.5043 57.2475 41.5018 57.2475 39.6595H55.2475ZM56.7327 44.4367C57.7806 45.3743 59.1782 45.7795 60.7915 45.7795V43.7795C59.5035 43.7795 58.6397 43.4593 58.0663 42.9463L56.7327 44.4367ZM84.475 48.6835H83.475V49.6835H84.475V48.6835ZM84.475 15.0195V14.0195H83.475V15.0195H84.475ZM88.443 15.0195L89.4305 14.8621L89.2962 14.0195H88.443V15.0195ZM89.147 19.4355L88.1595 19.5929L88.2938 20.4355H89.147V19.4355ZM89.531 19.4355V20.4355H90.2518L90.4797 19.7517L89.531 19.4355ZM91.515 15.9155L92.2807 16.5587L92.2869 16.5513L92.2929 16.5438L91.515 15.9155ZM97.723 14.7635H98.723V14.0631L98.0647 13.8237L97.723 14.7635ZM97.723 20.2035V21.2035H98.723V20.2035H97.723ZM91.579 21.9315L90.91 21.1882L90.9038 21.1939L90.8976 21.1996L91.579 21.9315ZM89.723 48.6835V49.6835H90.723V48.6835H89.723ZM85.475 48.6835V15.0195H83.475V48.6835H85.475ZM84.475 16.0195H88.443V14.0195H84.475V16.0195ZM87.4555 15.1769L88.1595 19.5929L90.1345 19.2781L89.4305 14.8621L87.4555 15.1769ZM89.147 20.4355H89.531V18.4355H89.147V20.4355ZM90.4797 19.7517C90.8652 18.5952 91.4631 17.5321 92.2807 16.5587L90.7493 15.2723C89.7749 16.4323 89.0501 17.7158 88.5823 19.1193L90.4797 19.7517ZM92.2929 16.5438C92.9771 15.6967 93.9137 15.2515 95.227 15.2515V13.2515C93.383 13.2515 91.8449 13.9156 90.7371 15.2872L92.2929 16.5438ZM95.227 15.2515C95.8838 15.2515 96.355 15.3301 96.6773 15.4473L97.3607 13.5677C96.7444 13.3436 96.0209 13.2515 95.227 13.2515V15.2515ZM96.6773 15.4473C96.6906 15.4521 96.6859 15.4504 96.6991 15.4552C96.7018 15.4562 96.718 15.4621 96.7206 15.463C96.7361 15.4687 96.7475 15.4728 96.7625 15.4783C96.8306 15.5031 96.7354 15.4684 96.8031 15.493C96.8103 15.4957 96.8157 15.4976 96.8228 15.5002C96.8405 15.5067 96.8149 15.4974 96.8326 15.5038C96.8361 15.5051 96.8339 15.5043 96.8374 15.5055C96.8439 15.5079 96.8358 15.505 96.8423 15.5073C96.8434 15.5077 96.8507 15.5104 96.8518 15.5108C96.8519 15.5108 96.8613 15.5142 96.8613 15.5142C96.8621 15.5145 96.8629 15.5148 96.8637 15.5151C96.8645 15.5154 96.8653 15.5157 96.8661 15.5159C96.8668 15.5162 96.8676 15.5165 96.8684 15.5168C96.8692 15.5171 96.87 15.5174 96.8707 15.5177C96.8715 15.5179 96.8723 15.5182 96.8731 15.5185C96.8739 15.5188 96.8746 15.5191 96.8754 15.5194C96.8811 15.5214 96.8744 15.519 96.8801 15.521C96.8834 15.5223 96.886 15.5232 96.8893 15.5244C96.891 15.525 96.8922 15.5255 96.8939 15.5261C96.8967 15.5271 96.8957 15.5267 96.8985 15.5277C96.9128 15.5329 96.8932 15.5258 96.9075 15.531C96.9141 15.5334 96.91 15.5319 96.9165 15.5343C96.949 15.5461 96.9018 15.529 96.9342 15.5407C96.9427 15.5438 96.9432 15.544 96.9516 15.547C96.9932 15.5622 96.944 15.5443 96.9853 15.5593C97.1425 15.6165 97.0774 15.5928 97.2053 15.6393C97.2079 15.6403 97.2244 15.6462 97.2266 15.647C97.2597 15.6591 97.2138 15.6424 97.2465 15.6543C97.2885 15.6696 97.2421 15.6527 97.2823 15.6673C97.3163 15.6797 97.3106 15.6776 97.3373 15.6873C97.3426 15.6892 97.3374 15.6873 97.3426 15.6892C97.345 15.6901 97.3427 15.6893 97.3451 15.6902C97.3453 15.6902 97.3455 15.6903 97.3457 15.6904C97.3459 15.6905 97.3462 15.6905 97.3464 15.6906C97.3468 15.6908 97.3471 15.6909 97.3476 15.691C97.3557 15.694 97.3488 15.6915 97.3565 15.6943C97.3637 15.6969 97.3649 15.6974 97.3703 15.6993C97.3704 15.6994 97.3715 15.6997 97.3716 15.6998C97.3732 15.7004 97.3712 15.6996 97.3728 15.7002C97.3729 15.7003 97.373 15.7003 97.3731 15.7003C97.3732 15.7004 97.3733 15.7004 97.3734 15.7004C97.3738 15.7006 97.3737 15.7005 97.374 15.7007C97.3762 15.7014 97.3729 15.7003 97.3751 15.701C97.3751 15.7011 97.3761 15.7014 97.3761 15.7014C97.3764 15.7015 97.3762 15.7014 97.3765 15.7016C97.3766 15.7016 97.3769 15.7017 97.377 15.7017C97.3781 15.7021 97.3767 15.7016 97.3778 15.702C97.3784 15.7023 97.3779 15.7021 97.3785 15.7023C97.3787 15.7024 97.3797 15.7027 97.3797 15.7027C97.3814 15.7033 97.379 15.7025 97.3806 15.703C97.3807 15.7031 97.3808 15.7031 97.3809 15.7032C97.3811 15.7032 97.3809 15.7032 97.3811 15.7032C97.3812 15.7033 97.3811 15.7032 97.3812 15.7033C97.3812 15.7033 97.3812 15.7033 97.3812 15.7033C97.3812 15.7033 97.3812 15.7033 97.3812 15.7033C97.3812 15.7033 97.3812 15.7033 97.3812 15.7033C97.3812 15.7033 97.3812 15.7033 97.3812 15.7033C97.3813 15.7033 97.3813 15.7033 97.3813 15.7033C97.3813 15.7033 97.3813 15.7033 97.723 14.7635C98.0647 13.8237 98.0647 13.8237 98.0647 13.8237C98.0647 13.8237 98.0647 13.8237 98.0647 13.8237C98.0647 13.8237 98.0647 13.8237 98.0647 13.8237C98.0647 13.8237 98.0646 13.8237 98.0646 13.8236C98.0645 13.8236 98.0645 13.8236 98.0645 13.8236C98.0645 13.8236 98.0644 13.8236 98.0644 13.8236C98.0644 13.8236 98.0644 13.8236 98.0644 13.8236C98.0643 13.8236 98.0643 13.8236 98.0643 13.8235C98.0643 13.8235 98.0642 13.8235 98.0642 13.8235C98.0642 13.8235 98.0641 13.8235 98.0641 13.8235C98.064 13.8234 98.0625 13.8229 98.062 13.8227C98.0599 13.822 98.0576 13.8211 98.0537 13.8197C98.0446 13.8164 98.0372 13.8137 98.0207 13.8077C98.0092 13.8035 97.9296 13.7746 97.8887 13.7597C97.7571 13.7118 97.6097 13.6582 97.3607 13.5677L96.6773 15.4473ZM96.723 14.7635V20.2035H98.723V14.7635H96.723ZM97.723 19.2035H95.995V21.2035H97.723V19.2035ZM95.995 19.2035C94.0746 19.2035 92.3666 19.8773 90.91 21.1882L92.248 22.6748C93.3514 21.6817 94.5874 21.2035 95.995 21.2035V19.2035ZM90.8976 21.1996C89.3472 22.6431 88.723 25.0734 88.723 28.1395H90.723C90.723 25.2323 91.3361 23.5239 92.2604 22.6634L90.8976 21.1996ZM88.723 28.1395V48.6835H90.723V28.1395H88.723ZM89.723 47.6835H84.475V49.6835H89.723V47.6835ZM107.159 48.1715L106.49 48.9148L106.499 48.9229L106.508 48.9308L107.159 48.1715ZM105.303 45.2915L104.341 45.5662L104.347 45.5871L104.354 45.6077L105.303 45.2915ZM104.791 19.6915H105.791V18.6915H104.791V19.6915ZM101.911 19.6915H100.911V20.6915H101.911V19.6915ZM101.911 15.0195V14.0195H100.911V15.0195H101.911ZM104.791 15.0195V16.0195H105.675L105.783 15.1419L104.791 15.0195ZM105.943 5.6755V4.6755H105.059L104.951 5.55314L105.943 5.6755ZM110.039 5.6755H111.039V4.6755H110.039V5.6755ZM110.039 15.0195H109.039V16.0195H110.039V15.0195ZM114.583 15.0195H115.583V14.0195H114.583V15.0195ZM114.583 19.6915V20.6915H115.583V19.6915H114.583ZM110.039 19.6915V18.6915H109.039V19.6915H110.039ZM114.583 44.7795H115.583V43.7795H114.583V44.7795ZM114.583 48.4275L115.087 49.2913L115.583 49.0019V48.4275H114.583ZM110.807 48.3235C109.436 48.3235 108.476 47.983 107.81 47.4122L106.508 48.9308C107.634 49.896 109.106 50.3235 110.807 50.3235V48.3235ZM107.828 47.4282C107.111 46.7827 106.584 45.9729 106.252 44.9753L104.354 45.6077C104.79 46.9141 105.501 48.0243 106.49 48.9148L107.828 47.4282ZM106.265 45.0168C105.949 43.9141 105.791 42.7694 105.791 41.5795H103.791C103.791 42.9496 103.974 44.2795 104.341 45.5662L106.265 45.0168ZM105.791 41.5795V19.6915H103.791V41.5795H105.791ZM104.791 18.6915H101.911V20.6915H104.791V18.6915ZM102.911 19.6915V15.0195H100.911V19.6915H102.911ZM101.911 16.0195H104.791V14.0195H101.911V16.0195ZM105.783 15.1419L106.935 5.79786L104.951 5.55314L103.799 14.8971L105.783 15.1419ZM105.943 6.6755H110.039V4.6755H105.943V6.6755ZM109.039 5.6755V15.0195H111.039V5.6755H109.039ZM110.039 16.0195H114.583V14.0195H110.039V16.0195ZM113.583 15.0195V19.6915H115.583V15.0195H113.583ZM114.583 18.6915H110.039V20.6915H114.583V18.6915ZM109.039 19.6915V41.7075H111.039V19.6915H109.039ZM109.039 41.7075C109.039 42.8804 109.326 43.9448 110.076 44.7111C110.831 45.4814 111.885 45.7795 113.047 45.7795V43.7795C112.204 43.7795 111.754 43.5656 111.506 43.3119C111.253 43.0542 111.039 42.5826 111.039 41.7075H109.039ZM113.047 45.7795H114.583V43.7795H113.047V45.7795ZM113.583 44.7795V48.4275H115.583V44.7795H113.583ZM114.079 47.5637C113.243 48.0515 112.169 48.3235 110.807 48.3235V50.3235C112.432 50.3235 113.875 49.9982 115.087 49.2913L114.079 47.5637ZM123.13 48.6835H122.13V49.6835H123.13V48.6835ZM123.13 15.0195V14.0195H122.13V15.0195H123.13ZM128.378 15.0195H129.378V14.0195H128.378V15.0195ZM128.378 48.6835V49.6835H129.378V48.6835H128.378ZM123.002 8.4915H122.002V9.4915H123.002V8.4915ZM123.002 2.4115V1.4115H122.002V2.4115H123.002ZM128.442 2.4115H129.442V1.4115H128.442V2.4115ZM128.442 8.4915V9.4915H129.442V8.4915H128.442ZM124.13 48.6835V15.0195H122.13V48.6835H124.13ZM123.13 16.0195H128.378V14.0195H123.13V16.0195ZM127.378 15.0195V48.6835H129.378V15.0195H127.378ZM128.378 47.6835H123.13V49.6835H128.378V47.6835ZM124.002 8.4915V2.4115H122.002V8.4915H124.002ZM123.002 3.4115H128.442V1.4115H123.002V3.4115ZM127.442 2.4115V8.4915H129.442V2.4115H127.442ZM128.442 7.4915H123.002V9.4915H128.442V7.4915ZM139.42 48.6835H138.42V49.6835H139.42V48.6835ZM139.42 19.6915H140.42V18.6915H139.42V19.6915ZM136.476 19.6915H135.476V20.6915H136.476V19.6915ZM136.476 15.0195V14.0195H135.476V15.0195H136.476ZM139.42 15.0195V16.0195H140.42V15.0195H139.42ZM139.996 5.9315L139.054 5.59516L139.049 5.61024L139.044 5.62549L139.996 5.9315ZM142.044 3.0515L142.655 3.8428L142.66 3.839L142.044 3.0515ZM148.444 2.1555L148.238 3.13405L148.263 3.13929L148.288 3.14326L148.444 2.1555ZM150.492 2.6675H151.492V1.9807L150.851 1.73415L150.492 2.6675ZM150.492 6.3155V7.3155H151.492V6.3155H150.492ZM144.668 15.0195H143.668V16.0195H144.668V15.0195ZM150.492 15.0195H151.492V14.0195H150.492V15.0195ZM150.492 19.6915V20.6915H151.492V19.6915H150.492ZM144.668 19.6915V18.6915H143.668V19.6915H144.668ZM144.668 48.6835V49.6835H145.668V48.6835H144.668ZM140.42 48.6835V19.6915H138.42V48.6835H140.42ZM139.42 18.6915H136.476V20.6915H139.42V18.6915ZM137.476 19.6915V15.0195H135.476V19.6915H137.476ZM136.476 16.0195H139.42V14.0195H136.476V16.0195ZM140.42 15.0195V9.6435H138.42V15.0195H140.42ZM140.42 9.6435C140.42 8.46527 140.596 7.3313 140.948 6.23751L139.044 5.62549C138.628 6.92104 138.42 8.26173 138.42 9.6435H140.42ZM140.938 6.26784C141.305 5.24022 141.879 4.44297 142.655 3.84278L141.433 2.26021C140.332 3.1107 139.541 4.23345 139.054 5.59516L140.938 6.26784ZM142.66 3.839C143.411 3.25173 144.511 2.8995 146.076 2.8995V0.899502C144.228 0.899502 142.64 1.31527 141.428 2.26399L142.66 3.839ZM146.076 2.8995C146.77 2.8995 147.49 2.97654 148.238 3.13405L148.65 1.17695C147.777 0.993132 146.918 0.899502 146.076 0.899502V2.8995ZM148.288 3.14326C149.053 3.26412 149.663 3.42022 150.133 3.60085L150.851 1.73415C150.211 1.48811 149.456 1.30288 148.6 1.16774L148.288 3.14326ZM149.492 2.6675V6.3155H151.492V2.6675H149.492ZM150.492 5.3155H147.676V7.3155H150.492V5.3155ZM147.676 5.3155C146.514 5.3155 145.46 5.61364 144.705 6.38387C143.955 7.15021 143.668 8.21458 143.668 9.3875H145.668C145.668 8.51242 145.882 8.04079 146.135 7.78312C146.383 7.52936 146.833 7.3155 147.676 7.3155V5.3155ZM143.668 9.3875V15.0195H145.668V9.3875H143.668ZM144.668 16.0195H150.492V14.0195H144.668V16.0195ZM149.492 15.0195V19.6915H151.492V15.0195H149.492ZM150.492 18.6915H144.668V20.6915H150.492V18.6915ZM143.668 19.6915V48.6835H145.668V19.6915H143.668ZM144.668 47.6835H139.42V49.6835H144.668V47.6835ZM157.502 60.2035L157.361 61.1935L157.37 61.1947L157.502 60.2035ZM155.774 59.8195H154.774V60.5581L155.48 60.7753L155.774 59.8195ZM155.774 56.1715V55.1715H154.774V56.1715H155.774ZM161.534 54.5715L160.882 53.8141L160.875 53.8198L160.868 53.8256L161.534 54.5715ZM164.286 48.6835L165.265 48.888L165.318 48.6365L165.243 48.3908L164.286 48.6835ZM153.982 15.0195V14.0195H152.631L153.026 15.3122L153.982 15.0195ZM159.742 15.0195L160.705 14.7468L160.498 14.0195H159.742V15.0195ZM165.438 35.1155L164.476 35.3882L164.479 35.3975L164.482 35.4067L165.438 35.1155ZM166.27 38.1235L165.3 38.366L165.305 38.3849L165.31 38.4035L166.27 38.1235ZM167.166 41.1315L166.21 41.4227L166.426 42.1315H167.166V41.1315ZM167.422 41.1315V42.1315H168.203L168.393 41.374L167.422 41.1315ZM168.126 38.0595L167.156 37.817L167.152 37.8362L167.148 37.8555L168.126 38.0595ZM168.894 34.9875L169.865 35.23L169.867 35.2212L168.894 34.9875ZM173.694 15.0195V14.0195H172.906L172.722 14.7858L173.694 15.0195ZM179.007 15.0195L179.972 15.2788L180.31 14.0195H179.007V15.0195ZM170.431 46.9555L169.465 46.6962L169.463 46.701L170.431 46.9555ZM167.998 53.6115L167.1 53.172L167.095 53.1833L167.089 53.1948L167.998 53.6115ZM164.542 58.4755L163.884 57.7229L163.877 57.7287L163.871 57.7345L164.542 58.4755ZM159.55 59.3315C158.864 59.3315 158.226 59.2911 157.635 59.2123L157.37 61.1947C158.059 61.2866 158.786 61.3315 159.55 61.3315V59.3315ZM157.644 59.2136C157.096 59.1353 156.571 59.0184 156.069 58.8637L155.48 60.7753C156.087 60.9619 156.714 61.101 157.361 61.1935L157.644 59.2136ZM156.774 59.8195V56.1715H154.774V59.8195H156.774ZM155.774 57.1715H157.63V55.1715H155.774V57.1715ZM157.63 57.1715C159.318 57.1715 160.85 56.5237 162.201 55.3174L160.868 53.8256C159.83 54.7527 158.759 55.1715 157.63 55.1715V57.1715ZM162.187 55.3289C163.678 54.0435 164.654 51.812 165.265 48.888L163.308 48.479C162.724 51.2724 161.865 52.9662 160.882 53.8141L162.187 55.3289ZM165.243 48.3908L154.939 14.7268L153.026 15.3122L163.33 48.9762L165.243 48.3908ZM153.982 16.0195H159.742V14.0195H153.982V16.0195ZM158.78 15.2922L164.476 35.3882L166.401 34.8428L160.705 14.7468L158.78 15.2922ZM164.482 35.4067C164.775 36.3714 165.048 37.3579 165.3 38.366L167.241 37.881C166.981 36.8411 166.699 35.8222 166.395 34.8243L164.482 35.4067ZM165.31 38.4035C165.61 39.4311 165.91 40.4375 166.21 41.4227L168.123 40.8403C167.826 39.8629 167.528 38.8639 167.23 37.8435L165.31 38.4035ZM167.166 42.1315H167.422V40.1315H167.166V42.1315ZM168.393 41.374C168.652 40.3374 168.889 39.3005 169.105 38.2635L167.148 37.8555C166.937 38.8665 166.705 39.8777 166.452 40.889L168.393 41.374ZM169.097 38.302C169.353 37.278 169.609 36.254 169.865 35.23L167.924 34.745C167.668 35.769 167.412 36.793 167.156 37.817L169.097 38.302ZM169.867 35.2212L174.667 15.2532L172.722 14.7858L167.922 34.7538L169.867 35.2212ZM173.694 16.0195H179.007V14.0195H173.694V16.0195ZM178.041 14.7602L169.465 46.6962L171.396 47.2149L179.972 15.2788L178.041 14.7602ZM169.463 46.701C168.838 49.0771 168.049 51.2328 167.1 53.172L168.897 54.0511C169.91 51.9796 170.743 49.6979 171.398 47.21L169.463 46.701ZM167.089 53.1948C166.196 55.1446 165.121 56.6409 163.884 57.7229L165.201 59.2281C166.695 57.9208 167.924 56.1744 168.908 54.0282L167.089 53.1948ZM163.871 57.7345C162.702 58.7937 161.283 59.3315 159.55 59.3315V61.3315C161.744 61.3315 163.652 60.632 165.214 59.2165L163.871 57.7345Z" fill="black"/>
</g>
<defs>
<clipPath id="clip0">
<rect width="233" height="64.1933" fill="white"/>
</clipPath>
</defs>
</svg>
