<svg xmlns="http://www.w3.org/2000/svg" width="87" height="87" viewBox="0 0 87 87">
    <g fill="none" fill-rule="evenodd" transform="translate(.274 .575)">
        <circle cx="43" cy="43" r="43" fill="#FFD7BC"/>
        <g fill="#000" fill-rule="nonzero">
            <path d="M9.844 19.688c-2.327 0-4.219 1.892-4.219 4.218v11.438c0 2.326 1.892 4.218 4.219 4.218 2.326 0 4.219-1.892 4.219-4.218V23.906c0-2.326-1.893-4.218-4.22-4.218zM2.813 23.906c0-.405.053-.797.12-1.184C1.237 23.27 0 24.844 0 26.719v5.812c0 1.875 1.238 3.45 2.932 3.997-.066-.387-.12-.779-.12-1.184V23.906zM32.344 19.688c-2.327 0-4.219 1.892-4.219 4.218v11.438c0 2.326 1.892 4.218 4.219 4.218.423 0 .823-.08 1.208-.197-.523 1.735-2.117 3.01-4.02 3.01h-4.479c-.582-1.633-2.128-2.813-3.96-2.813-2.326 0-4.218 1.893-4.218 4.22 0 2.326 1.892 4.218 4.219 4.218 1.83 0 3.377-1.18 3.96-2.813h4.477c3.877 0 7.032-3.154 7.032-7.03V23.905c0-2.326-1.893-4.218-4.22-4.218zM39.255 22.722c.066.387.12.779.12 1.184v11.438c0 .405-.054.797-.12 1.184 1.695-.548 2.932-2.122 2.932-3.997V26.72c0-1.875-1.237-3.45-2.932-3.997z" transform="translate(21.5 19)"/>
            <path d="M21.094 0C9.462 0 0 9.462 0 21.094v.036c.838-.635 1.807-1.099 2.877-1.307.657-9.487 8.566-17.01 18.217-17.01 9.65 0 17.56 7.523 18.217 17.01 1.07.208 2.039.672 2.877 1.307v-.036C42.188 9.462 32.724 0 21.093 0z" transform="translate(21.5 19)"/>
        </g>
    </g>
</svg>
