<svg width="95" height="32" viewBox="0 0 95 32" fill="none" xmlns="http://www.w3.org/2000/svg">
<g clip-path="url(#clip0)">
<path d="M5.03838 0L0 5.09097H25.5072L30.5454 0H5.03838Z" fill="#13BEBB"/>
<path d="M18.248 14.956C19.016 14.956 19.7 15.118 20.3 15.442C20.9 15.754 21.374 16.228 21.722 16.864C22.07 17.5 22.244 18.274 22.244 19.186V25H20.624V19.42C20.624 18.436 20.378 17.686 19.886 17.17C19.406 16.642 18.752 16.378 17.924 16.378C17.072 16.378 16.394 16.654 15.89 17.206C15.386 17.746 15.134 18.532 15.134 19.564V25H13.514V19.42C13.514 18.436 13.268 17.686 12.776 17.17C12.296 16.642 11.642 16.378 10.814 16.378C9.962 16.378 9.284 16.654 8.78 17.206C8.276 17.746 8.024 18.532 8.024 19.564V25H6.386V15.136H8.024V16.558C8.348 16.042 8.78 15.646 9.32 15.37C9.872 15.094 10.478 14.956 11.138 14.956C11.966 14.956 12.698 15.142 13.334 15.514C13.97 15.886 14.444 16.432 14.756 17.152C15.032 16.456 15.488 15.916 16.124 15.532C16.76 15.148 17.468 14.956 18.248 14.956ZM26.2089 20.032C26.2089 19.024 26.4129 18.142 26.8209 17.386C27.2289 16.618 27.7869 16.024 28.4949 15.604C29.2149 15.184 30.0129 14.974 30.8889 14.974C31.7529 14.974 32.5029 15.16 33.1389 15.532C33.7749 15.904 34.2489 16.372 34.5609 16.936V15.136H36.2169V25H34.5609V23.164C34.2369 23.74 33.7509 24.22 33.1029 24.604C32.4669 24.976 31.7229 25.162 30.8709 25.162C29.9949 25.162 29.2029 24.946 28.4949 24.514C27.7869 24.082 27.2289 23.476 26.8209 22.696C26.4129 21.916 26.2089 21.028 26.2089 20.032ZM34.5609 20.05C34.5609 19.306 34.4109 18.658 34.1109 18.106C33.8109 17.554 33.4029 17.134 32.8869 16.846C32.3829 16.546 31.8249 16.396 31.2129 16.396C30.6009 16.396 30.0429 16.54 29.5389 16.828C29.0349 17.116 28.6329 17.536 28.3329 18.088C28.0329 18.64 27.8829 19.288 27.8829 20.032C27.8829 20.788 28.0329 21.448 28.3329 22.012C28.6329 22.564 29.0349 22.99 29.5389 23.29C30.0429 23.578 30.6009 23.722 31.2129 23.722C31.8249 23.722 32.3829 23.578 32.8869 23.29C33.4029 22.99 33.8109 22.564 34.1109 22.012C34.4109 21.448 34.5609 20.794 34.5609 20.05ZM42.513 16.738C42.801 16.174 43.209 15.736 43.737 15.424C44.277 15.112 44.931 14.956 45.699 14.956V16.648H45.267C43.431 16.648 42.513 17.644 42.513 19.636V25H40.875V15.136H42.513V16.738ZM51.4778 16.486V22.3C51.4778 22.78 51.5798 23.122 51.7838 23.326C51.9878 23.518 52.3418 23.614 52.8458 23.614H54.0518V25H52.5758C51.6638 25 50.9798 24.79 50.5238 24.37C50.0678 23.95 49.8398 23.26 49.8398 22.3V16.486H48.5618V15.136H49.8398V12.652H51.4778V15.136H54.0518V16.486H51.4778ZM58.7725 13.534C58.4605 13.534 58.1965 13.426 57.9805 13.21C57.7645 12.994 57.6565 12.73 57.6565 12.418C57.6565 12.106 57.7645 11.842 57.9805 11.626C58.1965 11.41 58.4605 11.302 58.7725 11.302C59.0725 11.302 59.3245 11.41 59.5285 11.626C59.7445 11.842 59.8525 12.106 59.8525 12.418C59.8525 12.73 59.7445 12.994 59.5285 13.21C59.3245 13.426 59.0725 13.534 58.7725 13.534ZM59.5645 15.136V25H57.9265V15.136H59.5645ZM68.2602 16.486H66.1902V25H64.5522V16.486H63.2742V15.136H64.5522V14.434C64.5522 13.33 64.8342 12.526 65.3982 12.022C65.9742 11.506 66.8922 11.248 68.1522 11.248V12.616C67.4322 12.616 66.9222 12.76 66.6222 13.048C66.3342 13.324 66.1902 13.786 66.1902 14.434V15.136H68.2602V16.486ZM80.556 15.136L74.616 29.644H72.924L74.868 24.892L70.89 15.136H72.708L75.804 23.128L78.864 15.136H80.556Z" fill="#222046"/>
<path d="M20.3 15.442L19.8249 16.3219L19.8317 16.3256L19.8386 16.3292L20.3 15.442ZM21.722 16.864L20.8447 17.344L20.8447 17.344L21.722 16.864ZM22.244 25V26H23.244V25H22.244ZM20.624 25H19.624V26H20.624V25ZM19.886 17.17L19.1461 17.8427L19.1541 17.8515L19.1623 17.8601L19.886 17.17ZM15.89 17.206L16.6211 17.8884L16.6285 17.8803L15.89 17.206ZM15.134 25V26H16.134V25H15.134ZM13.514 25H12.514V26H13.514V25ZM12.776 17.17L12.0361 17.8427L12.0441 17.8515L12.0523 17.8601L12.776 17.17ZM8.78 17.206L9.5111 17.8884L9.51849 17.8803L8.78 17.206ZM8.024 25V26H9.024V25H8.024ZM6.386 25H5.386V26H6.386V25ZM6.386 15.136V14.136H5.386V15.136H6.386ZM8.024 15.136H9.024V14.136H8.024V15.136ZM8.024 16.558H7.024V20.0311L8.87089 17.0898L8.024 16.558ZM9.32 15.37L8.87277 14.4755L8.86489 14.4796L9.32 15.37ZM13.334 15.514L12.8291 16.3772L12.8291 16.3772L13.334 15.514ZM14.756 17.152L13.8384 17.5496L14.7969 19.7615L15.6856 17.5206L14.756 17.152ZM16.124 15.532L16.6409 16.3881L16.6409 16.3881L16.124 15.532ZM18.248 15.956C18.8714 15.956 19.3884 16.0862 19.8249 16.3219L20.7751 14.5621C20.0116 14.1498 19.1606 13.956 18.248 13.956V15.956ZM19.8386 16.3292C20.2499 16.543 20.5847 16.8688 20.8447 17.344L22.5993 16.384C22.1633 15.5872 21.5501 14.965 20.7614 14.5548L19.8386 16.3292ZM20.8447 17.344C21.094 17.7996 21.244 18.3993 21.244 19.186H23.244C23.244 18.1487 23.046 17.2004 22.5993 16.384L20.8447 17.344ZM21.244 19.186V25H23.244V19.186H21.244ZM22.244 24H20.624V26H22.244V24ZM21.624 25V19.42H19.624V25H21.624ZM21.624 19.42C21.624 18.278 21.3373 17.2429 20.6097 16.4799L19.1623 17.8601C19.4187 18.1291 19.624 18.594 19.624 19.42H21.624ZM20.6259 16.4973C19.9254 15.7268 18.9841 15.378 17.924 15.378V17.378C18.5199 17.378 18.8866 17.5572 19.1461 17.8427L20.6259 16.4973ZM17.924 15.378C16.8344 15.378 15.8724 15.7422 15.1515 16.5317L16.6285 17.8803C16.9156 17.5658 17.3096 17.378 17.924 17.378V15.378ZM15.1589 16.5237C14.4237 17.3115 14.134 18.3798 14.134 19.564H16.134C16.134 18.6842 16.3483 18.1805 16.6211 17.8883L15.1589 16.5237ZM14.134 19.564V25H16.134V19.564H14.134ZM15.134 24H13.514V26H15.134V24ZM14.514 25V19.42H12.514V25H14.514ZM14.514 19.42C14.514 18.278 14.2273 17.2429 13.4997 16.4799L12.0523 17.8601C12.3087 18.1291 12.514 18.594 12.514 19.42H14.514ZM13.5159 16.4973C12.8154 15.7268 11.8741 15.378 10.814 15.378V17.378C11.4099 17.378 11.7766 17.5572 12.0361 17.8427L13.5159 16.4973ZM10.814 15.378C9.72437 15.378 8.76237 15.7422 8.04151 16.5317L9.51849 17.8803C9.80563 17.5658 10.1996 17.378 10.814 17.378V15.378ZM8.04894 16.5237C7.31367 17.3115 7.024 18.3798 7.024 19.564H9.024C9.024 18.6842 9.23833 18.1805 9.51106 17.8883L8.04894 16.5237ZM7.024 19.564V25H9.024V19.564H7.024ZM8.024 24H6.386V26H8.024V24ZM7.386 25V15.136H5.386V25H7.386ZM6.386 16.136H8.024V14.136H6.386V16.136ZM7.024 15.136V16.558H9.024V15.136H7.024ZM8.87089 17.0898C9.09949 16.7257 9.39644 16.454 9.77511 16.2604L8.86489 14.4796C8.16356 14.838 7.59651 15.3583 7.17711 16.0262L8.87089 17.0898ZM9.76721 16.2644C10.1708 16.0626 10.6222 15.956 11.138 15.956V13.956C10.3338 13.956 9.57318 14.1254 8.87279 14.4756L9.76721 16.2644ZM11.138 15.956C11.811 15.956 12.3646 16.1055 12.8291 16.3772L13.8389 14.6508C13.0314 14.1785 12.121 13.956 11.138 13.956V15.956ZM12.8291 16.3772C13.2693 16.6346 13.6052 17.0113 13.8384 17.5496L15.6736 16.7544C15.2828 15.8527 14.6707 15.1374 13.8389 14.6508L12.8291 16.3772ZM15.6856 17.5206C15.8817 17.0261 16.1936 16.6581 16.6409 16.3881L15.6071 14.6759C14.7824 15.1739 14.1823 15.8859 13.8264 16.7834L15.6856 17.5206ZM16.6409 16.3881C17.113 16.103 17.6407 15.956 18.248 15.956V13.956C17.2953 13.956 16.407 14.193 15.6071 14.6759L16.6409 16.3881ZM26.8209 17.386L27.701 17.8609L27.704 17.8552L26.8209 17.386ZM28.4949 15.604L27.991 14.7402L27.9847 14.7439L28.4949 15.604ZM33.1389 15.532L32.634 16.3952L32.634 16.3952L33.1389 15.532ZM34.5609 16.936L33.6859 17.4201L35.5609 16.936H34.5609ZM34.5609 15.136V14.136H33.5609V15.136H34.5609ZM36.2169 15.136H37.2169V14.136H36.2169V15.136ZM36.2169 25V26H37.2169V25H36.2169ZM34.5609 25H33.5609V26H34.5609V25ZM34.5609 23.164H35.5609V19.3465L33.6893 22.6737L34.5609 23.164ZM33.1029 24.604L33.6078 25.4672L33.6127 25.4643L33.1029 24.604ZM28.4949 24.514L27.9741 25.3676L27.9741 25.3676L28.4949 24.514ZM26.8209 22.696L27.707 22.2325L27.707 22.2325L26.8209 22.696ZM32.8869 16.846L32.3754 17.7053L32.3874 17.7124L32.3996 17.7192L32.8869 16.846ZM29.5389 16.828L29.0428 15.9598L29.0428 15.9598L29.5389 16.828ZM28.3329 18.088L29.2115 18.5655L29.2115 18.5655L28.3329 18.088ZM28.3329 22.012L27.45 22.4816L27.4543 22.4895L28.3329 22.012ZM29.5389 23.29L29.0274 24.1493L29.0351 24.1538L29.0428 24.1582L29.5389 23.29ZM32.8869 23.29L33.3831 24.1583L33.3895 24.1545L32.8869 23.29ZM34.1109 22.012L34.9896 22.4895L34.9938 22.4816L34.1109 22.012ZM27.2089 20.032C27.2089 19.161 27.3843 18.4476 27.7009 17.8609L25.9409 16.9111C25.4415 17.8364 25.2089 18.887 25.2089 20.032H27.2089ZM27.704 17.8552C28.031 17.2397 28.464 16.7851 29.0051 16.4641L27.9847 14.7439C27.1099 15.2629 26.4268 15.9963 25.9378 16.9168L27.704 17.8552ZM28.9988 16.4678C29.5579 16.1416 30.1806 15.974 30.8889 15.974V13.974C29.8453 13.974 28.8719 14.2264 27.9911 14.7402L28.9988 16.4678ZM30.8889 15.974C31.6064 15.974 32.1759 16.1272 32.634 16.3952L33.6438 14.6688C32.83 14.1928 31.8995 13.974 30.8889 13.974V15.974ZM32.634 16.3952C33.1374 16.6896 33.4728 17.0349 33.6859 17.4201L35.436 16.4519C35.025 15.7091 34.4124 15.1184 33.6438 14.6688L32.634 16.3952ZM35.5609 16.936V15.136H33.5609V16.936H35.5609ZM34.5609 16.136H36.2169V14.136H34.5609V16.136ZM35.2169 15.136V25H37.2169V15.136H35.2169ZM36.2169 24H34.5609V26H36.2169V24ZM35.5609 25V23.164H33.5609V25H35.5609ZM33.6893 22.6737C33.4628 23.0764 33.1116 23.4365 32.5931 23.7437L33.6127 25.4643C34.3902 25.0035 35.011 24.4036 35.4325 23.6543L33.6893 22.6737ZM32.598 23.7408C32.1378 24.01 31.5736 24.162 30.8709 24.162V26.162C31.8723 26.162 32.7961 25.942 33.6078 25.4672L32.598 23.7408ZM30.8709 24.162C30.1679 24.162 29.558 23.9912 29.0158 23.6604L27.9741 25.3676C28.8479 25.9008 29.8219 26.162 30.8709 26.162V24.162ZM29.0158 23.6604C28.4723 23.3287 28.0363 22.862 27.707 22.2325L25.9348 23.1595C26.4215 24.09 27.1016 24.8353 27.9741 25.3676L29.0158 23.6604ZM27.707 22.2325C27.3832 21.6134 27.2089 20.888 27.2089 20.032H25.2089C25.2089 21.168 25.4427 22.2186 25.9348 23.1595L27.707 22.2325ZM35.5609 20.05C35.5609 19.1699 35.3827 18.3519 34.9895 17.6285L33.2323 18.5835C33.4392 18.9641 33.5609 19.4421 33.5609 20.05H35.5609ZM34.9895 17.6285C34.6052 16.9212 34.0661 16.3589 33.3743 15.9728L32.3996 17.7192C32.7397 17.9091 33.0167 18.1868 33.2323 18.5835L34.9895 17.6285ZM33.3984 15.9867C32.7328 15.5905 31.9968 15.396 31.2129 15.396V17.396C31.653 17.396 32.033 17.5015 32.3754 17.7053L33.3984 15.9867ZM31.2129 15.396C30.4367 15.396 29.7062 15.5807 29.0428 15.9598L30.0351 17.6962C30.3797 17.4993 30.7651 17.396 31.2129 17.396V15.396ZM29.0428 15.9598C28.3642 16.3475 27.8354 16.9092 27.4543 17.6105L29.2115 18.5655C29.4304 18.1628 29.7056 17.8845 30.0351 17.6962L29.0428 15.9598ZM27.4543 17.6105C27.0612 18.3339 26.8829 19.1519 26.8829 20.032H28.8829C28.8829 19.4241 29.0047 18.9461 29.2115 18.5655L27.4543 17.6105ZM26.8829 20.032C26.8829 20.9218 27.0602 21.7487 27.45 22.4816L29.2158 21.5424C29.0057 21.1473 28.8829 20.6542 28.8829 20.032H26.8829ZM27.4543 22.4895C27.8338 23.1878 28.358 23.7508 29.0274 24.1493L30.0504 22.4307C29.7119 22.2292 29.432 21.9402 29.2115 21.5345L27.4543 22.4895ZM29.0428 24.1582C29.7062 24.5373 30.4367 24.722 31.2129 24.722V22.722C30.7651 22.722 30.3797 22.6187 30.0351 22.4218L29.0428 24.1582ZM31.2129 24.722C31.9891 24.722 32.7197 24.5373 33.3831 24.1582L32.3908 22.4218C32.0462 22.6187 31.6607 22.722 31.2129 22.722V24.722ZM33.3895 24.1545C34.0725 23.7575 34.6068 23.1937 34.9895 22.4895L33.2323 21.5345C33.015 21.9343 32.7334 22.2225 32.3843 22.4255L33.3895 24.1545ZM34.9938 22.4816C35.3825 21.7509 35.5609 20.9307 35.5609 20.05H33.5609C33.5609 20.6573 33.4394 21.1451 33.228 21.5424L34.9938 22.4816ZM42.513 16.738H41.513L43.4036 17.1928L42.513 16.738ZM43.737 15.424L43.2367 14.5581L43.2283 14.5631L43.737 15.424ZM45.699 14.956H46.699V13.956H45.699V14.956ZM45.699 16.648V17.648H46.699V16.648H45.699ZM42.513 25V26H43.513V25H42.513ZM40.875 25H39.875V26H40.875V25ZM40.875 15.136V14.136H39.875V15.136H40.875ZM42.513 15.136H43.513V14.136H42.513V15.136ZM43.4036 17.1928C43.6083 16.7918 43.8864 16.4972 44.2457 16.2849L43.2283 14.5631C42.5315 14.9748 41.9936 15.5562 41.6224 16.2832L43.4036 17.1928ZM44.2373 16.2899C44.5937 16.0839 45.0663 15.956 45.699 15.956V13.956C44.7957 13.956 43.9603 14.1401 43.2367 14.5581L44.2373 16.2899ZM44.699 14.956V16.648H46.699V14.956H44.699ZM45.699 15.648H45.267V17.648H45.699V15.648ZM45.267 15.648C44.1729 15.648 43.1747 15.9485 42.4662 16.7173C41.7718 17.4706 41.513 18.5052 41.513 19.636H43.513C43.513 18.7748 43.7131 18.3154 43.9368 18.0727C44.1463 17.8455 44.525 17.648 45.267 17.648V15.648ZM41.513 19.636V25H43.513V19.636H41.513ZM42.513 24H40.875V26H42.513V24ZM41.875 25V15.136H39.875V25H41.875ZM40.875 16.136H42.513V14.136H40.875V16.136ZM41.513 15.136V16.738H43.513V15.136H41.513ZM51.4778 16.486V15.486H50.4778V16.486H51.4778ZM51.7838 23.326L51.0767 24.0331L51.0874 24.0438L51.0985 24.0542L51.7838 23.326ZM54.0518 23.614H55.0518V22.614H54.0518V23.614ZM54.0518 25V26H55.0518V25H54.0518ZM49.8398 16.486H50.8398V15.486H49.8398V16.486ZM48.5618 16.486H47.5618V17.486H48.5618V16.486ZM48.5618 15.136V14.136H47.5618V15.136H48.5618ZM49.8398 15.136V16.136H50.8398V15.136H49.8398ZM49.8398 12.652V11.652H48.8398V12.652H49.8398ZM51.4778 12.652H52.4778V11.652H51.4778V12.652ZM51.4778 15.136H50.4778V16.136H51.4778V15.136ZM54.0518 15.136H55.0518V14.136H54.0518V15.136ZM54.0518 16.486V17.486H55.0518V16.486H54.0518ZM50.4778 16.486V22.3H52.4778V16.486H50.4778ZM50.4778 22.3C50.4778 22.8786 50.5934 23.5498 51.0767 24.0331L52.4909 22.6189C52.531 22.659 52.5273 22.6798 52.5126 22.6307C52.4969 22.5781 52.4778 22.4743 52.4778 22.3H50.4778ZM51.0985 24.0542C51.5887 24.5156 52.2714 24.614 52.8458 24.614V22.614C52.6518 22.614 52.5306 22.5949 52.4641 22.5769C52.3982 22.559 52.4203 22.5518 52.4692 22.5978L51.0985 24.0542ZM52.8458 24.614H54.0518V22.614H52.8458V24.614ZM53.0518 23.614V25H55.0518V23.614H53.0518ZM54.0518 24H52.5758V26H54.0518V24ZM52.5758 24C51.7985 24 51.402 23.8193 51.2013 23.6345L49.8464 25.1055C50.5577 25.7607 51.5291 26 52.5758 26V24ZM51.2013 23.6345C51.0407 23.4865 50.8398 23.132 50.8398 22.3H48.8398C48.8398 23.388 49.095 24.4135 49.8464 25.1055L51.2013 23.6345ZM50.8398 22.3V16.486H48.8398V22.3H50.8398ZM49.8398 15.486H48.5618V17.486H49.8398V15.486ZM49.5618 16.486V15.136H47.5618V16.486H49.5618ZM48.5618 16.136H49.8398V14.136H48.5618V16.136ZM50.8398 15.136V12.652H48.8398V15.136H50.8398ZM49.8398 13.652H51.4778V11.652H49.8398V13.652ZM50.4778 12.652V15.136H52.4778V12.652H50.4778ZM51.4778 16.136H54.0518V14.136H51.4778V16.136ZM53.0518 15.136V16.486H55.0518V15.136H53.0518ZM54.0518 15.486H51.4778V17.486H54.0518V15.486ZM57.9805 13.21L58.6876 12.5029L58.6876 12.5029L57.9805 13.21ZM57.9805 11.626L58.6876 12.3331L58.6876 12.3331L57.9805 11.626ZM59.5285 11.626L58.8015 12.3126L58.8113 12.323L58.8214 12.3331L59.5285 11.626ZM59.5285 13.21L58.8214 12.5029L58.8113 12.513L58.8015 12.5234L59.5285 13.21ZM59.5645 15.136H60.5645V14.136H59.5645V15.136ZM59.5645 25V26H60.5645V25H59.5645ZM57.9265 25H56.9265V26H57.9265V25ZM57.9265 15.136V14.136H56.9265V15.136H57.9265ZM58.7725 12.534C58.7341 12.534 58.7201 12.5279 58.7191 12.5275C58.7185 12.5272 58.7084 12.5237 58.6876 12.5029L57.2734 13.9171C57.6813 14.3251 58.2016 14.534 58.7725 14.534V12.534ZM58.6876 12.5029C58.6667 12.4821 58.6632 12.4719 58.663 12.4714C58.6626 12.4704 58.6565 12.4564 58.6565 12.418H56.6565C56.6565 12.9889 56.8654 13.5091 57.2734 13.9171L58.6876 12.5029ZM58.6565 12.418C58.6565 12.3796 58.6626 12.3656 58.663 12.3646C58.6632 12.3641 58.6667 12.3539 58.6876 12.3331L57.2734 10.9189C56.8654 11.3269 56.6565 11.8471 56.6565 12.418H58.6565ZM58.6876 12.3331C58.7084 12.3123 58.7185 12.3088 58.7191 12.3085C58.7201 12.3081 58.7341 12.302 58.7725 12.302V10.302C58.2016 10.302 57.6813 10.5109 57.2734 10.9189L58.6876 12.3331ZM58.7725 12.302C58.7873 12.302 58.7948 12.3033 58.7965 12.3036C58.7979 12.3039 58.7961 12.3037 58.7926 12.3021C58.789 12.3006 58.787 12.2992 58.7873 12.2994C58.7877 12.2997 58.7926 12.3033 58.8015 12.3126L60.2555 10.9394C59.8605 10.5212 59.3446 10.302 58.7725 10.302V12.302ZM58.8214 12.3331C58.8422 12.3539 58.8457 12.3641 58.8459 12.3646C58.8463 12.3656 58.8525 12.3796 58.8525 12.418H60.8525C60.8525 11.8471 60.6436 11.3269 60.2356 10.9189L58.8214 12.3331ZM58.8525 12.418C58.8525 12.4564 58.8463 12.4704 58.8459 12.4714C58.8457 12.4719 58.8422 12.4821 58.8214 12.5029L60.2356 13.9171C60.6436 13.5091 60.8525 12.9889 60.8525 12.418H58.8525ZM58.8015 12.5234C58.7926 12.5327 58.7877 12.5363 58.7873 12.5366C58.787 12.5368 58.789 12.5354 58.7926 12.5339C58.7961 12.5323 58.7979 12.5321 58.7965 12.5324C58.7948 12.5327 58.7873 12.534 58.7725 12.534V14.534C59.3446 14.534 59.8605 14.3148 60.2555 13.8966L58.8015 12.5234ZM58.5645 15.136V25H60.5645V15.136H58.5645ZM59.5645 24H57.9265V26H59.5645V24ZM58.9265 25V15.136H56.9265V25H58.9265ZM57.9265 16.136H59.5645V14.136H57.9265V16.136ZM68.2602 16.486V17.486H69.2602V16.486H68.2602ZM66.1902 16.486V15.486H65.1902V16.486H66.1902ZM66.1902 25V26H67.1902V25H66.1902ZM64.5522 25H63.5522V26H64.5522V25ZM64.5522 16.486H65.5522V15.486H64.5522V16.486ZM63.2742 16.486H62.2742V17.486H63.2742V16.486ZM63.2742 15.136V14.136H62.2742V15.136H63.2742ZM64.5522 15.136V16.136H65.5522V15.136H64.5522ZM65.3982 12.022L66.0645 12.7677L66.0654 12.7668L65.3982 12.022ZM68.1522 11.248H69.1522V10.248H68.1522V11.248ZM68.1522 12.616V13.616H69.1522V12.616H68.1522ZM66.6222 13.048L67.3141 13.77L67.3147 13.7694L66.6222 13.048ZM66.1902 15.136H65.1902V16.136H66.1902V15.136ZM68.2602 15.136H69.2602V14.136H68.2602V15.136ZM68.2602 15.486H66.1902V17.486H68.2602V15.486ZM65.1902 16.486V25H67.1902V16.486H65.1902ZM66.1902 24H64.5522V26H66.1902V24ZM65.5522 25V16.486H63.5522V25H65.5522ZM64.5522 15.486H63.2742V17.486H64.5522V15.486ZM64.2742 16.486V15.136H62.2742V16.486H64.2742ZM63.2742 16.136H64.5522V14.136H63.2742V16.136ZM65.5522 15.136V14.434H63.5522V15.136H65.5522ZM65.5522 14.434C65.5522 13.4817 65.7951 13.0084 66.0645 12.7677L64.7318 11.2763C63.8732 12.0436 63.5522 13.1783 63.5522 14.434H65.5522ZM66.0654 12.7668C66.3727 12.4916 66.9927 12.248 68.1522 12.248V10.248C66.7916 10.248 65.5757 10.5204 64.7309 11.2772L66.0654 12.7668ZM67.1522 11.248V12.616H69.1522V11.248H67.1522ZM68.1522 11.616C67.3485 11.616 66.5121 11.7675 65.9296 12.3266L67.3147 13.7694C67.3322 13.7525 67.5158 13.616 68.1522 13.616V11.616ZM65.9303 12.326C65.3523 12.8799 65.1902 13.6772 65.1902 14.434H67.1902C67.1902 14.179 67.2191 14.0074 67.2529 13.8991C67.2692 13.8467 67.2852 13.8139 67.2962 13.7951C67.3068 13.7769 67.3135 13.7706 67.3141 13.77L65.9303 12.326ZM65.1902 14.434V15.136H67.1902V14.434H65.1902ZM66.1902 16.136H68.2602V14.136H66.1902V16.136ZM67.2602 15.136V16.486H69.2602V15.136H67.2602ZM80.556 15.136L81.4814 15.5149L82.046 14.136H80.556V15.136ZM74.616 29.644V30.644H75.2871L75.5414 30.0229L74.616 29.644ZM72.924 29.644L71.9984 29.2654L71.4344 30.644H72.924V29.644ZM74.868 24.892L75.7935 25.2706L75.9482 24.8926L75.794 24.5144L74.868 24.892ZM70.89 15.136V14.136H69.4023L69.964 15.5136L70.89 15.136ZM72.708 15.136L73.6405 14.7748L73.393 14.136H72.708V15.136ZM75.804 23.128L74.8715 23.4892L75.8094 25.9104L76.7379 23.4856L75.804 23.128ZM78.864 15.136V14.136H78.1761L77.9301 14.7784L78.864 15.136ZM79.6305 14.7571L73.6905 29.2651L75.5414 30.0229L81.4814 15.5149L79.6305 14.7571ZM74.616 28.644H72.924V30.644H74.616V28.644ZM73.8495 30.0226L75.7935 25.2706L73.9424 24.5134L71.9984 29.2654L73.8495 30.0226ZM75.794 24.5144L71.816 14.7584L69.964 15.5136L73.942 25.2696L75.794 24.5144ZM70.89 16.136H72.708V14.136H70.89V16.136ZM71.7755 15.4972L74.8715 23.4892L76.7365 22.7668L73.6405 14.7748L71.7755 15.4972ZM76.7379 23.4856L79.7979 15.4936L77.9301 14.7784L74.8701 22.7704L76.7379 23.4856ZM78.864 16.136H80.556V14.136H78.864V16.136Z" fill="black"/>
</g>
<defs>
<clipPath id="clip0">
<rect width="95" height="32" fill="white"/>
</clipPath>
</defs>
</svg>
