<svg fill="none" viewBox="0 0 447 660" xmlns="http://www.w3.org/2000/svg"><path d="M141.297 580.126l74.388 34.333 129.319-66.157-73.051-30.166-130.656 61.99z" fill="#fff" stroke="#32335A" stroke-miterlimit="10" stroke-linecap="round" stroke-linejoin="round"></path><path d="M190.41 564.866l15.118 7.193V452.733l-15.801-6.136.683 118.269zm15.121 7.185l54.976-27.69V425.046l-54.976 27.69v119.315z" fill="#fff" stroke="#28234A" stroke-miterlimit="10" stroke-linecap="round" stroke-linejoin="round"></path><path d="M6.12 217.693l.006-.002L433.368 2.428l.003-.001c2.811-1.37 6.097-1.231 8.767.411 2.672 1.644 4.315 4.59 4.315 7.667V387c0 3.427-1.919 6.573-4.995 8.077l-.004.002L14.41 608.673l-.005.003c-1.314.621-2.685.961-4.045.961-1.638 0-3.282-.478-4.724-1.37l-.001-.001c-2.674-1.645-4.315-4.52-4.315-7.666l-.195-374.83v-.001c0-3.426 1.92-6.572 4.996-8.076z" fill="#fff" stroke="#32335A" stroke-miterlimit="10" stroke-linecap="round" stroke-linejoin="round"></path><mask id="prefix__a" maskUnits="userSpaceOnUse" x="15" y="15" width="432" height="564"><path d="M15.902 578.217l431.053-214.841V15.538L15.902 230.379v347.838z" fill="#C4C4C4"></path></mask><g mask="url(#prefix__a)"><path transform="matrix(.94652 -.46984 .00012 .93987 415.961 57.668)" stroke="#32335A" stroke-width="2" stroke-linecap="round" stroke-linejoin="round" d="M1-1h10.536"></path><path transform="matrix(.94652 -.46984 .00012 .93987 415.961 65.62)" stroke="#32335A" stroke-width="2" stroke-linecap="round" stroke-linejoin="round" d="M1-1h10.536"></path><path transform="matrix(-.94138 .48006 .00012 .93987 163.649 228.48)" stroke="#32335A" d="M-.471.71h122.998v201.068H-.471z"></path><path opacity="0.1" transform="matrix(-.94138 .48006 .00012 .93987 294.703 162.675)" fill="#fff" stroke="#28234A" d="M-.471.71h122.998v201.068H-.471z"></path><path opacity="0.1" transform="matrix(-.94138 .48006 .00012 .93987 428.219 94.963)" fill="#fff" stroke="#28234A" d="M-.471.71h122.998v201.068H-.471z"></path><path opacity="0.1" transform="matrix(-.94138 .48006 .00012 .93987 163.649 439.247)" fill="#fff" stroke="#28234A" d="M-.471.71h122.998v201.068H-.471z"></path><path opacity="0.1" transform="matrix(-.94138 .48006 .00012 .93987 294.703 373.442)" fill="#fff" stroke="#32335A" d="M-.471.71h122.998v201.068H-.471z"></path><path opacity="0.1" transform="matrix(-.94138 .48006 .00012 .93987 428.219 305.73)" fill="#fff" stroke="#28234A" d="M-.471.71h122.998v201.068H-.471z"></path><path fill="#7FE8A1" d="M181.73 237.749L65.001 297.275l.024 189.918 116.73-59.526z"></path></g><path d="M14.945 607.565l431.053-214.841V14.714L14.945 229.554v378.01z" stroke="#32335A" stroke-width="2" stroke-miterlimit="10" stroke-linecap="round" stroke-linejoin="round"></path><path d="M315.593 365.831l.007-.003.01-.006 106.296-57.074a6.436 6.436 0 016.207.295c1.893 1.165 3.057 3.253 3.057 5.431v283.824c0 2.428-1.36 4.657-3.538 5.722l-.008.004-106.15 54.384-.007.003c-.935.442-1.906.681-2.866.681a6.383 6.383 0 01-3.346-.971l-.002-.001c-1.895-1.166-3.057-3.203-3.057-5.431l-.141-281.136c0-2.429 1.36-4.657 3.538-5.722z" fill="#fff" stroke="#28234A" stroke-miterlimit="10" stroke-linecap="round" stroke-linejoin="round"></path><path d="M430.688 316.639l-108.324 55.24.036 285.543 108.324-55.24-.036-285.543z" fill="#fff" stroke="#28234A" stroke-width="2"></path><path transform="matrix(.94652 -.46984 .00012 .93987 331.574 393.311)" stroke="#32335A" stroke-width="2" stroke-linecap="round" stroke-linejoin="round" d="M1-1h7.074"></path><path transform="matrix(.94652 -.46984 .00012 .93987 331.574 399.067)" stroke="#32335A" stroke-width="2" stroke-linecap="round" stroke-linejoin="round" d="M1-1h7.074"></path><path transform="matrix(-.94138 .48006 .00012 .93987 372.149 390.322)" fill="#fff" stroke="#28234A" d="M-.471.71h43.272v71.146H-.471z"></path><path fill="#7FE8A1" d="M380.152 396.642l-41.677 21.253.009 67.808 41.677-21.253z"></path><path opacity="0.1" transform="matrix(-.94138 .48006 .00012 .93987 423.364 364.167)" fill="#fff" stroke="#28234A" d="M-.471.71h43.272v71.146H-.471z"></path><path opacity="0.1" transform="matrix(-.94138 .48006 .00012 .93987 372.145 467.697)" fill="#fff" stroke="#28234A" d="M-.471.71h43.272v71.146H-.471z"></path><path opacity="0.1" transform="matrix(-.94138 .48006 .00012 .93987 423.364 441.542)" fill="#fff" stroke="#28234A" d="M-.471.71h43.272v71.146H-.471z"></path><path opacity="0.1" transform="matrix(-.94138 .48006 .00012 .93987 371.055 551.61)" fill="#fff" stroke="#28234A" d="M-.471.71h43.272v71.146H-.471z"></path><path opacity="0.1" transform="matrix(-.94138 .48006 .00012 .93987 423.36 525.457)" fill="#fff" stroke="#28234A" d="M-.471.71h43.272v71.146H-.471z"></path><path d="M401.457 339.627c4.099-2.05 5.32-4.962 5.579-7.333a10.467 10.467 0 00-.139-3.1l-.028-.139-64.725 32.866c.054.115.117.24.19.371.368.665.97 1.473 1.91 2.098 1.805 1.198 5.243 1.951 11.605-1.325 3.25-1.675 7.153-3.69 11.32-5.842 12.603-6.508 27.62-14.262 34.288-17.596z" fill="#fff" stroke="#28234A" stroke-width="2"></path></svg>