<?xml version="1.0" encoding="UTF-8"?>
<svg xmlns="http://www.w3.org/2000/svg" xmlns:xlink="http://www.w3.org/1999/xlink" width="300pt" height="299pt" viewBox="0 0 300 299" version="1.1">
<g id="surface1">
<path style=" stroke:none;fill-rule:nonzero;fill:rgb(14.901961%,19.607843%,21.960784%);fill-opacity:1;" d="M 238.765625 292.992188 C 238.765625 289.769531 198.796875 287.15625 149.492188 287.15625 C 100.191406 287.15625 60.222656 289.769531 60.222656 292.992188 C 60.222656 296.214844 100.191406 298.828125 149.492188 298.828125 C 198.796875 298.828125 238.765625 296.214844 238.765625 292.992188 Z M 238.765625 292.992188 "/>
<path style=" stroke:none;fill-rule:nonzero;fill:rgb(14.901961%,19.607843%,21.960784%);fill-opacity:1;" d="M 60.871094 252.457031 C 62.117188 252.992188 65.164062 252.929688 65.164062 252.929688 C 65.164062 252.929688 64.515625 250.9375 64.457031 250.816406 C 63.808594 249.421875 61.675781 247.117188 59.957031 247.351562 C 59.375 247.445312 58.863281 247.78125 58.546875 248.277344 C 58.230469 248.773438 58.144531 249.382812 58.308594 249.945312 C 58.585938 251.105469 59.808594 251.988281 60.871094 252.457031 Z M 60.871094 252.457031 "/>
<path style=" stroke:none;fill-rule:nonzero;fill:rgb(14.901961%,19.607843%,21.960784%);fill-opacity:1;" d="M 61.917969 261.253906 C 63.214844 261.445312 65.921875 260.660156 66.144531 260.605469 C 66.589844 262.15625 67.140625 263.671875 67.785156 265.144531 C 68.164062 266.007812 68.566406 266.871094 68.980469 267.738281 C 68.734375 267.382812 68.507812 267.089844 68.46875 267.015625 C 67.457031 265.847656 64.8125 264.179688 63.214844 264.859375 C 62.6875 265.101562 62.285156 265.558594 62.113281 266.113281 C 61.9375 266.667969 62.007812 267.273438 62.308594 267.773438 C 62.898438 268.84375 64.308594 269.375 65.457031 269.535156 C 66.605469 269.699219 68.941406 269.082031 69.558594 268.886719 C 69.722656 269.21875 69.878906 269.535156 70.039062 269.867188 C 70.832031 271.4375 71.617188 272.992188 72.351562 274.542969 C 72.605469 275.085938 72.839844 275.636719 73.078125 276.183594 C 72.859375 275.859375 72.667969 275.59375 72.636719 275.535156 C 71.625 274.367188 68.976562 272.699219 67.378906 273.375 C 66.851562 273.621094 66.449219 274.074219 66.277344 274.628906 C 66.101562 275.183594 66.171875 275.785156 66.46875 276.289062 C 67.058594 277.363281 68.476562 277.890625 69.617188 278.058594 C 70.761719 278.226562 72.863281 277.660156 73.609375 277.460938 C 73.832031 278.023438 74.058594 278.597656 74.261719 279.152344 C 74.375 279.542969 74.527344 279.898438 74.625 280.292969 C 74.722656 280.691406 74.835938 281.066406 74.949219 281.449219 C 75.125 282.1875 75.3125 282.953125 75.46875 283.671875 C 75.578125 284.179688 75.675781 284.664062 75.777344 285.152344 C 75.527344 284.601562 75.011719 283.542969 74.960938 283.460938 C 74.136719 282.164062 71.773438 280.101562 70.097656 280.527344 C 69.539062 280.6875 69.070312 281.078125 68.816406 281.601562 C 68.558594 282.125 68.535156 282.730469 68.753906 283.269531 C 69.175781 284.417969 70.488281 285.160156 71.597656 285.496094 C 72.8125 285.863281 75.492188 285.496094 75.84375 285.496094 C 76.007812 286.300781 76.15625 287.085938 76.285156 287.824219 C 76.578125 289.457031 76.792969 290.929688 76.933594 292.167969 L 78.070312 292.167969 C 77.871094 290.871094 77.609375 289.355469 77.273438 287.628906 C 77.109375 286.8125 76.921875 285.941406 76.71875 285.035156 C 77.53125 284.710938 78.324219 284.339844 79.089844 283.917969 C 79.980469 284.878906 82.253906 286.007812 82.542969 286.152344 C 82.234375 286.910156 81.925781 287.640625 81.621094 288.335938 C 80.972656 289.78125 80.402344 291.058594 79.871094 292.148438 L 81.101562 292.148438 C 81.550781 291.144531 82.050781 290.003906 82.570312 288.730469 C 82.886719 287.964844 83.21875 287.136719 83.539062 286.28125 C 83.863281 286.34375 86.53125 286.890625 87.777344 286.609375 C 88.898438 286.351562 90.269531 285.714844 90.769531 284.601562 C 91.027344 284.082031 91.054688 283.472656 90.835938 282.933594 C 90.621094 282.394531 90.1875 281.972656 89.640625 281.773438 C 87.996094 281.222656 85.492188 283.070312 84.570312 284.328125 C 84.519531 284.398438 84.019531 285.261719 83.710938 285.8125 C 83.84375 285.464844 83.972656 285.125 84.101562 284.761719 C 84.363281 284.050781 84.601562 283.328125 84.867188 282.550781 C 84.980469 282.175781 85.09375 281.792969 85.210938 281.410156 C 85.328125 281.027344 85.414062 280.613281 85.519531 280.210938 C 85.746094 279.269531 85.921875 278.308594 86.082031 277.335938 C 86.730469 277.566406 88.945312 278.34375 90.109375 278.265625 C 91.269531 278.1875 92.703125 277.757812 93.355469 276.734375 C 93.6875 276.257812 93.804688 275.664062 93.671875 275.097656 C 93.542969 274.53125 93.175781 274.046875 92.664062 273.765625 C 91.121094 272.96875 88.359375 274.414062 87.265625 275.523438 C 87.191406 275.59375 86.496094 276.460938 86.121094 276.949219 C 86.210938 276.363281 86.308594 275.78125 86.382812 275.183594 C 86.59375 273.464844 86.757812 271.722656 86.925781 269.996094 C 86.976562 269.464844 87.035156 268.933594 87.09375 268.402344 C 87.316406 268.484375 89.953125 269.464844 91.25 269.375 C 92.40625 269.296875 93.847656 268.875 94.496094 267.851562 C 94.832031 267.375 94.945312 266.777344 94.8125 266.210938 C 94.679688 265.644531 94.3125 265.160156 93.800781 264.878906 C 92.261719 264.082031 89.503906 265.527344 88.40625 266.636719 C 88.324219 266.722656 87.316406 267.972656 87.109375 268.304688 C 87.230469 267.136719 87.367188 265.96875 87.550781 264.828125 C 87.78125 263.296875 88.117188 261.777344 88.550781 260.289062 C 88.648438 260.328125 91.398438 261.367188 92.730469 261.273438 C 93.878906 261.191406 95.328125 260.769531 95.976562 259.746094 C 96.3125 259.269531 96.425781 258.671875 96.296875 258.105469 C 96.164062 257.539062 95.796875 257.054688 95.289062 256.773438 C 93.742188 255.976562 90.984375 257.421875 89.886719 258.53125 C 89.800781 258.617188 88.71875 259.972656 88.542969 260.230469 C 88.542969 260.140625 88.589844 260.050781 88.613281 259.957031 C 89.089844 258.464844 89.695312 257.019531 90.425781 255.632812 C 90.820312 254.863281 91.238281 254.148438 91.664062 253.460938 C 92.160156 253.707031 94.417969 254.804688 95.625 254.855469 C 96.832031 254.90625 98.261719 254.640625 99.042969 253.695312 C 99.425781 253.257812 99.605469 252.679688 99.539062 252.101562 C 99.472656 251.523438 99.160156 251 98.683594 250.664062 C 97.238281 249.707031 94.328125 250.859375 93.121094 251.820312 C 93.054688 251.871094 92.472656 252.46875 92.003906 252.929688 C 92.203125 252.625 92.398438 252.28125 92.59375 252.015625 C 93.320312 250.925781 94.046875 249.964844 94.703125 249.128906 C 95.082031 248.65625 95.429688 248.234375 95.761719 247.832031 C 96.367188 247.832031 98.820312 247.746094 99.890625 247.25 C 100.964844 246.75 102.136719 245.839844 102.390625 244.65625 C 102.527344 244.089844 102.421875 243.492188 102.09375 243.011719 C 101.769531 242.53125 101.253906 242.210938 100.675781 242.132812 C 98.949219 241.949219 96.90625 244.3125 96.277344 245.71875 C 96.21875 245.839844 95.585938 247.851562 95.625 247.851562 L 95.664062 247.851562 C 95.335938 248.222656 95.015625 248.617188 94.625 249.0625 C 93.976562 249.894531 93.191406 250.835938 92.445312 251.910156 C 91.621094 253.066406 90.867188 254.265625 90.1875 255.511719 C 89.40625 256.894531 88.753906 258.347656 88.238281 259.847656 C 88.238281 259.847656 88.238281 259.886719 88.238281 259.90625 C 88.238281 259.402344 88.238281 257.960938 88.207031 257.871094 C 88.011719 256.332031 86.726562 253.492188 85.019531 253.175781 C 84.4375 253.085938 83.847656 253.246094 83.398438 253.617188 C 82.945312 253.988281 82.675781 254.535156 82.65625 255.121094 C 82.550781 256.339844 83.433594 257.558594 84.296875 258.363281 C 85.269531 259.230469 87.972656 260.070312 88.191406 260.132812 C 87.710938 261.675781 87.328125 263.25 87.050781 264.839844 C 86.886719 265.769531 86.75 266.703125 86.621094 267.648438 C 86.621094 267.207031 86.621094 266.8125 86.621094 266.761719 C 86.421875 265.222656 85.132812 262.382812 83.425781 262.066406 C 82.847656 261.976562 82.257812 262.136719 81.808594 262.507812 C 81.355469 262.878906 81.085938 263.425781 81.0625 264.011719 C 80.960938 265.230469 81.847656 266.449219 82.707031 267.222656 C 83.5625 267.992188 85.867188 268.765625 86.480469 268.960938 L 86.34375 270.042969 C 86.132812 271.78125 85.933594 273.511719 85.691406 275.230469 C 85.609375 275.828125 85.5 276.410156 85.394531 277 C 85.394531 276.613281 85.394531 276.28125 85.394531 276.230469 C 85.199219 274.699219 83.914062 271.851562 82.207031 271.535156 C 81.628906 271.445312 81.042969 271.609375 80.589844 271.980469 C 80.140625 272.351562 79.867188 272.894531 79.84375 273.480469 C 79.738281 274.691406 80.621094 275.917969 81.484375 276.683594 C 82.347656 277.449219 84.425781 278.15625 85.148438 278.386719 C 85.023438 278.984375 84.894531 279.582031 84.746094 280.152344 C 84.632812 280.542969 84.558594 280.921875 84.421875 281.304688 C 84.285156 281.6875 84.171875 282.070312 84.058594 282.449219 C 83.796875 283.160156 83.53125 283.898438 83.257812 284.59375 C 83.078125 285.074219 82.886719 285.527344 82.699219 285.988281 C 82.796875 285.398438 82.953125 284.230469 82.960938 284.128906 C 82.941406 282.761719 82.574219 281.421875 81.886719 280.238281 C 81.902344 280.085938 81.902344 279.933594 81.886719 279.78125 C 81.816406 279.203125 81.5 278.683594 81.019531 278.351562 C 80.542969 278.019531 79.941406 277.910156 79.375 278.042969 C 77.699219 278.484375 76.640625 281.421875 76.566406 282.964844 C 76.566406 283.058594 76.617188 284.054688 76.660156 284.679688 C 76.578125 284.316406 76.5 283.964844 76.410156 283.589844 C 76.234375 282.851562 76.039062 282.117188 75.832031 281.324219 L 75.480469 280.179688 C 75.375 279.796875 75.214844 279.398438 75.078125 279.011719 C 74.746094 278.101562 74.363281 277.203125 73.960938 276.304688 C 74.609375 276.152344 76.910156 275.566406 77.855469 274.859375 C 78.804688 274.152344 79.699219 272.890625 79.699219 271.683594 C 79.71875 271.101562 79.484375 270.539062 79.0625 270.140625 C 78.640625 269.738281 78.066406 269.535156 77.488281 269.582031 C 75.765625 269.769531 74.242188 272.511719 73.953125 274.023438 C 73.953125 274.121094 73.832031 275.230469 73.792969 275.847656 C 73.546875 275.308594 73.300781 274.769531 73.03125 274.230469 C 72.261719 272.679688 71.4375 271.136719 70.617188 269.59375 C 70.363281 269.121094 70.117188 268.640625 69.871094 268.167969 C 70.105469 268.117188 72.84375 267.480469 73.875 266.691406 C 74.796875 265.988281 75.773438 264.839844 75.757812 263.617188 C 75.773438 263.035156 75.542969 262.476562 75.121094 262.078125 C 74.699219 261.675781 74.125 261.476562 73.546875 261.519531 C 71.824219 261.703125 70.300781 264.445312 70.015625 265.964844 C 70.015625 266.074219 69.84375 267.675781 69.824219 268.082031 C 69.285156 267.039062 68.753906 265.996094 68.273438 264.945312 C 67.617188 263.527344 67.050781 262.070312 66.578125 260.582031 C 66.691406 260.582031 69.554688 259.933594 70.609375 259.097656 C 71.527344 258.390625 72.5 257.242188 72.492188 256.023438 C 72.507812 255.441406 72.273438 254.878906 71.851562 254.476562 C 71.429688 254.078125 70.855469 253.875 70.273438 253.921875 C 68.554688 254.109375 67.027344 256.851562 66.75 258.363281 C 66.75 258.488281 66.566406 260.203125 66.558594 260.515625 C 66.558594 260.433594 66.496094 260.347656 66.46875 260.257812 C 66.039062 258.75 65.746094 257.210938 65.59375 255.652344 C 65.496094 254.789062 65.449219 253.964844 65.429688 253.15625 C 65.976562 253.089844 68.46875 252.761719 69.5 252.136719 C 70.535156 251.515625 71.578125 250.503906 71.707031 249.285156 C 71.789062 248.710938 71.621094 248.132812 71.25 247.691406 C 70.878906 247.246094 70.339844 246.980469 69.761719 246.957031 C 68.027344 246.957031 66.242188 249.519531 65.761719 250.984375 C 65.761719 251.066406 65.558594 251.910156 65.441406 252.527344 C 65.441406 252.15625 65.441406 251.789062 65.441406 251.4375 C 65.441406 250.140625 65.527344 248.929688 65.605469 247.863281 C 65.65625 247.261719 65.714844 246.714844 65.78125 246.210938 C 66.28125 245.867188 68.285156 244.453125 68.902344 243.441406 C 69.519531 242.429688 69.996094 241.035156 69.554688 239.894531 C 69.355469 239.347656 68.9375 238.910156 68.398438 238.6875 C 67.859375 238.46875 67.253906 238.488281 66.730469 238.742188 C 65.191406 239.53125 64.78125 242.632812 65.039062 244.15625 C 65.039062 244.285156 65.644531 246.308594 65.691406 246.289062 C 65.625 246.773438 65.558594 247.300781 65.496094 247.878906 C 65.390625 248.933594 65.28125 250.132812 65.25 251.449219 C 65.199219 252.867188 65.234375 254.285156 65.351562 255.699219 C 65.476562 257.277344 65.738281 258.84375 66.136719 260.378906 L 66.136719 260.4375 C 65.863281 260.011719 65.058594 258.835938 64.988281 258.753906 C 63.976562 257.585938 61.332031 255.917969 59.738281 256.597656 C 59.207031 256.839844 58.804688 257.296875 58.632812 257.851562 C 58.457031 258.40625 58.53125 259.011719 58.828125 259.511719 C 59.367188 260.566406 60.773438 261.085938 61.917969 261.253906 Z M 61.917969 261.253906 "/>
<path style=" stroke:none;fill-rule:nonzero;fill:rgb(14.901961%,19.607843%,21.960784%);fill-opacity:1;" d="M 91.644531 253.125 C 91.644531 253.125 92.199219 251.101562 92.21875 250.96875 C 92.433594 249.441406 91.945312 246.351562 90.378906 245.601562 C 89.847656 245.363281 89.242188 245.359375 88.710938 245.59375 C 88.175781 245.832031 87.769531 246.28125 87.589844 246.832031 C 87.171875 247.980469 87.699219 249.394531 88.328125 250.359375 C 89.070312 251.488281 91.644531 253.117188 91.644531 253.125 Z M 91.644531 253.125 "/>
<path style=" stroke:none;fill-rule:nonzero;fill:rgb(14.901961%,19.607843%,21.960784%);fill-opacity:1;" d="M 211.957031 257.734375 C 213.042969 258.207031 215.675781 258.144531 215.675781 258.144531 C 215.675781 258.144531 215.113281 256.417969 215.058594 256.3125 C 214.480469 255.109375 212.652344 253.109375 211.164062 253.3125 C 210.664062 253.390625 210.222656 253.679688 209.953125 254.105469 C 209.679688 254.527344 209.601562 255.050781 209.738281 255.535156 C 209.984375 256.566406 211.042969 257.324219 211.957031 257.734375 Z M 211.957031 257.734375 "/>
<path style=" stroke:none;fill-rule:nonzero;fill:rgb(14.901961%,19.607843%,21.960784%);fill-opacity:1;" d="M 212.871094 265.367188 C 213.988281 265.527344 216.34375 264.847656 216.527344 264.789062 C 216.917969 266.136719 217.394531 267.453125 217.957031 268.738281 C 218.28125 269.492188 218.605469 270.230469 218.996094 270.976562 C 218.773438 270.660156 218.585938 270.378906 218.554688 270.328125 C 217.671875 269.308594 215.378906 267.871094 214.007812 268.453125 C 213.550781 268.664062 213.203125 269.058594 213.054688 269.539062 C 212.902344 270.019531 212.964844 270.542969 213.222656 270.976562 C 213.730469 271.910156 214.957031 272.371094 215.949219 272.511719 C 216.941406 272.65625 218.976562 272.117188 219.507812 271.96875 L 219.929688 272.816406 C 220.578125 274.171875 221.292969 275.523438 221.929688 276.871094 C 222.148438 277.34375 222.351562 277.816406 222.578125 278.289062 L 222.195312 277.746094 C 221.3125 276.734375 219.019531 275.289062 217.652344 275.871094 C 217.191406 276.082031 216.84375 276.480469 216.691406 276.960938 C 216.542969 277.445312 216.605469 277.96875 216.863281 278.402344 C 217.371094 279.328125 218.597656 279.789062 219.59375 279.929688 C 220.585938 280.074219 222.417969 279.585938 223.050781 279.414062 C 223.246094 279.90625 223.441406 280.398438 223.605469 280.886719 C 223.714844 281.214844 223.835938 281.535156 223.929688 281.871094 C 224.019531 282.207031 224.109375 282.519531 224.207031 282.871094 C 224.355469 283.519531 224.519531 284.167969 224.65625 284.816406 C 224.753906 285.253906 224.835938 285.671875 224.921875 286.113281 C 224.707031 285.636719 224.273438 284.71875 224.222656 284.644531 C 223.507812 283.511719 221.457031 281.742188 220 282.109375 C 219.515625 282.246094 219.109375 282.582031 218.886719 283.039062 C 218.664062 283.492188 218.648438 284.015625 218.839844 284.484375 C 219.203125 285.484375 220.339844 286.117188 221.300781 286.429688 C 222.359375 286.753906 224.695312 286.460938 224.988281 286.429688 C 225.125 287.125 225.253906 287.804688 225.363281 288.445312 C 225.617188 289.867188 225.804688 291.136719 225.949219 292.214844 L 226.933594 292.214844 C 226.757812 291.105469 226.539062 289.777344 226.238281 288.285156 C 226.105469 287.578125 225.941406 286.820312 225.765625 286.046875 C 226.46875 285.765625 227.152344 285.441406 227.816406 285.082031 C 228.722656 285.863281 229.734375 286.519531 230.816406 287.027344 C 230.542969 287.675781 230.277344 288.324219 230.019531 288.917969 C 229.472656 290.171875 228.953125 291.285156 228.5 292.226562 L 229.5625 292.226562 C 229.953125 291.359375 230.390625 290.367188 230.863281 289.261719 C 231.140625 288.613281 231.421875 287.875 231.699219 287.136719 C 231.984375 287.195312 234.296875 287.667969 235.375 287.421875 C 236.355469 287.199219 237.535156 286.648438 237.972656 285.683594 C 238.195312 285.230469 238.214844 284.703125 238.023438 284.234375 C 237.835938 283.765625 237.460938 283.398438 236.984375 283.226562 C 235.5625 282.753906 233.386719 284.367188 232.589844 285.445312 C 232.542969 285.507812 232.109375 286.253906 231.84375 286.742188 C 231.960938 286.4375 232.070312 286.144531 232.1875 285.828125 C 232.414062 285.210938 232.621094 284.585938 232.835938 283.914062 C 232.933594 283.582031 233.03125 283.265625 233.136719 282.921875 C 233.238281 282.578125 233.308594 282.226562 233.402344 281.878906 C 233.597656 281.066406 233.75 280.238281 233.886719 279.394531 C 234.433594 279.585938 236.375 280.261719 237.375 280.191406 C 238.375 280.121094 239.632812 279.757812 240.210938 278.894531 C 240.507812 278.480469 240.613281 277.957031 240.496094 277.460938 C 240.382812 276.964844 240.0625 276.542969 239.613281 276.300781 C 238.277344 275.613281 235.882812 276.878906 234.933594 277.824219 C 234.867188 277.882812 234.285156 278.640625 233.941406 279.0625 C 234.019531 278.550781 234.101562 278.042969 234.167969 277.53125 C 234.347656 276.039062 234.492188 274.53125 234.640625 272.992188 C 234.6875 272.53125 234.730469 272.070312 234.785156 271.613281 C 234.980469 271.683594 237.265625 272.539062 238.386719 272.453125 C 239.386719 272.390625 240.640625 272.019531 241.222656 271.15625 C 241.519531 270.742188 241.625 270.222656 241.507812 269.726562 C 241.390625 269.230469 241.070312 268.804688 240.621094 268.5625 C 239.320312 267.875 236.894531 269.140625 235.941406 270.085938 C 235.867188 270.160156 235 271.25 234.789062 271.535156 C 234.902344 270.523438 235.019531 269.511719 235.171875 268.523438 C 235.375 267.183594 235.660156 265.859375 236.035156 264.554688 C 236.128906 264.589844 238.511719 265.488281 239.660156 265.40625 C 240.660156 265.339844 241.917969 264.972656 242.496094 264.109375 C 242.792969 263.695312 242.898438 263.171875 242.785156 262.675781 C 242.667969 262.179688 242.347656 261.757812 241.898438 261.515625 C 240.5625 260.828125 238.167969 262.09375 237.21875 263.039062 C 237.140625 263.117188 236.207031 264.285156 236.050781 264.511719 C 236.050781 264.433594 236.089844 264.355469 236.109375 264.277344 C 236.523438 262.984375 237.050781 261.730469 237.6875 260.527344 C 238.023438 259.878906 238.386719 259.230469 238.757812 258.640625 C 239.1875 258.855469 241.148438 259.808594 242.191406 259.847656 C 243.238281 259.886719 244.476562 259.667969 245.152344 258.84375 C 245.484375 258.464844 245.640625 257.960938 245.578125 257.460938 C 245.519531 256.960938 245.253906 256.507812 244.839844 256.214844 C 243.585938 255.386719 241.070312 256.386719 240.015625 257.222656 C 239.964844 257.265625 239.433594 257.792969 239.054688 258.179688 C 239.226562 257.914062 239.394531 257.636719 239.5625 257.390625 C 240.210938 256.445312 240.859375 255.613281 241.394531 254.886719 C 241.71875 254.472656 242.042969 254.109375 242.308594 253.773438 C 242.835938 253.773438 244.964844 253.695312 245.890625 253.257812 C 246.820312 252.824219 247.839844 252.039062 248.0625 251.003906 C 248.179688 250.511719 248.085938 249.996094 247.800781 249.578125 C 247.515625 249.164062 247.066406 248.886719 246.566406 248.816406 C 245.074219 248.65625 243.320312 250.699219 242.757812 251.921875 C 242.703125 252.035156 242.160156 253.773438 242.183594 253.773438 L 242.21875 253.773438 C 241.9375 254.089844 241.632812 254.421875 241.316406 254.824219 C 240.730469 255.542969 240.082031 256.359375 239.425781 257.292969 C 238.714844 258.292969 238.066406 259.335938 237.476562 260.414062 C 236.8125 261.617188 236.25 262.878906 235.804688 264.179688 C 235.804688 264.195312 235.804688 264.210938 235.804688 264.226562 C 235.804688 263.785156 235.804688 262.550781 235.804688 262.460938 C 235.628906 261.164062 234.503906 258.660156 233.03125 258.390625 C 232.53125 258.3125 232.027344 258.453125 231.636719 258.769531 C 231.246094 259.089844 231.007812 259.558594 230.984375 260.0625 C 230.894531 261.121094 231.636719 262.175781 232.40625 262.84375 C 233.25 263.597656 235.59375 264.324219 235.785156 264.382812 C 235.363281 265.71875 235.03125 267.078125 234.789062 268.460938 C 234.648438 269.265625 234.53125 270.074219 234.421875 270.890625 C 234.421875 270.507812 234.421875 270.171875 234.421875 270.125 C 234.246094 268.796875 233.121094 266.328125 231.65625 266.054688 C 231.15625 265.976562 230.648438 266.113281 230.253906 266.433594 C 229.863281 266.753906 229.625 267.222656 229.601562 267.726562 C 229.511719 268.785156 230.285156 269.839844 231.03125 270.503906 C 231.777344 271.164062 233.769531 271.84375 234.277344 272.011719 L 234.160156 272.953125 C 233.980469 274.457031 233.804688 275.960938 233.589844 277.433594 C 233.519531 277.953125 233.421875 278.460938 233.328125 278.964844 C 233.328125 278.628906 233.328125 278.316406 233.328125 278.316406 C 233.160156 277.019531 232.03125 274.515625 230.5625 274.246094 C 230.066406 274.167969 229.554688 274.304688 229.164062 274.625 C 228.773438 274.941406 228.535156 275.414062 228.511719 275.917969 C 228.429688 276.972656 229.195312 278.03125 229.941406 278.691406 C 230.914062 279.347656 231.988281 279.847656 233.117188 280.171875 C 233.003906 280.691406 232.894531 281.210938 232.765625 281.703125 C 232.675781 282.039062 232.601562 282.351562 232.484375 282.707031 C 232.367188 283.0625 232.269531 283.355469 232.167969 283.691406 C 231.941406 284.308594 231.714844 284.949219 231.480469 285.554688 C 231.316406 285.96875 231.15625 286.363281 230.992188 286.765625 C 231.078125 286.246094 231.214844 285.234375 231.21875 285.152344 C 231.203125 283.972656 230.882812 282.820312 230.292969 281.800781 C 230.300781 281.667969 230.300781 281.535156 230.292969 281.402344 C 230.226562 280.902344 229.953125 280.453125 229.539062 280.167969 C 229.125 279.878906 228.605469 279.78125 228.117188 279.898438 C 226.660156 280.28125 225.738281 282.832031 225.675781 284.167969 C 225.675781 284.242188 225.71875 285.105469 225.765625 285.652344 C 225.6875 285.332031 225.625 285.003906 225.546875 284.703125 C 225.390625 284.054688 225.222656 283.40625 225.039062 282.757812 C 224.941406 282.433594 224.835938 282.109375 224.742188 281.765625 C 224.644531 281.421875 224.507812 281.117188 224.390625 280.753906 C 224.097656 279.96875 223.773438 279.1875 223.421875 278.40625 C 223.988281 278.277344 225.972656 277.757812 226.773438 277.15625 C 227.570312 276.554688 228.410156 275.546875 228.402344 274.492188 C 228.417969 273.980469 228.210938 273.488281 227.839844 273.140625 C 227.46875 272.792969 226.960938 272.621094 226.453125 272.667969 C 224.960938 272.832031 223.664062 275.210938 223.394531 276.519531 C 223.394531 276.605469 223.285156 277.570312 223.253906 278.097656 C 223.039062 277.636719 222.824219 277.164062 222.605469 276.703125 C 221.953125 275.359375 221.214844 274.015625 220.507812 272.679688 C 220.285156 272.265625 220.078125 271.859375 219.859375 271.449219 C 220.054688 271.398438 222.453125 270.851562 223.332031 270.152344 C 224.125 269.542969 224.96875 268.542969 224.960938 267.488281 C 224.976562 266.976562 224.773438 266.484375 224.398438 266.136719 C 224.027344 265.789062 223.523438 265.617188 223.011719 265.664062 C 221.519531 265.828125 220.222656 268.207031 219.949219 269.515625 C 219.949219 269.613281 219.804688 271.003906 219.792969 271.359375 C 219.320312 270.449219 218.859375 269.550781 218.441406 268.636719 C 217.871094 267.40625 217.382812 266.144531 216.976562 264.855469 C 217.066406 264.855469 219.574219 264.265625 220.46875 263.558594 C 221.265625 262.949219 222.105469 261.949219 222.097656 260.890625 C 222.113281 260.382812 221.910156 259.890625 221.535156 259.542969 C 221.164062 259.191406 220.660156 259.019531 220.148438 259.070312 C 218.65625 259.230469 217.359375 261.613281 217.09375 262.921875 C 217.09375 263.027344 216.9375 264.523438 216.929688 264.789062 C 216.929688 264.71875 216.871094 264.640625 216.851562 264.570312 C 216.480469 263.261719 216.226562 261.925781 216.09375 260.574219 C 216.007812 259.828125 215.96875 259.109375 215.949219 258.410156 C 216.421875 258.351562 218.585938 258.066406 219.476562 257.527344 C 220.363281 256.988281 221.285156 256.105469 221.390625 255.050781 C 221.460938 254.550781 221.316406 254.042969 220.988281 253.660156 C 220.664062 253.273438 220.1875 253.046875 219.683594 253.03125 C 218.175781 253.03125 216.632812 255.25 216.214844 256.527344 C 216.214844 256.597656 216.039062 257.324219 215.941406 257.855469 C 215.941406 257.546875 215.941406 257.207031 215.941406 256.917969 C 215.941406 255.78125 216.019531 254.746094 216.09375 253.824219 C 216.132812 253.296875 216.183594 252.824219 216.234375 252.382812 C 216.671875 252.085938 218.410156 250.859375 218.941406 249.984375 C 219.476562 249.109375 219.898438 247.898438 219.507812 246.910156 C 219.335938 246.4375 218.972656 246.054688 218.503906 245.863281 C 218.035156 245.671875 217.507812 245.6875 217.054688 245.90625 C 215.722656 246.59375 215.371094 249.277344 215.59375 250.601562 C 215.59375 250.71875 216.113281 252.46875 216.136719 252.457031 C 216.078125 252.878906 216.019531 253.332031 215.96875 253.832031 C 215.878906 254.75 215.78125 255.777344 215.753906 256.929688 C 215.710938 258.160156 215.738281 259.386719 215.839844 260.613281 C 215.945312 261.988281 216.175781 263.347656 216.527344 264.679688 C 216.523438 264.695312 216.523438 264.710938 216.527344 264.726562 C 216.289062 264.355469 215.59375 263.335938 215.535156 263.265625 C 214.652344 262.253906 212.359375 260.808594 210.988281 261.390625 C 210.53125 261.601562 210.183594 262 210.035156 262.480469 C 209.882812 262.964844 209.945312 263.488281 210.203125 263.921875 C 210.652344 264.765625 211.878906 265.222656 212.871094 265.367188 Z M 212.871094 265.367188 "/>
<path style=" stroke:none;fill-rule:nonzero;fill:rgb(14.901961%,19.607843%,21.960784%);fill-opacity:1;" d="M 238.648438 258.3125 C 238.648438 258.3125 239.121094 256.558594 239.140625 256.449219 C 239.320312 255.152344 238.898438 252.441406 237.550781 251.792969 C 237.089844 251.585938 236.5625 251.585938 236.101562 251.789062 C 235.636719 251.992188 235.285156 252.382812 235.128906 252.863281 C 234.765625 253.855469 235.226562 255.082031 235.777344 255.917969 C 236.40625 256.910156 238.640625 258.3125 238.648438 258.3125 Z M 238.648438 258.3125 "/>
<path style=" stroke:none;fill-rule:nonzero;fill:rgb(14.901961%,19.607843%,21.960784%);fill-opacity:1;" d="M 182.402344 264.335938 C 183.289062 264.566406 184.207031 264.667969 185.125 264.632812 C 185.125 264.632812 184.707031 263.371094 184.675781 263.296875 C 184.253906 262.410156 182.910156 260.949219 181.820312 261.09375 C 181.453125 261.152344 181.128906 261.363281 180.929688 261.675781 C 180.730469 261.988281 180.671875 262.371094 180.773438 262.726562 C 181.058594 263.472656 181.652344 264.0625 182.402344 264.335938 Z M 182.402344 264.335938 "/>
<path style=" stroke:none;fill-rule:nonzero;fill:rgb(14.901961%,19.607843%,21.960784%);fill-opacity:1;" d="M 183.070312 269.917969 C 183.980469 269.910156 184.882812 269.769531 185.746094 269.496094 C 186.03125 270.484375 186.378906 271.449219 186.792969 272.390625 C 187.035156 272.933594 187.289062 273.480469 187.550781 274.023438 C 187.394531 273.789062 187.253906 273.589844 187.226562 273.5625 C 186.578125 272.816406 184.910156 271.761719 183.898438 272.195312 C 183.5625 272.347656 183.308594 272.636719 183.195312 272.988281 C 183.085938 273.339844 183.128906 273.71875 183.320312 274.035156 C 183.785156 274.6875 184.515625 275.097656 185.3125 275.160156 C 186.191406 275.160156 187.070312 275.027344 187.910156 274.761719 L 188.21875 275.410156 C 188.71875 276.402344 189.21875 277.355469 189.679688 278.375 C 189.84375 278.71875 189.992188 279.070312 190.140625 279.417969 C 190.007812 279.210938 189.882812 279.042969 189.863281 279.015625 C 189.214844 278.277344 187.539062 277.222656 186.53125 277.648438 C 186.195312 277.800781 185.9375 278.089844 185.828125 278.445312 C 185.71875 278.796875 185.765625 279.179688 185.953125 279.496094 C 186.421875 280.144531 187.152344 280.554688 187.949219 280.617188 C 188.808594 280.625 189.660156 280.496094 190.480469 280.238281 C 190.621094 280.597656 190.765625 280.957031 190.890625 281.3125 C 190.96875 281.558594 191.058594 281.785156 191.121094 282.039062 C 191.1875 282.292969 191.257812 282.527344 191.324219 282.773438 C 191.441406 283.238281 191.558594 283.726562 191.65625 284.1875 C 191.726562 284.503906 191.792969 284.835938 191.851562 285.121094 C 191.695312 284.769531 191.371094 284.09375 191.335938 284.042969 C 190.8125 283.210938 189.3125 281.914062 188.246094 282.1875 C 187.890625 282.289062 187.59375 282.535156 187.433594 282.867188 C 187.269531 283.199219 187.257812 283.585938 187.394531 283.925781 C 187.761719 284.636719 188.421875 285.152344 189.199219 285.332031 C 190.09375 285.46875 191.003906 285.46875 191.894531 285.332031 C 192 285.84375 192.097656 286.34375 192.175781 286.8125 C 192.355469 287.847656 192.5 288.757812 192.601562 289.574219 L 193.316406 289.574219 C 193.195312 288.757812 193.023438 287.785156 192.8125 286.695312 C 192.707031 286.175781 192.589844 285.625 192.460938 285.054688 C 192.976562 284.847656 193.480469 284.613281 193.964844 284.347656 C 194.628906 284.917969 195.363281 285.390625 196.15625 285.761719 C 195.960938 286.242188 195.765625 286.714844 195.578125 287.148438 C 195.175781 288.0625 194.796875 288.878906 194.460938 289.574219 L 195.265625 289.574219 C 195.558594 288.925781 195.867188 288.207031 196.199219 287.402344 C 196.402344 286.914062 196.609375 286.390625 196.808594 285.84375 C 197.691406 286.054688 198.601562 286.121094 199.503906 286.054688 C 200.296875 285.921875 200.996094 285.449219 201.40625 284.757812 C 201.570312 284.425781 201.585938 284.039062 201.449219 283.695312 C 201.3125 283.355469 201.035156 283.085938 200.6875 282.960938 C 199.640625 282.609375 198.050781 283.789062 197.441406 284.582031 C 197.40625 284.625 197.089844 285.171875 196.894531 285.519531 C 196.980469 285.300781 197.0625 285.085938 197.148438 284.871094 C 197.308594 284.425781 197.464844 283.964844 197.628906 283.472656 C 197.699219 283.230469 197.777344 282.992188 197.847656 282.746094 C 197.921875 282.5 197.980469 282.238281 198.042969 281.988281 C 198.1875 281.390625 198.304688 280.78125 198.402344 280.164062 C 199.214844 280.488281 200.078125 280.683594 200.953125 280.75 C 201.753906 280.75 202.515625 280.394531 203.03125 279.78125 C 203.242188 279.480469 203.316406 279.101562 203.234375 278.738281 C 203.148438 278.378906 202.914062 278.070312 202.589844 277.894531 C 201.613281 277.394531 199.863281 278.324219 199.167969 279.011719 C 199.121094 279.054688 198.679688 279.605469 198.441406 279.917969 C 198.5 279.550781 198.554688 279.179688 198.601562 278.796875 C 198.738281 277.707031 198.84375 276.605469 198.953125 275.503906 C 198.984375 275.160156 199.015625 274.820312 199.054688 274.492188 C 199.898438 274.828125 200.789062 275.035156 201.691406 275.105469 C 202.492188 275.101562 203.253906 274.746094 203.769531 274.132812 C 203.980469 273.832031 204.054688 273.453125 203.96875 273.09375 C 203.886719 272.738281 203.652344 272.429688 203.328125 272.253906 C 202.355469 271.746094 200.601562 272.675781 199.90625 273.367188 C 199.847656 273.421875 199.210938 274.21875 199.0625 274.425781 C 199.140625 273.6875 199.226562 272.949219 199.34375 272.222656 C 199.496094 271.238281 199.710938 270.269531 199.992188 269.316406 C 200.839844 269.664062 201.734375 269.882812 202.648438 269.964844 C 203.445312 269.960938 204.203125 269.605469 204.71875 268.992188 C 204.933594 268.691406 205.007812 268.3125 204.921875 267.949219 C 204.839844 267.589844 204.609375 267.28125 204.28125 267.105469 C 203.300781 266.605469 201.550781 267.53125 200.855469 268.226562 C 200.804688 268.277344 200.113281 269.132812 200.003906 269.296875 C 200.003906 269.246094 200.003906 269.1875 200.050781 269.128906 C 200.347656 268.179688 200.734375 267.261719 201.199219 266.386719 C 201.445312 265.898438 201.710938 265.445312 201.984375 265.011719 C 202.773438 265.429688 203.621094 265.726562 204.496094 265.890625 C 205.292969 265.972656 206.085938 265.703125 206.664062 265.152344 C 206.917969 264.875 207.039062 264.5 206.996094 264.128906 C 206.953125 263.753906 206.75 263.417969 206.4375 263.207031 C 205.515625 262.597656 203.671875 263.332031 202.90625 263.941406 C 202.867188 263.972656 202.476562 264.355469 202.199219 264.640625 C 202.320312 264.445312 202.453125 264.246094 202.574219 264.0625 C 203.035156 263.371094 203.496094 262.765625 203.914062 262.226562 L 204.5625 261.410156 C 205.441406 261.417969 206.316406 261.292969 207.160156 261.042969 C 207.90625 260.753906 208.488281 260.148438 208.742188 259.386719 C 208.832031 259.03125 208.765625 258.652344 208.558594 258.34375 C 208.351562 258.039062 208.023438 257.835938 207.660156 257.785156 C 206.5625 257.667969 205.261719 259.167969 204.859375 260.0625 C 204.859375 260.140625 204.425781 261.417969 204.453125 261.417969 C 204.242188 261.65625 204.023438 261.910156 203.800781 262.1875 C 203.378906 262.714844 202.898438 263.3125 202.417969 264 C 201.898438 264.734375 201.421875 265.496094 200.984375 266.28125 C 200.515625 267.152344 200.121094 268.0625 199.808594 269 L 199.808594 269.03125 C 199.808594 268.714844 199.808594 267.8125 199.808594 267.734375 C 199.679688 266.761719 198.863281 264.957031 197.785156 264.757812 C 197.417969 264.699219 197.046875 264.796875 196.757812 265.03125 C 196.46875 265.261719 196.296875 265.605469 196.277344 265.976562 C 196.3125 266.773438 196.691406 267.519531 197.324219 268.011719 C 198.085938 268.507812 198.917969 268.890625 199.789062 269.140625 C 199.484375 270.117188 199.242188 271.113281 199.070312 272.125 C 198.964844 272.714844 198.875 273.304688 198.796875 273.90625 C 198.796875 273.628906 198.796875 273.375 198.796875 273.34375 C 198.667969 272.371094 197.847656 270.5625 196.769531 270.367188 C 196.40625 270.308594 196.03125 270.40625 195.742188 270.640625 C 195.453125 270.875 195.28125 271.222656 195.265625 271.59375 C 195.292969 272.390625 195.675781 273.136719 196.308594 273.628906 C 197.046875 274.113281 197.851562 274.488281 198.699219 274.730469 C 198.699219 274.957031 198.640625 275.191406 198.613281 275.417969 C 198.480469 276.519531 198.355469 277.621094 198.191406 278.699219 C 198.140625 279.074219 198.070312 279.453125 198.003906 279.820312 C 198.003906 279.574219 198.003906 279.367188 198.003906 279.335938 C 197.882812 278.363281 197.0625 276.554688 195.980469 276.351562 C 195.613281 276.292969 195.242188 276.394531 194.953125 276.628906 C 194.667969 276.863281 194.496094 277.207031 194.480469 277.578125 C 194.511719 278.375 194.894531 279.121094 195.523438 279.613281 C 196.238281 280.089844 197.023438 280.453125 197.847656 280.691406 C 197.765625 281.074219 197.6875 281.449219 197.589844 281.8125 C 197.523438 282.058594 197.472656 282.304688 197.386719 282.546875 L 197.152344 283.269531 C 196.984375 283.726562 196.824219 284.191406 196.648438 284.632812 C 196.53125 284.9375 196.414062 285.222656 196.296875 285.515625 C 196.355469 285.140625 196.453125 284.398438 196.460938 284.335938 C 196.453125 283.476562 196.230469 282.632812 195.808594 281.882812 C 195.824219 281.785156 195.824219 281.6875 195.808594 281.589844 C 195.765625 281.226562 195.566406 280.894531 195.261719 280.683594 C 194.957031 280.476562 194.578125 280.402344 194.21875 280.488281 C 193.160156 280.773438 192.484375 282.636719 192.433594 283.613281 C 192.433594 283.671875 192.464844 284.300781 192.5 284.703125 C 192.445312 284.472656 192.394531 284.242188 192.335938 284.011719 C 192.226562 283.542969 192.101562 283.078125 191.964844 282.570312 C 191.894531 282.335938 191.824219 282.089844 191.746094 281.84375 C 191.667969 281.597656 191.578125 281.351562 191.492188 281.105469 C 191.285156 280.527344 191.039062 279.957031 190.785156 279.386719 C 191.644531 279.210938 192.472656 278.902344 193.238281 278.472656 C 193.902344 278.027344 194.335938 277.316406 194.433594 276.527344 C 194.445312 276.15625 194.296875 275.800781 194.027344 275.546875 C 193.757812 275.292969 193.394531 275.167969 193.023438 275.199219 C 191.933594 275.3125 190.980469 277.050781 190.785156 278.011719 C 190.785156 278.078125 190.707031 278.777344 190.679688 279.167969 C 190.527344 278.828125 190.371094 278.484375 190.199219 278.140625 C 189.714844 277.164062 189.1875 276.195312 188.667969 275.203125 L 188.195312 274.304688 C 189.082031 274.117188 189.9375 273.800781 190.734375 273.363281 C 191.398438 272.921875 191.835938 272.210938 191.929688 271.417969 C 191.9375 271.046875 191.792969 270.695312 191.523438 270.441406 C 191.257812 270.1875 190.894531 270.058594 190.527344 270.085938 C 189.429688 270.203125 188.480469 271.941406 188.285156 272.902344 C 188.285156 272.980469 188.175781 273.992188 188.167969 274.25 C 187.824219 273.601562 187.488281 272.953125 187.183594 272.261719 C 186.761719 271.363281 186.402344 270.4375 186.105469 269.492188 C 187 269.304688 187.863281 268.984375 188.664062 268.542969 C 189.328125 268.105469 189.765625 267.390625 189.855469 266.597656 C 189.871094 266.226562 189.722656 265.871094 189.453125 265.613281 C 189.183594 265.359375 188.816406 265.230469 188.449219 265.261719 C 187.355469 265.386719 186.410156 267.125 186.207031 268.082031 C 186.207031 268.160156 186.097656 269.25 186.089844 269.453125 C 186.074219 269.394531 186.054688 269.339844 186.03125 269.285156 C 185.761719 268.328125 185.578125 267.347656 185.480469 266.359375 C 185.414062 265.8125 185.390625 265.289062 185.371094 264.78125 C 186.265625 264.699219 187.140625 264.480469 187.96875 264.132812 C 188.679688 263.765625 189.191406 263.105469 189.371094 262.324219 C 189.421875 261.960938 189.316406 261.589844 189.074219 261.304688 C 188.835938 261.023438 188.488281 260.855469 188.117188 260.847656 C 187.019531 260.847656 185.882812 262.46875 185.585938 263.402344 C 185.585938 263.453125 185.453125 263.984375 185.382812 264.382812 C 185.382812 264.148438 185.382812 263.90625 185.382812 263.6875 C 185.382812 262.855469 185.433594 262.097656 185.488281 261.425781 C 185.519531 261.042969 185.558594 260.691406 185.597656 260.375 C 186.304688 259.886719 186.9375 259.296875 187.472656 258.621094 C 187.933594 257.96875 188.085938 257.144531 187.882812 256.371094 C 187.761719 256.023438 187.496094 255.742188 187.152344 255.601562 C 186.8125 255.460938 186.425781 255.472656 186.089844 255.632812 C 185.117188 256.140625 184.859375 258.105469 185.019531 259.070312 C 185.019531 259.15625 185.402344 260.4375 185.421875 260.425781 C 185.382812 260.738281 185.339844 261.074219 185.300781 261.4375 C 185.234375 262.085938 185.164062 262.871094 185.144531 263.707031 C 185.113281 264.605469 185.136719 265.503906 185.207031 266.398438 C 185.289062 267.402344 185.453125 268.398438 185.707031 269.375 C 185.707031 269.375 185.707031 269.375 185.707031 269.40625 C 185.53125 269.132812 185.027344 268.386719 184.980469 268.335938 C 184.332031 267.597656 182.65625 266.539062 181.644531 266.96875 C 181.308594 267.121094 181.050781 267.410156 180.941406 267.761719 C 180.828125 268.117188 180.875 268.5 181.066406 268.816406 C 181.539062 269.460938 182.273438 269.863281 183.070312 269.917969 Z M 183.070312 269.917969 "/>
<path style=" stroke:none;fill-rule:nonzero;fill:rgb(14.901961%,19.607843%,21.960784%);fill-opacity:1;" d="M 201.933594 264.757812 C 201.933594 264.757812 202.28125 263.460938 202.296875 263.390625 C 202.433594 262.421875 202.121094 260.464844 201.128906 259.984375 C 200.789062 259.832031 200.40625 259.832031 200.070312 259.984375 C 199.730469 260.132812 199.476562 260.417969 199.363281 260.769531 C 199.179688 261.546875 199.351562 262.363281 199.828125 263.007812 C 200.441406 263.691406 201.148438 264.28125 201.933594 264.757812 Z M 201.933594 264.757812 "/>
<path style="fill:none;stroke-width:1;stroke-linecap:butt;stroke-linejoin:miter;stroke:rgb(14.901961%,19.607843%,21.960784%);stroke-opacity:1;stroke-miterlimit:10;" d="M 389.408317 73.741695 C 387.7056 80.48224 390.4492 87.572162 396.2613 91.397226 C 402.067383 95.228313 409.660417 94.963269 415.189733 90.74064 L 421.519267 96.800505 C 421.18835 98.143795 421.591467 99.55937 422.5782 100.529189 L 436.3323 113.998233 C 437.8846 115.504164 440.35745 115.468021 441.867633 113.913901 C 443.3718 112.365804 443.329683 109.88403 441.777383 108.3781 L 427.999217 94.897008 C 426.988417 93.927189 425.5384 93.571789 424.190667 93.957308 L 417.999517 87.999846 C 419.49165 86.168634 420.568633 84.030213 421.140217 81.741198 C 423.348333 72.976682 418.035617 64.085667 409.27535 61.874961 C 400.515083 59.664255 391.616433 64.977178 389.408317 73.741695 Z M 418.30035 81.00028 C 416.489333 88.192605 409.191117 92.559804 401.995183 90.746664 C 394.805267 88.933523 390.443183 81.632771 392.2542 74.440446 C 394.065217 67.248121 401.36945 62.886946 408.559367 64.700087 C 415.743267 66.519251 420.10535 73.807955 418.30035 81.00028 Z M 418.30035 81.00028 " transform="matrix(0.649238,0,0,0.648478,-15.088296,-9.84719)"/>
<path style="fill:none;stroke-width:1;stroke-linecap:butt;stroke-linejoin:miter;stroke:rgb(14.901961%,19.607843%,21.960784%);stroke-opacity:1;stroke-miterlimit:10;" d="M 86.998617 271.910122 C 81.914533 273.126914 78.160133 277.421829 77.630667 282.626325 C 77.1012 287.824798 79.923017 292.788345 84.658133 294.999051 L 82.817033 301.329984 C 81.806233 301.570933 81 302.335946 80.699167 303.32986 L 76.4514 317.202493 C 76.012183 318.762637 76.90265 320.389042 78.448933 320.87094 C 80.013267 321.304648 81.637767 320.419161 82.1191 318.871064 L 86.3428 304.998431 C 86.643633 303.986446 86.3789 302.890128 85.63885 302.131139 L 87.4619 295.908633 C 92.401583 296.926643 97.467617 294.824363 100.235283 290.601734 C 102.996933 286.379104 102.900667 280.891493 99.9886 276.771267 C 97.08255 272.645017 91.944317 270.717425 87.040733 271.910122 Z M 92.178967 293.709975 C 86.751933 294.999051 81.30685 291.649862 80.019283 286.222487 C 78.7257 280.795113 82.083 275.349668 87.510033 274.060591 C 92.937067 272.765491 98.38215 276.120705 99.669717 281.548079 C 100.957283 286.963405 97.62405 292.396803 92.221083 293.709975 Z M 92.178967 293.709975 " transform="matrix(0.649238,0,0,0.648478,-15.088296,-9.84719)"/>
<path style="fill:none;stroke-width:1;stroke-linecap:butt;stroke-linejoin:miter;stroke:rgb(14.901961%,19.607843%,21.960784%);stroke-opacity:1;stroke-miterlimit:10;" d="M 420.400167 179.747166 L 391.399833 179.747166 C 387.476967 179.747166 384.300167 182.927691 384.300167 186.849135 L 384.300167 202.902356 C 384.300167 206.823799 387.476967 209.998301 391.399833 209.998301 L 411.597783 209.998301 L 410.599017 219.997681 L 419.99705 209.998301 L 420.400167 209.998301 C 424.323033 209.998301 427.499833 206.823799 427.499833 202.902356 L 427.499833 186.849135 C 427.499833 182.927691 424.323033 179.747166 420.400167 179.747166 Z M 420.400167 179.747166 " transform="matrix(0.649238,0,0,0.648478,-15.088296,-9.84719)"/>
<path style="fill:none;stroke-width:1;stroke-linecap:butt;stroke-linejoin:miter;stroke:rgb(14.901961%,19.607843%,21.960784%);stroke-opacity:1;stroke-miterlimit:10;" d="M 89.098433 217.750832 L 108.748867 217.750832 C 111.408233 217.750832 113.5622 219.901301 113.5622 222.557763 L 113.5622 233.430582 C 113.5622 236.087044 111.408233 238.237513 108.748867 238.237513 L 95.072983 238.237513 L 95.78295 245.002153 L 89.369183 238.237513 L 89.098433 238.237513 C 86.445083 238.237513 84.291117 236.087044 84.291117 233.430582 L 84.291117 222.557763 C 84.291117 219.901301 86.445083 217.750832 89.098433 217.750832 Z M 89.098433 217.750832 " transform="matrix(0.649238,0,0,0.648478,-15.088296,-9.84719)"/>
<path style="fill:none;stroke-width:1;stroke-linecap:butt;stroke-linejoin:miter;stroke:rgb(14.901961%,19.607843%,21.960784%);stroke-opacity:1;stroke-miterlimit:10;" d="M 234.3528 34.509189 L 253.997217 34.509189 C 256.656583 34.509189 258.81055 36.665682 258.81055 39.322143 L 258.81055 50.188939 C 258.81055 52.845401 256.656583 55.001893 253.997217 55.001893 L 240.321333 55.001893 L 241.0313 61.76051 L 234.617533 55.001893 L 234.3528 55.001893 C 231.693433 55.001893 229.539467 52.845401 229.539467 50.188939 L 229.539467 39.322143 C 229.539467 36.665682 231.693433 34.509189 234.3528 34.509189 Z M 234.3528 34.509189 " transform="matrix(0.649238,0,0,0.648478,-15.088296,-9.84719)"/>
<path style="fill:none;stroke-width:1;stroke-linecap:butt;stroke-linejoin:miter;stroke:rgb(14.901961%,19.607843%,21.960784%);stroke-opacity:1;stroke-miterlimit:10;" d="M 184.410833 41.142156 L 232.490017 175.50129 L 335.742033 43.262506 " transform="matrix(0.649238,0,0,0.648478,0,0.17179)"/>
<path style="fill:none;stroke-width:1;stroke-linecap:butt;stroke-linejoin:miter;stroke:rgb(14.901961%,19.607843%,21.960784%);stroke-opacity:1;stroke-miterlimit:10;" d="M 376.751633 128.829487 L 232.490017 175.50129 L 329.370383 284.398148 " transform="matrix(0.649238,0,0,0.648478,0,0.17179)"/>
<path style="fill:none;stroke-width:1;stroke-linecap:butt;stroke-linejoin:miter;stroke:rgb(14.901961%,19.607843%,21.960784%);stroke-opacity:1;stroke-miterlimit:10;" d="M 121.470483 280.157447 L 232.490017 175.50129 L 81.158817 150.039014 " transform="matrix(0.649238,0,0,0.648478,0,0.17179)"/>
<path style="fill-rule:nonzero;fill:rgb(14.901961%,19.607843%,21.960784%);fill-opacity:1;stroke-width:0.5;stroke-linecap:butt;stroke-linejoin:miter;stroke:rgb(14.901961%,19.607843%,21.960784%);stroke-opacity:1;stroke-miterlimit:10;" d="M 413.988858 144.682761 C 413.99237 152.755565 407.444053 159.300433 399.373732 159.3008 C 391.295284 159.29863 384.749556 152.755655 384.751381 144.680058 C 384.747869 136.607255 391.296186 130.062386 399.371844 130.059226 C 407.442165 130.058859 413.990683 136.607164 413.988858 144.682761 Z M 413.988858 144.682761 " transform="matrix(0.301091,-0.574526,0.5752,0.300738,40.739699,269.925557)"/>
<path style="fill-rule:nonzero;fill:rgb(100%,78.039216%,14.901961%);fill-opacity:1;stroke-width:1;stroke-linecap:butt;stroke-linejoin:miter;stroke:rgb(14.901961%,19.607843%,21.960784%);stroke-opacity:1;stroke-miterlimit:10;" d="M 404.22135 143.689162 L 394.69095 143.689162 C 392.8318 143.689162 391.321617 145.201116 391.321617 147.062447 L 391.321617 155.06195 C 396.1169 158.802682 402.855567 158.748469 407.590683 154.929428 L 407.590683 147.062447 C 407.590683 145.201116 406.0805 143.689162 404.22135 143.689162 Z M 404.22135 143.689162 " transform="matrix(0.649238,0,0,0.648478,-15.088296,-9.84719)"/>
<path style="fill-rule:nonzero;fill:rgb(100%,78.039216%,14.901961%);fill-opacity:1;stroke-width:1;stroke-linecap:butt;stroke-linejoin:miter;stroke:rgb(14.901961%,19.607843%,21.960784%);stroke-opacity:1;stroke-miterlimit:10;" d="M 399.287683 142.219374 C 401.971117 142.219374 404.137117 140.050833 404.137117 137.370277 C 404.137117 134.68972 401.971117 132.52118 399.287683 132.52118 C 396.610267 132.52118 394.43825 134.68972 394.43825 137.370277 C 394.43825 140.050833 396.610267 142.219374 399.287683 142.219374 Z M 399.287683 142.219374 " transform="matrix(0.649238,0,0,0.648478,-15.088296,-9.84719)"/>
<path style="fill-rule:nonzero;fill:rgb(14.901961%,19.607843%,21.960784%);fill-opacity:1;stroke-width:0.5;stroke-linecap:butt;stroke-linejoin:miter;stroke:rgb(14.901961%,19.607843%,21.960784%);stroke-opacity:1;stroke-miterlimit:10;" d="M 368.73153 294.670641 C 368.728828 302.746428 362.181403 309.289141 354.110083 309.288532 C 346.033206 309.290247 339.493805 302.745791 339.490951 294.67233 C 339.493654 286.596543 346.033199 280.050605 354.110076 280.048889 C 362.181396 280.049499 368.728676 286.59718 368.73153 294.670641 Z M 368.73153 294.670641 " transform="matrix(0.250649,-0.598202,0.598903,0.250356,-50.432825,319.287682)"/>
<path style="fill-rule:nonzero;fill:rgb(100%,78.039216%,14.901961%);fill-opacity:1;stroke-width:1;stroke-linecap:butt;stroke-linejoin:miter;stroke:rgb(14.901961%,19.607843%,21.960784%);stroke-opacity:1;stroke-miterlimit:10;" d="M 359.000083 293.691903 L 349.469683 293.691903 C 348.579217 293.68588 347.718833 294.041279 347.087083 294.667747 C 346.455333 295.300237 346.10035 296.155606 346.10035 297.047117 L 346.10035 305.052644 C 350.895633 308.793376 357.6343 308.739163 362.369417 304.920123 L 362.369417 297.047117 C 362.369417 296.155606 362.014433 295.300237 361.382683 294.667747 C 360.750933 294.041279 359.89055 293.68588 359.000083 293.691903 Z M 359.000083 293.691903 " transform="matrix(0.649238,0,0,0.648478,-15.088296,-9.84719)"/>
<path style="fill-rule:nonzero;fill:rgb(100%,78.039216%,14.901961%);fill-opacity:1;stroke-width:1;stroke-linecap:butt;stroke-linejoin:miter;stroke:rgb(14.901961%,19.607843%,21.960784%);stroke-opacity:1;stroke-miterlimit:10;" d="M 354.000233 292.210068 C 356.67765 292.210068 358.849667 290.041528 358.849667 287.360971 C 358.849667 284.680414 356.67765 282.511874 354.000233 282.511874 C 351.322817 282.511874 349.1508 284.680414 349.1508 287.360971 C 349.1508 290.041528 351.322817 292.210068 354.000233 292.210068 Z M 354.000233 292.210068 " transform="matrix(0.649238,0,0,0.648478,-15.088296,-9.84719)"/>
<path style="fill-rule:nonzero;fill:rgb(14.901961%,19.607843%,21.960784%);fill-opacity:1;stroke-width:0.5;stroke-linecap:butt;stroke-linejoin:miter;stroke:rgb(14.901961%,19.607843%,21.960784%);stroke-opacity:1;stroke-miterlimit:10;" d="M 194.157833 40.202455 C 194.157833 45.931016 189.512967 50.58133 183.779083 50.58133 C 178.0452 50.58133 173.400333 45.931016 173.400333 40.202455 C 173.400333 34.467871 178.0452 29.817558 183.779083 29.817558 C 189.512967 29.817558 194.157833 34.467871 194.157833 40.202455 Z M 194.157833 40.202455 " transform="matrix(0.649238,0,0,0.648478,0,0.17179)"/>
<path style="fill-rule:nonzero;fill:rgb(100%,78.039216%,14.901961%);fill-opacity:1;stroke-width:1;stroke-linecap:butt;stroke-linejoin:miter;stroke:rgb(14.901961%,19.607843%,21.960784%);stroke-opacity:1;stroke-miterlimit:10;" d="M 210.460617 55.001893 L 203.697883 55.001893 C 202.380233 55.001893 201.309267 56.068092 201.309267 57.387287 L 201.309267 63.001397 C 204.7147 65.645811 209.485917 65.609669 212.849233 62.911041 L 212.849233 57.339098 C 212.825167 56.037974 211.760217 55.001893 210.460617 55.001893 Z M 210.460617 55.001893 " transform="matrix(0.649238,0,0,0.648478,-15.088296,-9.84719)"/>
<path style="fill-rule:nonzero;fill:rgb(100%,78.039216%,14.901961%);fill-opacity:1;stroke-width:1;stroke-linecap:butt;stroke-linejoin:miter;stroke:rgb(14.901961%,19.607843%,21.960784%);stroke-opacity:1;stroke-miterlimit:10;" d="M 207.001033 53.899552 C 208.9023 53.899552 210.442567 52.357479 210.442567 50.460006 C 210.442567 48.562534 208.9023 47.020461 207.001033 47.020461 C 205.099767 47.020461 203.5595 48.562534 203.5595 50.460006 C 203.5595 52.357479 205.099767 53.899552 207.001033 53.899552 Z M 207.001033 53.899552 " transform="matrix(0.649238,0,0,0.648478,-15.088296,-9.84719)"/>
<path style="fill-rule:nonzero;fill:rgb(14.901961%,19.607843%,21.960784%);fill-opacity:1;stroke-width:0.5;stroke-linecap:butt;stroke-linejoin:miter;stroke:rgb(14.901961%,19.607843%,21.960784%);stroke-opacity:1;stroke-miterlimit:10;" d="M 153.50332 293.910919 C 153.499779 299.643025 148.852171 304.287984 143.120899 304.286901 C 137.384067 304.288139 132.73683 299.642676 132.740371 293.910571 C 132.738353 288.180786 137.389203 283.527955 143.120475 283.529037 C 148.851748 283.530119 153.498985 288.175582 153.50332 293.910919 Z M 153.50332 293.910919 " transform="matrix(0.250022,-0.598464,0.599165,0.249729,-134.054709,193.003129)"/>
<path style="fill-rule:nonzero;fill:rgb(100%,78.039216%,14.901961%);fill-opacity:1;stroke-width:1;stroke-linecap:butt;stroke-linejoin:miter;stroke:rgb(14.901961%,19.607843%,21.960784%);stroke-opacity:1;stroke-miterlimit:10;" d="M 146.5576 293.210006 L 139.800883 293.210006 C 139.163117 293.210006 138.549417 293.456978 138.098167 293.908758 C 137.646917 294.360537 137.400233 294.974956 137.400233 295.607447 L 137.400233 301.281794 C 140.79965 303.944279 145.588917 303.902113 148.952233 301.191438 L 148.952233 295.607447 C 148.952233 294.974956 148.699533 294.36656 148.2543 293.914781 C 147.80305 293.463002 147.195367 293.210006 146.5576 293.210006 Z M 146.5576 293.210006 " transform="matrix(0.649238,0,0,0.648478,-15.088296,-9.84719)"/>
<path style="fill-rule:nonzero;fill:rgb(100%,78.039216%,14.901961%);fill-opacity:1;stroke-width:1;stroke-linecap:butt;stroke-linejoin:miter;stroke:rgb(14.901961%,19.607843%,21.960784%);stroke-opacity:1;stroke-miterlimit:10;" d="M 143.061917 292.161878 C 144.957167 292.161878 146.497433 290.619805 146.497433 288.722332 C 146.497433 286.818836 144.957167 285.282787 143.061917 285.282787 C 141.16065 285.282787 139.620383 286.818836 139.620383 288.722332 C 139.620383 290.619805 141.16065 292.161878 143.061917 292.161878 Z M 143.061917 292.161878 " transform="matrix(0.649238,0,0,0.648478,-15.088296,-9.84719)"/>
<path style="fill-rule:nonzero;fill:rgb(14.901961%,19.607843%,21.960784%);fill-opacity:1;stroke-width:0.5;stroke-linecap:butt;stroke-linejoin:miter;stroke:rgb(14.901961%,19.607843%,21.960784%);stroke-opacity:1;stroke-miterlimit:10;" d="M 369.180711 54.886624 C 369.180047 60.623747 364.535548 65.269836 358.799091 65.27154 C 353.068245 65.271051 348.417462 60.623036 348.420318 54.891516 C 348.420982 49.154393 353.06548 44.508304 358.796327 44.508794 C 364.532784 44.50709 369.177956 49.157299 369.180711 54.886624 Z M 369.180711 54.886624 " transform="matrix(0.23647,-0.603934,0.604642,0.236193,99.813885,229.473516)"/>
<path style="fill-rule:nonzero;fill:rgb(100%,78.039216%,14.901961%);fill-opacity:1;stroke-width:1;stroke-linecap:butt;stroke-linejoin:miter;stroke:rgb(14.901961%,19.607843%,21.960784%);stroke-opacity:1;stroke-miterlimit:10;" d="M 362.249083 54.188691 L 355.480333 54.188691 C 354.162683 54.188691 353.091717 55.260913 353.091717 56.580109 L 353.091717 62.260479 C 356.49715 64.904893 361.274383 64.868751 364.6377 62.170123 L 364.6377 56.580109 C 364.6377 55.260913 363.57275 54.188691 362.249083 54.188691 Z M 362.249083 54.188691 " transform="matrix(0.649238,0,0,0.648478,-15.088296,-9.84719)"/>
<path style="fill-rule:nonzero;fill:rgb(100%,78.039216%,14.901961%);fill-opacity:1;stroke-width:1;stroke-linecap:butt;stroke-linejoin:miter;stroke:rgb(14.901961%,19.607843%,21.960784%);stroke-opacity:1;stroke-miterlimit:10;" d="M 358.747383 53.140563 C 360.64865 53.140563 362.188917 51.59849 362.188917 49.701017 C 362.188917 47.797521 360.64865 46.261472 358.747383 46.261472 C 356.852133 46.261472 355.311867 47.797521 355.311867 49.701017 C 355.311867 51.59849 356.852133 53.140563 358.747383 53.140563 Z M 358.747383 53.140563 " transform="matrix(0.649238,0,0,0.648478,-15.088296,-9.84719)"/>
<path style="fill-rule:nonzero;fill:rgb(14.901961%,19.607843%,21.960784%);fill-opacity:1;stroke-width:0.5;stroke-linecap:butt;stroke-linejoin:miter;stroke:rgb(14.901961%,19.607843%,21.960784%);stroke-opacity:1;stroke-miterlimit:10;" d="M 122.078416 162.997778 C 122.082201 173.464536 113.594112 181.950942 103.133095 181.950944 C 92.66419 181.947744 84.181176 173.465829 84.177391 162.999072 C 84.181495 152.535516 92.664035 144.051452 103.130601 144.049108 C 113.597167 144.046765 122.082521 152.534223 122.078416 162.997778 Z M 122.078416 162.997778 " transform="matrix(0.252425,-0.597456,0.598157,0.25213,-71.669408,116.379)"/>
<path style="fill-rule:nonzero;fill:rgb(100%,78.039216%,14.901961%);fill-opacity:1;stroke-width:1;stroke-linecap:butt;stroke-linejoin:miter;stroke:rgb(14.901961%,19.607843%,21.960784%);stroke-opacity:1;stroke-miterlimit:10;" d="M 109.4107 161.730211 L 97.058483 161.730211 C 94.651817 161.730211 92.6964 163.681897 92.690383 166.091387 L 92.690383 176.452189 C 98.9056 181.283215 107.629767 181.216954 113.772783 176.289549 L 113.772783 166.091387 C 113.772783 163.681897 111.817367 161.730211 109.4107 161.730211 Z M 109.4107 161.730211 " transform="matrix(0.649238,0,0,0.648478,-15.088296,-9.84719)"/>
<path style="fill-rule:nonzero;fill:rgb(100%,78.039216%,14.901961%);fill-opacity:1;stroke-width:1;stroke-linecap:butt;stroke-linejoin:miter;stroke:rgb(14.901961%,19.607843%,21.960784%);stroke-opacity:1;stroke-miterlimit:10;" d="M 103.00295 159.808644 C 106.46855 159.808644 109.278333 156.995565 109.278333 153.531925 C 109.278333 150.062261 106.46855 147.249182 103.00295 147.249182 C 99.531333 147.249182 96.72155 150.062261 96.72155 153.531925 C 96.72155 156.995565 99.531333 159.808644 103.00295 159.808644 Z M 103.00295 159.808644 " transform="matrix(0.649238,0,0,0.648478,-15.088296,-9.84719)"/>
<path style="fill:none;stroke-width:1;stroke-linecap:butt;stroke-linejoin:miter;stroke:rgb(14.901961%,19.607843%,21.960784%);stroke-opacity:1;stroke-miterlimit:10;" d="M 164.77005 87.638423 C 164.77005 87.578185 164.77005 87.517948 164.77005 87.457711 C 164.19245 82.162859 160.576433 77.681209 155.522433 76.00059 C 153.007467 75.145222 150.29395 75.078961 147.742883 75.807831 C 148.302433 73.892288 148.500983 71.880364 148.30845 69.892536 C 147.538317 61.627988 140.4928 55.375364 132.1898 55.598242 C 123.892817 55.82112 117.19025 62.447215 116.871367 70.741881 C 116.642733 70.741881 116.408083 70.741881 116.17945 70.741881 C 107.473333 70.741881 100.409767 77.801684 100.409767 86.511987 C 100.40375 87.921538 100.596283 89.331089 100.969317 90.69245 C 102.058333 94.445229 105.505883 97.023383 109.422733 96.999288 L 155.99775 96.999288 C 158.4345 97.011335 160.76295 96.011397 162.42355 94.234399 C 164.090167 92.457401 164.938517 90.065983 164.77005 87.638423 Z M 164.77005 87.638423 " transform="matrix(0.649238,0,0,0.648478,-15.088296,-9.84719)"/>
<path style="fill:none;stroke-width:1;stroke-linecap:butt;stroke-linejoin:miter;stroke:rgb(14.901961%,19.607843%,21.960784%);stroke-opacity:1;stroke-miterlimit:10;" d="M 403.998733 247.712828 C 403.992717 247.676686 403.992717 247.640544 403.998733 247.610425 C 403.691883 244.743133 401.736467 242.321597 398.998883 241.412015 C 397.645133 240.948188 396.177067 240.912046 394.79925 241.309611 C 395.112117 240.273531 395.220417 239.189261 395.118133 238.111015 C 394.811283 233.551057 390.966633 230.051274 386.399983 230.177772 C 381.833333 230.298246 378.181217 234.002836 378.12105 238.568817 L 377.748017 238.568817 C 373.049 238.574841 369.24045 242.387858 369.24045 247.092385 C 369.24045 247.851374 369.342733 248.604339 369.541283 249.339234 C 370.1249 251.375252 371.98405 252.772756 374.101917 252.760708 L 399.23955 252.760708 C 400.5572 252.772756 401.8207 252.236644 402.729217 251.278872 C 403.631717 250.3211 404.095 249.026 403.998733 247.712828 Z M 403.998733 247.712828 " transform="matrix(0.649238,0,0,0.648478,-15.088296,-9.84719)"/>
<path style="fill:none;stroke-width:1;stroke-linecap:butt;stroke-linejoin:miter;stroke:rgb(14.901961%,19.607843%,21.960784%);stroke-opacity:1;stroke-miterlimit:10;" d="M 182.898267 324.768289 C 182.898267 324.768289 182.898267 324.708051 182.898267 324.677933 C 182.591417 321.810641 180.636 319.389104 177.898417 318.479522 C 176.544667 318.015696 175.0766 317.979553 173.698783 318.377119 C 174.005633 317.341039 174.113933 316.256769 174.01165 315.178522 C 173.566417 310.901679 170.034633 307.612727 165.738733 307.468157 C 161.093867 307.35973 157.219133 310.998059 157.038633 315.642349 L 156.671617 315.642349 C 154.40935 315.636325 152.24335 316.53386 150.642917 318.130146 C 149.042483 319.732457 148.146 321.900997 148.152017 324.159893 C 148.152017 324.918882 148.2543 325.677871 148.458867 326.412765 C 149.036467 328.448783 150.901633 329.846287 153.0195 329.828216 L 178.151117 329.828216 C 179.468767 329.840263 180.732267 329.304152 181.634767 328.340356 C 182.537267 327.376561 182.994533 326.087484 182.898267 324.768289 Z M 182.898267 324.768289 " transform="matrix(0.649238,0,0,0.648478,-15.088296,-9.84719)"/>
<path style="fill:none;stroke-width:1;stroke-linecap:butt;stroke-linejoin:miter;stroke:rgb(14.901961%,19.607843%,21.960784%);stroke-opacity:1;stroke-miterlimit:10;" d="M 325.998667 64.290474 C 326.004683 64.260355 326.004683 64.230236 325.998667 64.200118 C 325.697833 61.332826 323.742417 58.905266 320.998817 58.001707 C 319.645067 57.531857 318.177 57.495715 316.799183 57.887256 C 317.11205 56.8572 317.214333 55.77293 317.11205 54.700707 C 316.8052 50.140749 312.954533 46.640966 308.387883 46.767464 C 303.821233 46.887939 300.169117 50.592528 300.10895 55.15851 L 299.741933 55.15851 C 297.088583 55.164534 294.58565 56.405421 292.9792 58.519747 C 291.366733 60.62805 290.83125 63.368844 291.529183 65.928926 C 292.1128 67.964944 293.977967 69.362448 296.089817 69.350401 L 321.22745 69.350401 C 322.551117 69.368472 323.820633 68.832361 324.72915 67.868565 C 325.637667 66.910793 326.10095 65.609669 325.998667 64.290474 Z M 325.998667 64.290474 " transform="matrix(0.649238,0,0,0.648478,-15.088296,-9.84719)"/>
<path style="fill-rule:nonzero;fill:rgb(100%,100%,100%);fill-opacity:1;stroke-width:1;stroke-linecap:butt;stroke-linejoin:miter;stroke:rgb(14.901961%,19.607843%,21.960784%);stroke-opacity:1;stroke-miterlimit:10;" d="M 363.719526 188.212672 C 363.718411 248.226717 315.067372 296.877757 255.049067 296.883131 C 195.030768 296.879991 146.377155 248.226377 146.378269 188.212332 C 146.379389 128.189774 195.030428 79.538734 255.048728 79.541874 C 315.067032 79.5365 363.720645 128.190114 363.719526 188.212672 Z M 363.719526 188.212672 " transform="matrix(0.459081,-0.458543,0.459081,0.458543,-52.990824,142.856346)"/>
<path style="fill-rule:nonzero;fill:rgb(100%,78.039216%,14.901961%);fill-opacity:1;stroke-width:1;stroke-linecap:butt;stroke-linejoin:miter;stroke:rgb(14.901961%,19.607843%,21.960784%);stroke-opacity:1;stroke-miterlimit:10;" d="M 251.1393 137.912412 L 261.457883 142.550678 L 264.291733 147.188945 L 268.942617 149.002085 L 269.448017 153.899372 L 267.649033 156.730522 L 264.039033 157.507582 L 256.3016 154.411388 L 256.3016 153.41145 L 260.681733 151.59831 L 259.141467 146.189007 L 252.138067 143.610854 L 249.051517 139.47858 Z M 316.13735 257.061646 L 307.8885 253.712456 L 297.828633 250.098223 L 289.832483 250.098223 L 282.34775 248.550126 L 274.092883 250.351219 L 269.448017 250.610239 L 266.620183 250.610239 L 261.199167 253.712456 L 256.000767 255.772569 L 248.997367 251.387299 L 250.802367 244.158832 L 246.422233 242.357739 L 241.259933 242.357739 L 240.4898 240.038606 L 241.001217 235.388292 L 239.202233 232.822186 L 235.592233 233.328179 L 234.58745 235.912356 L 230.207317 236.171376 L 226.3386 231.527086 L 224.792317 225.340723 L 228.661033 218.112255 L 236.13975 218.630296 L 238.209483 220.437412 L 241.30205 220.437412 L 245.170767 218.112255 L 248.52205 219.112193 L 253.1609 227.111697 L 254.971917 226.852677 L 254.448467 220.91931 L 252.99845 217.859259 L 253.509867 212.961972 L 263.0523 208.829699 L 264.339867 199.288122 L 268.4673 195.932909 L 271.818583 189.999542 L 274.399733 189.487525 L 280.332167 185.620295 L 280.590883 183.560182 L 276.469467 183.807155 L 275.6873 181.747042 L 272.859467 181.747042 L 268.4673 182.753003 L 270.531017 179.39779 L 279.53195 176.819637 L 281.58965 174.500503 L 285.19965 180.168826 L 287.5281 182.48796 L 291.1381 181.488022 L 289.591817 178.138832 L 284.1708 174.271602 L 277.97965 167.272036 L 271.541817 162.880742 L 265.350667 161.880804 L 262.252083 158.790635 L 258.118633 157.790697 L 257.607217 158.790635 L 257.089783 166.272098 L 258.08855 168.838204 L 255.772133 177.102752 L 250.627883 173.000596 L 251.398017 169.392387 L 246.001067 166.790138 L 243.660583 164.001155 L 244.94815 157.561795 L 252.432883 152.140445 L 252.950317 145.948058 L 250.11045 146.207078 L 248.299433 143.887945 L 247.5293 140.020715 L 245.718283 139.761695 L 244.719517 143.887945 L 241.891683 144.399961 L 240.5981 135.40052 L 238.498283 133.996992 L 234.888283 132.448895 L 230.772883 134.509009 L 235.917133 139.412319 L 236.921917 143.797589 L 227.632183 136.798023 L 221.182317 129.798458 L 220.6709 122.798892 L 213.998417 120.877324 L 208.842133 124.238562 C 207.596683 124.991527 206.315133 125.678231 204.997483 126.298675 C 202.96385 126.786596 200.894117 127.117901 198.81235 127.298613 L 197.807567 131.689906 L 191.88115 131.942903 L 192.398583 134.780076 L 201.941017 136.328173 L 206.838583 141.737476 L 206.838583 150.742941 L 203.998717 158.742445 L 204.522167 167.247941 L 197.302167 179.879688 L 195.749867 198.709845 L 198.0001 209.600735 L 201.351383 217.859259 L 205.2201 218.371275 L 203.932533 214.251049 L 201.868817 211.148832 L 200.58125 205.480509 L 202.897667 204.962469 L 206.507667 214.251049 L 209.088817 222.497525 L 209.088817 229.201929 L 213.9924 235.141319 L 222.758683 241.580679 L 236.169833 245.200936 L 240.297267 249.062142 L 243.389833 253.188392 L 248.040717 256.031589 L 253.708417 257.567639 L 259.382133 257.320666 C 259.382133 257.320666 259.129433 259.898819 259.129433 261.187896 C 259.129433 262.482996 255.519433 266.862243 255.519433 266.862243 L 252.6916 272.000478 L 254.7493 277.668801 L 260.429033 279.987934 L 268.4312 288.252482 L 272.0412 289.788531 L 272.0412 293.661785 L 272.49245 295.462878 C 292.552017 292.216091 311.293933 283.397361 326.57025 270.000602 L 326.708633 268.127225 L 333.712033 255.489454 L 330.36075 253.170321 Z M 343.001767 155.188449 L 340.1619 150.279115 L 336.5519 144.610792 L 335.547117 136.870308 L 340.191983 137.647368 L 340.4507 135.069215 L 337.087383 134.810195 L 339.92725 133.521118 L 343.03185 131.720025 L 343.03185 129.141872 L 339.92725 125.009598 L 339.271433 119.461749 C 308.472117 81.771317 256.3738 69.145594 211.742167 88.560052 L 217.680617 92.770634 L 213.998417 97.408901 L 209.10085 98.408839 L 208.589433 105.408404 L 206.5197 106.179441 L 203.93855 108.998543 L 204.197267 113.642833 L 208.589433 114.160874 L 206.778417 118.54012 L 211.170583 118.54012 L 218.637267 108.998543 L 219.419433 104.872293 L 226.639433 104.360277 L 228.438417 101.25806 L 235.917133 100.487023 L 236.6993 96.101753 L 242.108283 95.848757 C 242.108283 95.848757 245.977 93.78262 246.759167 93.78262 C 248.2513 94.101877 249.71335 94.535585 251.1393 95.071696 L 255.008017 98.16789 L 260.429033 98.16789 L 265.067883 95.330716 L 271.000317 95.848757 C 271.854683 96.402939 272.829383 96.746291 273.840183 96.848695 C 275.12775 96.848695 279.002483 95.041578 279.002483 95.041578 L 286.469167 99.679844 L 289.56775 102.011025 L 289.56775 105.872231 L 293.442483 106.390271 L 294.73005 104.071138 L 298.081333 105.619235 L 297.822617 107.679348 L 290.0912 109.739461 L 294.471333 115.419832 L 303.749033 120.582162 L 307.61775 125.732445 L 313.297483 126.250485 L 314.591067 123.672332 L 316.648767 123.148268 L 309.940183 117.997985 L 305.818767 117.479945 L 309.17005 116.480007 L 306.077483 112.088713 L 310.457617 111.84174 L 316.131333 114.93191 L 317.4189 121.118273 L 320.258767 124.467463 L 322.5812 131.948927 L 328.260933 136.0812 L 328.260933 144.59272 L 334.18735 148.45995 L 333.928633 151.297124 L 333.1585 154.652337 L 334.698767 159.290604 L 335.222217 161.609737 L 339.60235 162.392821 L 341.672083 158.001527 Z M 346.347033 129.190062 L 346.347033 130.671897 L 344.9993 134.810195 L 345.769433 138.418405 L 348.6093 139.418343 L 348.6093 144.321653 L 345.52275 143.032576 L 344.758633 157.001589 L 341.672083 162.669912 L 343.729783 169.898379 L 347.081067 172.988549 L 347.081067 186.921419 L 350.438367 197.752073 L 354.048367 205.998549 L 359.9808 207.55267 L 362.0385 202.390339 L 362.880833 201.72773 C 363.440383 197.24608 363.71715 192.734312 363.71715 188.222544 C 363.75325 167.27806 357.7065 146.773308 346.310933 129.202109 Z M 286.77 127.581728 L 269.772917 120.100264 L 262.288183 120.359284 L 260.4892 125.262594 L 257.390617 121.901357 L 251.722917 123.190434 L 251.199467 131.707978 L 255.838317 135.057167 L 259.201633 130.159881 L 262.99815 133.996992 L 271.000317 141.002582 L 272.552617 148.478021 L 279.249167 156.989542 L 290.0912 155.188449 L 289.832483 151.321219 L 287.51005 146.929925 L 286.998633 136.617312 L 289.579783 132.232041 Z M 300.698583 133.250051 L 296.829867 132.250113 L 293.478583 135.087286 L 295.277567 142.56875 L 298.640883 142.56875 Z M 324.699067 138.147337 L 315.932783 133.509071 L 314.121767 130.418901 L 312.05805 131.189937 L 313.857033 136.352268 L 315.409333 143.050647 L 319.27805 144.598744 L 320.048183 143.598806 L 317.731767 139.731576 L 324.44035 142.309729 Z M 249.38845 231.262042 L 248.389683 232.26198 L 256.127117 234.581113 L 259.231717 238.189323 L 264.129283 238.707363 L 265.928267 235.87019 L 260.00185 234.870252 Z M 272.390167 236.159328 L 266.96915 237.707425 L 267.751317 239.767538 L 274.447867 239.767538 L 275.74145 237.707425 L 273.419017 237.960421 Z M 272.390167 236.159328 " transform="matrix(0.649238,0,0,0.648478,-15.088296,-9.84719)"/>
<path style="fill-rule:nonzero;fill:rgb(100%,100%,100%);fill-opacity:1;stroke-width:1;stroke-linecap:butt;stroke-linejoin:round;stroke:rgb(14.901961%,19.607843%,21.960784%);stroke-opacity:1;stroke-miterlimit:4;" d="M 331.997283 322.997314 C 331.907033 325.810393 332.243967 328.617447 333.002067 331.328123 C 334.18735 335.129092 335.372633 338.701159 336.557917 340.128781 C 337.749217 341.562427 339.662517 339.177033 337.989883 336.321789 C 336.31725 333.46052 337.279917 330.382398 338.23055 330.382398 C 339.181183 330.382398 346.792267 335.129092 347.97755 336.797663 C 349.16885 338.472258 352.74275 342.749101 352.74275 339.887833 C 352.74275 337.032588 347.267583 331.087174 346.322967 329.418603 C 345.372333 327.750031 340.131817 320.617944 340.131817 320.617944 Z M 331.997283 322.997314 " transform="matrix(0.649238,0,0,0.648478,-15.088296,-9.84719)"/>
<path style="fill-rule:nonzero;fill:rgb(100%,78.039216%,14.901961%);fill-opacity:1;stroke-width:1;stroke-linecap:butt;stroke-linejoin:round;stroke:rgb(14.901961%,19.607843%,21.960784%);stroke-opacity:1;stroke-miterlimit:4;" d="M 312.132633 298.740632 L 316.891817 305.167944 L 307.848767 310.16161 L 303.570917 304.926995 Z M 312.132633 298.740632 " transform="matrix(0.649238,0,0,0.648478,0,0.17179)"/>
<path style="fill-rule:nonzero;fill:rgb(38.039216%,38.039216%,38.039216%);fill-opacity:1;stroke-width:1;stroke-linecap:butt;stroke-linejoin:round;stroke:rgb(14.901961%,19.607843%,21.960784%);stroke-opacity:1;stroke-miterlimit:4;" d="M 284.940933 447.411282 C 284.940933 447.411282 281.367033 455.260193 279.941083 457.410662 C 278.509117 459.56113 277.317817 460.500831 274.941233 460.982729 C 272.558633 461.458603 268.52145 461.928454 268.52145 463.83195 C 268.545517 465.0126 268.894483 466.163131 269.520217 467.157045 C 269.520217 467.157045 280.699183 469.542439 284.519767 468.590691 C 288.34035 467.638943 292.13085 462.398304 292.13085 462.398304 L 294.507433 463.83195 L 301.40855 457.169713 C 300.97535 454.832508 300.1631 452.579636 299.001883 450.501452 C 296.85995 446.218585 295.66865 443.128415 295.66865 443.128415 C 295.66865 443.128415 290.410083 447.411282 284.940933 447.411282 Z M 284.940933 447.411282 " transform="matrix(0.649238,0,0,0.648478,-15.088296,-9.84719)"/>
<path style="fill:none;stroke-width:1;stroke-linecap:butt;stroke-linejoin:round;stroke:rgb(14.901961%,19.607843%,21.960784%);stroke-opacity:1;stroke-miterlimit:4;" d="M 299.89235 452.471209 C 297.389417 454.820461 291.6074 460.470713 290.031033 461.862193 C 288.027483 463.627143 283.930133 467.169092 280.789433 467.169092 C 278.527167 467.169092 272.2217 466.25951 268.7922 465.74147 C 268.942617 466.235415 269.159217 466.711289 269.429967 467.151021 C 269.429967 467.151021 280.608933 469.530391 284.429517 468.578643 C 288.2501 467.632919 292.0406 462.39228 292.0406 462.39228 L 294.417183 463.819902 L 301.3183 457.157665 C 301.059583 455.537284 300.57825 453.959068 299.89235 452.471209 Z M 299.89235 452.471209 " transform="matrix(0.649238,0,0,0.648478,-15.088296,-9.84719)"/>
<path style="fill-rule:nonzero;fill:rgb(14.901961%,19.607843%,21.960784%);fill-opacity:1;stroke-width:1;stroke-linecap:butt;stroke-linejoin:round;stroke:rgb(14.901961%,19.607843%,21.960784%);stroke-opacity:1;stroke-miterlimit:4;" d="M 266.39155 415.768667 C 266.39155 415.768667 270.910067 425.280125 275.392483 430.990614 C 279.868883 436.701103 284.898817 449.549703 284.898817 449.549703 C 284.898817 449.549703 288.948033 450.977326 291.799933 448.83288 C 293.61095 447.351045 294.940633 445.36924 295.608483 443.128415 C 295.608483 443.128415 289.898667 425.521074 287.76275 417.907088 C 285.620817 410.299127 280.3803 393.63751 277.9977 389.601616 C 276.198717 386.625897 274.22525 383.752581 272.101367 380.99974 C 272.101367 380.99974 269.4781 396.697561 268.292817 402.642975 C 267.101517 408.582366 266.39155 415.768667 266.39155 415.768667 Z M 266.39155 415.768667 " transform="matrix(0.649238,0,0,0.648478,-15.088296,-9.84719)"/>
<path style="fill-rule:nonzero;fill:rgb(14.901961%,19.607843%,21.960784%);fill-opacity:1;stroke-width:1;stroke-linecap:butt;stroke-linejoin:round;stroke:rgb(14.901961%,19.607843%,21.960784%);stroke-opacity:1;stroke-miterlimit:4;" d="M 245.212883 306.341721 L 245.447533 321.557644 C 245.447533 321.557644 241.452467 349.64024 244.737567 363.910438 C 248.028683 378.180637 253.299283 393.908577 253.299283 393.908577 C 253.299283 393.908577 250.68805 420.081652 249.7314 426.502941 C 248.768733 432.918205 244.73155 445.06203 244.73155 445.06203 C 244.73155 445.06203 251.632667 448.628074 252.81795 448.628074 L 255.20055 448.628074 C 255.20055 448.628074 262.3303 429.358185 263.762267 426.502941 C 265.188217 423.641672 270.18205 418.178156 271.848667 406.281304 C 273.5213 394.378428 274.002633 381.999678 274.002633 381.999678 C 274.002633 381.999678 285.891567 366.771707 288.749483 362.000918 C 291.6074 357.23013 296.1199 347.477723 296.1199 347.477723 C 296.1199 347.477723 301.360417 333.918323 300.638417 320.840821 C 299.922433 307.757296 295.891267 301.101082 295.891267 301.101082 C 295.891267 301.101082 272.570667 306.570623 261.632367 306.570623 C 250.68805 306.570623 245.212883 306.341721 245.212883 306.341721 Z M 245.212883 306.341721 " transform="matrix(0.649238,0,0,0.648478,-15.088296,-9.84719)"/>
<path style="fill-rule:nonzero;fill:rgb(100%,78.039216%,14.901961%);fill-opacity:1;stroke-width:1;stroke-linecap:butt;stroke-linejoin:miter;stroke:rgb(14.901961%,19.607843%,21.960784%);stroke-opacity:1;stroke-miterlimit:10;" d="M 251.277683 220.901239 C 251.277683 220.901239 255.898483 225.521434 255.20055 227.129768 C 254.502617 228.738102 242.517417 229.442878 239.978383 232.442692 C 237.43935 235.442505 226.597317 273.500385 226.597317 273.500385 C 226.597317 273.500385 213.679533 269.801819 212.53035 268.88019 C 211.381167 267.95856 209.991317 268.651288 209.2994 271.422201 C 208.607483 274.18709 201.688317 280.421642 202.608867 282.029976 C 203.529417 283.63831 216.218567 289.872863 222.451833 291.487221 C 226.242333 292.469088 230.105033 293.155792 233.997817 293.559382 L 233.077267 305.329736 C 233.077267 305.329736 244.83985 312.022092 267.679117 309.022278 C 290.518383 306.022464 300.00065 301.179391 300.00065 301.179391 L 297.239 277.421829 C 297.239 277.421829 312.23855 305.558637 314.771567 310.419781 C 317.298567 315.280925 320.529517 322.419037 323.297183 323.340666 C 326.070867 324.262296 335.99235 317.798842 336.220983 315.039977 C 336.449617 312.281112 327.917983 298.890376 321.221433 287.360971 C 314.518867 275.831566 305.301333 243.29744 303.9175 236.358111 C 302.539683 229.418783 298.839433 223.672151 294.922583 222.750522 C 290.999717 221.828892 280.392333 221.822869 275.771533 220.901239 C 271.150733 219.979609 264.700867 212.371648 261.69855 202.679478 Z M 251.277683 220.901239 " transform="matrix(0.649238,0,0,0.648478,-15.088296,-9.84719)"/>
<path style="fill:none;stroke-width:1;stroke-linecap:butt;stroke-linejoin:miter;stroke:rgb(14.901961%,19.607843%,21.960784%);stroke-opacity:1;stroke-miterlimit:10;" d="M 242.99875 242.369786 C 244.172 239.888013 245.068483 238.20137 245.068483 238.20137 " transform="matrix(0.649238,0,0,0.648478,-15.088296,-9.84719)"/>
<path style="fill:none;stroke-width:1;stroke-linecap:butt;stroke-linejoin:miter;stroke:rgb(14.901961%,19.607843%,21.960784%);stroke-opacity:1;stroke-miterlimit:10;" d="M 233.997817 293.559382 C 233.997817 293.559382 236.7715 263.808215 237.920683 256.658057 C 238.6487 253.122131 239.755767 249.676562 241.22985 246.381586 " transform="matrix(0.649238,0,0,0.648478,-15.088296,-9.84719)"/>
<path style="fill:none;stroke-width:1;stroke-linecap:butt;stroke-linejoin:miter;stroke:rgb(14.901961%,19.607843%,21.960784%);stroke-opacity:1;stroke-miterlimit:10;" d="M 289.56775 250.152436 C 289.230817 248.50796 288.911933 246.899626 288.6472 245.351529 " transform="matrix(0.649238,0,0,0.648478,-15.088296,-9.84719)"/>
<path style="fill:none;stroke-width:1;stroke-linecap:butt;stroke-linejoin:miter;stroke:rgb(14.901961%,19.607843%,21.960784%);stroke-opacity:1;stroke-miterlimit:10;" d="M 297.190867 277.421829 C 297.190867 277.421829 293.35825 266.067111 290.590583 254.609991 " transform="matrix(0.649238,0,0,0.648478,-15.088296,-9.84719)"/>
<path style="fill-rule:nonzero;fill:rgb(100%,100%,100%);fill-opacity:1;stroke-width:1;stroke-linecap:butt;stroke-linejoin:miter;stroke:rgb(14.901961%,19.607843%,21.960784%);stroke-opacity:1;stroke-miterlimit:10;" d="M 248.997367 229.111573 C 250.11045 231.490943 253.672317 236.297874 264.4602 236.111139 C 277.191467 235.900308 282.792983 227.111697 284.850683 221.762631 C 281.80625 221.636133 278.77385 221.340971 275.7595 220.877144 C 271.150733 219.961538 264.688833 212.347553 261.692533 202.661407 L 251.277683 220.901239 C 251.277683 220.901239 255.898483 225.521434 255.20055 227.129768 C 254.881667 227.882733 252.101967 228.44294 248.997367 229.111573 Z M 248.997367 229.111573 " transform="matrix(0.649238,0,0,0.648478,-15.088296,-9.84719)"/>
<path style="fill-rule:nonzero;fill:rgb(14.901961%,19.607843%,21.960784%);fill-opacity:1;stroke-width:1;stroke-linecap:butt;stroke-linejoin:round;stroke:rgb(14.901961%,19.607843%,21.960784%);stroke-opacity:1;stroke-miterlimit:4;" d="M 259.9116 209.251359 L 256.7709 211.251235 L 251.277683 220.87112 C 252.589317 222.184292 253.744517 223.636009 254.737267 225.202177 C 259.9116 219.051956 259.9116 209.251359 259.9116 209.251359 Z M 259.9116 209.251359 " transform="matrix(0.649238,0,0,0.648478,-15.088296,-9.84719)"/>
<path style="fill-rule:nonzero;fill:rgb(100%,100%,100%);fill-opacity:1;stroke-width:1;stroke-linecap:butt;stroke-linejoin:miter;stroke:rgb(14.901961%,19.607843%,21.960784%);stroke-opacity:1;stroke-miterlimit:10;" d="M 224.527583 198.998983 C 224.527583 198.998983 228.907717 206.612969 230.062917 210.070586 C 231.747583 214.311286 234.954467 217.768903 239.057833 219.762755 C 243.209333 221.599991 245.2911 223.220372 248.979317 223.449274 C 254.267967 223.780578 258.202867 216.299115 260.278617 210.528389 C 262.360383 204.757662 262.360383 203.842056 262.360383 203.842056 C 262.360383 203.842056 265.5793 198.998983 265.5793 193.920985 C 265.5793 188.842987 259.82135 183.078284 253.35945 180.078471 C 246.89755 177.078657 242.517417 172.69941 235.8329 178.699038 C 229.142367 184.698666 224.527583 198.998983 224.527583 198.998983 Z M 224.527583 198.998983 " transform="matrix(0.649238,0,0,0.648478,-15.088296,-9.84719)"/>
<path style="fill:none;stroke-width:1;stroke-linecap:butt;stroke-linejoin:miter;stroke:rgb(14.901961%,19.607843%,21.960784%);stroke-opacity:1;stroke-miterlimit:10;" d="M 236.061533 206.37202 C 236.548883 207.703263 236.86175 209.100766 236.982083 210.522365 C 236.982083 212.142746 239.057833 212.829451 240.898933 209.371834 " transform="matrix(0.649238,0,0,0.648478,-15.088296,-9.84719)"/>
<path style="fill:none;stroke-width:1;stroke-linecap:butt;stroke-linejoin:miter;stroke:rgb(14.901961%,19.607843%,21.960784%);stroke-opacity:1;stroke-miterlimit:10;" d="M 241.362217 213.998053 C 241.362217 213.998053 247.1322 214.919682 248.281383 207.998425 " transform="matrix(0.649238,0,0,0.648478,-15.088296,-9.84719)"/>
<path style=" stroke:none;fill-rule:nonzero;fill:rgb(14.901961%,19.607843%,21.960784%);fill-opacity:1;" d="M 142.378906 118.792969 C 142.730469 119.386719 142.742188 120.03125 142.378906 120.230469 C 142.015625 120.433594 141.480469 120.101562 141.132812 119.503906 C 140.78125 118.90625 140.773438 118.257812 141.132812 118.066406 C 141.488281 117.871094 142.027344 118.195312 142.378906 118.792969 Z M 142.378906 118.792969 "/>
<path style=" stroke:none;fill-rule:nonzero;fill:rgb(14.901961%,19.607843%,21.960784%);fill-opacity:1;" d="M 136.332031 121.792969 C 136.683594 122.390625 136.695312 123.039062 136.332031 123.234375 C 135.96875 123.429688 135.4375 123.105469 135.09375 122.507812 C 134.75 121.910156 134.730469 121.261719 135.09375 121.066406 C 135.457031 120.871094 135.988281 121.183594 136.332031 121.792969 Z M 136.332031 121.792969 "/>
<path style="fill:none;stroke-width:1;stroke-linecap:butt;stroke-linejoin:miter;stroke:rgb(14.901961%,19.607843%,21.960784%);stroke-opacity:1;stroke-miterlimit:10;" d="M 235.929167 195.28837 C 235.929167 195.28837 236.927933 191.668113 243.419917 192.150011 " transform="matrix(0.649238,0,0,0.648478,-15.088296,-9.84719)"/>
<path style="fill:none;stroke-width:1;stroke-linecap:butt;stroke-linejoin:miter;stroke:rgb(14.901961%,19.607843%,21.960784%);stroke-opacity:1;stroke-miterlimit:10;" d="M 231.091767 198.920675 C 231.091767 198.920675 227.469733 198.920675 227.7104 201.818086 " transform="matrix(0.649238,0,0,0.648478,-15.088296,-9.84719)"/>
<path style="fill-rule:nonzero;fill:rgb(14.901961%,19.607843%,21.960784%);fill-opacity:1;stroke-width:1;stroke-linecap:butt;stroke-linejoin:round;stroke:rgb(14.901961%,19.607843%,21.960784%);stroke-opacity:1;stroke-miterlimit:4;" d="M 241.127567 182.379533 C 241.127567 182.379533 238.131267 185.837149 234.671683 189.30079 C 231.2121 192.758407 225.448133 197.842429 225.448133 204.05891 C 225.448133 210.281416 225.682783 210.980168 225.682783 210.980168 C 225.682783 210.980168 215.7613 205.908193 212.987617 198.980912 C 210.21995 192.047607 216.4472 176.138956 224.058283 168.982773 C 231.669367 161.820567 240.6703 160.447158 250.591783 161.139886 C 260.50725 161.832615 270.428733 171.747662 272.967767 181.668733 C 275.512817 191.589805 270.428733 202.432505 268.81025 204.269741 C 267.191767 206.113 262.119717 206.347925 262.119717 206.347925 C 263.202717 202.842118 263.443383 199.125482 262.81765 195.511248 C 261.66245 190.198325 258.4315 191.360903 257.968217 193.661965 C 257.51095 195.957003 257.282317 196.89068 257.282317 196.89068 C 257.282317 196.89068 252.667533 193.661965 247.8181 190.198325 C 244.9662 188.198449 242.667833 185.505845 241.127567 182.379533 Z M 241.127567 182.379533 " transform="matrix(0.649238,0,0,0.648478,-15.088296,-9.84719)"/>
<path style="fill-rule:nonzero;fill:rgb(100%,78.039216%,14.901961%);fill-opacity:1;stroke-width:1;stroke-linecap:butt;stroke-linejoin:round;stroke:rgb(14.901961%,19.607843%,21.960784%);stroke-opacity:1;stroke-miterlimit:4;" d="M 174.068183 260.128569 L 180.289417 250.900226 L 183.291733 253.90004 Z M 174.068183 260.128569 " transform="matrix(0.649238,0,0,0.648478,0,0.17179)"/>
<path style="fill-rule:nonzero;fill:rgb(14.901961%,19.607843%,21.960784%);fill-opacity:1;stroke-width:1;stroke-linecap:butt;stroke-linejoin:round;stroke:rgb(14.901961%,19.607843%,21.960784%);stroke-opacity:1;stroke-miterlimit:4;" d="M 196.0591 246.52098 L 181.570967 246.581217 L 167.762717 219.980458 L 182.25085 219.920221 Z M 196.0591 246.52098 " transform="matrix(0.649238,0,0,0.648478,0,0.17179)"/>
<path style="fill-rule:nonzero;fill:rgb(100%,100%,100%);fill-opacity:1;stroke-width:1;stroke-linecap:butt;stroke-linejoin:round;stroke:rgb(14.901961%,19.607843%,21.960784%);stroke-opacity:1;stroke-miterlimit:4;" d="M 193.391333 248.351343 C 193.391333 248.351343 197.07955 251.80896 197.308183 253.429341 C 197.542833 255.049723 199.377917 261.272228 200.3105 264.272042 C 201.237067 267.271856 204.690633 270.500571 204.690633 270.500571 L 207.69295 267.500757 L 206.531733 262.422759 C 207.6388 261.440892 208.794 260.513239 209.991317 259.651847 C 211.381167 258.730217 212.987617 256.188206 212.067067 256.188206 C 211.369133 256.212301 210.677217 256.29061 209.991317 256.429155 C 209.991317 256.429155 212.067067 253.20044 210.68925 252.971538 C 209.774717 252.820945 208.84815 252.742637 207.921583 252.730589 C 207.921583 252.730589 210.21995 249.971724 208.37885 249.730776 C 206.53775 249.489827 200.069833 252.959491 200.069833 252.959491 L 197.308183 248.797099 C 196.1229 248.116418 194.702967 247.953777 193.391333 248.351343 Z M 193.391333 248.351343 " transform="matrix(0.649238,0,0,0.648478,-15.088296,-9.84719)"/>
<path style="fill-rule:nonzero;fill:rgb(100%,100%,100%);fill-opacity:1;stroke-width:1;stroke-linecap:butt;stroke-linejoin:round;stroke:rgb(14.901961%,19.607843%,21.960784%);stroke-opacity:1;stroke-miterlimit:4;" d="M 194.149433 246.827341 C 193.746317 247.176717 193.57785 247.724876 193.710217 248.242916 C 193.842583 248.754932 194.257733 249.152498 194.781183 249.260925 C 195.641567 249.562111 196.604233 249.393447 197.308183 248.809146 C 198.457367 247.429714 203.07215 243.737172 203.07215 241.887889 C 203.07215 240.038606 201.002417 242.122814 200.069833 242.592664 C 197.988067 243.845599 196.008583 245.267197 194.149433 246.827341 Z M 194.149433 246.827341 " transform="matrix(0.649238,0,0,0.648478,-15.088296,-9.84719)"/>
<path style="fill:none;stroke-width:1;stroke-linecap:butt;stroke-linejoin:round;stroke:rgb(14.901961%,19.607843%,21.960784%);stroke-opacity:1;stroke-miterlimit:4;" d="M 207.921583 252.730589 C 207.921583 252.730589 201.002417 256.188206 199.8412 257.579686 " transform="matrix(0.649238,0,0,0.648478,-15.088296,-9.84719)"/>
<path style="fill:none;stroke-width:1;stroke-linecap:butt;stroke-linejoin:round;stroke:rgb(14.901961%,19.607843%,21.960784%);stroke-opacity:1;stroke-miterlimit:4;" d="M 209.997333 256.429155 C 209.997333 256.429155 204.468017 258.959119 202.6209 261.037303 " transform="matrix(0.649238,0,0,0.648478,-15.088296,-9.84719)"/>
<path style="fill-rule:nonzero;fill:rgb(100%,78.039216%,14.901961%);fill-opacity:1;stroke-width:1;stroke-linecap:butt;stroke-linejoin:round;stroke:rgb(14.901961%,19.607843%,21.960784%);stroke-opacity:1;stroke-miterlimit:4;" d="M 210.448583 268.651288 L 207.229667 265.880376 L 197.308183 275.572546 L 203.998717 280.650544 C 203.998717 280.650544 210.21995 274.650916 210.448583 268.651288 Z M 210.448583 268.651288 " transform="matrix(0.649238,0,0,0.648478,-15.088296,-9.84719)"/>
<path style="fill:none;stroke-width:1;stroke-linecap:butt;stroke-linejoin:round;stroke:rgb(45.882353%,45.882353%,45.882353%);stroke-opacity:1;stroke-miterlimit:4;" d="M 274.237283 322.280491 C 274.237283 322.280491 263.527617 347.489771 261.151033 358.001167 C 258.768433 368.512563 254.249917 388.451085 254.249917 389.637758 " transform="matrix(0.649238,0,0,0.648478,-15.088296,-9.84719)"/>
<path style="fill:none;stroke-width:1;stroke-linecap:butt;stroke-linejoin:round;stroke:rgb(45.882353%,45.882353%,45.882353%);stroke-opacity:1;stroke-miterlimit:4;" d="M 235.528433 313.968603 L 241.719583 321.10069 " transform="matrix(0.649238,0,0,0.648478,0,0.17179)"/>
<path style="fill-rule:nonzero;fill:rgb(38.039216%,38.039216%,38.039216%);fill-opacity:1;stroke-width:1;stroke-linecap:butt;stroke-linejoin:round;stroke:rgb(14.901961%,19.607843%,21.960784%);stroke-opacity:1;stroke-miterlimit:4;" d="M 244.737567 444.321112 C 244.737567 444.321112 243.311617 447.411282 236.4105 448.83288 C 229.509383 450.248455 223.0896 447.652231 221.8983 447.881132 C 220.707 448.110034 219.521717 450.260503 219.521717 452.170023 C 219.521717 454.079543 227.848783 459.30211 231.182017 460.970682 C 233.835367 462.097118 236.639133 462.819964 239.509083 463.109103 L 240.68835 463.109103 L 240.459717 465.488474 C 242.391067 466.25951 244.376567 466.898025 246.398167 467.39197 C 248.2152 467.657014 250.062317 467.657014 251.87935 467.39197 C 252.60135 464.34999 253.004467 461.235725 253.07065 458.109413 C 253.2331 454.838532 253.9551 451.621864 255.212583 448.597955 Z M 244.737567 444.321112 " transform="matrix(0.649238,0,0,0.648478,-15.088296,-9.84719)"/>
<path style="fill:none;stroke-width:1;stroke-linecap:butt;stroke-linejoin:round;stroke:rgb(14.901961%,19.607843%,21.960784%);stroke-opacity:1;stroke-miterlimit:4;" d="M 252.60135 463.669309 C 247.90835 463.060913 239.2624 461.669433 234.00985 459.669558 C 228.45045 457.567278 222.217183 453.290435 219.581883 451.392963 C 219.539767 451.639935 219.521717 451.886908 219.521717 452.139904 C 219.521717 454.037377 227.848783 459.271992 231.182017 460.940563 C 233.835367 462.066999 236.639133 462.789846 239.509083 463.078985 L 240.68835 463.078985 L 240.459717 465.458355 C 242.391067 466.229391 244.376567 466.867906 246.398167 467.361851 C 248.2152 467.626895 250.062317 467.626895 251.87935 467.361851 C 251.87935 467.361851 252.2584 465.83785 252.60135 463.669309 Z M 252.60135 463.669309 " transform="matrix(0.649238,0,0,0.648478,-15.088296,-9.84719)"/>
</g>
</svg>
