<svg viewBox="0 0 405 724" fill="none" xmlns="http://www.w3.org/2000/svg" xmlns:xlink="http://www.w3.org/1999/xlink"><g opacity="0.2"><path d="M81.973 58.37c0-9.388 7.61-17 17-17h288c9.389 0 17 7.612 17 17v647.001c0 9.388-7.611 17-17 17h-288c-9.39 0-17-7.612-17-17v-647z" stroke="#28234A" stroke-width="2"></path><path stroke="#32335A" stroke-dasharray="5 5" d="M256.473 167.871h127v170h-127zm0 234h127v170h-127zm-153-316h280v57h-280z"></path><path d="M91.994 708.038a11.935 11.935 0 01-1.793-4.325l.49-.097a11.564 11.564 0 01-.218-2.245v-2.625h-.5v-5.25h.5v-5.25h-.5v-5.25h.5v-5.25h-.5v-5.25h.5v-5.25h-.5v-5.25h.5v-2.125h2.033v-.5h5.067v.5h5.066v-.5h5.067v.5h5.067v-.5h5.066v.5h5.067v-.5h5.067v.5h5.066v-.5h5.067v.5h5.067v-.5h5.066v.5h5.067v-.5h5.067v.5h5.066v-.5h5.067v.5h5.067v-.5h5.066v.5h5.067v-.5h5.067v.5h5.066v-.5h5.067v.5h5.067v-.5h5.066v.5h5.067v-.5h5.067v.5h5.066v-.5h5.067v.5h5.067v-.5h5.066v.5h5.067v-.5h5.067v.5h5.066v-.5h5.067v.5h5.067v-.5h5.066v.5h5.067v-.5h5.067v.5h5.066v-.5h5.067v.5h5.067v-.5h5.066v.5h5.067v-.5h5.067v.5h5.066v-.5h5.067v.5h5.067v-.5h5.066v.5h5.067v-.5h5.067v.5h5.066v-.5h5.067v.5h5.067v-.5h5.066v.5h5.067v-.5h5.067v.5h5.066v-.5h5.067v.5h5.067v-.5h5.066v.5h2.034v2.125h.5v5.25h-.5v5.25h.5v5.25h-.5v5.25h.5v5.25h-.5v5.25h.5v5.25h-.5v2.625c0 .768-.076 1.519-.219 2.245l.49.097a11.929 11.929 0 01-1.793 4.325l-.415-.278a11.58 11.58 0 01-3.174 3.174l.278.415a11.921 11.921 0 01-4.325 1.793l-.097-.49c-.726.143-1.477.219-2.245.219h-2.5v.5h-5v-.5h-5v.5h-5v-.5h-5v.5h-5v-.5h-5v.5h-5v-.5h-5v.5h-5v-.5h-5v.5h-5v-.5h-5v.5h-5v-.5h-5v.5h-5v-.5h-5v.5h-5v-.5h-5v.5h-5v-.5h-5v.5h-5v-.5h-5v.5h-5v-.5h-5v.5h-5v-.5h-5v.5h-5v-.5h-5v.5h-5v-.5h-5v.5h-5v-.5h-5v.5h-5v-.5h-5v.5h-5v-.5h-5v.5h-5v-.5h-5v.5h-5v-.5h-5v.5h-5v-.5h-5v.5h-5v-.5h-5v.5h-5v-.5h-5v.5h-5v-.5h-5v.5h-5v-.5h-5v.5h-5v-.5h-5v.5h-5v-.5h-5v.5h-5v-.5h-2.5a11.6 11.6 0 01-2.245-.219l-.097.49a11.925 11.925 0 01-4.326-1.793l.278-.415a11.573 11.573 0 01-3.174-3.174l-.415.278z" stroke="#3A375B" stroke-dasharray="5 5"></path><rect x="90.473" y="51.871" width="303" height="661" rx="11.5" stroke="#3A375B" stroke-dasharray="5 5"></rect></g><rect x="2.473" y="1.871" width="321" height="680" rx="16.5" fill="#fff" stroke="#28234A" stroke-width="3"></rect><image xlink:href="https://martify.s3-ap-south-1.amazonaws.com/63f072d6-cc53-41e2-8281-303b2e37a0dd.png" width="300" height="662" x="10" y="10"></image><rect x="10.473" y="11.871" width="303" height="661" rx="11.5" stroke="#3A375B"></rect><path d="M248.462 11.87c-.262 6.12-5.306 11-11.489 11h-136c-6.184 0-11.228-4.88-11.49-11h158.979z" fill="#fff" stroke="#3A375B"></path><clipPath id="pwa-mobile-frame"><rect x="90.473" y="51.871" width="303" height="661" rx="11.5" stroke="#3A375B" stroke-dasharray="5 5"></rect></clipPath></svg>