<svg width="231" height="65" viewBox="0 0 231 65" fill="none" xmlns="http://www.w3.org/2000/svg">
<g clip-path="url(#clip0)">
<path d="M-5.25486 5.20509H-67.4163L-54.984 -5H7.17744L-5.25486 5.20509Z" fill="#54BABA"/>
<path d="M3.84 48.6835V15.0195H7.808L8.512 18.9235H8.896C9.792 17.2595 10.9013 16.0648 12.224 15.3395C13.5467 14.6142 14.9973 14.2515 16.576 14.2515C18.24 14.2515 19.6907 14.6355 20.928 15.4035C22.208 16.1288 23.1467 17.3662 23.744 19.1155C24.64 17.4942 25.8347 16.2782 27.328 15.4675C28.8213 14.6568 30.3573 14.2515 31.936 14.2515C34.3253 14.2515 36.2453 15.0195 37.696 16.5555C39.1467 18.0488 39.872 20.6728 39.872 24.4275V48.6835H34.624V24.8115C34.624 22.4648 34.1973 20.9075 33.344 20.1395C32.5333 19.3288 31.5093 18.9235 30.272 18.9235C28.6933 18.9235 27.328 19.7342 26.176 21.3555C25.0667 22.9768 24.512 25.2382 24.512 28.1395V48.6835H19.264V24.8115C19.264 22.4648 18.8373 20.9075 17.984 20.1395C17.1733 19.3288 16.1493 18.9235 14.912 18.9235C13.3333 18.9235 11.968 19.7342 10.816 21.3555C9.664 22.9768 9.088 25.2382 9.088 28.1395V48.6835H3.84ZM57.5755 49.4515C56.7648 49.4515 55.8475 49.3235 54.8235 49.0675C53.7995 48.8542 52.8182 48.4275 51.8795 47.7875C50.9835 47.1048 50.2368 46.1448 49.6395 44.9075C49.0422 43.6702 48.7435 42.0275 48.7435 39.9795C48.7435 36.8648 49.4688 34.5182 50.9195 32.9395C52.4128 31.3182 54.4395 30.2088 56.9995 29.6115C59.6022 29.0142 62.5248 28.7155 65.7675 28.7155V24.3635C65.7675 22.7422 65.4048 21.4408 64.6795 20.4595C63.9968 19.4355 62.5888 18.9235 60.4555 18.9235C58.4928 18.9235 57.1275 19.4995 56.3595 20.6515C55.6342 21.7608 55.2715 22.9555 55.2715 24.2355V25.0035H50.0875C50.0448 24.7902 50.0235 24.5768 50.0235 24.3635C50.0235 24.1502 50.0235 23.8942 50.0235 23.5955C50.0235 20.5235 51.0262 18.1982 53.0315 16.6195C55.0795 15.0408 57.6822 14.2515 60.8395 14.2515C64.2528 14.2515 66.7915 15.0835 68.4555 16.7475C70.1622 18.3688 71.0155 20.6728 71.0155 23.6595V42.5395C71.0155 43.3502 71.2075 43.9262 71.5915 44.2675C71.9755 44.6088 72.3808 44.7795 72.8075 44.7795H74.8555V48.4275C74.5568 48.5982 74.1088 48.7688 73.5115 48.9395C72.9568 49.1102 72.2528 49.1955 71.3995 49.1955C70.0342 49.1955 68.8822 48.8115 67.9435 48.0435C67.0475 47.2755 66.4288 46.2728 66.0875 45.0355H65.7675C64.9142 46.4008 63.7622 47.4888 62.3115 48.2995C60.9035 49.0675 59.3248 49.4515 57.5755 49.4515ZM58.7915 44.7795C59.9008 44.7795 60.9888 44.4808 62.0555 43.8835C63.1222 43.2435 63.9968 42.3048 64.6795 41.0675C65.4048 39.8302 65.7675 38.2942 65.7675 36.4595V33.3875C63.4635 33.3875 61.4368 33.5582 59.6875 33.8995C57.9808 34.1982 56.6368 34.7955 55.6555 35.6915C54.7168 36.5875 54.2475 37.9102 54.2475 39.6595C54.2475 41.5795 54.6315 42.9235 55.3995 43.6915C56.2102 44.4168 57.3408 44.7795 58.7915 44.7795ZM82.475 48.6835V15.0195H86.443L87.147 19.4355H87.531C87.9577 18.1555 88.619 16.9822 89.515 15.9155C90.411 14.8062 91.6483 14.2515 93.227 14.2515C93.9523 14.2515 94.5497 14.3368 95.019 14.5075C95.4883 14.6782 95.723 14.7635 95.723 14.7635V20.2035H93.995C92.331 20.2035 90.859 20.7795 89.579 21.9315C88.3417 23.0835 87.723 25.1528 87.723 28.1395V48.6835H82.475ZM108.807 49.3235C107.271 49.3235 106.055 48.9395 105.159 48.1715C104.306 47.4035 103.687 46.4435 103.303 45.2915C102.962 44.0968 102.791 42.8595 102.791 41.5795V19.6915H99.911V15.0195H102.791L103.943 5.6755H108.039V15.0195H112.583V19.6915H108.039V41.7075C108.039 43.7555 109.042 44.7795 111.047 44.7795H112.583V48.4275C111.559 49.0248 110.3 49.3235 108.807 49.3235ZM121.13 48.6835V15.0195H126.378V48.6835H121.13ZM121.002 8.4915V2.4115H126.442V8.4915H121.002ZM137.42 48.6835V19.6915H134.476V15.0195H137.42V9.6435C137.42 8.3635 137.612 7.12617 137.996 5.9315C138.423 4.73683 139.105 3.77683 140.044 3.0515C141.025 2.2835 142.369 1.8995 144.076 1.8995C144.844 1.8995 145.633 1.98483 146.444 2.1555C147.255 2.2835 147.937 2.45417 148.492 2.6675V6.3155H145.676C143.671 6.3155 142.668 7.3395 142.668 9.3875V15.0195H148.492V19.6915H142.668V48.6835H137.42ZM157.55 60.3315C156.825 60.3315 156.142 60.2888 155.502 60.2035C154.905 60.1182 154.329 59.9902 153.774 59.8195V56.1715H155.63C157.038 56.1715 158.34 55.6382 159.534 54.5715C160.772 53.5048 161.689 51.5422 162.286 48.6835L151.982 15.0195H157.742L163.438 35.1155C163.737 36.0968 164.014 37.0995 164.27 38.1235C164.569 39.1475 164.868 40.1502 165.166 41.1315H165.422C165.678 40.1075 165.913 39.0835 166.126 38.0595C166.382 37.0355 166.638 36.0115 166.894 34.9875L171.694 15.0195H177.007L168.431 46.9555C167.79 49.3875 166.98 51.6062 165.998 53.6115C165.06 55.6595 163.908 57.2808 162.542 58.4755C161.177 59.7128 159.513 60.3315 157.55 60.3315Z" fill="white"/>
<path d="M3.84 48.6835H2.84V49.6835H3.84V48.6835ZM3.84 15.0195V14.0195H2.84V15.0195H3.84ZM7.808 15.0195L8.79213 14.842L8.6438 14.0195H7.808V15.0195ZM8.512 18.9235L7.52787 19.101L7.6762 19.9235H8.512V18.9235ZM8.896 18.9235V19.9235H9.49329L9.77647 19.3976L8.896 18.9235ZM20.928 15.4035L20.4006 16.2531L20.4176 16.2637L20.435 16.2735L20.928 15.4035ZM23.744 19.1155L22.7977 19.4386L23.5272 21.5752L24.6192 19.5992L23.744 19.1155ZM27.328 15.4675L26.8509 14.5886H26.8509L27.328 15.4675ZM37.696 16.5555L36.9689 17.2422L36.9787 17.2523L37.696 16.5555ZM39.872 48.6835V49.6835H40.872V48.6835H39.872ZM34.624 48.6835H33.624V49.6835H34.624V48.6835ZM33.344 20.1395L32.6369 20.8466L32.6555 20.8652L32.675 20.8828L33.344 20.1395ZM26.176 21.3555L25.3608 20.7763L25.3557 20.7835L25.3507 20.7908L26.176 21.3555ZM24.512 48.6835V49.6835H25.512V48.6835H24.512ZM19.264 48.6835H18.264V49.6835H19.264V48.6835ZM17.984 20.1395L17.2769 20.8466L17.2955 20.8652L17.315 20.8828L17.984 20.1395ZM10.816 21.3555L11.6312 21.9347H11.6312L10.816 21.3555ZM9.088 48.6835V49.6835H10.088V48.6835H9.088ZM4.84 48.6835V15.0195H2.84V48.6835H4.84ZM3.84 16.0195H7.808V14.0195H3.84V16.0195ZM6.82387 15.197L7.52787 19.101L9.49613 18.746L8.79213 14.842L6.82387 15.197ZM8.512 19.9235H8.896V17.9235H8.512V19.9235ZM9.77647 19.3976C10.604 17.8607 11.5897 16.8279 12.7048 16.2163L11.7432 14.4627C10.213 15.3018 8.97997 16.6583 8.01553 18.4494L9.77647 19.3976ZM12.7048 16.2163C13.8732 15.5756 15.1573 15.2515 16.576 15.2515V13.2515C14.8374 13.2515 13.2202 13.6527 11.7432 14.4627L12.7048 16.2163ZM16.576 15.2515C18.0808 15.2515 19.3433 15.5968 20.4006 16.2531L21.4554 14.5539C20.0381 13.6742 18.3992 13.2515 16.576 13.2515V15.2515ZM20.435 16.2735C21.4515 16.8496 22.2584 17.8594 22.7977 19.4386L24.6904 18.7924C24.0349 16.8729 22.9645 15.4081 21.421 14.5335L20.435 16.2735ZM24.6192 19.5992C25.4316 18.1292 26.4945 17.0578 27.8051 16.3464L26.8509 14.5886C25.1748 15.4985 23.8484 16.8591 22.8688 18.6318L24.6192 19.5992ZM27.8051 16.3464C29.1635 15.6089 30.5366 15.2515 31.936 15.2515V13.2515C30.1781 13.2515 28.4792 13.7047 26.8509 14.5886L27.8051 16.3464ZM31.936 15.2515C34.0898 15.2515 35.7328 15.9332 36.969 17.2421L38.423 15.8689C36.7579 14.1058 34.5608 13.2515 31.936 13.2515V15.2515ZM36.9787 17.2523C38.1488 18.4568 38.872 20.7431 38.872 24.4275H40.872C40.872 20.6026 40.1445 17.6409 38.4133 15.8587L36.9787 17.2523ZM38.872 24.4275V48.6835H40.872V24.4275H38.872ZM39.872 47.6835H34.624V49.6835H39.872V47.6835ZM35.624 48.6835V24.8115H33.624V48.6835H35.624ZM35.624 24.8115C35.624 23.5854 35.5134 22.5133 35.2685 21.6193C35.0242 20.7278 34.6288 19.9504 34.013 19.3962L32.675 20.8828C32.9126 21.0966 33.1571 21.4818 33.3395 22.1477C33.5213 22.811 33.624 23.6909 33.624 24.8115H35.624ZM34.0511 19.4324C33.0371 18.4184 31.7513 17.9235 30.272 17.9235V19.9235C31.2673 19.9235 32.0296 20.2393 32.6369 20.8466L34.0511 19.4324ZM30.272 17.9235C28.2857 17.9235 26.6459 18.9676 25.3608 20.7763L26.9912 21.9347C28.0101 20.5007 29.101 19.9235 30.272 19.9235V17.9235ZM25.3507 20.7908C24.0852 22.6404 23.512 25.1276 23.512 28.1395H25.512C25.512 25.3487 26.0481 23.3133 27.0013 21.9202L25.3507 20.7908ZM23.512 28.1395V48.6835H25.512V28.1395H23.512ZM24.512 47.6835H19.264V49.6835H24.512V47.6835ZM20.264 48.6835V24.8115H18.264V48.6835H20.264ZM20.264 24.8115C20.264 23.5854 20.1534 22.5133 19.9085 21.6193C19.6642 20.7278 19.2688 19.9504 18.653 19.3962L17.315 20.8828C17.5526 21.0966 17.7971 21.4818 17.9795 22.1477C18.1613 22.811 18.264 23.6909 18.264 24.8115H20.264ZM18.6911 19.4324C17.6771 18.4184 16.3913 17.9235 14.912 17.9235V19.9235C15.9073 19.9235 16.6696 20.2393 17.2769 20.8466L18.6911 19.4324ZM14.912 17.9235C12.9257 17.9235 11.2859 18.9676 10.0008 20.7763L11.6312 21.9347C12.6501 20.5007 13.741 19.9235 14.912 19.9235V17.9235ZM10.0008 20.7763C8.68491 22.6283 8.088 25.1215 8.088 28.1395H10.088C10.088 25.3548 10.6431 23.3253 11.6312 21.9347L10.0008 20.7763ZM8.088 28.1395V48.6835H10.088V28.1395H8.088ZM9.088 47.6835H3.84V49.6835H9.088V47.6835ZM54.8235 49.0675L55.066 48.0974L55.0468 48.0926L55.0275 48.0885L54.8235 49.0675ZM51.8795 47.7875L51.2735 48.5829L51.2944 48.5989L51.3162 48.6137L51.8795 47.7875ZM49.6395 44.9075L48.7389 45.3423L49.6395 44.9075ZM50.9195 32.9395L50.184 32.262L50.1832 32.2629L50.9195 32.9395ZM56.9995 29.6115L56.7758 28.6368L56.7723 28.6377L56.9995 29.6115ZM65.7675 28.7155V29.7155H66.7675V28.7155H65.7675ZM64.6795 20.4595L63.8475 21.0142L63.8609 21.0344L63.8753 21.0539L64.6795 20.4595ZM56.3595 20.6515L55.5274 20.0968L55.5225 20.1043L56.3595 20.6515ZM55.2715 25.0035V26.0035H56.2715V25.0035H55.2715ZM50.0875 25.0035L49.1069 25.1996L49.2677 26.0035H50.0875V25.0035ZM53.0315 16.6195L52.421 15.8274L52.4129 15.8338L53.0315 16.6195ZM68.4555 16.7475L67.7484 17.4546L67.7575 17.4637L67.7668 17.4725L68.4555 16.7475ZM71.5915 44.2675L72.2559 43.5201L71.5915 44.2675ZM74.8555 44.7795H75.8555V43.7795H74.8555V44.7795ZM74.8555 48.4275L75.3516 49.2957L75.8555 49.0078V48.4275H74.8555ZM73.5115 48.9395L73.2368 47.978L73.2271 47.9808L73.2174 47.9837L73.5115 48.9395ZM67.9435 48.0435L67.2927 48.8028L67.3014 48.8102L67.3103 48.8175L67.9435 48.0435ZM66.0875 45.0355L67.0515 44.7696L66.849 44.0355H66.0875V45.0355ZM65.7675 45.0355V44.0355H65.2133L64.9195 44.5055L65.7675 45.0355ZM62.3115 48.2995L62.7904 49.1774L62.7993 49.1724L62.3115 48.2995ZM62.0555 43.8835L62.5441 44.756L62.5572 44.7487L62.57 44.741L62.0555 43.8835ZM64.6795 41.0675L63.8168 40.5618L63.8102 40.573L63.8039 40.5844L64.6795 41.0675ZM65.7675 33.3875H66.7675V32.3875H65.7675V33.3875ZM59.6875 33.8995L59.8599 34.8845L59.8695 34.8829L59.879 34.881L59.6875 33.8995ZM55.6555 35.6915L54.9812 34.953L54.973 34.9605L54.965 34.9681L55.6555 35.6915ZM55.3995 43.6915L54.6924 44.3986L54.712 44.4182L54.7327 44.4367L55.3995 43.6915ZM57.5755 48.4515C56.8669 48.4515 56.0331 48.3391 55.066 48.0974L54.581 50.0376C55.6619 50.3079 56.6628 50.4515 57.5755 50.4515V48.4515ZM55.0275 48.0885C54.1428 47.9042 53.2823 47.5337 52.4428 46.9613L51.3162 48.6137C52.354 49.3213 53.4562 49.8041 54.6195 50.0465L55.0275 48.0885ZM52.4855 46.9921C51.7393 46.4235 51.0838 45.5991 50.5401 44.4728L48.7389 45.3423C49.3899 46.6906 50.2277 47.7862 51.2735 48.5829L52.4855 46.9921ZM50.5401 44.4728C50.0323 43.421 49.7435 41.9446 49.7435 39.9795H47.7435C47.7435 42.1104 48.052 43.9193 48.7389 45.3423L50.5401 44.4728ZM49.7435 39.9795C49.7435 37.0033 50.4378 34.9416 51.6558 33.6161L50.1832 32.2629C48.4999 34.0947 47.7435 36.7264 47.7435 39.9795H49.7435ZM51.655 33.617C52.9881 32.1697 54.8237 31.146 57.2267 30.5853L56.7723 28.6377C54.0553 29.2716 51.8376 30.4666 50.184 32.262L51.655 33.617ZM57.2232 30.5862C59.7388 30.0088 62.5847 29.7155 65.7675 29.7155V27.7155C62.465 27.7155 59.4655 28.0195 56.7758 28.6368L57.2232 30.5862ZM66.7675 28.7155V24.3635H64.7675V28.7155H66.7675ZM66.7675 24.3635C66.7675 22.598 66.3722 21.0673 65.4837 19.8651L63.8753 21.0539C64.4375 21.8144 64.7675 22.8863 64.7675 24.3635H66.7675ZM65.5116 19.9048C64.5401 18.4476 62.6795 17.9235 60.4555 17.9235V19.9235C62.4981 19.9235 63.4536 20.4234 63.8475 21.0142L65.5116 19.9048ZM60.4555 17.9235C58.3097 17.9235 56.5515 18.5608 55.5275 20.0968L57.1916 21.2062C57.7035 20.4382 58.676 19.9235 60.4555 19.9235V17.9235ZM55.5225 20.1043C54.6948 21.3702 54.2715 22.754 54.2715 24.2355H56.2715C56.2715 23.157 56.5735 22.1515 57.1965 21.1987L55.5225 20.1043ZM54.2715 24.2355V25.0035H56.2715V24.2355H54.2715ZM55.2715 24.0035H50.0875V26.0035H55.2715V24.0035ZM51.0681 24.8074C51.0381 24.6573 51.0235 24.5097 51.0235 24.3635H49.0235C49.0235 24.644 49.0516 24.923 49.1069 25.1996L51.0681 24.8074ZM51.0235 24.3635C51.0235 24.3631 51.0235 24.3627 51.0235 24.3623C51.0235 24.3618 51.0235 24.3614 51.0235 24.361C51.0235 24.3606 51.0235 24.3602 51.0235 24.3597C51.0235 24.3593 51.0235 24.3589 51.0235 24.3585C51.0235 24.3581 51.0235 24.3577 51.0235 24.3572C51.0235 24.3568 51.0235 24.3564 51.0235 24.356C51.0235 24.3556 51.0235 24.3551 51.0235 24.3547C51.0235 24.3543 51.0235 24.3539 51.0235 24.3535C51.0235 24.3531 51.0235 24.3526 51.0235 24.3522C51.0235 24.3518 51.0235 24.3514 51.0235 24.351C51.0235 24.3505 51.0235 24.3501 51.0235 24.3497C51.0235 24.3493 51.0235 24.3489 51.0235 24.3484C51.0235 24.348 51.0235 24.3476 51.0235 24.3472C51.0235 24.3467 51.0235 24.3463 51.0235 24.3459C51.0235 24.3455 51.0235 24.3451 51.0235 24.3446C51.0235 24.3442 51.0235 24.3438 51.0235 24.3434C51.0235 24.343 51.0235 24.3425 51.0235 24.3421C51.0235 24.3417 51.0235 24.3413 51.0235 24.3408C51.0235 24.3404 51.0235 24.34 51.0235 24.3396C51.0235 24.3392 51.0235 24.3387 51.0235 24.3383C51.0235 24.3379 51.0235 24.3375 51.0235 24.337C51.0235 24.3366 51.0235 24.3362 51.0235 24.3358C51.0235 24.3353 51.0235 24.3349 51.0235 24.3345C51.0235 24.3341 51.0235 24.3336 51.0235 24.3332C51.0235 24.3328 51.0235 24.3324 51.0235 24.3319C51.0235 24.3315 51.0235 24.3311 51.0235 24.3307C51.0235 24.3302 51.0235 24.3298 51.0235 24.3294C51.0235 24.329 51.0235 24.3285 51.0235 24.3281C51.0235 24.3277 51.0235 24.3273 51.0235 24.3268C51.0235 24.3264 51.0235 24.326 51.0235 24.3256C51.0235 24.3251 51.0235 24.3247 51.0235 24.3243C51.0235 24.3239 51.0235 24.3234 51.0235 24.323C51.0235 24.3226 51.0235 24.3221 51.0235 24.3217C51.0235 24.3213 51.0235 24.3209 51.0235 24.3204C51.0235 24.32 51.0235 24.3196 51.0235 24.3192C51.0235 24.3187 51.0235 24.3183 51.0235 24.3179C51.0235 24.3174 51.0235 24.317 51.0235 24.3166C51.0235 24.3162 51.0235 24.3157 51.0235 24.3153C51.0235 24.3149 51.0235 24.3144 51.0235 24.314C51.0235 24.3136 51.0235 24.3131 51.0235 24.3127C51.0235 24.3123 51.0235 24.3119 51.0235 24.3114C51.0235 24.311 51.0235 24.3106 51.0235 24.3101C51.0235 24.3097 51.0235 24.3093 51.0235 24.3088C51.0235 24.3084 51.0235 24.308 51.0235 24.3076C51.0235 24.3071 51.0235 24.3067 51.0235 24.3063C51.0235 24.3058 51.0235 24.3054 51.0235 24.305C51.0235 24.3045 51.0235 24.3041 51.0235 24.3037C51.0235 24.3032 51.0235 24.3028 51.0235 24.3024C51.0235 24.3019 51.0235 24.3015 51.0235 24.3011C51.0235 24.3006 51.0235 24.3002 51.0235 24.2998C51.0235 24.2993 51.0235 24.2989 51.0235 24.2985C51.0235 24.298 51.0235 24.2976 51.0235 24.2972C51.0235 24.2967 51.0235 24.2963 51.0235 24.2959C51.0235 24.2954 51.0235 24.295 51.0235 24.2946C51.0235 24.2941 51.0235 24.2937 51.0235 24.2933C51.0235 24.2928 51.0235 24.2924 51.0235 24.292C51.0235 24.2915 51.0235 24.2911 51.0235 24.2907C51.0235 24.2902 51.0235 24.2898 51.0235 24.2894C51.0235 24.2889 51.0235 24.2885 51.0235 24.2881C51.0235 24.2876 51.0235 24.2872 51.0235 24.2867C51.0235 24.2863 51.0235 24.2859 51.0235 24.2854C51.0235 24.285 51.0235 24.2846 51.0235 24.2841C51.0235 24.2837 51.0235 24.2832 51.0235 24.2828C51.0235 24.2824 51.0235 24.2819 51.0235 24.2815C51.0235 24.2811 51.0235 24.2806 51.0235 24.2802C51.0235 24.2798 51.0235 24.2793 51.0235 24.2789C51.0235 24.2784 51.0235 24.278 51.0235 24.2776C51.0235 24.2771 51.0235 24.2767 51.0235 24.2762C51.0235 24.2758 51.0235 24.2754 51.0235 24.2749C51.0235 24.2745 51.0235 24.274 51.0235 24.2736C51.0235 24.2732 51.0235 24.2727 51.0235 24.2723C51.0235 24.2719 51.0235 24.2714 51.0235 24.271C51.0235 24.2705 51.0235 24.2701 51.0235 24.2696C51.0235 24.2692 51.0235 24.2688 51.0235 24.2683C51.0235 24.2679 51.0235 24.2674 51.0235 24.267C51.0235 24.2666 51.0235 24.2661 51.0235 24.2657C51.0235 24.2652 51.0235 24.2648 51.0235 24.2644C51.0235 24.2639 51.0235 24.2635 51.0235 24.263C51.0235 24.2626 51.0235 24.2621 51.0235 24.2617C51.0235 24.2613 51.0235 24.2608 51.0235 24.2604C51.0235 24.2599 51.0235 24.2595 51.0235 24.259C51.0235 24.2586 51.0235 24.2582 51.0235 24.2577C51.0235 24.2573 51.0235 24.2568 51.0235 24.2564C51.0235 24.2559 51.0235 24.2555 51.0235 24.2551C51.0235 24.2546 51.0235 24.2542 51.0235 24.2537C51.0235 24.2533 51.0235 24.2528 51.0235 24.2524C51.0235 24.2519 51.0235 24.2515 51.0235 24.2511C51.0235 24.2506 51.0235 24.2502 51.0235 24.2497C51.0235 24.2493 51.0235 24.2488 51.0235 24.2484C51.0235 24.2479 51.0235 24.2475 51.0235 24.247C51.0235 24.2466 51.0235 24.2462 51.0235 24.2457C51.0235 24.2453 51.0235 24.2448 51.0235 24.2444C51.0235 24.2439 51.0235 24.2435 51.0235 24.243C51.0235 24.2426 51.0235 24.2421 51.0235 24.2417C51.0235 24.2412 51.0235 24.2408 51.0235 24.2403C51.0235 24.2399 51.0235 24.2394 51.0235 24.239C51.0235 24.2386 51.0235 24.2381 51.0235 24.2377C51.0235 24.2372 51.0235 24.2368 51.0235 24.2363C51.0235 24.2359 51.0235 24.2354 51.0235 24.235C51.0235 24.2345 51.0235 24.2341 51.0235 24.2336C51.0235 24.2332 51.0235 24.2327 51.0235 24.2323C51.0235 24.2318 51.0235 24.2314 51.0235 24.2309C51.0235 24.2305 51.0235 24.23 51.0235 24.2296C51.0235 24.2291 51.0235 24.2287 51.0235 24.2282C51.0235 24.2278 51.0235 24.2273 51.0235 24.2269C51.0235 24.2264 51.0235 24.226 51.0235 24.2255C51.0235 24.2251 51.0235 24.2246 51.0235 24.2242C51.0235 24.2237 51.0235 24.2233 51.0235 24.2228C51.0235 24.2224 51.0235 24.2219 51.0235 24.2215C51.0235 24.221 51.0235 24.2205 51.0235 24.2201C51.0235 24.2196 51.0235 24.2192 51.0235 24.2187C51.0235 24.2183 51.0235 24.2178 51.0235 24.2174C51.0235 24.2169 51.0235 24.2165 51.0235 24.216C51.0235 24.2156 51.0235 24.2151 51.0235 24.2147C51.0235 24.2142 51.0235 24.2137 51.0235 24.2133C51.0235 24.2128 51.0235 24.2124 51.0235 24.2119C51.0235 24.2115 51.0235 24.211 51.0235 24.2106C51.0235 24.2101 51.0235 24.2097 51.0235 24.2092C51.0235 24.2087 51.0235 24.2083 51.0235 24.2078C51.0235 24.2074 51.0235 24.2069 51.0235 24.2065C51.0235 24.206 51.0235 24.2056 51.0235 24.2051C51.0235 24.2046 51.0235 24.2042 51.0235 24.2037C51.0235 24.2033 51.0235 24.2028 51.0235 24.2024C51.0235 24.2019 51.0235 24.2015 51.0235 24.201C51.0235 24.2005 51.0235 24.2001 51.0235 24.1996C51.0235 24.1992 51.0235 24.1987 51.0235 24.1982C51.0235 24.1978 51.0235 24.1973 51.0235 24.1969C51.0235 24.1964 51.0235 24.196 51.0235 24.1955C51.0235 24.195 51.0235 24.1946 51.0235 24.1941C51.0235 24.1937 51.0235 24.1932 51.0235 24.1927C51.0235 24.1923 51.0235 24.1918 51.0235 24.1914C51.0235 24.1909 51.0235 24.1905 51.0235 24.19C51.0235 24.1895 51.0235 24.1891 51.0235 24.1886C51.0235 24.1882 51.0235 24.1877 51.0235 24.1872C51.0235 24.1868 51.0235 24.1863 51.0235 24.1859C51.0235 24.1854 51.0235 24.1849 51.0235 24.1845C51.0235 24.184 51.0235 24.1835 51.0235 24.1831C51.0235 24.1826 51.0235 24.1822 51.0235 24.1817C51.0235 24.1812 51.0235 24.1808 51.0235 24.1803C51.0235 24.1799 51.0235 24.1794 51.0235 24.1789C51.0235 24.1785 51.0235 24.178 51.0235 24.1775C51.0235 24.1771 51.0235 24.1766 51.0235 24.1762C51.0235 24.1757 51.0235 24.1752 51.0235 24.1748C51.0235 24.1743 51.0235 24.1738 51.0235 24.1734C51.0235 24.1729 51.0235 24.1724 51.0235 24.172C51.0235 24.1715 51.0235 24.1711 51.0235 24.1706C51.0235 24.1701 51.0235 24.1697 51.0235 24.1692C51.0235 24.1687 51.0235 24.1683 51.0235 24.1678C51.0235 24.1673 51.0235 24.1669 51.0235 24.1664C51.0235 24.1659 51.0235 24.1655 51.0235 24.165C51.0235 24.1646 51.0235 24.1641 51.0235 24.1636C51.0235 24.1632 51.0235 24.1627 51.0235 24.1622C51.0235 24.1618 51.0235 24.1613 51.0235 24.1608C51.0235 24.1604 51.0235 24.1599 51.0235 24.1594C51.0235 24.159 51.0235 24.1585 51.0235 24.158C51.0235 24.1576 51.0235 24.1571 51.0235 24.1566C51.0235 24.1562 51.0235 24.1557 51.0235 24.1552C51.0235 24.1547 51.0235 24.1543 51.0235 24.1538C51.0235 24.1533 51.0235 24.1529 51.0235 24.1524C51.0235 24.1519 51.0235 24.1515 51.0235 24.151C51.0235 24.1505 51.0235 24.1501 51.0235 24.1496C51.0235 24.1491 51.0235 24.1487 51.0235 24.1482C51.0235 24.1477 51.0235 24.1472 51.0235 24.1468C51.0235 24.1463 51.0235 24.1458 51.0235 24.1454C51.0235 24.1449 51.0235 24.1444 51.0235 24.144C51.0235 24.1435 51.0235 24.143 51.0235 24.1425C51.0235 24.1421 51.0235 24.1416 51.0235 24.1411C51.0235 24.1407 51.0235 24.1402 51.0235 24.1397C51.0235 24.1392 51.0235 24.1388 51.0235 24.1383C51.0235 24.1378 51.0235 24.1374 51.0235 24.1369C51.0235 24.1364 51.0235 24.1359 51.0235 24.1355C51.0235 24.135 51.0235 24.1345 51.0235 24.1341C51.0235 24.1336 51.0235 24.1331 51.0235 24.1326C51.0235 24.1322 51.0235 24.1317 51.0235 24.1312C51.0235 24.1307 51.0235 24.1303 51.0235 24.1298C51.0235 24.1293 51.0235 24.1288 51.0235 24.1284C51.0235 24.1279 51.0235 24.1274 51.0235 24.127C51.0235 24.1265 51.0235 24.126 51.0235 24.1255C51.0235 24.1251 51.0235 24.1246 51.0235 24.1241C51.0235 24.1236 51.0235 24.1232 51.0235 24.1227C51.0235 24.1222 51.0235 24.1217 51.0235 24.1213C51.0235 24.1208 51.0235 24.1203 51.0235 24.1198C51.0235 24.1194 51.0235 24.1189 51.0235 24.1184C51.0235 24.1179 51.0235 24.1174 51.0235 24.117C51.0235 24.1165 51.0235 24.116 51.0235 24.1155C51.0235 24.1151 51.0235 24.1146 51.0235 24.1141C51.0235 24.1136 51.0235 24.1132 51.0235 24.1127C51.0235 24.1122 51.0235 24.1117 51.0235 24.1112C51.0235 24.1108 51.0235 24.1103 51.0235 24.1098C51.0235 24.1093 51.0235 24.1089 51.0235 24.1084C51.0235 24.1079 51.0235 24.1074 51.0235 24.1069C51.0235 24.1065 51.0235 24.106 51.0235 24.1055C51.0235 24.105 51.0235 24.1045 51.0235 24.1041C51.0235 24.1036 51.0235 24.1031 51.0235 24.1026C51.0235 24.1021 51.0235 24.1017 51.0235 24.1012C51.0235 24.1007 51.0235 24.1002 51.0235 24.0997C51.0235 24.0993 51.0235 24.0988 51.0235 24.0983C51.0235 24.0978 51.0235 24.0973 51.0235 24.0969C51.0235 24.0964 51.0235 24.0959 51.0235 24.0954C51.0235 24.0949 51.0235 24.0945 51.0235 24.094C51.0235 24.0935 51.0235 24.093 51.0235 24.0925C51.0235 24.092 51.0235 24.0916 51.0235 24.0911C51.0235 24.0906 51.0235 24.0901 51.0235 24.0896C51.0235 24.0891 51.0235 24.0887 51.0235 24.0882C51.0235 24.0877 51.0235 24.0872 51.0235 24.0867C51.0235 24.0862 51.0235 24.0858 51.0235 24.0853C51.0235 24.0848 51.0235 24.0843 51.0235 24.0838C51.0235 24.0833 51.0235 24.0829 51.0235 24.0824C51.0235 24.0819 51.0235 24.0814 51.0235 24.0809C51.0235 24.0804 51.0235 24.08 51.0235 24.0795C51.0235 24.079 51.0235 24.0785 51.0235 24.078C51.0235 24.0775 51.0235 24.077 51.0235 24.0766C51.0235 24.0761 51.0235 24.0756 51.0235 24.0751C51.0235 24.0746 51.0235 24.0741 51.0235 24.0736C51.0235 24.0732 51.0235 24.0727 51.0235 24.0722C51.0235 24.0717 51.0235 24.0712 51.0235 24.0707C51.0235 24.0702 51.0235 24.0697 51.0235 24.0693C51.0235 24.0688 51.0235 24.0683 51.0235 24.0678C51.0235 24.0673 51.0235 24.0668 51.0235 24.0663C51.0235 24.0658 51.0235 24.0654 51.0235 24.0649C51.0235 24.0644 51.0235 24.0639 51.0235 24.0634C51.0235 24.0629 51.0235 24.0624 51.0235 24.0619C51.0235 24.0614 51.0235 24.061 51.0235 24.0605C51.0235 24.06 51.0235 24.0595 51.0235 24.059C51.0235 24.0585 51.0235 24.058 51.0235 24.0575C51.0235 24.057 51.0235 24.0566 51.0235 24.0561C51.0235 24.0556 51.0235 24.0551 51.0235 24.0546C51.0235 24.0541 51.0235 24.0536 51.0235 24.0531C51.0235 24.0526 51.0235 24.0521 51.0235 24.0516C51.0235 24.0512 51.0235 24.0507 51.0235 24.0502C51.0235 24.0497 51.0235 24.0492 51.0235 24.0487C51.0235 24.0482 51.0235 24.0477 51.0235 24.0472C51.0235 24.0467 51.0235 24.0462 51.0235 24.0457C51.0235 24.0452 51.0235 24.0448 51.0235 24.0443C51.0235 24.0438 51.0235 24.0433 51.0235 24.0428C51.0235 24.0423 51.0235 24.0418 51.0235 24.0413C51.0235 24.0408 51.0235 24.0403 51.0235 24.0398C51.0235 24.0393 51.0235 24.0388 51.0235 24.0383C51.0235 24.0378 51.0235 24.0374 51.0235 24.0369C51.0235 24.0364 51.0235 24.0359 51.0235 24.0354C51.0235 24.0349 51.0235 24.0344 51.0235 24.0339C51.0235 24.0334 51.0235 24.0329 51.0235 24.0324C51.0235 24.0319 51.0235 24.0314 51.0235 24.0309C51.0235 24.0304 51.0235 24.0299 51.0235 24.0294C51.0235 24.0289 51.0235 24.0284 51.0235 24.0279C51.0235 24.0274 51.0235 24.0269 51.0235 24.0265C51.0235 24.026 51.0235 24.0255 51.0235 24.025C51.0235 24.0245 51.0235 24.024 51.0235 24.0235C51.0235 24.023 51.0235 24.0225 51.0235 24.022C51.0235 24.0215 51.0235 24.021 51.0235 24.0205C51.0235 24.02 51.0235 24.0195 51.0235 24.019C51.0235 24.0185 51.0235 24.018 51.0235 24.0175C51.0235 24.017 51.0235 24.0165 51.0235 24.016C51.0235 24.0155 51.0235 24.015 51.0235 24.0145C51.0235 24.014 51.0235 24.0135 51.0235 24.013C51.0235 24.0125 51.0235 24.012 51.0235 24.0115C51.0235 24.011 51.0235 24.0105 51.0235 24.01C51.0235 24.0095 51.0235 24.009 51.0235 24.0085C51.0235 24.008 51.0235 24.0075 51.0235 24.007C51.0235 24.0065 51.0235 24.006 51.0235 24.0055C51.0235 24.005 51.0235 24.0045 51.0235 24.004C51.0235 24.0035 51.0235 24.003 51.0235 24.0025C51.0235 24.002 51.0235 24.0015 51.0235 24.001C51.0235 24.0005 51.0235 24 51.0235 23.9995C51.0235 23.999 51.0235 23.9985 51.0235 23.998C51.0235 23.9975 51.0235 23.997 51.0235 23.9965C51.0235 23.9959 51.0235 23.9954 51.0235 23.9949C51.0235 23.9944 51.0235 23.9939 51.0235 23.9934C51.0235 23.9929 51.0235 23.9924 51.0235 23.9919C51.0235 23.9914 51.0235 23.9909 51.0235 23.9904C51.0235 23.9899 51.0235 23.9894 51.0235 23.9889C51.0235 23.9884 51.0235 23.9879 51.0235 23.9874C51.0235 23.9869 51.0235 23.9864 51.0235 23.9859C51.0235 23.9854 51.0235 23.9848 51.0235 23.9843C51.0235 23.9838 51.0235 23.9833 51.0235 23.9828C51.0235 23.9823 51.0235 23.9818 51.0235 23.9813C51.0235 23.9808 51.0235 23.9803 51.0235 23.9798C51.0235 23.9793 51.0235 23.9788 51.0235 23.9783C51.0235 23.9778 51.0235 23.9772 51.0235 23.9767C51.0235 23.9762 51.0235 23.9757 51.0235 23.9752C51.0235 23.9747 51.0235 23.9742 51.0235 23.9737C51.0235 23.9732 51.0235 23.9727 51.0235 23.9722C51.0235 23.9717 51.0235 23.9712 51.0235 23.9706C51.0235 23.9701 51.0235 23.9696 51.0235 23.9691C51.0235 23.9686 51.0235 23.9681 51.0235 23.9676C51.0235 23.9671 51.0235 23.9666 51.0235 23.9661C51.0235 23.9656 51.0235 23.965 51.0235 23.9645C51.0235 23.964 51.0235 23.9635 51.0235 23.963C51.0235 23.9625 51.0235 23.962 51.0235 23.9615C51.0235 23.961 51.0235 23.9604 51.0235 23.9599C51.0235 23.9594 51.0235 23.9589 51.0235 23.9584C51.0235 23.9579 51.0235 23.9574 51.0235 23.9569C51.0235 23.9564 51.0235 23.9558 51.0235 23.9553C51.0235 23.9548 51.0235 23.9543 51.0235 23.9538C51.0235 23.9533 51.0235 23.9528 51.0235 23.9523C51.0235 23.9517 51.0235 23.9512 51.0235 23.9507C51.0235 23.9502 51.0235 23.9497 51.0235 23.9492C51.0235 23.9487 51.0235 23.9482 51.0235 23.9476C51.0235 23.9471 51.0235 23.9466 51.0235 23.9461C51.0235 23.9456 51.0235 23.9451 51.0235 23.9446C51.0235 23.944 51.0235 23.9435 51.0235 23.943C51.0235 23.9425 51.0235 23.942 51.0235 23.9415C51.0235 23.941 51.0235 23.9404 51.0235 23.9399C51.0235 23.9394 51.0235 23.9389 51.0235 23.9384C51.0235 23.9379 51.0235 23.9373 51.0235 23.9368C51.0235 23.9363 51.0235 23.9358 51.0235 23.9353C51.0235 23.9348 51.0235 23.9342 51.0235 23.9337C51.0235 23.9332 51.0235 23.9327 51.0235 23.9322C51.0235 23.9317 51.0235 23.9311 51.0235 23.9306C51.0235 23.9301 51.0235 23.9296 51.0235 23.9291C51.0235 23.9286 51.0235 23.928 51.0235 23.9275C51.0235 23.927 51.0235 23.9265 51.0235 23.926C51.0235 23.9255 51.0235 23.9249 51.0235 23.9244C51.0235 23.9239 51.0235 23.9234 51.0235 23.9229C51.0235 23.9223 51.0235 23.9218 51.0235 23.9213C51.0235 23.9208 51.0235 23.9203 51.0235 23.9197C51.0235 23.9192 51.0235 23.9187 51.0235 23.9182C51.0235 23.9177 51.0235 23.9171 51.0235 23.9166C51.0235 23.9161 51.0235 23.9156 51.0235 23.9151C51.0235 23.9145 51.0235 23.914 51.0235 23.9135C51.0235 23.913 51.0235 23.9125 51.0235 23.9119C51.0235 23.9114 51.0235 23.9109 51.0235 23.9104C51.0235 23.9099 51.0235 23.9093 51.0235 23.9088C51.0235 23.9083 51.0235 23.9078 51.0235 23.9072C51.0235 23.9067 51.0235 23.9062 51.0235 23.9057C51.0235 23.9052 51.0235 23.9046 51.0235 23.9041C51.0235 23.9036 51.0235 23.9031 51.0235 23.9025C51.0235 23.902 51.0235 23.9015 51.0235 23.901C51.0235 23.9004 51.0235 23.8999 51.0235 23.8994C51.0235 23.8989 51.0235 23.8983 51.0235 23.8978C51.0235 23.8973 51.0235 23.8968 51.0235 23.8963C51.0235 23.8957 51.0235 23.8952 51.0235 23.8947C51.0235 23.8942 51.0235 23.8936 51.0235 23.8931C51.0235 23.8926 51.0235 23.8921 51.0235 23.8915C51.0235 23.891 51.0235 23.8905 51.0235 23.89C51.0235 23.8894 51.0235 23.8889 51.0235 23.8884C51.0235 23.8879 51.0235 23.8873 51.0235 23.8868C51.0235 23.8863 51.0235 23.8857 51.0235 23.8852C51.0235 23.8847 51.0235 23.8842 51.0235 23.8836C51.0235 23.8831 51.0235 23.8826 51.0235 23.8821C51.0235 23.8815 51.0235 23.881 51.0235 23.8805C51.0235 23.8799 51.0235 23.8794 51.0235 23.8789C51.0235 23.8784 51.0235 23.8778 51.0235 23.8773C51.0235 23.8768 51.0235 23.8762 51.0235 23.8757C51.0235 23.8752 51.0235 23.8747 51.0235 23.8741C51.0235 23.8736 51.0235 23.8731 51.0235 23.8725C51.0235 23.872 51.0235 23.8715 51.0235 23.871C51.0235 23.8704 51.0235 23.8699 51.0235 23.8694C51.0235 23.8688 51.0235 23.8683 51.0235 23.8678C51.0235 23.8672 51.0235 23.8667 51.0235 23.8662C51.0235 23.8657 51.0235 23.8651 51.0235 23.8646C51.0235 23.8641 51.0235 23.8635 51.0235 23.863C51.0235 23.8625 51.0235 23.8619 51.0235 23.8614C51.0235 23.8609 51.0235 23.8603 51.0235 23.8598C51.0235 23.8593 51.0235 23.8587 51.0235 23.8582C51.0235 23.8577 51.0235 23.8572 51.0235 23.8566C51.0235 23.8561 51.0235 23.8556 51.0235 23.855C51.0235 23.8545 51.0235 23.854 51.0235 23.8534C51.0235 23.8529 51.0235 23.8524 51.0235 23.8518C51.0235 23.8513 51.0235 23.8508 51.0235 23.8502C51.0235 23.8497 51.0235 23.8492 51.0235 23.8486C51.0235 23.8481 51.0235 23.8475 51.0235 23.847C51.0235 23.8465 51.0235 23.8459 51.0235 23.8454C51.0235 23.8449 51.0235 23.8443 51.0235 23.8438C51.0235 23.8433 51.0235 23.8427 51.0235 23.8422C51.0235 23.8417 51.0235 23.8411 51.0235 23.8406C51.0235 23.8401 51.0235 23.8395 51.0235 23.839C51.0235 23.8384 51.0235 23.8379 51.0235 23.8374C51.0235 23.8368 51.0235 23.8363 51.0235 23.8358C51.0235 23.8352 51.0235 23.8347 51.0235 23.8342C51.0235 23.8336 51.0235 23.8331 51.0235 23.8325C51.0235 23.832 51.0235 23.8315 51.0235 23.8309C51.0235 23.8304 51.0235 23.8299 51.0235 23.8293C51.0235 23.8288 51.0235 23.8282 51.0235 23.8277C51.0235 23.8272 51.0235 23.8266 51.0235 23.8261C51.0235 23.8255 51.0235 23.825 51.0235 23.8245C51.0235 23.8239 51.0235 23.8234 51.0235 23.8229C51.0235 23.8223 51.0235 23.8218 51.0235 23.8212C51.0235 23.8207 51.0235 23.8202 51.0235 23.8196C51.0235 23.8191 51.0235 23.8185 51.0235 23.818C51.0235 23.8175 51.0235 23.8169 51.0235 23.8164C51.0235 23.8158 51.0235 23.8153 51.0235 23.8148C51.0235 23.8142 51.0235 23.8137 51.0235 23.8131C51.0235 23.8126 51.0235 23.812 51.0235 23.8115C51.0235 23.811 51.0235 23.8104 51.0235 23.8099C51.0235 23.8093 51.0235 23.8088 51.0235 23.8083C51.0235 23.8077 51.0235 23.8072 51.0235 23.8066C51.0235 23.8061 51.0235 23.8055 51.0235 23.805C51.0235 23.8045 51.0235 23.8039 51.0235 23.8034C51.0235 23.8028 51.0235 23.8023 51.0235 23.8017C51.0235 23.8012 51.0235 23.8006 51.0235 23.8001C51.0235 23.7996 51.0235 23.799 51.0235 23.7985C51.0235 23.7979 51.0235 23.7974 51.0235 23.7968C51.0235 23.7963 51.0235 23.7957 51.0235 23.7952C51.0235 23.7947 51.0235 23.7941 51.0235 23.7936C51.0235 23.793 51.0235 23.7925 51.0235 23.7919C51.0235 23.7914 51.0235 23.7908 51.0235 23.7903C51.0235 23.7897 51.0235 23.7892 51.0235 23.7887C51.0235 23.7881 51.0235 23.7876 51.0235 23.787C51.0235 23.7865 51.0235 23.7859 51.0235 23.7854C51.0235 23.7848 51.0235 23.7843 51.0235 23.7837C51.0235 23.7832 51.0235 23.7826 51.0235 23.7821C51.0235 23.7815 51.0235 23.781 51.0235 23.7804C51.0235 23.7799 51.0235 23.7794 51.0235 23.7788C51.0235 23.7783 51.0235 23.7777 51.0235 23.7772C51.0235 23.7766 51.0235 23.7761 51.0235 23.7755C51.0235 23.775 51.0235 23.7744 51.0235 23.7739C51.0235 23.7733 51.0235 23.7728 51.0235 23.7722C51.0235 23.7717 51.0235 23.7711 51.0235 23.7706C51.0235 23.77 51.0235 23.7695 51.0235 23.7689C51.0235 23.7684 51.0235 23.7678 51.0235 23.7673C51.0235 23.7667 51.0235 23.7662 51.0235 23.7656C51.0235 23.7651 51.0235 23.7645 51.0235 23.764C51.0235 23.7634 51.0235 23.7629 51.0235 23.7623C51.0235 23.7618 51.0235 23.7612 51.0235 23.7607C51.0235 23.7601 51.0235 23.7596 51.0235 23.759C51.0235 23.7584 51.0235 23.7579 51.0235 23.7573C51.0235 23.7568 51.0235 23.7562 51.0235 23.7557C51.0235 23.7551 51.0235 23.7546 51.0235 23.754C51.0235 23.7535 51.0235 23.7529 51.0235 23.7524C51.0235 23.7518 51.0235 23.7513 51.0235 23.7507C51.0235 23.7502 51.0235 23.7496 51.0235 23.749C51.0235 23.7485 51.0235 23.7479 51.0235 23.7474C51.0235 23.7468 51.0235 23.7463 51.0235 23.7457C51.0235 23.7452 51.0235 23.7446 51.0235 23.7441C51.0235 23.7435 51.0235 23.7429 51.0235 23.7424C51.0235 23.7418 51.0235 23.7413 51.0235 23.7407C51.0235 23.7402 51.0235 23.7396 51.0235 23.7391C51.0235 23.7385 51.0235 23.7379 51.0235 23.7374C51.0235 23.7368 51.0235 23.7363 51.0235 23.7357C51.0235 23.7352 51.0235 23.7346 51.0235 23.734C51.0235 23.7335 51.0235 23.7329 51.0235 23.7324C51.0235 23.7318 51.0235 23.7313 51.0235 23.7307C51.0235 23.7301 51.0235 23.7296 51.0235 23.729C51.0235 23.7285 51.0235 23.7279 51.0235 23.7274C51.0235 23.7268 51.0235 23.7262 51.0235 23.7257C51.0235 23.7251 51.0235 23.7246 51.0235 23.724C51.0235 23.7234 51.0235 23.7229 51.0235 23.7223C51.0235 23.7218 51.0235 23.7212 51.0235 23.7206C51.0235 23.7201 51.0235 23.7195 51.0235 23.719C51.0235 23.7184 51.0235 23.7178 51.0235 23.7173C51.0235 23.7167 51.0235 23.7162 51.0235 23.7156C51.0235 23.715 51.0235 23.7145 51.0235 23.7139C51.0235 23.7134 51.0235 23.7128 51.0235 23.7122C51.0235 23.7117 51.0235 23.7111 51.0235 23.7106C51.0235 23.71 51.0235 23.7094 51.0235 23.7089C51.0235 23.7083 51.0235 23.7077 51.0235 23.7072C51.0235 23.7066 51.0235 23.7061 51.0235 23.7055C51.0235 23.7049 51.0235 23.7044 51.0235 23.7038C51.0235 23.7033 51.0235 23.7027 51.0235 23.7021C51.0235 23.7016 51.0235 23.701 51.0235 23.7004C51.0235 23.6999 51.0235 23.6993 51.0235 23.6987C51.0235 23.6982 51.0235 23.6976 51.0235 23.6971C51.0235 23.6965 51.0235 23.6959 51.0235 23.6954C51.0235 23.6948 51.0235 23.6942 51.0235 23.6937C51.0235 23.6931 51.0235 23.6925 51.0235 23.692C51.0235 23.6914 51.0235 23.6908 51.0235 23.6903C51.0235 23.6897 51.0235 23.6891 51.0235 23.6886C51.0235 23.688 51.0235 23.6874 51.0235 23.6869C51.0235 23.6863 51.0235 23.6857 51.0235 23.6852C51.0235 23.6846 51.0235 23.684 51.0235 23.6835C51.0235 23.6829 51.0235 23.6823 51.0235 23.6818C51.0235 23.6812 51.0235 23.6806 51.0235 23.6801C51.0235 23.6795 51.0235 23.6789 51.0235 23.6784C51.0235 23.6778 51.0235 23.6772 51.0235 23.6767C51.0235 23.6761 51.0235 23.6755 51.0235 23.675C51.0235 23.6744 51.0235 23.6738 51.0235 23.6733C51.0235 23.6727 51.0235 23.6721 51.0235 23.6716C51.0235 23.671 51.0235 23.6704 51.0235 23.6698C51.0235 23.6693 51.0235 23.6687 51.0235 23.6681C51.0235 23.6676 51.0235 23.667 51.0235 23.6664C51.0235 23.6659 51.0235 23.6653 51.0235 23.6647C51.0235 23.6642 51.0235 23.6636 51.0235 23.663C51.0235 23.6624 51.0235 23.6619 51.0235 23.6613C51.0235 23.6607 51.0235 23.6602 51.0235 23.6596C51.0235 23.659 51.0235 23.6584 51.0235 23.6579C51.0235 23.6573 51.0235 23.6567 51.0235 23.6562C51.0235 23.6556 51.0235 23.655 51.0235 23.6544C51.0235 23.6539 51.0235 23.6533 51.0235 23.6527C51.0235 23.6521 51.0235 23.6516 51.0235 23.651C51.0235 23.6504 51.0235 23.6499 51.0235 23.6493C51.0235 23.6487 51.0235 23.6481 51.0235 23.6476C51.0235 23.647 51.0235 23.6464 51.0235 23.6458C51.0235 23.6453 51.0235 23.6447 51.0235 23.6441C51.0235 23.6435 51.0235 23.643 51.0235 23.6424C51.0235 23.6418 51.0235 23.6412 51.0235 23.6407C51.0235 23.6401 51.0235 23.6395 51.0235 23.6389C51.0235 23.6384 51.0235 23.6378 51.0235 23.6372C51.0235 23.6366 51.0235 23.6361 51.0235 23.6355C51.0235 23.6349 51.0235 23.6343 51.0235 23.6338C51.0235 23.6332 51.0235 23.6326 51.0235 23.632C51.0235 23.6315 51.0235 23.6309 51.0235 23.6303C51.0235 23.6297 51.0235 23.6292 51.0235 23.6286C51.0235 23.628 51.0235 23.6274 51.0235 23.6268C51.0235 23.6263 51.0235 23.6257 51.0235 23.6251C51.0235 23.6245 51.0235 23.624 51.0235 23.6234C51.0235 23.6228 51.0235 23.6222 51.0235 23.6216C51.0235 23.6211 51.0235 23.6205 51.0235 23.6199C51.0235 23.6193 51.0235 23.6187 51.0235 23.6182C51.0235 23.6176 51.0235 23.617 51.0235 23.6164C51.0235 23.6159 51.0235 23.6153 51.0235 23.6147C51.0235 23.6141 51.0235 23.6135 51.0235 23.613C51.0235 23.6124 51.0235 23.6118 51.0235 23.6112C51.0235 23.6106 51.0235 23.6101 51.0235 23.6095C51.0235 23.6089 51.0235 23.6083 51.0235 23.6077C51.0235 23.6071 51.0235 23.6066 51.0235 23.606C51.0235 23.6054 51.0235 23.6048 51.0235 23.6042C51.0235 23.6037 51.0235 23.6031 51.0235 23.6025C51.0235 23.6019 51.0235 23.6013 51.0235 23.6007C51.0235 23.6002 51.0235 23.5996 51.0235 23.599C51.0235 23.5984 51.0235 23.5978 51.0235 23.5973C51.0235 23.5967 51.0235 23.5961 51.0235 23.5955H49.0235C49.0235 23.5961 49.0235 23.5967 49.0235 23.5973C49.0235 23.5978 49.0235 23.5984 49.0235 23.599C49.0235 23.5996 49.0235 23.6002 49.0235 23.6007C49.0235 23.6013 49.0235 23.6019 49.0235 23.6025C49.0235 23.6031 49.0235 23.6037 49.0235 23.6042C49.0235 23.6048 49.0235 23.6054 49.0235 23.606C49.0235 23.6066 49.0235 23.6071 49.0235 23.6077C49.0235 23.6083 49.0235 23.6089 49.0235 23.6095C49.0235 23.6101 49.0235 23.6106 49.0235 23.6112C49.0235 23.6118 49.0235 23.6124 49.0235 23.613C49.0235 23.6135 49.0235 23.6141 49.0235 23.6147C49.0235 23.6153 49.0235 23.6159 49.0235 23.6164C49.0235 23.617 49.0235 23.6176 49.0235 23.6182C49.0235 23.6187 49.0235 23.6193 49.0235 23.6199C49.0235 23.6205 49.0235 23.6211 49.0235 23.6216C49.0235 23.6222 49.0235 23.6228 49.0235 23.6234C49.0235 23.624 49.0235 23.6245 49.0235 23.6251C49.0235 23.6257 49.0235 23.6263 49.0235 23.6268C49.0235 23.6274 49.0235 23.628 49.0235 23.6286C49.0235 23.6292 49.0235 23.6297 49.0235 23.6303C49.0235 23.6309 49.0235 23.6315 49.0235 23.632C49.0235 23.6326 49.0235 23.6332 49.0235 23.6338C49.0235 23.6343 49.0235 23.6349 49.0235 23.6355C49.0235 23.6361 49.0235 23.6366 49.0235 23.6372C49.0235 23.6378 49.0235 23.6384 49.0235 23.6389C49.0235 23.6395 49.0235 23.6401 49.0235 23.6407C49.0235 23.6412 49.0235 23.6418 49.0235 23.6424C49.0235 23.643 49.0235 23.6435 49.0235 23.6441C49.0235 23.6447 49.0235 23.6453 49.0235 23.6458C49.0235 23.6464 49.0235 23.647 49.0235 23.6476C49.0235 23.6481 49.0235 23.6487 49.0235 23.6493C49.0235 23.6499 49.0235 23.6504 49.0235 23.651C49.0235 23.6516 49.0235 23.6521 49.0235 23.6527C49.0235 23.6533 49.0235 23.6539 49.0235 23.6544C49.0235 23.655 49.0235 23.6556 49.0235 23.6562C49.0235 23.6567 49.0235 23.6573 49.0235 23.6579C49.0235 23.6584 49.0235 23.659 49.0235 23.6596C49.0235 23.6602 49.0235 23.6607 49.0235 23.6613C49.0235 23.6619 49.0235 23.6624 49.0235 23.663C49.0235 23.6636 49.0235 23.6642 49.0235 23.6647C49.0235 23.6653 49.0235 23.6659 49.0235 23.6664C49.0235 23.667 49.0235 23.6676 49.0235 23.6681C49.0235 23.6687 49.0235 23.6693 49.0235 23.6698C49.0235 23.6704 49.0235 23.671 49.0235 23.6716C49.0235 23.6721 49.0235 23.6727 49.0235 23.6733C49.0235 23.6738 49.0235 23.6744 49.0235 23.675C49.0235 23.6755 49.0235 23.6761 49.0235 23.6767C49.0235 23.6772 49.0235 23.6778 49.0235 23.6784C49.0235 23.6789 49.0235 23.6795 49.0235 23.6801C49.0235 23.6806 49.0235 23.6812 49.0235 23.6818C49.0235 23.6823 49.0235 23.6829 49.0235 23.6835C49.0235 23.684 49.0235 23.6846 49.0235 23.6852C49.0235 23.6857 49.0235 23.6863 49.0235 23.6869C49.0235 23.6874 49.0235 23.688 49.0235 23.6886C49.0235 23.6891 49.0235 23.6897 49.0235 23.6903C49.0235 23.6908 49.0235 23.6914 49.0235 23.692C49.0235 23.6925 49.0235 23.6931 49.0235 23.6937C49.0235 23.6942 49.0235 23.6948 49.0235 23.6954C49.0235 23.6959 49.0235 23.6965 49.0235 23.6971C49.0235 23.6976 49.0235 23.6982 49.0235 23.6987C49.0235 23.6993 49.0235 23.6999 49.0235 23.7004C49.0235 23.701 49.0235 23.7016 49.0235 23.7021C49.0235 23.7027 49.0235 23.7033 49.0235 23.7038C49.0235 23.7044 49.0235 23.7049 49.0235 23.7055C49.0235 23.7061 49.0235 23.7066 49.0235 23.7072C49.0235 23.7077 49.0235 23.7083 49.0235 23.7089C49.0235 23.7094 49.0235 23.71 49.0235 23.7106C49.0235 23.7111 49.0235 23.7117 49.0235 23.7122C49.0235 23.7128 49.0235 23.7134 49.0235 23.7139C49.0235 23.7145 49.0235 23.715 49.0235 23.7156C49.0235 23.7162 49.0235 23.7167 49.0235 23.7173C49.0235 23.7178 49.0235 23.7184 49.0235 23.719C49.0235 23.7195 49.0235 23.7201 49.0235 23.7206C49.0235 23.7212 49.0235 23.7218 49.0235 23.7223C49.0235 23.7229 49.0235 23.7234 49.0235 23.724C49.0235 23.7246 49.0235 23.7251 49.0235 23.7257C49.0235 23.7262 49.0235 23.7268 49.0235 23.7274C49.0235 23.7279 49.0235 23.7285 49.0235 23.729C49.0235 23.7296 49.0235 23.7301 49.0235 23.7307C49.0235 23.7313 49.0235 23.7318 49.0235 23.7324C49.0235 23.7329 49.0235 23.7335 49.0235 23.734C49.0235 23.7346 49.0235 23.7352 49.0235 23.7357C49.0235 23.7363 49.0235 23.7368 49.0235 23.7374C49.0235 23.7379 49.0235 23.7385 49.0235 23.7391C49.0235 23.7396 49.0235 23.7402 49.0235 23.7407C49.0235 23.7413 49.0235 23.7418 49.0235 23.7424C49.0235 23.7429 49.0235 23.7435 49.0235 23.7441C49.0235 23.7446 49.0235 23.7452 49.0235 23.7457C49.0235 23.7463 49.0235 23.7468 49.0235 23.7474C49.0235 23.7479 49.0235 23.7485 49.0235 23.749C49.0235 23.7496 49.0235 23.7502 49.0235 23.7507C49.0235 23.7513 49.0235 23.7518 49.0235 23.7524C49.0235 23.7529 49.0235 23.7535 49.0235 23.754C49.0235 23.7546 49.0235 23.7551 49.0235 23.7557C49.0235 23.7562 49.0235 23.7568 49.0235 23.7573C49.0235 23.7579 49.0235 23.7584 49.0235 23.759C49.0235 23.7596 49.0235 23.7601 49.0235 23.7607C49.0235 23.7612 49.0235 23.7618 49.0235 23.7623C49.0235 23.7629 49.0235 23.7634 49.0235 23.764C49.0235 23.7645 49.0235 23.7651 49.0235 23.7656C49.0235 23.7662 49.0235 23.7667 49.0235 23.7673C49.0235 23.7678 49.0235 23.7684 49.0235 23.7689C49.0235 23.7695 49.0235 23.77 49.0235 23.7706C49.0235 23.7711 49.0235 23.7717 49.0235 23.7722C49.0235 23.7728 49.0235 23.7733 49.0235 23.7739C49.0235 23.7744 49.0235 23.775 49.0235 23.7755C49.0235 23.7761 49.0235 23.7766 49.0235 23.7772C49.0235 23.7777 49.0235 23.7783 49.0235 23.7788C49.0235 23.7794 49.0235 23.7799 49.0235 23.7804C49.0235 23.781 49.0235 23.7815 49.0235 23.7821C49.0235 23.7826 49.0235 23.7832 49.0235 23.7837C49.0235 23.7843 49.0235 23.7848 49.0235 23.7854C49.0235 23.7859 49.0235 23.7865 49.0235 23.787C49.0235 23.7876 49.0235 23.7881 49.0235 23.7887C49.0235 23.7892 49.0235 23.7897 49.0235 23.7903C49.0235 23.7908 49.0235 23.7914 49.0235 23.7919C49.0235 23.7925 49.0235 23.793 49.0235 23.7936C49.0235 23.7941 49.0235 23.7947 49.0235 23.7952C49.0235 23.7957 49.0235 23.7963 49.0235 23.7968C49.0235 23.7974 49.0235 23.7979 49.0235 23.7985C49.0235 23.799 49.0235 23.7996 49.0235 23.8001C49.0235 23.8006 49.0235 23.8012 49.0235 23.8017C49.0235 23.8023 49.0235 23.8028 49.0235 23.8034C49.0235 23.8039 49.0235 23.8045 49.0235 23.805C49.0235 23.8055 49.0235 23.8061 49.0235 23.8066C49.0235 23.8072 49.0235 23.8077 49.0235 23.8083C49.0235 23.8088 49.0235 23.8093 49.0235 23.8099C49.0235 23.8104 49.0235 23.811 49.0235 23.8115C49.0235 23.812 49.0235 23.8126 49.0235 23.8131C49.0235 23.8137 49.0235 23.8142 49.0235 23.8148C49.0235 23.8153 49.0235 23.8158 49.0235 23.8164C49.0235 23.8169 49.0235 23.8175 49.0235 23.818C49.0235 23.8185 49.0235 23.8191 49.0235 23.8196C49.0235 23.8202 49.0235 23.8207 49.0235 23.8212C49.0235 23.8218 49.0235 23.8223 49.0235 23.8229C49.0235 23.8234 49.0235 23.8239 49.0235 23.8245C49.0235 23.825 49.0235 23.8255 49.0235 23.8261C49.0235 23.8266 49.0235 23.8272 49.0235 23.8277C49.0235 23.8282 49.0235 23.8288 49.0235 23.8293C49.0235 23.8299 49.0235 23.8304 49.0235 23.8309C49.0235 23.8315 49.0235 23.832 49.0235 23.8325C49.0235 23.8331 49.0235 23.8336 49.0235 23.8342C49.0235 23.8347 49.0235 23.8352 49.0235 23.8358C49.0235 23.8363 49.0235 23.8368 49.0235 23.8374C49.0235 23.8379 49.0235 23.8384 49.0235 23.839C49.0235 23.8395 49.0235 23.8401 49.0235 23.8406C49.0235 23.8411 49.0235 23.8417 49.0235 23.8422C49.0235 23.8427 49.0235 23.8433 49.0235 23.8438C49.0235 23.8443 49.0235 23.8449 49.0235 23.8454C49.0235 23.8459 49.0235 23.8465 49.0235 23.847C49.0235 23.8475 49.0235 23.8481 49.0235 23.8486C49.0235 23.8492 49.0235 23.8497 49.0235 23.8502C49.0235 23.8508 49.0235 23.8513 49.0235 23.8518C49.0235 23.8524 49.0235 23.8529 49.0235 23.8534C49.0235 23.854 49.0235 23.8545 49.0235 23.855C49.0235 23.8556 49.0235 23.8561 49.0235 23.8566C49.0235 23.8572 49.0235 23.8577 49.0235 23.8582C49.0235 23.8587 49.0235 23.8593 49.0235 23.8598C49.0235 23.8603 49.0235 23.8609 49.0235 23.8614C49.0235 23.8619 49.0235 23.8625 49.0235 23.863C49.0235 23.8635 49.0235 23.8641 49.0235 23.8646C49.0235 23.8651 49.0235 23.8657 49.0235 23.8662C49.0235 23.8667 49.0235 23.8672 49.0235 23.8678C49.0235 23.8683 49.0235 23.8688 49.0235 23.8694C49.0235 23.8699 49.0235 23.8704 49.0235 23.871C49.0235 23.8715 49.0235 23.872 49.0235 23.8725C49.0235 23.8731 49.0235 23.8736 49.0235 23.8741C49.0235 23.8747 49.0235 23.8752 49.0235 23.8757C49.0235 23.8762 49.0235 23.8768 49.0235 23.8773C49.0235 23.8778 49.0235 23.8784 49.0235 23.8789C49.0235 23.8794 49.0235 23.8799 49.0235 23.8805C49.0235 23.881 49.0235 23.8815 49.0235 23.8821C49.0235 23.8826 49.0235 23.8831 49.0235 23.8836C49.0235 23.8842 49.0235 23.8847 49.0235 23.8852C49.0235 23.8857 49.0235 23.8863 49.0235 23.8868C49.0235 23.8873 49.0235 23.8879 49.0235 23.8884C49.0235 23.8889 49.0235 23.8894 49.0235 23.89C49.0235 23.8905 49.0235 23.891 49.0235 23.8915C49.0235 23.8921 49.0235 23.8926 49.0235 23.8931C49.0235 23.8936 49.0235 23.8942 49.0235 23.8947C49.0235 23.8952 49.0235 23.8957 49.0235 23.8963C49.0235 23.8968 49.0235 23.8973 49.0235 23.8978C49.0235 23.8983 49.0235 23.8989 49.0235 23.8994C49.0235 23.8999 49.0235 23.9004 49.0235 23.901C49.0235 23.9015 49.0235 23.902 49.0235 23.9025C49.0235 23.9031 49.0235 23.9036 49.0235 23.9041C49.0235 23.9046 49.0235 23.9052 49.0235 23.9057C49.0235 23.9062 49.0235 23.9067 49.0235 23.9072C49.0235 23.9078 49.0235 23.9083 49.0235 23.9088C49.0235 23.9093 49.0235 23.9099 49.0235 23.9104C49.0235 23.9109 49.0235 23.9114 49.0235 23.9119C49.0235 23.9125 49.0235 23.913 49.0235 23.9135C49.0235 23.914 49.0235 23.9145 49.0235 23.9151C49.0235 23.9156 49.0235 23.9161 49.0235 23.9166C49.0235 23.9171 49.0235 23.9177 49.0235 23.9182C49.0235 23.9187 49.0235 23.9192 49.0235 23.9197C49.0235 23.9203 49.0235 23.9208 49.0235 23.9213C49.0235 23.9218 49.0235 23.9223 49.0235 23.9229C49.0235 23.9234 49.0235 23.9239 49.0235 23.9244C49.0235 23.9249 49.0235 23.9255 49.0235 23.926C49.0235 23.9265 49.0235 23.927 49.0235 23.9275C49.0235 23.928 49.0235 23.9286 49.0235 23.9291C49.0235 23.9296 49.0235 23.9301 49.0235 23.9306C49.0235 23.9311 49.0235 23.9317 49.0235 23.9322C49.0235 23.9327 49.0235 23.9332 49.0235 23.9337C49.0235 23.9342 49.0235 23.9348 49.0235 23.9353C49.0235 23.9358 49.0235 23.9363 49.0235 23.9368C49.0235 23.9373 49.0235 23.9379 49.0235 23.9384C49.0235 23.9389 49.0235 23.9394 49.0235 23.9399C49.0235 23.9404 49.0235 23.941 49.0235 23.9415C49.0235 23.942 49.0235 23.9425 49.0235 23.943C49.0235 23.9435 49.0235 23.944 49.0235 23.9446C49.0235 23.9451 49.0235 23.9456 49.0235 23.9461C49.0235 23.9466 49.0235 23.9471 49.0235 23.9476C49.0235 23.9482 49.0235 23.9487 49.0235 23.9492C49.0235 23.9497 49.0235 23.9502 49.0235 23.9507C49.0235 23.9512 49.0235 23.9517 49.0235 23.9523C49.0235 23.9528 49.0235 23.9533 49.0235 23.9538C49.0235 23.9543 49.0235 23.9548 49.0235 23.9553C49.0235 23.9558 49.0235 23.9564 49.0235 23.9569C49.0235 23.9574 49.0235 23.9579 49.0235 23.9584C49.0235 23.9589 49.0235 23.9594 49.0235 23.9599C49.0235 23.9604 49.0235 23.961 49.0235 23.9615C49.0235 23.962 49.0235 23.9625 49.0235 23.963C49.0235 23.9635 49.0235 23.964 49.0235 23.9645C49.0235 23.965 49.0235 23.9656 49.0235 23.9661C49.0235 23.9666 49.0235 23.9671 49.0235 23.9676C49.0235 23.9681 49.0235 23.9686 49.0235 23.9691C49.0235 23.9696 49.0235 23.9701 49.0235 23.9706C49.0235 23.9712 49.0235 23.9717 49.0235 23.9722C49.0235 23.9727 49.0235 23.9732 49.0235 23.9737C49.0235 23.9742 49.0235 23.9747 49.0235 23.9752C49.0235 23.9757 49.0235 23.9762 49.0235 23.9767C49.0235 23.9772 49.0235 23.9778 49.0235 23.9783C49.0235 23.9788 49.0235 23.9793 49.0235 23.9798C49.0235 23.9803 49.0235 23.9808 49.0235 23.9813C49.0235 23.9818 49.0235 23.9823 49.0235 23.9828C49.0235 23.9833 49.0235 23.9838 49.0235 23.9843C49.0235 23.9848 49.0235 23.9854 49.0235 23.9859C49.0235 23.9864 49.0235 23.9869 49.0235 23.9874C49.0235 23.9879 49.0235 23.9884 49.0235 23.9889C49.0235 23.9894 49.0235 23.9899 49.0235 23.9904C49.0235 23.9909 49.0235 23.9914 49.0235 23.9919C49.0235 23.9924 49.0235 23.9929 49.0235 23.9934C49.0235 23.9939 49.0235 23.9944 49.0235 23.9949C49.0235 23.9954 49.0235 23.9959 49.0235 23.9965C49.0235 23.997 49.0235 23.9975 49.0235 23.998C49.0235 23.9985 49.0235 23.999 49.0235 23.9995C49.0235 24 49.0235 24.0005 49.0235 24.001C49.0235 24.0015 49.0235 24.002 49.0235 24.0025C49.0235 24.003 49.0235 24.0035 49.0235 24.004C49.0235 24.0045 49.0235 24.005 49.0235 24.0055C49.0235 24.006 49.0235 24.0065 49.0235 24.007C49.0235 24.0075 49.0235 24.008 49.0235 24.0085C49.0235 24.009 49.0235 24.0095 49.0235 24.01C49.0235 24.0105 49.0235 24.011 49.0235 24.0115C49.0235 24.012 49.0235 24.0125 49.0235 24.013C49.0235 24.0135 49.0235 24.014 49.0235 24.0145C49.0235 24.015 49.0235 24.0155 49.0235 24.016C49.0235 24.0165 49.0235 24.017 49.0235 24.0175C49.0235 24.018 49.0235 24.0185 49.0235 24.019C49.0235 24.0195 49.0235 24.02 49.0235 24.0205C49.0235 24.021 49.0235 24.0215 49.0235 24.022C49.0235 24.0225 49.0235 24.023 49.0235 24.0235C49.0235 24.024 49.0235 24.0245 49.0235 24.025C49.0235 24.0255 49.0235 24.026 49.0235 24.0265C49.0235 24.0269 49.0235 24.0274 49.0235 24.0279C49.0235 24.0284 49.0235 24.0289 49.0235 24.0294C49.0235 24.0299 49.0235 24.0304 49.0235 24.0309C49.0235 24.0314 49.0235 24.0319 49.0235 24.0324C49.0235 24.0329 49.0235 24.0334 49.0235 24.0339C49.0235 24.0344 49.0235 24.0349 49.0235 24.0354C49.0235 24.0359 49.0235 24.0364 49.0235 24.0369C49.0235 24.0374 49.0235 24.0378 49.0235 24.0383C49.0235 24.0388 49.0235 24.0393 49.0235 24.0398C49.0235 24.0403 49.0235 24.0408 49.0235 24.0413C49.0235 24.0418 49.0235 24.0423 49.0235 24.0428C49.0235 24.0433 49.0235 24.0438 49.0235 24.0443C49.0235 24.0448 49.0235 24.0452 49.0235 24.0457C49.0235 24.0462 49.0235 24.0467 49.0235 24.0472C49.0235 24.0477 49.0235 24.0482 49.0235 24.0487C49.0235 24.0492 49.0235 24.0497 49.0235 24.0502C49.0235 24.0507 49.0235 24.0512 49.0235 24.0516C49.0235 24.0521 49.0235 24.0526 49.0235 24.0531C49.0235 24.0536 49.0235 24.0541 49.0235 24.0546C49.0235 24.0551 49.0235 24.0556 49.0235 24.0561C49.0235 24.0566 49.0235 24.057 49.0235 24.0575C49.0235 24.058 49.0235 24.0585 49.0235 24.059C49.0235 24.0595 49.0235 24.06 49.0235 24.0605C49.0235 24.061 49.0235 24.0614 49.0235 24.0619C49.0235 24.0624 49.0235 24.0629 49.0235 24.0634C49.0235 24.0639 49.0235 24.0644 49.0235 24.0649C49.0235 24.0654 49.0235 24.0658 49.0235 24.0663C49.0235 24.0668 49.0235 24.0673 49.0235 24.0678C49.0235 24.0683 49.0235 24.0688 49.0235 24.0693C49.0235 24.0697 49.0235 24.0702 49.0235 24.0707C49.0235 24.0712 49.0235 24.0717 49.0235 24.0722C49.0235 24.0727 49.0235 24.0732 49.0235 24.0736C49.0235 24.0741 49.0235 24.0746 49.0235 24.0751C49.0235 24.0756 49.0235 24.0761 49.0235 24.0766C49.0235 24.077 49.0235 24.0775 49.0235 24.078C49.0235 24.0785 49.0235 24.079 49.0235 24.0795C49.0235 24.08 49.0235 24.0804 49.0235 24.0809C49.0235 24.0814 49.0235 24.0819 49.0235 24.0824C49.0235 24.0829 49.0235 24.0833 49.0235 24.0838C49.0235 24.0843 49.0235 24.0848 49.0235 24.0853C49.0235 24.0858 49.0235 24.0862 49.0235 24.0867C49.0235 24.0872 49.0235 24.0877 49.0235 24.0882C49.0235 24.0887 49.0235 24.0891 49.0235 24.0896C49.0235 24.0901 49.0235 24.0906 49.0235 24.0911C49.0235 24.0916 49.0235 24.092 49.0235 24.0925C49.0235 24.093 49.0235 24.0935 49.0235 24.094C49.0235 24.0945 49.0235 24.0949 49.0235 24.0954C49.0235 24.0959 49.0235 24.0964 49.0235 24.0969C49.0235 24.0973 49.0235 24.0978 49.0235 24.0983C49.0235 24.0988 49.0235 24.0993 49.0235 24.0997C49.0235 24.1002 49.0235 24.1007 49.0235 24.1012C49.0235 24.1017 49.0235 24.1021 49.0235 24.1026C49.0235 24.1031 49.0235 24.1036 49.0235 24.1041C49.0235 24.1045 49.0235 24.105 49.0235 24.1055C49.0235 24.106 49.0235 24.1065 49.0235 24.1069C49.0235 24.1074 49.0235 24.1079 49.0235 24.1084C49.0235 24.1089 49.0235 24.1093 49.0235 24.1098C49.0235 24.1103 49.0235 24.1108 49.0235 24.1112C49.0235 24.1117 49.0235 24.1122 49.0235 24.1127C49.0235 24.1132 49.0235 24.1136 49.0235 24.1141C49.0235 24.1146 49.0235 24.1151 49.0235 24.1155C49.0235 24.116 49.0235 24.1165 49.0235 24.117C49.0235 24.1174 49.0235 24.1179 49.0235 24.1184C49.0235 24.1189 49.0235 24.1194 49.0235 24.1198C49.0235 24.1203 49.0235 24.1208 49.0235 24.1213C49.0235 24.1217 49.0235 24.1222 49.0235 24.1227C49.0235 24.1232 49.0235 24.1236 49.0235 24.1241C49.0235 24.1246 49.0235 24.1251 49.0235 24.1255C49.0235 24.126 49.0235 24.1265 49.0235 24.127C49.0235 24.1274 49.0235 24.1279 49.0235 24.1284C49.0235 24.1288 49.0235 24.1293 49.0235 24.1298C49.0235 24.1303 49.0235 24.1307 49.0235 24.1312C49.0235 24.1317 49.0235 24.1322 49.0235 24.1326C49.0235 24.1331 49.0235 24.1336 49.0235 24.1341C49.0235 24.1345 49.0235 24.135 49.0235 24.1355C49.0235 24.1359 49.0235 24.1364 49.0235 24.1369C49.0235 24.1374 49.0235 24.1378 49.0235 24.1383C49.0235 24.1388 49.0235 24.1392 49.0235 24.1397C49.0235 24.1402 49.0235 24.1407 49.0235 24.1411C49.0235 24.1416 49.0235 24.1421 49.0235 24.1425C49.0235 24.143 49.0235 24.1435 49.0235 24.144C49.0235 24.1444 49.0235 24.1449 49.0235 24.1454C49.0235 24.1458 49.0235 24.1463 49.0235 24.1468C49.0235 24.1472 49.0235 24.1477 49.0235 24.1482C49.0235 24.1487 49.0235 24.1491 49.0235 24.1496C49.0235 24.1501 49.0235 24.1505 49.0235 24.151C49.0235 24.1515 49.0235 24.1519 49.0235 24.1524C49.0235 24.1529 49.0235 24.1533 49.0235 24.1538C49.0235 24.1543 49.0235 24.1547 49.0235 24.1552C49.0235 24.1557 49.0235 24.1562 49.0235 24.1566C49.0235 24.1571 49.0235 24.1576 49.0235 24.158C49.0235 24.1585 49.0235 24.159 49.0235 24.1594C49.0235 24.1599 49.0235 24.1604 49.0235 24.1608C49.0235 24.1613 49.0235 24.1618 49.0235 24.1622C49.0235 24.1627 49.0235 24.1632 49.0235 24.1636C49.0235 24.1641 49.0235 24.1646 49.0235 24.165C49.0235 24.1655 49.0235 24.1659 49.0235 24.1664C49.0235 24.1669 49.0235 24.1673 49.0235 24.1678C49.0235 24.1683 49.0235 24.1687 49.0235 24.1692C49.0235 24.1697 49.0235 24.1701 49.0235 24.1706C49.0235 24.1711 49.0235 24.1715 49.0235 24.172C49.0235 24.1724 49.0235 24.1729 49.0235 24.1734C49.0235 24.1738 49.0235 24.1743 49.0235 24.1748C49.0235 24.1752 49.0235 24.1757 49.0235 24.1762C49.0235 24.1766 49.0235 24.1771 49.0235 24.1775C49.0235 24.178 49.0235 24.1785 49.0235 24.1789C49.0235 24.1794 49.0235 24.1799 49.0235 24.1803C49.0235 24.1808 49.0235 24.1812 49.0235 24.1817C49.0235 24.1822 49.0235 24.1826 49.0235 24.1831C49.0235 24.1835 49.0235 24.184 49.0235 24.1845C49.0235 24.1849 49.0235 24.1854 49.0235 24.1859C49.0235 24.1863 49.0235 24.1868 49.0235 24.1872C49.0235 24.1877 49.0235 24.1882 49.0235 24.1886C49.0235 24.1891 49.0235 24.1895 49.0235 24.19C49.0235 24.1905 49.0235 24.1909 49.0235 24.1914C49.0235 24.1918 49.0235 24.1923 49.0235 24.1927C49.0235 24.1932 49.0235 24.1937 49.0235 24.1941C49.0235 24.1946 49.0235 24.195 49.0235 24.1955C49.0235 24.196 49.0235 24.1964 49.0235 24.1969C49.0235 24.1973 49.0235 24.1978 49.0235 24.1982C49.0235 24.1987 49.0235 24.1992 49.0235 24.1996C49.0235 24.2001 49.0235 24.2005 49.0235 24.201C49.0235 24.2015 49.0235 24.2019 49.0235 24.2024C49.0235 24.2028 49.0235 24.2033 49.0235 24.2037C49.0235 24.2042 49.0235 24.2046 49.0235 24.2051C49.0235 24.2056 49.0235 24.206 49.0235 24.2065C49.0235 24.2069 49.0235 24.2074 49.0235 24.2078C49.0235 24.2083 49.0235 24.2087 49.0235 24.2092C49.0235 24.2097 49.0235 24.2101 49.0235 24.2106C49.0235 24.211 49.0235 24.2115 49.0235 24.2119C49.0235 24.2124 49.0235 24.2128 49.0235 24.2133C49.0235 24.2137 49.0235 24.2142 49.0235 24.2147C49.0235 24.2151 49.0235 24.2156 49.0235 24.216C49.0235 24.2165 49.0235 24.2169 49.0235 24.2174C49.0235 24.2178 49.0235 24.2183 49.0235 24.2187C49.0235 24.2192 49.0235 24.2196 49.0235 24.2201C49.0235 24.2205 49.0235 24.221 49.0235 24.2215C49.0235 24.2219 49.0235 24.2224 49.0235 24.2228C49.0235 24.2233 49.0235 24.2237 49.0235 24.2242C49.0235 24.2246 49.0235 24.2251 49.0235 24.2255C49.0235 24.226 49.0235 24.2264 49.0235 24.2269C49.0235 24.2273 49.0235 24.2278 49.0235 24.2282C49.0235 24.2287 49.0235 24.2291 49.0235 24.2296C49.0235 24.23 49.0235 24.2305 49.0235 24.2309C49.0235 24.2314 49.0235 24.2318 49.0235 24.2323C49.0235 24.2327 49.0235 24.2332 49.0235 24.2336C49.0235 24.2341 49.0235 24.2345 49.0235 24.235C49.0235 24.2354 49.0235 24.2359 49.0235 24.2363C49.0235 24.2368 49.0235 24.2372 49.0235 24.2377C49.0235 24.2381 49.0235 24.2386 49.0235 24.239C49.0235 24.2394 49.0235 24.2399 49.0235 24.2403C49.0235 24.2408 49.0235 24.2412 49.0235 24.2417C49.0235 24.2421 49.0235 24.2426 49.0235 24.243C49.0235 24.2435 49.0235 24.2439 49.0235 24.2444C49.0235 24.2448 49.0235 24.2453 49.0235 24.2457C49.0235 24.2462 49.0235 24.2466 49.0235 24.247C49.0235 24.2475 49.0235 24.2479 49.0235 24.2484C49.0235 24.2488 49.0235 24.2493 49.0235 24.2497C49.0235 24.2502 49.0235 24.2506 49.0235 24.2511C49.0235 24.2515 49.0235 24.2519 49.0235 24.2524C49.0235 24.2528 49.0235 24.2533 49.0235 24.2537C49.0235 24.2542 49.0235 24.2546 49.0235 24.2551C49.0235 24.2555 49.0235 24.2559 49.0235 24.2564C49.0235 24.2568 49.0235 24.2573 49.0235 24.2577C49.0235 24.2582 49.0235 24.2586 49.0235 24.259C49.0235 24.2595 49.0235 24.2599 49.0235 24.2604C49.0235 24.2608 49.0235 24.2613 49.0235 24.2617C49.0235 24.2621 49.0235 24.2626 49.0235 24.263C49.0235 24.2635 49.0235 24.2639 49.0235 24.2644C49.0235 24.2648 49.0235 24.2652 49.0235 24.2657C49.0235 24.2661 49.0235 24.2666 49.0235 24.267C49.0235 24.2674 49.0235 24.2679 49.0235 24.2683C49.0235 24.2688 49.0235 24.2692 49.0235 24.2696C49.0235 24.2701 49.0235 24.2705 49.0235 24.271C49.0235 24.2714 49.0235 24.2719 49.0235 24.2723C49.0235 24.2727 49.0235 24.2732 49.0235 24.2736C49.0235 24.274 49.0235 24.2745 49.0235 24.2749C49.0235 24.2754 49.0235 24.2758 49.0235 24.2762C49.0235 24.2767 49.0235 24.2771 49.0235 24.2776C49.0235 24.278 49.0235 24.2784 49.0235 24.2789C49.0235 24.2793 49.0235 24.2798 49.0235 24.2802C49.0235 24.2806 49.0235 24.2811 49.0235 24.2815C49.0235 24.2819 49.0235 24.2824 49.0235 24.2828C49.0235 24.2832 49.0235 24.2837 49.0235 24.2841C49.0235 24.2846 49.0235 24.285 49.0235 24.2854C49.0235 24.2859 49.0235 24.2863 49.0235 24.2867C49.0235 24.2872 49.0235 24.2876 49.0235 24.2881C49.0235 24.2885 49.0235 24.2889 49.0235 24.2894C49.0235 24.2898 49.0235 24.2902 49.0235 24.2907C49.0235 24.2911 49.0235 24.2915 49.0235 24.292C49.0235 24.2924 49.0235 24.2928 49.0235 24.2933C49.0235 24.2937 49.0235 24.2941 49.0235 24.2946C49.0235 24.295 49.0235 24.2954 49.0235 24.2959C49.0235 24.2963 49.0235 24.2967 49.0235 24.2972C49.0235 24.2976 49.0235 24.298 49.0235 24.2985C49.0235 24.2989 49.0235 24.2993 49.0235 24.2998C49.0235 24.3002 49.0235 24.3006 49.0235 24.3011C49.0235 24.3015 49.0235 24.3019 49.0235 24.3024C49.0235 24.3028 49.0235 24.3032 49.0235 24.3037C49.0235 24.3041 49.0235 24.3045 49.0235 24.305C49.0235 24.3054 49.0235 24.3058 49.0235 24.3063C49.0235 24.3067 49.0235 24.3071 49.0235 24.3076C49.0235 24.308 49.0235 24.3084 49.0235 24.3088C49.0235 24.3093 49.0235 24.3097 49.0235 24.3101C49.0235 24.3106 49.0235 24.311 49.0235 24.3114C49.0235 24.3119 49.0235 24.3123 49.0235 24.3127C49.0235 24.3131 49.0235 24.3136 49.0235 24.314C49.0235 24.3144 49.0235 24.3149 49.0235 24.3153C49.0235 24.3157 49.0235 24.3162 49.0235 24.3166C49.0235 24.317 49.0235 24.3174 49.0235 24.3179C49.0235 24.3183 49.0235 24.3187 49.0235 24.3192C49.0235 24.3196 49.0235 24.32 49.0235 24.3204C49.0235 24.3209 49.0235 24.3213 49.0235 24.3217C49.0235 24.3221 49.0235 24.3226 49.0235 24.323C49.0235 24.3234 49.0235 24.3239 49.0235 24.3243C49.0235 24.3247 49.0235 24.3251 49.0235 24.3256C49.0235 24.326 49.0235 24.3264 49.0235 24.3268C49.0235 24.3273 49.0235 24.3277 49.0235 24.3281C49.0235 24.3285 49.0235 24.329 49.0235 24.3294C49.0235 24.3298 49.0235 24.3302 49.0235 24.3307C49.0235 24.3311 49.0235 24.3315 49.0235 24.3319C49.0235 24.3324 49.0235 24.3328 49.0235 24.3332C49.0235 24.3336 49.0235 24.3341 49.0235 24.3345C49.0235 24.3349 49.0235 24.3353 49.0235 24.3358C49.0235 24.3362 49.0235 24.3366 49.0235 24.337C49.0235 24.3375 49.0235 24.3379 49.0235 24.3383C49.0235 24.3387 49.0235 24.3392 49.0235 24.3396C49.0235 24.34 49.0235 24.3404 49.0235 24.3408C49.0235 24.3413 49.0235 24.3417 49.0235 24.3421C49.0235 24.3425 49.0235 24.343 49.0235 24.3434C49.0235 24.3438 49.0235 24.3442 49.0235 24.3446C49.0235 24.3451 49.0235 24.3455 49.0235 24.3459C49.0235 24.3463 49.0235 24.3467 49.0235 24.3472C49.0235 24.3476 49.0235 24.348 49.0235 24.3484C49.0235 24.3489 49.0235 24.3493 49.0235 24.3497C49.0235 24.3501 49.0235 24.3505 49.0235 24.351C49.0235 24.3514 49.0235 24.3518 49.0235 24.3522C49.0235 24.3526 49.0235 24.3531 49.0235 24.3535C49.0235 24.3539 49.0235 24.3543 49.0235 24.3547C49.0235 24.3551 49.0235 24.3556 49.0235 24.356C49.0235 24.3564 49.0235 24.3568 49.0235 24.3572C49.0235 24.3577 49.0235 24.3581 49.0235 24.3585C49.0235 24.3589 49.0235 24.3593 49.0235 24.3597C49.0235 24.3602 49.0235 24.3606 49.0235 24.361C49.0235 24.3614 49.0235 24.3618 49.0235 24.3623C49.0235 24.3627 49.0235 24.3631 49.0235 24.3635H51.0235ZM51.0235 23.5955C51.0235 20.7605 51.9354 18.7551 53.6501 17.4052L52.4129 15.8338C50.117 17.6412 49.0235 20.2865 49.0235 23.5955H51.0235ZM53.642 17.4115C55.4791 15.9954 57.853 15.2515 60.8395 15.2515V13.2515C57.5114 13.2515 54.6799 14.0863 52.421 15.8275L53.642 17.4115ZM60.8395 15.2515C64.1073 15.2515 66.3423 16.0485 67.7484 17.4546L69.1626 16.0404C67.2407 14.1185 64.3984 13.2515 60.8395 13.2515V15.2515ZM67.7668 17.4725C69.2244 18.8573 70.0155 20.8689 70.0155 23.6595H72.0155C72.0155 20.4768 71.0999 17.8804 69.1442 16.0225L67.7668 17.4725ZM70.0155 23.6595V42.5395H72.0155V23.6595H70.0155ZM70.0155 42.5395C70.0155 43.473 70.2325 44.3974 70.9271 45.0149L72.2559 43.5201C72.1825 43.4549 72.0155 43.2273 72.0155 42.5395H70.0155ZM70.9271 45.0149C71.4549 45.4841 72.088 45.7795 72.8075 45.7795V43.7795C72.6736 43.7795 72.4961 43.7336 72.2559 43.5201L70.9271 45.0149ZM72.8075 45.7795H74.8555V43.7795H72.8075V45.7795ZM73.8555 44.7795V48.4275H75.8555V44.7795H73.8555ZM74.3594 47.5593C74.1652 47.6702 73.8081 47.8147 73.2368 47.978L73.7862 49.901C74.4095 49.7229 74.9485 49.5261 75.3516 49.2957L74.3594 47.5593ZM73.2174 47.9837C72.7914 48.1148 72.1954 48.1955 71.3995 48.1955V50.1955C72.3103 50.1955 73.1223 50.1055 73.8056 49.8953L73.2174 47.9837ZM71.3995 48.1955C70.2342 48.1955 69.3143 47.873 68.5767 47.2695L67.3103 48.8175C68.45 49.75 69.8341 50.1955 71.3995 50.1955V48.1955ZM68.5943 47.2842C67.8628 46.6572 67.3447 45.8326 67.0515 44.7696L65.1235 45.3014C65.5129 46.7131 66.2322 47.8938 67.2927 48.8028L68.5943 47.2842ZM66.0875 44.0355H65.7675V46.0355H66.0875V44.0355ZM64.9195 44.5055C64.1584 45.7233 63.1322 46.6953 61.8237 47.4266L62.7993 49.1724C64.3921 48.2824 65.67 47.0784 66.6155 45.5655L64.9195 44.5055ZM61.8326 47.4216C60.5846 48.1024 59.1731 48.4515 57.5755 48.4515V50.4515C59.4766 50.4515 61.2224 50.0327 62.7904 49.1774L61.8326 47.4216ZM58.7915 45.7795C60.089 45.7795 61.3438 45.4282 62.5441 44.756L61.5669 43.011C60.6339 43.5335 59.7127 43.7795 58.7915 43.7795V45.7795ZM62.57 44.741C63.8076 43.9984 64.799 42.921 65.5551 41.5506L63.8039 40.5844C63.1947 41.6887 62.4367 42.4886 61.541 43.026L62.57 44.741ZM65.5422 41.5732C66.3792 40.1453 66.7675 38.4232 66.7675 36.4595H64.7675C64.7675 38.1651 64.4304 39.515 63.8168 40.5618L65.5422 41.5732ZM66.7675 36.4595V33.3875H64.7675V36.4595H66.7675ZM65.7675 32.3875C63.4168 32.3875 61.3236 32.5614 59.496 32.918L59.879 34.881C61.5501 34.5549 63.5102 34.3875 65.7675 34.3875V32.3875ZM59.5151 32.9145C57.6771 33.2361 56.1398 33.8952 54.9812 34.953L56.3298 36.43C57.1339 35.6958 58.2846 35.1602 59.8599 34.8845L59.5151 32.9145ZM54.965 34.9681C53.7672 36.1115 53.2475 37.7355 53.2475 39.6595H55.2475C55.2475 38.0848 55.6665 37.0635 56.346 36.4149L54.965 34.9681ZM53.2475 39.6595C53.2475 41.6572 53.6365 43.3427 54.6924 44.3986L56.1066 42.9844C55.6265 42.5043 55.2475 41.5018 55.2475 39.6595H53.2475ZM54.7327 44.4367C55.7806 45.3743 57.1782 45.7795 58.7915 45.7795V43.7795C57.5035 43.7795 56.6397 43.4593 56.0663 42.9463L54.7327 44.4367ZM82.475 48.6835H81.475V49.6835H82.475V48.6835ZM82.475 15.0195V14.0195H81.475V15.0195H82.475ZM86.443 15.0195L87.4305 14.8621L87.2962 14.0195H86.443V15.0195ZM87.147 19.4355L86.1595 19.5929L86.2938 20.4355H87.147V19.4355ZM87.531 19.4355V20.4355H88.2518L88.4797 19.7517L87.531 19.4355ZM89.515 15.9155L90.2807 16.5587L90.2869 16.5513L90.2929 16.5438L89.515 15.9155ZM95.723 14.7635H96.723V14.0631L96.0648 13.8237L95.723 14.7635ZM95.723 20.2035V21.2035H96.723V20.2035H95.723ZM89.579 21.9315L88.91 21.1882L88.9038 21.1939L88.8976 21.1996L89.579 21.9315ZM87.723 48.6835V49.6835H88.723V48.6835H87.723ZM83.475 48.6835V15.0195H81.475V48.6835H83.475ZM82.475 16.0195H86.443V14.0195H82.475V16.0195ZM85.4555 15.1769L86.1595 19.5929L88.1345 19.2781L87.4305 14.8621L85.4555 15.1769ZM87.147 20.4355H87.531V18.4355H87.147V20.4355ZM88.4797 19.7517C88.8652 18.5952 89.4631 17.5321 90.2807 16.5587L88.7493 15.2723C87.7749 16.4323 87.0501 17.7158 86.5823 19.1193L88.4797 19.7517ZM90.2929 16.5438C90.9771 15.6967 91.9137 15.2515 93.227 15.2515V13.2515C91.383 13.2515 89.8449 13.9156 88.7371 15.2872L90.2929 16.5438ZM93.227 15.2515C93.8838 15.2515 94.355 15.3301 94.6773 15.4473L95.3607 13.5677C94.7444 13.3436 94.0209 13.2515 93.227 13.2515V15.2515ZM94.6773 15.4473C94.6906 15.4521 94.6859 15.4504 94.6991 15.4552C94.7018 15.4562 94.718 15.4621 94.7206 15.463C94.7361 15.4687 94.7475 15.4728 94.7625 15.4783C94.8306 15.5031 94.7354 15.4684 94.8031 15.493C94.8103 15.4957 94.8157 15.4976 94.8228 15.5002C94.8405 15.5067 94.8149 15.4974 94.8326 15.5038C94.8361 15.5051 94.8339 15.5043 94.8374 15.5055C94.8439 15.5079 94.8358 15.505 94.8423 15.5073C94.8434 15.5077 94.8507 15.5104 94.8518 15.5108C94.8519 15.5108 94.8613 15.5142 94.8613 15.5142C94.8621 15.5145 94.8629 15.5148 94.8637 15.5151C94.8645 15.5154 94.8653 15.5157 94.8661 15.5159C94.8668 15.5162 94.8676 15.5165 94.8684 15.5168C94.8692 15.5171 94.87 15.5174 94.8708 15.5177C94.8715 15.5179 94.8723 15.5182 94.8731 15.5185C94.8739 15.5188 94.8746 15.5191 94.8754 15.5194C94.8811 15.5214 94.8744 15.519 94.8801 15.521C94.8834 15.5223 94.886 15.5232 94.8893 15.5244C94.891 15.525 94.8922 15.5255 94.8939 15.5261C94.8967 15.5271 94.8957 15.5267 94.8985 15.5277C94.9128 15.533 94.8932 15.5258 94.9075 15.531C94.9141 15.5334 94.91 15.5319 94.9165 15.5343C94.949 15.5461 94.9018 15.529 94.9342 15.5407C94.9427 15.5438 94.9432 15.544 94.9516 15.547C94.9932 15.5622 94.944 15.5443 94.9853 15.5593C95.1425 15.6165 95.0774 15.5928 95.2053 15.6393C95.2079 15.6403 95.2244 15.6462 95.2266 15.647C95.2597 15.6591 95.2138 15.6424 95.2465 15.6543C95.2885 15.6696 95.2421 15.6527 95.2823 15.6673C95.3163 15.6797 95.3106 15.6776 95.3373 15.6873C95.3426 15.6892 95.3374 15.6873 95.3426 15.6892C95.345 15.6901 95.3427 15.6893 95.3451 15.6902C95.3453 15.6902 95.3455 15.6903 95.3457 15.6904C95.3459 15.6905 95.3462 15.6905 95.3464 15.6906C95.3468 15.6908 95.3471 15.6909 95.3476 15.691C95.3557 15.694 95.3488 15.6915 95.3565 15.6943C95.3637 15.6969 95.3649 15.6974 95.3703 15.6993C95.3704 15.6994 95.3715 15.6997 95.3716 15.6998C95.3732 15.7004 95.3712 15.6996 95.3728 15.7002C95.3729 15.7003 95.373 15.7003 95.3731 15.7003C95.3732 15.7004 95.3733 15.7004 95.3734 15.7004C95.3738 15.7006 95.3737 15.7005 95.374 15.7007C95.3762 15.7014 95.3729 15.7003 95.3751 15.701C95.3751 15.7011 95.3761 15.7014 95.3761 15.7014C95.3764 15.7015 95.3762 15.7015 95.3765 15.7016C95.3766 15.7016 95.3769 15.7017 95.377 15.7017C95.3781 15.7021 95.3767 15.7016 95.3778 15.702C95.3784 15.7023 95.3779 15.7021 95.3785 15.7023C95.3787 15.7024 95.3797 15.7027 95.3797 15.7027C95.3814 15.7034 95.379 15.7025 95.3806 15.703C95.3807 15.7031 95.3808 15.7031 95.3809 15.7032C95.3811 15.7032 95.3809 15.7032 95.3811 15.7032C95.3812 15.7033 95.3811 15.7032 95.3812 15.7033C95.3812 15.7033 95.3812 15.7033 95.3812 15.7033C95.3812 15.7033 95.3812 15.7033 95.3812 15.7033C95.3812 15.7033 95.3812 15.7033 95.3812 15.7033C95.3812 15.7033 95.3812 15.7033 95.3812 15.7033C95.3813 15.7033 95.3813 15.7033 95.3813 15.7033C95.3813 15.7033 95.3813 15.7033 95.723 14.7635C96.0648 13.8237 96.0647 13.8237 96.0647 13.8237C96.0647 13.8237 96.0647 13.8237 96.0647 13.8237C96.0647 13.8237 96.0647 13.8237 96.0647 13.8237C96.0647 13.8237 96.0646 13.8237 96.0646 13.8236C96.0646 13.8236 96.0645 13.8236 96.0645 13.8236C96.0645 13.8236 96.0644 13.8236 96.0644 13.8236C96.0644 13.8236 96.0644 13.8236 96.0644 13.8236C96.0643 13.8236 96.0643 13.8236 96.0643 13.8235C96.0643 13.8235 96.0642 13.8235 96.0642 13.8235C96.0642 13.8235 96.0641 13.8235 96.0641 13.8235C96.064 13.8234 96.0625 13.8229 96.062 13.8227C96.0599 13.822 96.0576 13.8211 96.0537 13.8197C96.0446 13.8164 96.0372 13.8137 96.0207 13.8077C96.0092 13.8035 95.9296 13.7746 95.8887 13.7597C95.7571 13.7118 95.6097 13.6582 95.3607 13.5677L94.6773 15.4473ZM94.723 14.7635V20.2035H96.723V14.7635H94.723ZM95.723 19.2035H93.995V21.2035H95.723V19.2035ZM93.995 19.2035C92.0746 19.2035 90.3666 19.8773 88.91 21.1882L90.248 22.6748C91.3514 21.6817 92.5874 21.2035 93.995 21.2035V19.2035ZM88.8976 21.1996C87.3472 22.6431 86.723 25.0734 86.723 28.1395H88.723C88.723 25.2323 89.3361 23.5239 90.2604 22.6634L88.8976 21.1996ZM86.723 28.1395V48.6835H88.723V28.1395H86.723ZM87.723 47.6835H82.475V49.6835H87.723V47.6835ZM105.159 48.1715L104.49 48.9148L104.499 48.9229L104.508 48.9308L105.159 48.1715ZM103.303 45.2915L102.341 45.5662L102.347 45.5871L102.354 45.6077L103.303 45.2915ZM102.791 19.6915H103.791V18.6915H102.791V19.6915ZM99.911 19.6915H98.911V20.6915H99.911V19.6915ZM99.911 15.0195V14.0195H98.911V15.0195H99.911ZM102.791 15.0195V16.0195H103.675L103.783 15.1419L102.791 15.0195ZM103.943 5.6755V4.6755H103.059L102.951 5.55314L103.943 5.6755ZM108.039 5.6755H109.039V4.6755H108.039V5.6755ZM108.039 15.0195H107.039V16.0195H108.039V15.0195ZM112.583 15.0195H113.583V14.0195H112.583V15.0195ZM112.583 19.6915V20.6915H113.583V19.6915H112.583ZM108.039 19.6915V18.6915H107.039V19.6915H108.039ZM112.583 44.7795H113.583V43.7795H112.583V44.7795ZM112.583 48.4275L113.087 49.2913L113.583 49.0019V48.4275H112.583ZM108.807 48.3235C107.436 48.3235 106.476 47.983 105.81 47.4122L104.508 48.9308C105.634 49.896 107.106 50.3235 108.807 50.3235V48.3235ZM105.828 47.4282C105.111 46.7827 104.584 45.9729 104.252 44.9753L102.354 45.6077C102.79 46.9141 103.501 48.0243 104.49 48.9148L105.828 47.4282ZM104.265 45.0168C103.949 43.9141 103.791 42.7694 103.791 41.5795H101.791C101.791 42.9496 101.974 44.2795 102.341 45.5662L104.265 45.0168ZM103.791 41.5795V19.6915H101.791V41.5795H103.791ZM102.791 18.6915H99.911V20.6915H102.791V18.6915ZM100.911 19.6915V15.0195H98.911V19.6915H100.911ZM99.911 16.0195H102.791V14.0195H99.911V16.0195ZM103.783 15.1419L104.935 5.79786L102.951 5.55314L101.799 14.8971L103.783 15.1419ZM103.943 6.6755H108.039V4.6755H103.943V6.6755ZM107.039 5.6755V15.0195H109.039V5.6755H107.039ZM108.039 16.0195H112.583V14.0195H108.039V16.0195ZM111.583 15.0195V19.6915H113.583V15.0195H111.583ZM112.583 18.6915H108.039V20.6915H112.583V18.6915ZM107.039 19.6915V41.7075H109.039V19.6915H107.039ZM107.039 41.7075C107.039 42.8804 107.326 43.9448 108.076 44.7111C108.831 45.4814 109.885 45.7795 111.047 45.7795V43.7795C110.204 43.7795 109.754 43.5656 109.506 43.3119C109.253 43.0542 109.039 42.5826 109.039 41.7075H107.039ZM111.047 45.7795H112.583V43.7795H111.047V45.7795ZM111.583 44.7795V48.4275H113.583V44.7795H111.583ZM112.079 47.5637C111.243 48.0515 110.169 48.3235 108.807 48.3235V50.3235C110.432 50.3235 111.875 49.9982 113.087 49.2913L112.079 47.5637ZM121.13 48.6835H120.13V49.6835H121.13V48.6835ZM121.13 15.0195V14.0195H120.13V15.0195H121.13ZM126.378 15.0195H127.378V14.0195H126.378V15.0195ZM126.378 48.6835V49.6835H127.378V48.6835H126.378ZM121.002 8.4915H120.002V9.4915H121.002V8.4915ZM121.002 2.4115V1.4115H120.002V2.4115H121.002ZM126.442 2.4115H127.442V1.4115H126.442V2.4115ZM126.442 8.4915V9.4915H127.442V8.4915H126.442ZM122.13 48.6835V15.0195H120.13V48.6835H122.13ZM121.13 16.0195H126.378V14.0195H121.13V16.0195ZM125.378 15.0195V48.6835H127.378V15.0195H125.378ZM126.378 47.6835H121.13V49.6835H126.378V47.6835ZM122.002 8.4915V2.4115H120.002V8.4915H122.002ZM121.002 3.4115H126.442V1.4115H121.002V3.4115ZM125.442 2.4115V8.4915H127.442V2.4115H125.442ZM126.442 7.4915H121.002V9.4915H126.442V7.4915ZM137.42 48.6835H136.42V49.6835H137.42V48.6835ZM137.42 19.6915H138.42V18.6915H137.42V19.6915ZM134.476 19.6915H133.476V20.6915H134.476V19.6915ZM134.476 15.0195V14.0195H133.476V15.0195H134.476ZM137.42 15.0195V16.0195H138.42V15.0195H137.42ZM137.996 5.9315L137.054 5.59516L137.049 5.61024L137.044 5.62549L137.996 5.9315ZM140.044 3.0515L140.655 3.8428L140.66 3.839L140.044 3.0515ZM146.444 2.1555L146.238 3.13405L146.263 3.13929L146.288 3.14326L146.444 2.1555ZM148.492 2.6675H149.492V1.9807L148.851 1.73415L148.492 2.6675ZM148.492 6.3155V7.3155H149.492V6.3155H148.492ZM142.668 15.0195H141.668V16.0195H142.668V15.0195ZM148.492 15.0195H149.492V14.0195H148.492V15.0195ZM148.492 19.6915V20.6915H149.492V19.6915H148.492ZM142.668 19.6915V18.6915H141.668V19.6915H142.668ZM142.668 48.6835V49.6835H143.668V48.6835H142.668ZM138.42 48.6835V19.6915H136.42V48.6835H138.42ZM137.42 18.6915H134.476V20.6915H137.42V18.6915ZM135.476 19.6915V15.0195H133.476V19.6915H135.476ZM134.476 16.0195H137.42V14.0195H134.476V16.0195ZM138.42 15.0195V9.6435H136.42V15.0195H138.42ZM138.42 9.6435C138.42 8.46527 138.596 7.3313 138.948 6.23751L137.044 5.62549C136.628 6.92104 136.42 8.26173 136.42 9.6435H138.42ZM138.938 6.26784C139.305 5.24022 139.879 4.44297 140.655 3.84278L139.433 2.26021C138.332 3.11069 137.541 4.23345 137.054 5.59516L138.938 6.26784ZM140.66 3.839C141.411 3.25173 142.511 2.8995 144.076 2.8995V0.899502C142.228 0.899502 140.64 1.31527 139.428 2.26399L140.66 3.839ZM144.076 2.8995C144.77 2.8995 145.49 2.97654 146.238 3.13405L146.65 1.17695C145.777 0.993132 144.918 0.899502 144.076 0.899502V2.8995ZM146.288 3.14326C147.053 3.26412 147.663 3.42022 148.133 3.60085L148.851 1.73415C148.211 1.48811 147.456 1.30288 146.6 1.16774L146.288 3.14326ZM147.492 2.6675V6.3155H149.492V2.6675H147.492ZM148.492 5.3155H145.676V7.3155H148.492V5.3155ZM145.676 5.3155C144.514 5.3155 143.46 5.61364 142.705 6.38387C141.955 7.15021 141.668 8.21458 141.668 9.3875H143.668C143.668 8.51242 143.882 8.04078 144.135 7.78312C144.383 7.52936 144.833 7.3155 145.676 7.3155V5.3155ZM141.668 9.3875V15.0195H143.668V9.3875H141.668ZM142.668 16.0195H148.492V14.0195H142.668V16.0195ZM147.492 15.0195V19.6915H149.492V15.0195H147.492ZM148.492 18.6915H142.668V20.6915H148.492V18.6915ZM141.668 19.6915V48.6835H143.668V19.6915H141.668ZM142.668 47.6835H137.42V49.6835H142.668V47.6835ZM155.503 60.2035L155.361 61.1935L155.37 61.1947L155.503 60.2035ZM153.775 59.8195H152.775V60.5581L153.48 60.7753L153.775 59.8195ZM153.775 56.1715V55.1715H152.775V56.1715H153.775ZM159.535 54.5715L158.882 53.8141L158.875 53.8198L158.868 53.8256L159.535 54.5715ZM162.286 48.6835L163.265 48.888L163.318 48.6365L163.243 48.3908L162.286 48.6835ZM151.982 15.0195V14.0195H150.631L151.026 15.3122L151.982 15.0195ZM157.742 15.0195L158.705 14.7468L158.498 14.0195H157.742V15.0195ZM163.439 35.1155L162.476 35.3882L162.479 35.3975L162.482 35.4067L163.439 35.1155ZM164.27 38.1235L163.3 38.366L163.305 38.3849L163.311 38.4035L164.27 38.1235ZM165.167 41.1315L164.21 41.4227L164.426 42.1315H165.167V41.1315ZM165.423 41.1315V42.1315H166.203L166.393 41.374L165.423 41.1315ZM166.126 38.0595L165.156 37.817L165.152 37.8362L165.148 37.8555L166.126 38.0595ZM166.895 34.9875L167.865 35.23L167.867 35.2212L166.895 34.9875ZM171.695 15.0195V14.0195H170.906L170.722 14.7858L171.695 15.0195ZM177.007 15.0195L177.972 15.2789L178.31 14.0195H177.007V15.0195ZM168.43 46.9555L167.465 46.6962L167.463 46.701L168.43 46.9555ZM165.999 53.6115L165.1 53.172L165.095 53.1833L165.089 53.1948L165.999 53.6115ZM162.542 58.4755L161.884 57.7229L161.877 57.7287L161.871 57.7345L162.542 58.4755ZM157.551 59.3315C156.864 59.3315 156.226 59.2911 155.635 59.2123L155.37 61.1947C156.059 61.2866 156.786 61.3315 157.551 61.3315V59.3315ZM155.644 59.2136C155.096 59.1353 154.571 59.0184 154.069 58.8637L153.48 60.7753C154.087 60.9619 154.714 61.101 155.361 61.1935L155.644 59.2136ZM154.775 59.8195V56.1715H152.775V59.8195H154.775ZM153.775 57.1715H155.63V55.1715H153.775V57.1715ZM155.63 57.1715C157.318 57.1715 158.85 56.5237 160.201 55.3174L158.868 53.8256C157.83 54.7527 156.759 55.1715 155.63 55.1715V57.1715ZM160.187 55.3289C161.678 54.0435 162.654 51.812 163.265 48.888L161.308 48.479C160.724 51.2724 159.865 52.9662 158.882 53.8141L160.187 55.3289ZM163.243 48.3908L152.939 14.7268L151.026 15.3122L161.33 48.9762L163.243 48.3908ZM151.982 16.0195H157.742V14.0195H151.982V16.0195ZM156.78 15.2922L162.476 35.3882L164.401 34.8428L158.705 14.7468L156.78 15.2922ZM162.482 35.4067C162.775 36.3714 163.048 37.3579 163.3 38.366L165.241 37.881C164.981 36.8411 164.699 35.8222 164.395 34.8243L162.482 35.4067ZM163.311 38.4035C163.61 39.4311 163.91 40.4375 164.21 41.4227L166.123 40.8403C165.826 39.8629 165.528 38.8639 165.23 37.8435L163.311 38.4035ZM165.167 42.1315H165.423V40.1315H165.167V42.1315ZM166.393 41.374C166.652 40.3374 166.889 39.3005 167.105 38.2635L165.148 37.8555C164.937 38.8665 164.705 39.8777 164.452 40.889L166.393 41.374ZM167.097 38.302C167.353 37.278 167.609 36.254 167.865 35.23L165.924 34.745C165.668 35.769 165.412 36.793 165.156 37.817L167.097 38.302ZM167.867 35.2212L172.667 15.2532L170.722 14.7858L165.922 34.7538L167.867 35.2212ZM171.695 16.0195H177.007V14.0195H171.695V16.0195ZM176.041 14.7602L167.465 46.6962L169.396 47.2149L177.972 15.2789L176.041 14.7602ZM167.463 46.701C166.838 49.0771 166.049 51.2328 165.1 53.172L166.897 54.0511C167.91 51.9796 168.743 49.6979 169.398 47.21L167.463 46.701ZM165.089 53.1948C164.196 55.1446 163.121 56.6409 161.884 57.7229L163.201 59.2281C164.695 57.9208 165.924 56.1744 166.908 54.0282L165.089 53.1948ZM161.871 57.7345C160.702 58.7937 159.283 59.3315 157.551 59.3315V61.3315C159.744 61.3315 161.652 60.632 163.214 59.2165L161.871 57.7345Z" fill="white"/>
</g>
<defs>
<clipPath id="clip0">
<rect width="231" height="64.1933" fill="white"/>
</clipPath>
</defs>
</svg>
